<?xml version="1.0" standalone="no"?>
<!DOCTYPE svg PUBLIC "-//W3C//DTD SVG 1.1//EN" "http://www.w3.org/Graphics/SVG/1.1/DTD/svg11.dtd" >
<svg>
<metadata>
Created by FontForge 20090622 at Sun Jan 31 10:48:04 2016
 By ffonts
2015 Iconian Fonts
</metadata>
<defs>
<font id="1968Odyssey3D" horiz-adv-x="582" >
  <font-face 
    font-family="1968 Odyssey 3D"
    font-weight="400"
    font-stretch="normal"
    units-per-em="1000"
    panose-1="0 0 0 0 0 0 0 0 0 0"
    ascent="800"
    descent="-200"
    x-height="635"
    cap-height="635"
    bbox="-7 -191 1146 824"
    underline-thickness="50"
    underline-position="-75"
    unicode-range="U+0020-U+2122"
  />
<missing-glyph horiz-adv-x="500" 
 />
    <glyph glyph-name=".notdef" horiz-adv-x="500" 
 />
    <glyph glyph-name=".null" horiz-adv-x="0" 
 />
    <glyph glyph-name="nonmarkingreturn" horiz-adv-x="500" 
 />
    <glyph glyph-name="space" unicode=" " horiz-adv-x="334" 
 />
    <glyph glyph-name="space" unicode="&#xa0;" horiz-adv-x="334" 
 />
    <glyph glyph-name="FL0021h" unicode="!" horiz-adv-x="252" 
d="M36 344v-114h19v-20h183v405h-20v20h-102v-204q-13 -5 -27 -13.5t-26 -20t-19.5 -25t-7.5 -28.5zM238 189h-20v20h-182v-222h19v-20h183v222zM51 344q0 13 8.5 25.5t20.5 23t26 17.5t25 10v200h72v-375h-152v99zM51 194h152v-192h-152v192z" />
    <glyph glyph-name="FL0022h" unicode="&#x22;" horiz-adv-x="459" 
d="M322 310h20v-20h103v323h-20v20h-183v-220h20v-20h60v-83zM116 310h20v-20h103v323h-20v20h-183v-220h20v-20h60v-83zM131 428h-80v190h153v-293h-73v103zM337 428h-80v190h153v-293h-73v103z" />
    <glyph glyph-name="FL0023h" unicode="#" horiz-adv-x="688" 
d="M36 212h20v-20h58v-205h20v-20h182v225h64v-205h20v-20h181v225h93v133h-20v20h-73v9h93v133h-20v19h-73v109h-20v20h-102v-129h-143v109h-20v20h-102v-129h-158v-132h20v-20h58v-9h-78v-133zM129 330v14q0 11 6.5 22.5t17.5 22.5h-102v103h158v128h72v-128h193v128h72
v-128h93v-103h-93v-59h93v-103h-93v-225h-151v225h-114v-225h-152v225h-78v103h78zM395 330v14q0 11 6.5 22.5t16.5 22.5h-137v-59h114zM380 345h-64v9h64v-9z" />
    <glyph glyph-name="FL0024h" unicode="$" 
d="M405 -118v85h130q15 0 24 12.5t9 25.5v315q0 18 -10.5 33.5t-24.5 27.5q-14 17 -36.5 30t-40.5 18h-217v62h127v-33h20v-20h101v143q0 7 -7 16.5t-18 14.5h1h-1v1v-1q-4 9 -12 16t-18 7h-27v60h-19v20h-184v-80h-50q-7 0 -13 -4t-11 -9t-8 -11t-3 -10v-272q0 -9 6 -17.5
t14 -12.5q4 -9 12.5 -15.5t20.5 -6.5h196v-161q-3 -4 -6 -4h-121v77h-20v19h-183v-183q0 -11 6.5 -21t16.5 -14q5 -10 12.5 -16.5t18.5 -6.5h112v-65h20v-20h183zM217 2h-147q-8 0 -13.5 7.5t-5.5 15.5v169h153v-79q0 -9 6 -13.5t15 -4.5h135q17 0 21 16v188q-4 5 -8 8
t-13 3h-210q-8 0 -13 5.5t-5 11.5v272q0 5 6 12.5t14 7.5h65v79h154v-79h61q8 0 14 -7.5t6 -12.5v-128h-71v36q0 6 -4.5 11.5t-8.5 5.5h-151q-12 0 -13 -14v-85q0 -6 2.5 -7.5t6.5 -3.5h-1q1 -1 2 -1t2 -1h237q12 -3 26 -10t26 -16.5t20 -22t8 -25.5v-315q0 -8 -5 -15.5
t-13 -7.5h-144v-85h-154v85z" />
    <glyph glyph-name="FL0025h" unicode="%" horiz-adv-x="708" 
d="M159 503h106l2 2v31h-109q1 -1 1 -2v0v-31zM570 73l2 2v31h-109q1 -1 1 -2v0v-31h106zM282 501q0 -6 -3 -7.5t-6 -3.5h1q-1 -1 -2 -1t-2 -1h-134q-12 0 -12 13v53q0 6 4.5 11t8.5 5h132q6 0 9.5 -5t3.5 -11v-53zM587 71q0 -6 -3 -7.5t-6 -3.5h1q-1 -1 -2 -1t-2 -1h-134
q-12 0 -12 13v53q0 6 4.5 11.5t8.5 5.5h132q6 0 9.5 -5.5t3.5 -11.5v-53zM354 645q0 5 -6 12.5t-14 7.5h-262q-8 0 -14.5 -7.5t-6.5 -12.5v-243q0 -16 24 -16h261q8 0 13 5.5t5 11.5v242zM659 215q0 5 -6 12.5t-14 7.5h-262q-8 0 -14.5 -7.5t-6.5 -12.5v-243q0 -16 24 -16
h261q8 0 13 5.5t5 11.5v242zM497 273q8 0 13 5.5t5 11.5v330h-71v-258q0 -6 -3 -7.5t-6 -3.5h1q-1 -1 -2 -1t-2 -1h-239q-11 -3 -24.5 -9t-25.5 -15t-20.5 -20.5t-8.5 -25.5v-277h153v260q4 5 8 8t13 3h209zM530 635v-20h20v-345q0 -13 -7 -20h96q10 0 18 -7.5t12 -16.5v1
v-1h1h-1q11 -5 18 -14.5t7 -16.5v-242q0 -11 -9 -21.5t-24 -10.5h-261q-33 0 -38 22q-12 3 -16.5 10.5t-4.5 18.5v243q0 10 11 23h-44q-4 0 -6 -2v-269h-183v20h-20v292q0 25 18.5 43t39.5 29h-62q-34 0 -38 22q-12 3 -16.5 10t-4.5 19v243q0 8 11 21.5t25 13.5h262
q10 0 18 -7.5t12 -16.5q11 -5 18 -14.5t7 -16.5v-242q0 -10 -7 -19h45l2 2v269h101z" />
    <glyph glyph-name="FL0026h" unicode="&#x26;" horiz-adv-x="660" 
d="M429 635h-276q-14 0 -25 -13.5t-11 -21.5v-169q-13 -5 -27 -13.5t-26 -20t-20 -25t-8 -28.5v-319q0 -11 6.5 -21t16.5 -14q5 -10 12.5 -16.5t18.5 -6.5h440q15 0 24 12.5t9 25.5v271h83v134h-20v20h-387v61h123v-33h20v-20h101v142q0 7 -6.5 17t-17.5 15v-1
q-4 9 -12 16.5t-18 7.5zM204 436q0 -8 2 -13t11 -8h394v-104h-71q-10 -1 -12 -11v-275q0 -8 -5 -15.5t-13 -7.5h-440q-8 0 -13.5 7.5t-5.5 15.5v319q0 13 8.5 25.5t21 23t26.5 17.5t25 10v180q0 5 6.5 12.5t14.5 7.5h276q8 0 14 -7.5t6 -12.5v-127h-72v35q0 6 -4.5 11.5
t-8.5 5.5h-147q-5 0 -8.5 -5t-4.5 -10v-74zM223 312q-16 -4 -20 -13v-184q0 -9 6 -13.5t15 -4.5h130q9 0 15 4.5t6 13.5v185q-2 6 -9 9t-9 3h-134zM354 112h-116v161l2 2q1 0 3 1q1 0 1.5 0.5t1.5 0.5h114v-162q0 -3 -6 -3z" />
    <glyph glyph-name="FL0027h" unicode="'" horiz-adv-x="252" 
d="M116 310h20v-20h102v323h-20v20h-182v-220h19v-20h61v-83zM131 428h-80v190h152v-293h-72v103z" />
    <glyph glyph-name="FL0028h" unicode="(" horiz-adv-x="393" 
d="M344 526v94h-192q-8 0 -14.5 -7.5t-6.5 -12.5v-180q-11 -3 -25 -10t-26 -17.5t-20.5 -23t-8.5 -25.5v-319q0 -8 5.5 -15.5t13.5 -7.5h274v95h-119q-9 0 -15 4.5t-6 13.5v393q0 6 4.5 12t8.5 6h127zM238 492q1 -1 1 -3v-377h120v-20h20v-125h-290q-10 0 -17.5 6.5
t-12.5 16.5q-10 4 -16.5 14t-6.5 21v319q0 15 8 28.5t20 25t26 20t26 13.5v169q0 8 11 21.5t25 13.5h207v-20h20v-123h-141z" />
    <glyph glyph-name="FL0029h" unicode=")" horiz-adv-x="393" 
d="M170 112h-134v-125h20v-20h289q14 0 24 12.5t10 25.5v319q0 18 -10.5 33.5t-25.5 27.5q-8 10 -20.5 19l-24.5 17v159q0 6 -7 16t-18 15q-5 8 -12.5 16t-17.5 8h-207v-124h20v-19h120v-377q0 -3 -6 -3zM243 620q8 0 14 -7.5t6 -12.5v-180q11 -3 25 -10t26.5 -17.5t21 -23
t8.5 -25.5v-319q0 -8 -5.5 -15.5t-13.5 -7.5h-274v95h119q9 0 15 4.5t6 13.5v393q0 6 -4.5 12t-8.5 6h-127v94h192z" />
    <glyph glyph-name="FL002Ah" unicode="*" horiz-adv-x="252" 
d="M238 689h-20v20h-182v-221h19v-20h183v221zM51 694h152v-191h-152v191z" />
    <glyph glyph-name="FL002Bh" unicode="+" horiz-adv-x="420" 
d="M296 166v110h110v132h-20v20h-90v88h-19v20h-133v-108h-108v-133h20v-19h88v-90h20v-20h132zM159 310h-108v103h108v108h103v-108h109v-103h-109v-109h-103v109z" />
    <glyph glyph-name="FL002Ch" unicode="," horiz-adv-x="252" 
d="M116 -115h20v-20h102v323h-20v20h-182v-221h19v-20h61v-82zM131 2h-80v191h152v-293h-72v102z" />
    <glyph glyph-name="minus" unicode="-" horiz-adv-x="420" 
d="M51 308h320v102h-320v-102zM56 273v20h-20v131h350v-19h20v-132h-350z" />
    <glyph glyph-name="FL002Eh" unicode="." horiz-adv-x="252" 
d="M51 2h152v190h-152v-190zM238 -33h-183v20h-19v220h182v-20h20v-220z" />
    <glyph glyph-name="FL002Fh" unicode="/" horiz-adv-x="501" 
d="M365 635v-204l-2 -2h-236q-12 -3 -27.5 -10.5t-30 -18t-24 -24.5t-9.5 -32v-357h20v-20h183v308q2 2 6 2h209q15 0 24 10.5t9 21.5v306h-20v20h-102zM434 312h-209q-9 0 -13 -3t-8 -8v-299h-153v342q0 14 8.5 25.5t20.5 20.5t25.5 15t24.5 9h238q1 1 2 1t2 1h-1
q3 2 6 3.5t3 7.5v193h72v-291q0 -6 -5 -11.5t-13 -5.5z" />
    <glyph glyph-name="FL0030h" unicode="0" horiz-adv-x="580" 
d="M532 -33q14 0 24 12.5t10 25.5v575q0 6 -7 16t-18 15q-5 8 -13 16t-18 8h-358q-14 0 -24.5 -13.5t-10.5 -21.5v-169q-13 -5 -27 -13.5t-26 -20t-20 -25t-8 -28.5v-319q0 -11 6.5 -21t16.5 -14q5 -10 12.5 -16.5t18.5 -6.5h442zM70 2q-8 0 -13.5 7.5t-5.5 15.5v319
q0 13 8.5 25.5t21 23t26.5 17.5t25 10v180q0 5 6 12.5t14 7.5h358q8 0 14.5 -7.5t6.5 -12.5v-575q0 -8 -5.5 -15.5t-13.5 -7.5h-442zM205 114q0 -9 6 -13t15 -4h131q9 0 15 4.5t6 13.5v229q0 13 8 25.5t20 23t26 17.5t26 10v91q-1 14 -13 14h-228l-1 -1q-3 -2 -6 -5t-6 -9
v-395zM363 344v-229q0 -3 -6 -3h-118v375q1 1 1.5 2t1.5 2h201v-60q-13 -5 -27 -13.5t-26 -20t-19.5 -25t-7.5 -28.5z" />
    <glyph glyph-name="FL00A7h" unicode="1" horiz-adv-x="252" 
d="M51 2h152v618h-151v-95h65q12 -5 14 -14v-91q-11 -3 -25 -10t-26 -17.5t-20.5 -23t-8.5 -25.5v-342zM218 635v-20h20v-648h-183v20h-19v357q0 15 7.5 28.5t19.5 25t26 20t27 13.5v60h-60v19h-19v125h181z" />
    <glyph glyph-name="FL0032h" unicode="2" 
d="M128 429q-12 -3 -28 -11t-30.5 -20t-24 -26.5t-9.5 -31.5v-353h20v-20h512v221h-20v20h-182v-96h-127v163q2 2 6 2h209q15 0 24 10.5t9 21.5v271q0 7 -7 16.5t-18 14.5q-4 9 -12 16.5t-18 7.5h-315v-125h19v-19h230v-60l-2 -2h-236zM381 511q-1 14 -13 14h-236v95h300
q8 0 14 -7.5t6 -12.5v-271q0 -6 -5 -11.5t-13 -5.5h-209q-9 0 -13 -3t-8 -8v-204h177v96h152v-191h-482v338q0 13 8.5 25.5t20.5 22t26 16.5t25 10h238q1 1 2 1t2 1h-1q3 2 6 3.5t3 7.5v84z" />
    <glyph glyph-name="FL0033h" unicode="3" 
d="M257 429v-132h20v-20h89v-162q0 -3 -6 -3h-121v76h-20v20h-183v-183q0 -11 6.5 -21t16.5 -14q5 -10 12.5 -16.5t18.5 -6.5h445q15 0 24 12.5t9 25.5v319q0 18 -10.5 34t-26.5 28q-8 11 -20 20t-24 16v158q0 7 -7 17t-18 15v-1q-4 9 -12 16.5t-18 7.5h-280q-7 0 -13 -4
t-11 -9.5t-8 -11.5t-3 -10v-142h19v-20h103v51v0q0 1 -1 2h128v-62h-109zM369 414q12 0 12 13v83q-1 5 -5 10t-8 5h-151q-4 0 -8.5 -5.5t-4.5 -11.5v-35h-72v127q0 5 6 12.5t14 7.5h280q8 0 14 -7.5t6 -12.5v-180q12 -3 26 -10t26 -17.5t20.5 -23t8.5 -25.5v-319
q0 -8 -5 -15.5t-13 -7.5h-445q-8 0 -13.5 7.5t-5.5 15.5v168h153v-78q0 -9 6 -13.5t15 -4.5h135q9 0 15 4.5t6 13.5v186q-4 5 -8 8t-13 3h-88v102h97z" />
    <glyph glyph-name="FL0034h" unicode="4" horiz-adv-x="501" 
d="M132 416q-4 2 -6.5 3.5t-2.5 7.5v193h-72v-291q0 -6 5.5 -11.5t13.5 -5.5h209q9 0 13 -3t8 -8v-299h152v342q0 13 -8.5 25.5t-20.5 23t-26 17.5t-26 10v200h-71v-193q0 -13 -12 -13h-153q-1 1 -2 1t-2 1h1zM138 635v-20h20v-186h127v206h101v-20h20v-193q12 -7 24 -16
t20 -20q16 -12 26.5 -28t10.5 -34v-357h-182v20h-20v290h-195q-12 0 -20.5 6.5t-12.5 15.5q-9 4 -15 12.5t-6 17.5v306h102z" />
    <glyph glyph-name="FL0035h" unicode="5" 
d="M452 525v95h-320v-308h228q9 0 13 -3t8 -8v-188q-4 -16 -21 -16h-135q-9 0 -15 4.5t-6 13.5v78h-153v-168q0 -8 5.5 -15.5t13.5 -7.5h445q8 0 13 7.5t5 15.5v315q0 13 -8 25.5t-20 22t-26 16.5t-26 10h-249v111h248zM239 491v-62h217q18 -5 40.5 -18t36.5 -30
q14 -12 24.5 -27.5t10.5 -33.5v-315q0 -13 -9 -25.5t-24 -12.5h-445q-11 0 -18.5 6.5t-12.5 16.5q-10 4 -16.5 14t-6.5 21v183h183v-20h20v-76h121q3 0 6 4v161h-230v20h-19v338h350v-20h20v-124h-248z" />
    <glyph glyph-name="FL0036h" unicode="6" 
d="M431 635h-280q-7 0 -13 -4t-10.5 -9.5t-7.5 -11.5t-3 -10v-169q-13 -5 -27.5 -13.5t-26.5 -20t-19.5 -25t-7.5 -28.5v-319q0 -11 6 -21.5t17 -14.5q4 -8 11.5 -15t18.5 -7h445q14 0 24 12.5t10 25.5v319q0 17 -10 31.5t-24 25.5q-14 19 -37.5 31.5t-40.5 17.5h-218v59v0
q0 1 -1 2h128v-33h20v-20h102v142q0 6 -7 16t-18 15q-5 8 -13 16t-18 8zM203 436q0 -8 2 -13t11 -8h237q11 -3 25 -9.5t26 -15.5t20.5 -21t8.5 -25v-319q0 -8 -5.5 -15.5t-13.5 -7.5h-445q-8 0 -13 7.5t-5 15.5v319q0 13 8.5 25.5t20.5 23t26 17.5t26 10v180q0 5 5.5 12.5
t13.5 7.5h280q8 0 14.5 -7.5t6.5 -12.5v-127h-72v35q0 6 -4.5 11.5t-8.5 5.5h-151q-5 0 -8.5 -5t-4.5 -10v-74zM223 312q-16 -4 -20 -13v-184q0 -9 6 -13.5t15 -4.5h135q9 0 15 4.5t6 13.5v185q-2 6 -9 9t-9 3h-139zM359 112h-121v161l2 2q1 0 3 1q1 0 1.5 0.5t1.5 0.5h119
v-162q0 -3 -6 -3z" />
    <glyph glyph-name="FL0037h" unicode="7" horiz-adv-x="501" 
d="M406 580q0 7 -7 16.5t-18 14.5q-4 9 -12 16.5t-18 7.5h-279q-14 0 -25 -13.5t-11 -21.5v-142h20v-20h102v51v0q0 1 -1 2h128v-504h20v-20h182v357q0 18 -10.5 34t-26.5 28q-8 11 -20 20t-24 16v158zM300 510q-1 5 -5 10t-8 5h-151q-4 0 -8.5 -5.5t-4.5 -11.5v-35h-72v127
q0 5 6.5 12.5t14.5 7.5h279q8 0 14 -7.5t6 -12.5v-180q12 -3 26 -10t26 -17.5t20.5 -23t8.5 -25.5v-342h-152v508z" />
    <glyph glyph-name="FL003Ah" unicode="8" 
d="M239 429h127v62h-128q1 -1 1 -2v0v-60zM204 508q0 6 4.5 11.5t8.5 5.5h151q4 0 8.5 -5.5t4.5 -11.5v-73q-1 -6 -4 -13.5t-9 -7.5h-150q-14 0 -14 22v72zM239 112h121q6 0 6 3v162h-117q-3 0 -6.5 -1.5t-3.5 -3.5v-160zM204 292q0 6 9 13t16 7h129q5 0 12 -5.5t11 -11.5
v-180q0 -9 -6 -13.5t-15 -4.5h-135q-9 0 -15 4.5t-6 13.5v177zM515 2q8 0 13 7.5t5 15.5v319q0 13 -8.5 25.5t-20.5 23t-26 17.5t-26 10v180q0 5 -6 12.5t-14 7.5h-280q-8 0 -14 -7.5t-6 -12.5v-180q-11 -3 -25 -10t-26.5 -17.5t-21 -23t-8.5 -25.5v-319q0 -8 5.5 -15.5
t13.5 -7.5h445zM90 -33q-11 0 -18.5 6.5t-12.5 16.5q-10 4 -16.5 14t-6.5 21v319q0 15 8 28.5t20 25t26 20t27 13.5v169q0 4 3 10t8 11.5t11 9.5t13 4h280q10 0 18 -7.5t12 -16.5v1v-1h1h-1q11 -5 18 -14.5t7 -16.5v-158q12 -7 24 -16t20 -20q16 -12 26.5 -28t10.5 -34v-319
q0 -13 -9 -25.5t-24 -12.5h-445z" />
    <glyph glyph-name="FL04E0h" unicode="9" 
d="M238 429h127v62h-127v-2v-60zM203 508q0 6 3.5 11.5t9.5 5.5h151q4 0 8.5 -5.5t4.5 -11.5v-81q0 -3 -1.5 -5t-8.5 -8h-155q-1 1 -2 1t-2 1h1q-4 2 -6.5 3.5t-2.5 7.5v81zM132 329q0 -6 4.5 -11.5t12.5 -5.5h210q8 0 11.5 -2.5t6.5 -5.5l3 -3v-186q0 -9 -6 -13.5t-15 -4.5
h-135q-9 0 -15 4.5t-6 13.5v78h-152v-168q0 -8 5 -15.5t13 -7.5h445q8 0 13.5 7.5t5.5 15.5v330q-3 12 -12 22.5t-21 19t-25 14.5t-23 9v180q0 5 -6.5 12.5t-14.5 7.5h-280q-8 0 -13.5 -7.5t-5.5 -12.5v-271zM117 600q0 4 3 10t7.5 11.5t10.5 9.5t13 4h280q10 0 18 -8
t13 -16q11 -5 18 -15t7 -16v-159q13 -8 26 -17t22 -20q11 -10 20 -21t13 -25v-333q0 -13 -10 -25.5t-24 -12.5h-445q-11 0 -18.5 7t-11.5 15q-11 4 -17 14.5t-6 21.5v183h182v-20h20v-76h121q6 0 6 3v162h-196q-24 0 -31 22q-11 3 -16 12t-5 18v271z" />
    <glyph glyph-name="FL003Bh" unicode=":" horiz-adv-x="252" 
d="M51 2h152v191h-152v-191zM51 332h152v191h-152v-191zM238 -33h-183v20h-19v221h182v-20h20v-221zM238 297h-183v20h-19v221h182v-20h20v-221z" />
    <glyph glyph-name="FL003Dh" unicode=";" horiz-adv-x="252" 
d="M116 -116h20v-20h102v324h-20v20h-182v-221h19v-20h61v-83zM238 518h-20v20h-182v-221h19v-20h183v221zM131 2h-80v191h152v-294h-72v103zM51 523h152v-191h-152v191z" />
    <glyph glyph-name="FL003Ch" unicode="&#x3c;" horiz-adv-x="410" 
d="M51 414v-102h139q5 0 11 -3t8 -12v-295h152v342q0 13 -8 25.5t-20 23t-26 17.5t-26 10h-68v200h-73v-185q-1 -17 -13 -21h-76zM36 429h86q2 2 3 7v199h103v-20h20v-180h36q17 -5 39 -17.5t36 -31.5q16 -12 26.5 -28t10.5 -34v-357h-182v20h-20v290h-138v20h-20v132z" />
    <glyph glyph-name="FL003Fh" unicode="=" horiz-adv-x="420" 
d="M51 227h320v102h-320v-102zM51 388h320v102h-320v-102zM56 353v20h-20v132h350v-20h20v-132h-350zM56 192v20h-20v132h350v-20h20v-132h-350z" />
    <glyph glyph-name="FL003Eh" unicode="&#x3e;" horiz-adv-x="410" 
d="M396 409h-20v20h-70v186h-20v20h-102v-200h-57q-13 -3 -28.5 -11.5t-29.5 -20.5t-23.5 -27.5t-9.5 -31.5v-357h20v-20h182v307q1 3 4 3h154v132zM203 297v-295h-152v342q0 13 8 25.5t20 23t25.5 17.5t25.5 10h69v200h73v-185q1 -17 12 -21h77v-102h-139q-6 0 -11.5 -3
t-7.5 -12z" />
    <glyph glyph-name="FL0040h" unicode="?" horiz-adv-x="502" 
d="M50 2h153v191h-153v-191zM238 -33h-183v20h-20v221h183v-20h20v-221zM380 427q0 -6 -3 -7.5t-6 -3.5h1q-1 -1 -2 -1t-2 -1h-238q-11 -3 -24.5 -10t-25.5 -16.5t-20.5 -22t-8.5 -25.5v-95h153v56q4 5 8 8t13 3h209q8 0 13 5.5t5 11.5v271q0 5 -6 12.5t-14 7.5h-301v-95
h236q12 0 13 -14v-84zM363 429l2 2v60h-229v19h-20v125h316q10 0 18 -7.5t12 -16.5q11 -5 18 -14.5t7 -16.5v-271q0 -11 -9 -21.5t-24 -10.5h-209q-4 0 -6 -2v-65h-183v20h-20v110q0 17 9.5 31.5t24 26.5t30 20t27.5 11h236z" />
    <glyph glyph-name="FL0044h" unicode="@" horiz-adv-x="840" 
d="M616 277h-10v152q0 7 -6.5 16.5t-17.5 14.5q-4 9 -12 16.5t-18 7.5h-261q-14 0 -25 -13.5t-11 -21.5v-273q0 -11 4.5 -18t16.5 -10q4 -22 38 -22h478q14 0 24 12.5t10 25.5v160q0 18 -10.5 33.5t-25.5 27.5q-8 10 -20.5 19l-24.5 17v159q0 6 -7 16t-18 15q-5 8 -13 16
t-18 8h-536q-14 0 -25 -13.5t-11 -21.5v-169q-13 -5 -27 -13.5t-26 -20t-20 -25t-8 -28.5v-319q0 -11 6.5 -21t16.5 -14q5 -10 12.5 -16.5t18.5 -6.5h579v125h-20v20h-410v377q0 2 -1 3h384v-212q0 -3 -6 -3zM217 526q-4 0 -8.5 -6t-4.5 -12v-393q0 -9 6 -13.5t15 -4.5h409
v-95h-564q-8 0 -13.5 7.5t-5.5 15.5v319q0 13 8.5 25.5t21 23t26.5 17.5t25 10v180q0 5 6.5 12.5t14.5 7.5h536q8 0 14.5 -7.5t6.5 -12.5v-180q11 -3 25 -10t26.5 -17.5t21 -23t8.5 -25.5v-161q0 -8 -5.5 -15t-13.5 -7h-478q-24 0 -24 15v273q0 5 6.5 12.5t14.5 7.5h261
q8 0 14 -7.5t6 -12.5v-187h44q9 0 15 4.5t6 13.5v228q0 6 -4.5 12t-8.5 6h-407zM500 357q0 6 -3.5 11.5t-9.5 5.5h-131q-4 0 -8.5 -5.5t-4.5 -11.5v-82q0 -13 12 -13h133q1 1 2 1t2 1h-1q3 2 6 3.5t3 7.5v82zM378 337v0q0 1 -1 2h108v-60l-2 -2h-105v60z" />
    <glyph glyph-name="FL0041h" unicode="A" 
d="M360 112q6 0 6 3v162h-124q-1 0 -3 -2v-163h121zM361 312q16 -4 20 -13v-184q0 -9 -6 -13.5t-15 -4.5h-135q-9 0 -15 4.5t-6 13.5v185q2 6 9 9t9 3h139zM381 436q0 -8 -2 -13t-11 -8h-237q-11 -3 -25 -9.5t-26 -15.5t-20.5 -21t-8.5 -25v-319q0 -8 5.5 -15.5t13.5 -7.5
h445q8 0 13 7.5t5 15.5v319q0 13 -8.5 25.5t-20.5 23t-26 17.5t-26 10v180q0 5 -6 12.5t-14 7.5h-280q-8 0 -14 -7.5t-6 -12.5v-127h72v35q0 6 4.5 11.5t8.5 5.5h151q4 0 8 -5t5 -10v-74zM366 491h-128q1 -1 1 -2v0v-51h-103v20h-19v142q0 4 3 10t8 11.5t11 9.5t13 4h280
q10 0 18 -7.5t12 -16.5q11 -5 18 -14.5t7 -16.5v-158q12 -7 24 -16t20 -20q16 -12 26.5 -28t10.5 -34v-319q0 -13 -9 -25.5t-24 -12.5h-445q-11 0 -18.5 6.5t-12.5 16.5q-10 4 -16.5 14t-6.5 21v319q0 17 9.5 31t24 25.5t30.5 19t28 10.5h237q1 0 1 6v55z" />
    <glyph glyph-name="FL0042h" unicode="B" 
d="M172 429h166q2 2 3 7v55h-170q0 -1 0.5 -1.5l0.5 -0.5v-60zM239 112h121q6 0 6 3v162h-125q-2 0 -2 -2v-163zM137 508q0 6 4.5 11.5t7.5 5.5h195q3 0 7.5 -5.5t4.5 -11.5v-73q-1 -17 -13 -21h-195q-7 0 -9 3t-2 17v74zM204 295q0 9 6 13t11 4h141q5 0 11 -3t8 -12v-182
q0 -9 -6 -13.5t-15 -4.5h-135q-9 0 -15 4.5t-6 13.5v180zM515 2q8 0 13 7.5t5 15.5v319q0 13 -8 25.5t-20 23t-26 17.5t-26 10h-25v180q0 5 -6.5 12.5t-14.5 7.5h-324q-14 0 -23 -7t-9 -21v-567q0 -8 5.5 -15.5t13.5 -7.5h445zM90 -33q-11 0 -18.5 6.5t-12.5 16.5
q-10 4 -16.5 14t-6.5 21v567q0 22 13.5 32.5t33.5 10.5h324q10 0 18 -8t13 -16q11 -5 18 -15t7 -16v-148q17 -5 36 -17t32 -29q16 -12 26.5 -28t10.5 -34v-319q0 -13 -9 -25.5t-24 -12.5h-445z" />
    <glyph glyph-name="FL0043h" unicode="C" 
d="M381 473h71v127q0 5 -6 12.5t-14 7.5h-280q-8 0 -14 -7.5t-6 -12.5v-180q-11 -3 -25 -10t-26.5 -17.5t-21 -23t-8.5 -25.5v-319q0 -8 5.5 -15.5t13.5 -7.5h445q8 0 13 7.5t5 15.5v168h-152v-78q0 -9 -6 -13.5t-15 -4.5h-135q-9 0 -15 4.5t-6 13.5v393q0 6 4.5 11.5
t8.5 5.5h151q4 0 8.5 -5.5t4.5 -11.5v-35zM366 491h-128q1 -1 1 -2v0v-377h121q6 0 6 3v93h182v-20h20v-183q0 -13 -9 -25.5t-24 -12.5h-445q-11 0 -18.5 6.5t-12.5 16.5q-10 4 -16.5 14t-6.5 21v319q0 15 8 28.5t20 25t26 20t27 13.5v169q0 4 3 10t8 11.5t11 9.5t13 4h280
q10 0 18 -7.5t12 -16.5v1q11 -5 18 -15t7 -17v-142h-101v20h-20v33z" />
    <glyph glyph-name="FL004Ah" unicode="D" horiz-adv-x="580" 
d="M363 122v369h-205v-69q12 -7 24 -16t20 -20q16 -12 26.5 -28t10.5 -34v-212h117q6 0 6 9zM377 114q-1 -9 -7 -13t-14 -4h-131q-9 0 -15 4.5t-6 13.5v229q0 13 -8.5 25.5t-20.5 23t-26 17.5t-25 10v91q1 14 12 14h229l1 -1q3 -2 6 -5t6 -9v-395zM512 2q8 0 13.5 7.5
t5.5 15.5v319q0 13 -8.5 25.5t-21 23t-26.5 17.5t-25 10v180q0 5 -6.5 12.5t-14.5 7.5h-357q-8 0 -14.5 -7.5t-6.5 -12.5v-575q0 -8 5.5 -15.5t13.5 -7.5h442zM90 -33q-11 0 -18.5 6.5t-12.5 16.5q-10 4 -16.5 14t-6.5 21v575q0 8 11 21.5t25 13.5h357q11 0 19 -7.5
t12 -16.5q11 -6 18 -15.5t7 -15.5v-159l24.5 -17t20.5 -19q15 -12 25.5 -27.5t10.5 -33.5v-319q0 -13 -10 -25.5t-24 -12.5h-442z" />
    <glyph glyph-name="FL0046h" unicode="E" 
d="M487 309v271q0 7 -7 17t-18 15v-1q-4 9 -12 16.5t-18 7.5h-280q-7 0 -13 -4t-11 -9.5t-8 -11.5t-3 -10v-170q-11 -5 -24 -12t-24.5 -16t-20.5 -20.5t-12 -23.5v-333q0 -11 6.5 -21t16.5 -14q5 -10 12.5 -16.5t18.5 -6.5h445q15 0 24 12.5t9 25.5v183h-20v20h-182v-93
q0 -3 -6 -3h-121v162q3 3 6 3h209q15 0 24 10.5t9 21.5zM452 329q0 -6 -5 -11.5t-13 -5.5h-209q-8 0 -11.5 -2.5t-6.5 -5.5l-3 -3v-186q0 -9 6 -13.5t15 -4.5h135q9 0 15 4.5t6 13.5v78h152v-168q0 -8 -5 -15.5t-13 -7.5h-445q-8 0 -13.5 7.5t-5.5 15.5v330q3 12 12 22.5
t21 19t25 14.5t23 9v180q0 5 6 12.5t14 7.5h280q8 0 14 -7.5t6 -12.5v-271zM381 508q0 6 -3.5 11.5t-9.5 5.5h-151q-4 0 -8.5 -5.5t-4.5 -11.5v-81q0 -3 1.5 -5t8.5 -8h155q1 1 2 1t2 1h-1q3 2 6 3.5t3 7.5v81zM239 489v0q0 1 -1 2h128v-60l-2 -2h-125v60z" />
    <glyph glyph-name="FL0047h" unicode="F" horiz-adv-x="501" 
d="M204 301q4 5 8 8t13 3h88v102h-97q-12 0 -12 13v83q1 5 4.5 10t8.5 5h150q4 0 8.5 -5.5t4.5 -11.5v-35h72v127q0 5 -6 12.5t-14 7.5h-280q-8 0 -14.5 -7.5t-6.5 -12.5v-180q-11 -3 -24.5 -10t-26 -17.5t-21 -23t-8.5 -25.5v-342h153v299zM432 635q10 0 18 -7.5t12 -16.5
q11 -5 18 -14.5t7 -16.5v-142h-102v20h-20v33h-127q1 -1 1 -2v0v-60h89v-20h19v-132h-102q-4 0 -6 -2v-308h-183v20h-20v357q0 15 8 28.5t20 25t26 20t26 13.5v169q0 8 11 21.5t25 13.5h280z" />
    <glyph glyph-name="FL0048h" unicode="G" 
d="M271 415v-103h92q2 0 9 -3t9 -9v-185q0 -9 -6 -13.5t-15 -4.5h-135q-9 0 -15 4.5t-6 13.5v393q0 6 4.5 11.5t8.5 5.5h235v95h-300q-8 0 -14 -7.5t-6 -12.5v-180q-11 -3 -25 -10t-26.5 -17.5t-21 -23t-8.5 -25.5v-319q0 -8 5.5 -15.5t13.5 -7.5h445q8 0 13 7.5t5 15.5v319
q0 13 -8 25t-20 21t-26 15.5t-26 9.5h-182zM256 430h200q19 -5 42 -18t37 -31q14 -11 23.5 -25t9.5 -32v-319q0 -13 -9 -25.5t-24 -12.5h-445q-11 0 -18.5 6.5t-12.5 16.5q-10 4 -16.5 14t-6.5 21v319q0 15 8 28.5t20 25t26 20t27 13.5v169q0 4 3 10t8 11.5t11 9.5t13 4h315
v-20h20v-124h-249q1 -1 1 -2v0v-377h121q6 0 6 3v162h-90v20h-20v133z" />
    <glyph glyph-name="FL0049h" unicode="H" 
d="M381 427q0 -6 -3 -7.5t-6 -3.5h1q-1 -1 -2 -1t-2 -1h-153q-12 0 -12 13v193h-72v-200q-11 -3 -25 -10t-26.5 -17.5t-21 -23t-8.5 -25.5v-342h153v299q4 5 8 8t13 3h138q2 0 9 -3t9 -9v-298h152v342q0 13 -8.5 25.5t-20.5 23t-26 17.5t-26 10v200h-71v-193zM364 429l2 2
v204h101v-20h20v-193q12 -7 24 -16t20 -20q16 -12 26.5 -28t10.5 -34v-357h-182v20h-20v290h-121q-4 0 -6 -2v-308h-183v20h-20v357q0 15 8 28.5t20 25t26 20t27 13.5v204h102v-20h20v-186h125z" />
    <glyph glyph-name="FL006Ah" unicode="I" horiz-adv-x="330" 
d="M51 2h230v354q0 10 -10 21t-23.5 20t-26.5 15.5t-19 7.5v200h-73v-200l-3 -1.5t-6 -2.5l-19.5 -10t-22.5 -14t-19 -17.5t-8 -19.5v-353zM56 -33v20h-20v368q0 13 8.5 25t20.5 21.5t24.5 16l20.5 10.5q1 1 4 1v206h102v-20h20v-194q13 -8 27 -18t23 -22q12 -10 21 -22
t9 -23v-369h-260z" />
    <glyph glyph-name="FL006Bh" unicode="J" 
d="M366 115q0 -3 -6 -3h-121v226h-20v20h-183v-333q0 -11 6.5 -21t16.5 -14q5 -10 12.5 -16.5t18.5 -6.5h445q15 0 24 12.5t9 25.5v319q0 18 -10.5 34t-26.5 28q-8 11 -20 20t-24 16v193h-20v20h-101v-520zM533 344v-319q0 -8 -5 -15.5t-13 -7.5h-445q-8 0 -13.5 7.5
t-5.5 15.5v318h153v-228q0 -9 6 -13.5t15 -4.5h135q9 0 15 4.5t6 13.5v505h71v-200q12 -3 26 -10t26 -17.5t20.5 -23t8.5 -25.5z" />
    <glyph glyph-name="FL004Ch" unicode="K" 
d="M137 620h-86v-618h153v293q0 9 6 13t11 4h141q5 0 11 -3t8 -12v-295h152v342q0 13 -8 25.5t-20 23t-26 17.5t-26 10h-68v200h-73v-185q-1 -17 -13 -21h-140q-15 0 -18.5 3t-3.5 17v186zM172 429h122q2 2 3 7v199h103v-20h19v-180h37q17 -5 39 -17.5t36 -31.5
q16 -12 26.5 -28t10.5 -34v-357h-182v20h-20v290h-125q-2 0 -2 -2v-308h-183v20h-20v648h116v-20h20v-186z" />
    <glyph glyph-name="FL004Dh" unicode="L" 
d="M225 97q-9 0 -15 4.5t-6 13.5v505h-72v-200q-11 -3 -25 -10t-26.5 -17.5t-21 -23t-8.5 -25.5v-319q0 -8 5.5 -15.5t13.5 -7.5h445q8 0 13 7.5t5 15.5v168h-152v-78q0 -9 -6 -13.5t-15 -4.5h-135zM36 344q0 15 8 28.5t20 25t26 20t27 13.5v204h102v-20h20v-503h121
q6 0 6 3v93h182v-20h20v-183q0 -13 -9 -25.5t-24 -12.5h-445q-11 0 -18.5 6.5t-12.5 16.5q-10 4 -16.5 14t-6.5 21v319z" />
    <glyph glyph-name="FL006Dh" unicode="M" horiz-adv-x="832" 
d="M737 580q0 6 -7 16t-18 15q-5 8 -13 16t-18 8h-528q-14 0 -25 -13.5t-11 -21.5v-169q-13 -5 -27 -13.5t-26 -20t-20 -25t-8 -28.5v-357h20v-20h183v522v0q0 1 -1 2h128v-60q-13 -5 -27 -14t-25.5 -20.5t-19 -25t-7.5 -27.5v-357h20v-20h261v357q0 18 -11 34.5t-26 28.5
q-8 10 -19.5 18.5t-23.5 16.5v67v0q0 1 -1 2h127v-504h20v-20h184v357q0 18 -10.5 33.5t-25.5 27.5q-8 10 -20.5 19l-24.5 17v159zM629 508q0 6 -4.5 11.5t-8.5 5.5h-150q-3 0 -8 -5.5t-5 -11.5v-88q12 -3 26 -10t26 -17.5t20 -23t8 -25.5v-342h-231v342q0 13 8 25.5t20 23
t25.5 17.5t25.5 10v88q0 6 -4.5 11.5t-8.5 5.5h-151q-4 0 -8.5 -5.5t-4.5 -11.5v-506h-153v342q0 13 8.5 25.5t21 23t26.5 17.5t25 10v180q0 5 6.5 12.5t14.5 7.5h528q8 0 14.5 -7.5t6.5 -12.5v-180q11 -3 25 -10t26.5 -17.5t21 -23t8.5 -25.5v-342h-154v506z" />
    <glyph glyph-name="FL004Eh" unicode="N" 
d="M487 580q0 7 -7 16.5t-18 14.5h1h-1v1v-1q-4 9 -12 16.5t-18 7.5h-280q-7 0 -13 -4t-11 -9.5t-8 -11.5t-3 -10v-169q-13 -5 -27 -13.5t-26 -20t-20 -25t-8 -28.5v-357h20v-20h183v522v0q0 1 -1 2h128v-504h20v-20h182v357q0 18 -10.5 34t-26.5 28q-8 11 -20 20t-24 16
v158zM381 508q0 6 -4.5 11.5t-8.5 5.5h-151q-4 0 -8.5 -5.5t-4.5 -11.5v-506h-153v342q0 13 8.5 25.5t21 23t26.5 17.5t25 10v180q0 5 6 12.5t14 7.5h280q8 0 14 -7.5t6 -12.5v-180q12 -3 26 -10t26 -17.5t20.5 -23t8.5 -25.5v-342h-152v506z" />
    <glyph glyph-name="FL004Fh" unicode="O" 
d="M535 -33q15 0 24 12.5t9 25.5v319q0 18 -10.5 34t-26.5 28q-8 11 -20 20t-24 16v158q0 7 -7 17t-18 15v-1q-4 9 -12 16.5t-18 7.5h-280q-7 0 -13 -4t-11 -9.5t-8 -11.5t-3 -10v-169q-13 -5 -27 -13.5t-26 -20t-20 -25t-8 -28.5v-319q0 -11 6.5 -21t16.5 -14
q5 -10 12.5 -16.5t18.5 -6.5h445zM70 2q-8 0 -13.5 7.5t-5.5 15.5v319q0 13 8.5 25.5t21 23t26.5 17.5t25 10v180q0 5 6 12.5t14 7.5h280q8 0 14 -7.5t6 -12.5v-180q12 -3 26 -10t26 -17.5t20.5 -23t8.5 -25.5v-319q0 -8 -5 -15.5t-13 -7.5h-445zM381 508q0 6 -4.5 11.5
t-8.5 5.5h-151q-4 0 -8.5 -5.5t-4.5 -11.5v-393q0 -9 6 -13.5t15 -4.5h135q9 0 15 4.5t6 13.5v393zM360 112h-121v377v0q0 1 -1 2h128v-376q0 -3 -6 -3z" />
    <glyph glyph-name="FL0050h" unicode="P" 
d="M568 311v269q0 7 -7 16.5t-18 14.5q-4 9 -12 16.5t-18 7.5h-361q-7 0 -13 -4t-11 -9.5t-8 -11.5t-3 -10v-169q-13 -5 -27 -13.5t-26 -20t-20 -25t-8 -28.5v-357h20v-20h183v308q2 2 6 2h288q14 0 24.5 12t10.5 22zM533 331q0 -6 -6 -12.5t-14 -6.5h-288q-9 0 -13 -3
t-8 -8v-299h-153v342q0 13 8.5 25.5t21 23t26.5 17.5t25 10v180q0 5 6 12.5t14 7.5h361q8 0 14 -7.5t6 -12.5v-269zM461 508q0 6 -3.5 11.5t-9.5 5.5h-231q-4 0 -8.5 -5.5t-4.5 -11.5v-81q0 -13 12 -13h233q1 1 2 1t2 1h-1q3 2 6 3.5t3 7.5v81zM239 429v60v0q0 1 -1 2h208
v-60l-2 -2h-205z" />
    <glyph glyph-name="FL0051h" unicode="Q" 
d="M239 112h36q2 1 4 2.5t4 6.5v123q0 35 13.5 48.5t44.5 13.5h25v185h-128q1 -1 1 -2v0v-377zM204 508q0 6 4.5 11.5t8.5 5.5h151q4 0 8.5 -5.5t4.5 -11.5v-217h-40q-23 0 -33 -10.5t-10 -36.5v-126q-2 -12 -7 -15.5t-14 -5.5h-52q-9 0 -15 4.5t-6 13.5v393zM515 2
q8 0 13 7.5t5 15.5v319q0 13 -8.5 25.5t-20.5 23t-26 17.5t-26 10v180q0 5 -6 12.5t-14 7.5h-280q-8 0 -14 -7.5t-6 -12.5v-180q-11 -3 -25 -10t-26.5 -17.5t-21 -23t-8.5 -25.5v-319q0 -8 5.5 -15.5t13.5 -7.5h445zM90 -33q-11 0 -18.5 6.5t-12.5 16.5q-10 4 -16.5 14
t-6.5 21v319q0 15 8 28.5t20 25t26 20t27 13.5v169q0 4 3 10t8 11.5t11 9.5t13 4h280q10 0 18 -7.5t12 -16.5q11 -5 18 -14.5t7 -16.5v-158q12 -7 24 -16t20 -20q16 -12 26.5 -28t10.5 -34v-319q0 -13 -9 -25.5t-24 -12.5h-445z" />
    <glyph glyph-name="FL005Eh" unicode="R" 
d="M172 429h167q2 2 3 7v55h-171q0 -1 0.5 -1.5l0.5 -0.5v-60zM137 508q0 6 4.5 11.5t7.5 5.5h196q3 0 7.5 -5.5t4.5 -11.5v-73q-1 -17 -13 -21h-193q-9 0 -11.5 3t-2.5 17v74zM204 295q0 9 6 13t11 4h141q5 0 11 -3t8 -12v-295h152v342q0 13 -8 25.5t-20 23t-26 17.5
t-26 10h-24v180q0 5 -6.5 12.5t-14.5 7.5h-325q-14 0 -23 -7t-9 -21v-590h153v293zM239 -33h-183v20h-20v605q0 22 13.5 32.5t33.5 10.5h325q10 0 18 -8t13 -16q11 -5 18 -15t7 -16v-148q17 -6 35.5 -18t31.5 -28q16 -12 26.5 -28t10.5 -34v-357h-182v20h-20v290h-125
q-2 0 -2 -2v-308z" />
    <glyph glyph-name="FL005Ah" unicode="S" 
d="M204 511q1 14 13 14h151q4 0 8.5 -5.5t4.5 -11.5v-35h71v127q0 5 -6 12.5t-14 7.5h-280q-8 0 -14 -7.5t-6 -12.5v-271q0 -6 5 -11.5t13 -5.5h210q9 0 13 -3t8 -8v-188q-4 -16 -21 -16h-135q-9 0 -15 4.5t-6 13.5v78h-153v-168q0 -8 5.5 -15.5t13.5 -7.5h445q8 0 13 7.5
t5 15.5v315q0 13 -8 25.5t-20 22t-26 16.5t-26 10h-237q-1 1 -2 1t-2 1h1q-4 2 -6.5 3.5t-2.5 7.5v84zM386 438v20h-20v33h-127v-62h217q18 -5 40.5 -18t36.5 -30q14 -12 24.5 -27.5t10.5 -33.5v-315q0 -13 -9 -25.5t-24 -12.5h-445q-11 0 -18.5 6.5t-12.5 16.5
q-10 4 -16.5 14t-6.5 21v183h183v-20h20v-76h121q3 0 6 4v161h-196q-12 0 -20.5 6.5t-12.5 15.5q-8 4 -14 12.5t-6 17.5v271q0 4 3 10t8 11.5t11 9.5t13 4h280q10 0 18 -7.5t12 -16.5q11 -5 18 -14.5t7 -16.5v-142h-101z" />
    <glyph glyph-name="FL0054h" unicode="T" horiz-adv-x="499" 
d="M135 2h230v354q0 10 -10 21t-23 20t-26 15.5t-19 7.5v87q1 10 13 18h150v95h-399v-95h149q11 -6 13 -14v-91l-3 -1.5t-6 -2.5l-19.5 -10t-22.5 -14.5t-19 -17.5t-8 -19v-353zM140 -33v20h-20v368q0 13 8.5 24.5t20.5 21t24.5 16.5t20.5 11q1 1 4 1v62h-142v19h-20v125
h429v-20h20v-124h-159q-4 -4 -4 -5v-65q13 -8 25.5 -18t21.5 -21q13 -11 22 -22.5t9 -23.5v-369h-260z" />
    <glyph glyph-name="FL005Bh" unicode="U" 
d="M366 115q0 -3 -6 -3h-121v503h-20v20h-102v-204q-13 -5 -27 -13.5t-26 -20t-20 -25t-8 -28.5v-319q0 -11 6.5 -21t16.5 -14q5 -10 12.5 -16.5t18.5 -6.5h445q15 0 24 12.5t9 25.5v319q0 18 -10.5 34t-26.5 28q-8 11 -20 20t-24 16v193h-20v20h-101v-520zM533 344v-319
q0 -8 -5 -15.5t-13 -7.5h-445q-8 0 -13.5 7.5t-5.5 15.5v319q0 13 8.5 25.5t21 23t26.5 17.5t25 10v200h72v-505q0 -9 6 -13.5t15 -4.5h135q9 0 15 4.5t6 13.5v505h71v-200q12 -3 26 -10t26 -17.5t20.5 -23t8.5 -25.5z" />
    <glyph glyph-name="FL00A4h" unicode="V" horiz-adv-x="501" 
d="M287 116q0 -4 -10 -4h-40v212q0 18 -10.5 34t-25.5 28q-8 10 -19.5 18.5t-23.5 16.5v194h-20v20h-102v-610q0 -11 6.5 -21t16.5 -14q5 -10 12.5 -16.5t18.5 -6.5h364q15 0 24 12.5t9 25.5v610h-20v20h-102v-204q-13 -5 -26.5 -14t-25 -20.5t-19 -25t-7.5 -27.5v-228z
M302 344q0 13 8 25.5t19.5 23t25 17.5t25.5 10v200h72v-595q0 -8 -5 -15.5t-13 -7.5h-364q-8 0 -13.5 7.5t-5.5 15.5v595h72v-200q12 -3 25.5 -10t25.5 -17.5t20 -23t8 -25.5v-227l2 -3q0 -9 6 -13t15 -4h52q8 0 16.5 5t8.5 14v228z" />
    <glyph glyph-name="FL0057h" unicode="W" horiz-adv-x="832" 
d="M629 115q0 -9 -6 -13.5t-15 -4.5h-74v247q0 13 -8.5 25.5t-20.5 23t-26 17.5t-26 10v200h-72v-200q-12 -3 -26 -10t-26 -17.5t-20.5 -23t-8.5 -25.5v-247h-75q-9 0 -15 4.5t-6 13.5v505h-72v-200q-11 -3 -25 -10t-26.5 -17.5t-21 -23t-8.5 -25.5v-319q0 -8 5.5 -15.5
t13.5 -7.5h694q8 0 13.5 7.5t5.5 15.5v319q0 13 -8.5 25.5t-21 23t-26.5 17.5t-25 10v200h-73v-505zM614 635h103v-20h20v-194l24.5 -17t20.5 -19q15 -12 25.5 -27.5t10.5 -33.5v-319q0 -13 -10 -25.5t-24 -12.5h-694q-11 0 -18.5 6.5t-12.5 16.5q-10 4 -16.5 14t-6.5 21
v319q0 15 8 28.5t20 25t26 20t27 13.5v204h102v-20h20v-503h46v232q0 15 7.5 28.5t19.5 25t26.5 20t27.5 13.5v204h102v-20h20v-193q12 -7 24 -16t20 -20q16 -12 26.5 -28t10.5 -34v-212h39q6 0 6 3v520z" />
    <glyph glyph-name="FL0059h" unicode="X" horiz-adv-x="584" 
d="M295 635h-183v-206q-12 -5 -25 -13t-24.5 -19t-19 -24.5t-7.5 -28.5v-357h20v-20h102v304v4t1 2h209v-290h20v-20h182v357q0 18 -10.5 34t-26.5 28q-8 11 -20 20t-24 16v193h-20v20h-101v-206h-53v186h-20v20zM371 414q12 0 12 13v193h71v-200q12 -3 26 -10t26 -17.5
t20.5 -23t8.5 -25.5v-342h-152v290q-1 7 -7.5 12.5t-10.5 7.5h-226q-5 0 -10 -8t-5 -13v-289h-73v342q0 13 8 25.5t20 22.5t25 17t23 10v201h153v-195q3 -6 18 -11h73z" />
    <glyph glyph-name="FL005Ch" unicode="Y" 
d="M204 620h-72v-291q0 -6 5 -11.5t13 -5.5h210q9 0 13 -3t8 -8v-188q-4 -16 -21 -16h-135q-9 0 -15 4.5t-6 13.5v78h-153v-168q0 -8 5.5 -15.5t13.5 -7.5h445q8 0 13 7.5t5 15.5v319q0 13 -8.5 25.5t-20.5 23t-26 17.5t-26 10v200h-71v-193q0 -13 -12 -13h-153q-1 1 -2 1
t-2 1h1q-4 2 -6.5 3.5t-2.5 7.5v193zM239 429h127v206h101v-20h20v-193q12 -7 24 -16t20 -20q16 -12 26.5 -28t10.5 -34v-319q0 -13 -9 -25.5t-24 -12.5h-445q-11 0 -18.5 6.5t-12.5 16.5q-10 4 -16.5 14t-6.5 21v183h183v-20h20v-76h121q3 0 6 4v161h-196q-12 0 -20.5 6.5
t-12.5 15.5q-8 4 -14 12.5t-6 17.5v306h102v-20h20v-186z" />
    <glyph glyph-name="FL0B3Eh" unicode="Z" 
d="M36 340v-315q0 -11 6 -21.5t17 -14.5q4 -8 11.5 -15t18.5 -7h445q14 0 24 12.5t10 25.5v183h-20v20h-183v-93q0 -3 -6 -3h-121v163q2 2 6 2h243v338h-20v20h-350v-177h19v-20h102v53h127v-62h-237q-13 -3 -29 -11t-30 -20t-23.5 -26.5t-9.5 -31.5zM380 525h-177v-52h-71
v147h320v-308h-228q-9 0 -13 -3t-8 -8v-188q4 -16 21 -16h135q9 0 15 4.5t6 13.5v78h153v-168q0 -8 -5.5 -15.5t-13.5 -7.5h-445q-8 0 -13 7.5t-5 15.5v315q0 13 8 25.5t20 22t26 16.5t26 10h249v111z" />
    <glyph glyph-name="FL005Fh" unicode="[" horiz-adv-x="312" 
d="M263 526v94h-192q-8 0 -14 -7.5t-6 -12.5v-575q0 -8 5.5 -15.5t12.5 -7.5h194v95h-119q-9 0 -15 4.5t-6 13.5v393q0 6 4.5 12t8.5 6h127zM157 492q1 -1 1 -3v-377h120v-20h20v-125h-209q-11 0 -18 6.5t-12 16.5q-10 4 -16.5 14t-6.5 21v575q0 4 3 10t8 11.5t11 9.5t13 4
h207v-20h20v-123h-141z" />
    <glyph glyph-name="FL005Dh" unicode="\" horiz-adv-x="501" 
d="M132 416q-4 2 -6.5 3.5t-2.5 7.5v193h-72v-291q0 -6 5.5 -11.5t13.5 -5.5h209q9 0 13 -3t8 -8v-299h152v342q0 14 -8 25.5t-20 20.5t-26 15t-26 9h-237q-1 1 -2 1t-2 1h1zM138 635v-20h20v-186h217q18 -5 41.5 -17t37.5 -31q14 -11 23.5 -25t9.5 -32v-357h-182v20h-20
v290h-195q-12 0 -20.5 6.5t-12.5 15.5q-9 4 -15 12.5t-6 17.5v306h102z" />
    <glyph glyph-name="FL0060h" unicode="]" horiz-adv-x="312" 
d="M170 112h-134v-125h20v-20h208q14 0 24 12.5t10 25.5v575q0 6 -7 16t-18 15q-5 8 -13 16t-18 8h-206v-124h20v-19h120v-377q0 -3 -6 -3zM242 620q8 0 14.5 -7.5t6.5 -12.5v-575q0 -8 -5.5 -15.5t-13.5 -7.5h-193v95h119q9 0 15 4.5t6 13.5v393q0 6 -4.5 12t-8.5 6h-127
v94h191z" />
    <glyph glyph-name="FL0EA5h" unicode="^" horiz-adv-x="501" 
d="M158 112h121q6 0 6 3v376h-128q1 -1 1 -2v0v-377zM123 508q0 6 4.5 11.5t8.5 5.5h151q4 0 8.5 -5.5t4.5 -11.5v-393q0 -9 -6 -13.5t-15 -4.5h-135q-9 0 -15 4.5t-6 13.5v393zM434 2q8 0 13 7.5t5 15.5v319q0 13 -8.5 25.5t-20.5 23t-26 17.5t-26 10v180q0 5 -6 12.5
t-14 7.5h-279q-8 0 -14.5 -7.5t-6.5 -12.5v-575q0 -8 5.5 -15.5t13.5 -7.5h364zM90 -33q-11 0 -18.5 6.5t-12.5 16.5q-10 4 -16.5 14t-6.5 21v575q0 8 11 21.5t25 13.5h279q10 0 18 -7.5t12 -16.5q11 -5 18 -14.5t7 -16.5v-158q12 -7 24 -16t20 -20q16 -12 26.5 -28
t10.5 -34v-319q0 -13 -9 -25.5t-24 -12.5h-364z" />
    <glyph glyph-name="FL0064h" unicode="_" horiz-adv-x="518" 
d="M51 2h418v98h-418v-98zM56 -33v20h-20v127h448v-19h20v-128h-448z" />
    <glyph glyph-name="FL0055h" unicode="`" horiz-adv-x="501" 
d="M158 429h125l2 2v60h-128q1 -1 1 -2v0v-60zM300 427q0 -6 -3 -7.5t-6 -3.5h1q-1 -1 -2 -1t-2 -1h-154q-11 1 -11 13v83q1 5 4.5 10t8.5 5h151q6 0 9.5 -5.5t3.5 -11.5v-81zM51 2h151v296q1 1 1.5 2t1.5 2q3 4 5 7t8 3h68q4 -1 9 -7.5t5 -11.5v-291h152v342
q0 13 -8.5 25.5t-20.5 23t-26 17.5t-26 10v180q0 5 -6 12.5t-14 7.5h-279q-8 0 -14.5 -7.5t-6.5 -12.5v-598zM36 600q0 8 11 21.5t25 13.5h279q10 0 18 -7.5t12 -16.5q11 -5 18 -14.5t7 -16.5v-158q12 -7 24 -16t20 -20q16 -12 26.5 -28t10.5 -34v-357h-182v20h-20v290h-45
q0 -2 -3 -5v-305h-181v20h-20v613z" />
    <glyph glyph-name="FL0061h" unicode="a" 
d="M568 -33v357q0 18 -10.5 34t-26.5 28q-8 11 -20 20t-24 16v158q0 7 -7 17t-18 15v-1q-4 9 -12 16.5t-18 7.5h-280q-7 0 -13 -4t-11 -9.5t-8 -11.5t-3 -10v-169q-13 -5 -27 -13.5t-26 -20t-20 -25t-8 -28.5v-357h20v-20h183v308q2 2 6 2h121v-290h20v-20h182zM381 300
q-2 6 -9 9t-9 3h-138q-9 0 -13 -3t-8 -8v-299h-153v342q0 13 8.5 25.5t21 23t26.5 17.5t25 10v180q0 5 6 12.5t14 7.5h280q8 0 14 -7.5t6 -12.5v-180q12 -3 26 -10t26 -17.5t20.5 -23t8.5 -25.5v-342h-152v298zM381 508q0 6 -3.5 11.5t-9.5 5.5h-151q-4 0 -8.5 -5.5
t-4.5 -11.5v-81q0 -13 12 -13h153q1 1 2 1t2 1h-1q3 2 6 3.5t3 7.5v81zM239 429v60v0q0 1 -1 2h128v-60l-2 -2h-125z" />
    <glyph glyph-name="FL0045h" unicode="b" 
d="M172 429h122q2 2 3 7v55h-126q0 -1 0.5 -1.5l0.5 -0.5v-60zM137 508q0 6 4.5 11.5t7.5 5.5h151q3 0 7.5 -5.5t4.5 -11.5v-73q-1 -17 -13 -21h-151q-7 0 -9 3t-2 17v74zM239 112h121q6 0 6 3v162h-125q-2 0 -2 -2v-163zM204 295q0 9 6 13t11 4h141q5 0 11 -3t8 -12v-182
q0 -9 -6 -13.5t-15 -4.5h-135q-9 0 -15 4.5t-6 13.5v180zM515 2q8 0 13 7.5t5 15.5v319q0 13 -8 25.5t-20 23t-26 17.5t-26 10h-68v180q0 5 -6.5 12.5t-14.5 7.5h-281q-14 0 -23 -7t-9 -21v-567q0 -8 5.5 -15.5t13.5 -7.5h445zM90 -33q-11 0 -18.5 6.5t-12.5 16.5
q-10 4 -16.5 14t-6.5 21v567q0 22 13.5 32.5t33.5 10.5h281q10 0 18 -8t13 -16q10 -5 17 -15t7 -16v-145h37q17 -5 39 -17.5t36 -31.5q16 -12 26.5 -28t10.5 -34v-319q0 -13 -9 -25.5t-24 -12.5h-445z" />
    <glyph glyph-name="FL0063h" unicode="c" 
d="M381 473h71v127q0 5 -6 12.5t-14 7.5h-280q-8 0 -14 -7.5t-6 -12.5v-180q-11 -3 -25 -10t-26.5 -17.5t-21 -23t-8.5 -25.5v-319q0 -8 5.5 -15.5t13.5 -7.5h445q8 0 13 7.5t5 15.5v168h-152v-78q0 -9 -6 -13.5t-15 -4.5h-135q-9 0 -15 4.5t-6 13.5v393q0 6 4.5 11.5
t8.5 5.5h151q4 0 8.5 -5.5t4.5 -11.5v-35zM366 491h-128q1 -1 1 -2v0v-377h121q6 0 6 3v93h182v-20h20v-183q0 -13 -9 -25.5t-24 -12.5h-445q-11 0 -18.5 6.5t-12.5 16.5q-10 4 -16.5 14t-6.5 21v319q0 15 8 28.5t20 25t26 20t27 13.5v169q0 4 3 10t8 11.5t11 9.5t13 4h280
q10 0 18 -7.5t12 -16.5v1q11 -5 18 -15t7 -17v-142h-101v20h-20v33z" />
    <glyph glyph-name="FL00B7h" unicode="d" horiz-adv-x="580" 
d="M363 122v369h-205v-69q12 -7 24 -16t20 -20q16 -12 26.5 -28t10.5 -34v-212h117q6 0 6 9zM377 114q-1 -9 -7 -13t-14 -4h-131q-9 0 -15 4.5t-6 13.5v229q0 13 -8.5 25.5t-20.5 23t-26 17.5t-25 10v91q1 14 12 14h229l1 -1q3 -2 6 -5t6 -9v-395zM512 2q8 0 13.5 7.5
t5.5 15.5v319q0 13 -8.5 25.5t-21 23t-26.5 17.5t-25 10v180q0 5 -6.5 12.5t-14.5 7.5h-357q-8 0 -14.5 -7.5t-6.5 -12.5v-575q0 -8 5.5 -15.5t13.5 -7.5h442zM90 -33q-11 0 -18.5 6.5t-12.5 16.5q-10 4 -16.5 14t-6.5 21v575q0 8 11 21.5t25 13.5h357q11 0 19 -7.5
t12 -16.5q11 -6 18 -15.5t7 -15.5v-159l24.5 -17t20.5 -19q15 -12 25.5 -27.5t10.5 -33.5v-319q0 -13 -10 -25.5t-24 -12.5h-442z" />
    <glyph glyph-name="FL0065h" unicode="e" 
d="M204 301q4 5 8 8t13 3h88v102h-97q-12 0 -12 13v83q1 5 4.5 10t8.5 5h151q4 0 8.5 -5.5t4.5 -11.5v-35h71v127q0 5 -6 12.5t-14 7.5h-280q-8 0 -14 -7.5t-6 -12.5v-180q-11 -3 -25 -10t-26.5 -17.5t-21 -23t-8.5 -25.5v-319q0 -8 5.5 -15.5t13.5 -7.5h445q8 0 13 7.5
t5 15.5v168h-152v-78q0 -9 -6 -13.5t-15 -4.5h-135q-9 0 -15 4.5t-6 13.5v186zM432 635q10 0 18 -7.5t12 -16.5q11 -5 18 -14.5t7 -16.5v-142h-101v20h-20v33h-127v-62h89v-20h20v-132h-103q-4 0 -6 -2v-163h121q6 0 6 3v93h182v-20h20v-183q0 -13 -9 -25.5t-24 -12.5h-445
q-11 0 -18.5 6.5t-12.5 16.5q-10 4 -16.5 14t-6.5 21v319q0 15 8 28.5t20 25t26 20t27 13.5v169q0 4 3 10t8 11.5t11 9.5t13 4h280z" />
    <glyph glyph-name="FL0067h" unicode="f" horiz-adv-x="501" 
d="M204 301q4 5 8 8t13 3h88v102h-97q-12 0 -12 13v83q1 5 4.5 10t8.5 5h150q4 0 8.5 -5.5t4.5 -11.5v-35h72v127q0 5 -6 12.5t-14 7.5h-280q-8 0 -14.5 -7.5t-6.5 -12.5v-180q-11 -3 -24.5 -10t-26 -17.5t-21 -23t-8.5 -25.5v-342h153v299zM432 635q10 0 18 -7.5t12 -16.5
q11 -5 18 -14.5t7 -16.5v-142h-102v20h-20v33h-127q1 -1 1 -2v0v-60h89v-20h19v-132h-102q-4 0 -6 -2v-308h-183v20h-20v357q0 15 8 28.5t20 25t26 20t26 13.5v169q0 8 11 21.5t25 13.5h280z" />
    <glyph glyph-name="FL0072h" unicode="g" 
d="M271 415v-103h92q2 0 9 -3t9 -9v-185q0 -9 -6 -13.5t-15 -4.5h-135q-9 0 -15 4.5t-6 13.5v393q0 6 4.5 11.5t8.5 5.5h235v95h-300q-8 0 -14 -7.5t-6 -12.5v-180q-11 -3 -25 -10t-26.5 -17.5t-21 -23t-8.5 -25.5v-319q0 -8 5.5 -15.5t13.5 -7.5h445q8 0 13 7.5t5 15.5v319
q0 13 -8 25t-20 21t-26 15.5t-26 9.5h-182zM256 430h200q19 -5 42 -18t37 -31q14 -11 23.5 -25t9.5 -32v-319q0 -13 -9 -25.5t-24 -12.5h-445q-11 0 -18.5 6.5t-12.5 16.5q-10 4 -16.5 14t-6.5 21v319q0 15 8 28.5t20 25t26 20t27 13.5v169q0 4 3 10t8 11.5t11 9.5t13 4h315
v-20h20v-124h-249q1 -1 1 -2v0v-377h121q6 0 6 3v162h-90v20h-20v133z" />
    <glyph glyph-name="FL0068h" unicode="h" 
d="M381 427q0 -6 -3 -7.5t-6 -3.5h1q-1 -1 -2 -1t-2 -1h-153q-12 0 -12 13v193h-72v-200q-11 -3 -25 -10t-26.5 -17.5t-21 -23t-8.5 -25.5v-342h153v299q4 5 8 8t13 3h138q2 0 9 -3t9 -9v-298h152v342q0 13 -8.5 25.5t-20.5 23t-26 17.5t-26 10v200h-71v-193zM364 429l2 2
v204h101v-20h20v-193q12 -7 24 -16t20 -20q16 -12 26.5 -28t10.5 -34v-357h-182v20h-20v290h-121q-4 0 -6 -2v-308h-183v20h-20v357q0 15 8 28.5t20 25t26 20t27 13.5v204h102v-20h20v-186h125z" />
    <glyph glyph-name="FL03A4h" unicode="i" horiz-adv-x="252" 
d="M36 -13h19v-20h183v648h-20v20h-102v-204q-13 -5 -27 -13.5t-26 -20t-19.5 -25t-7.5 -28.5v-357zM51 344q0 13 8.5 25.5t20.5 23t26 17.5t25 10v200h72v-618h-152v342z" />
    <glyph glyph-name="FL0076h" unicode="j" 
d="M487 615h-20v20h-101v-520q0 -3 -6 -3h-121v76h-20v20h-183v-183q0 -11 6.5 -21t16.5 -14q5 -10 12.5 -16.5t18.5 -6.5h445q15 0 24 12.5t9 25.5v319q0 18 -10.5 34t-26.5 28q-8 11 -20 20t-24 16v193zM452 420q12 -3 26 -10t26 -17.5t20.5 -23t8.5 -25.5v-319
q0 -8 -5 -15.5t-13 -7.5h-445q-8 0 -13.5 7.5t-5.5 15.5v168h153v-78q0 -9 6 -13.5t15 -4.5h135q9 0 15 4.5t6 13.5v505h71v-200z" />
    <glyph glyph-name="FL007Ch" unicode="k" 
d="M152 635h-116v-648h20v-20h183v308q0 2 2 2h125v-290h20v-20h182v357q0 18 -10.5 34t-26.5 28q-14 19 -36 31.5t-39 17.5h-37v180h-19v20h-103v-199q-1 -2 -1 -4q0 -1 -2 -3h-122v186h-20v20zM137 434q0 -14 3.5 -17t18.5 -3h140q11 6 13 21v185h73v-200h68q12 -3 26 -10
t26 -17.5t20 -23t8 -25.5v-342h-152v295q-2 9 -8 12t-11 3h-141q-5 0 -11 -4t-6 -13v-293h-153v618h86v-186z" />
    <glyph glyph-name="FL006Ch" unicode="l" horiz-adv-x="500" 
d="M486 92h-20v20h-227v503h-20v20h-103v-204q-12 -5 -26 -13.5t-26 -20t-20 -25t-8 -28.5v-319q0 -11 6.5 -21t16.5 -14q5 -10 12.5 -16.5t18.5 -6.5h396v125zM51 25v319q0 13 8.5 25.5t21 23t26 17.5t24.5 10v200h73v-505q0 -9 6 -13.5t15 -4.5h226v-95h-381
q-8 0 -13.5 7.5t-5.5 15.5z" />
    <glyph glyph-name="FL007Dh" unicode="m" horiz-adv-x="832" 
d="M629 2h154v342q0 13 -8.5 25.5t-21 23t-26.5 17.5t-25 10v180q0 5 -6.5 12.5t-14.5 7.5h-528q-8 0 -14.5 -7.5t-6.5 -12.5v-180q-11 -3 -25 -10t-26.5 -17.5t-21 -23t-8.5 -25.5v-342h153v506q0 6 4.5 11.5t8.5 5.5h151q4 0 8.5 -5.5t4.5 -11.5v-88q-12 -3 -26 -10
t-26 -17.5t-20.5 -23t-8.5 -25.5v-342h153v508q1 5 5.5 10t7.5 5h150q4 0 8.5 -5.5t4.5 -11.5v-506zM614 491h-126v-524h-183v20h-20v357q0 15 7.5 28.5t19.5 25t26.5 20t27.5 13.5v60h-128q1 -1 1 -2v0v-522h-183v20h-20v357q0 15 8 28.5t20 25t26 20t27 13.5v169
q0 8 11 21.5t25 13.5h528q10 0 18 -8t13 -16q11 -5 18 -15t7 -16v-159l24.5 -17t20.5 -19q15 -12 25.5 -27.5t10.5 -33.5v-357h-184v20h-20v504z" />
    <glyph glyph-name="FL006Eh" unicode="n" 
d="M487 580q0 7 -7 16.5t-18 14.5h1h-1v1v-1q-4 9 -12 16.5t-18 7.5h-280q-7 0 -13 -4t-11 -9.5t-8 -11.5t-3 -10v-169q-13 -5 -27 -13.5t-26 -20t-20 -25t-8 -28.5v-357h20v-20h183v522v0q0 1 -1 2h128v-504h20v-20h182v357q0 18 -10.5 34t-26.5 28q-8 11 -20 20t-24 16
v158zM381 508q0 6 -4.5 11.5t-8.5 5.5h-151q-4 0 -8.5 -5.5t-4.5 -11.5v-506h-153v342q0 13 8.5 25.5t21 23t26.5 17.5t25 10v180q0 5 6 12.5t14 7.5h280q8 0 14 -7.5t6 -12.5v-180q12 -3 26 -10t26 -17.5t20.5 -23t8.5 -25.5v-342h-152v506z" />
    <glyph glyph-name="FL006Fh" unicode="o" 
d="M535 -33q15 0 24 12.5t9 25.5v319q0 18 -10.5 34t-26.5 28q-8 11 -20 20t-24 16v158q0 7 -7 17t-18 15v-1q-4 9 -12 16.5t-18 7.5h-280q-7 0 -13 -4t-11 -9.5t-8 -11.5t-3 -10v-169q-13 -5 -27 -13.5t-26 -20t-20 -25t-8 -28.5v-319q0 -11 6.5 -21t16.5 -14
q5 -10 12.5 -16.5t18.5 -6.5h445zM70 2q-8 0 -13.5 7.5t-5.5 15.5v319q0 13 8.5 25.5t21 23t26.5 17.5t25 10v180q0 5 6 12.5t14 7.5h280q8 0 14 -7.5t6 -12.5v-180q12 -3 26 -10t26 -17.5t20.5 -23t8.5 -25.5v-319q0 -8 -5 -15.5t-13 -7.5h-445zM381 508q0 6 -4.5 11.5
t-8.5 5.5h-151q-4 0 -8.5 -5.5t-4.5 -11.5v-393q0 -9 6 -13.5t15 -4.5h135q9 0 15 4.5t6 13.5v393zM360 112h-121v377v0q0 1 -1 2h128v-376q0 -3 -6 -3z" />
    <glyph glyph-name="FL0070h" unicode="p" horiz-adv-x="501" 
d="M487 311v269q0 7 -7 16.5t-18 14.5q-4 9 -12 16.5t-18 7.5h-280q-14 0 -25 -13.5t-11 -21.5v-169q-12 -5 -26 -13.5t-26 -20t-20 -25t-8 -28.5v-357h20v-20h183v308q2 2 6 2h207q14 0 24.5 12t10.5 22zM452 331q0 -6 -6 -12.5t-14 -6.5h-207q-9 0 -13 -3t-8 -8v-299h-153
v342q0 13 8.5 25.5t21 23t26 17.5t24.5 10v180q0 5 6.5 12.5t14.5 7.5h280q8 0 14 -7.5t6 -12.5v-269zM380 508q0 6 -3.5 11.5t-9.5 5.5h-150q-4 0 -8.5 -5.5t-4.5 -11.5v-81q0 -13 12 -13h152q1 1 2 1t2 1h-1q3 2 6 3.5t3 7.5v81zM239 429v60v0q0 1 -1 2h127v-60l-2 -2
h-124z" />
    <glyph glyph-name="FL0071h" unicode="q" 
d="M239 112h36q2 1 4 2.5t4 6.5v123q0 35 13.5 48.5t44.5 13.5h25v185h-128q1 -1 1 -2v0v-377zM204 508q0 6 4.5 11.5t8.5 5.5h151q4 0 8.5 -5.5t4.5 -11.5v-217h-40q-23 0 -33 -10.5t-10 -36.5v-126q-2 -12 -7 -15.5t-14 -5.5h-52q-9 0 -15 4.5t-6 13.5v393zM515 2
q8 0 13 7.5t5 15.5v319q0 13 -8.5 25.5t-20.5 23t-26 17.5t-26 10v180q0 5 -6 12.5t-14 7.5h-280q-8 0 -14 -7.5t-6 -12.5v-180q-11 -3 -25 -10t-26.5 -17.5t-21 -23t-8.5 -25.5v-319q0 -8 5.5 -15.5t13.5 -7.5h445zM90 -33q-11 0 -18.5 6.5t-12.5 16.5q-10 4 -16.5 14
t-6.5 21v319q0 15 8 28.5t20 25t26 20t27 13.5v169q0 4 3 10t8 11.5t11 9.5t13 4h280q10 0 18 -7.5t12 -16.5q11 -5 18 -14.5t7 -16.5v-158q12 -7 24 -16t20 -20q16 -12 26.5 -28t10.5 -34v-319q0 -13 -9 -25.5t-24 -12.5h-445z" />
    <glyph glyph-name="FL0078h" unicode="r" 
d="M172 429h122q2 2 3 7v55h-126q0 -1 0.5 -1.5l0.5 -0.5v-60zM137 508q0 6 4.5 11.5t7.5 5.5h151q3 0 7.5 -5.5t4.5 -11.5v-73q-1 -17 -13 -21h-148q-9 0 -11.5 3t-2.5 17v74zM204 295q0 9 6 13t11 4h141q5 0 11 -3t8 -12v-295h152v342q0 13 -8 25.5t-20 23t-26 17.5
t-26 10h-68v180q0 5 -6.5 12.5t-14.5 7.5h-281q-14 0 -23 -7t-9 -21v-590h153v293zM239 -33h-183v20h-20v605q0 22 13.5 32.5t33.5 10.5h281q10 0 18 -8t13 -16q10 -5 17 -15t7 -16v-145h37q17 -5 39 -17.5t36 -31.5q16 -12 26.5 -28t10.5 -34v-357h-182v20h-20v290h-125
q-2 0 -2 -2v-308z" />
    <glyph glyph-name="FL007Ah" unicode="s" 
d="M204 511q1 14 13 14h151q4 0 8.5 -5.5t4.5 -11.5v-35h71v127q0 5 -6 12.5t-14 7.5h-280q-8 0 -14 -7.5t-6 -12.5v-271q0 -6 5 -11.5t13 -5.5h210q9 0 13 -3t8 -8v-188q-4 -16 -21 -16h-135q-9 0 -15 4.5t-6 13.5v78h-153v-168q0 -8 5.5 -15.5t13.5 -7.5h445q8 0 13 7.5
t5 15.5v315q0 13 -8 25.5t-20 22t-26 16.5t-26 10h-237q-1 1 -2 1t-2 1h1q-4 2 -6.5 3.5t-2.5 7.5v84zM386 438v20h-20v33h-127v-62h217q18 -5 40.5 -18t36.5 -30q14 -12 24.5 -27.5t10.5 -33.5v-315q0 -13 -9 -25.5t-24 -12.5h-445q-11 0 -18.5 6.5t-12.5 16.5
q-10 4 -16.5 14t-6.5 21v183h183v-20h20v-76h121q3 0 6 4v161h-196q-12 0 -20.5 6.5t-12.5 15.5q-8 4 -14 12.5t-6 17.5v271q0 4 3 10t8 11.5t11 9.5t13 4h280q10 0 18 -7.5t12 -16.5q11 -5 18 -14.5t7 -16.5v-142h-101z" />
    <glyph glyph-name="t" unicode="t" horiz-adv-x="499" 
d="M156 2h153v505q1 10 14 18h127v95h-399v-95h171q11 -5 14 -13h1v-92q-12 -3 -26 -10t-26 -17.5t-20.5 -23t-8.5 -25.5v-342zM161 -33v20h-20v357q0 15 7.5 28.5t19.5 25t26.5 20t27.5 13.5v60h-166v19h-20v125h429v-20h20v-124h-137q-5 -3 -5 -5v-519h-182z" />
    <glyph glyph-name="FL0075h" unicode="u" 
d="M366 115q0 -3 -6 -3h-121v503h-20v20h-102v-204q-13 -5 -27 -13.5t-26 -20t-20 -25t-8 -28.5v-319q0 -11 6.5 -21t16.5 -14q5 -10 12.5 -16.5t18.5 -6.5h445q15 0 24 12.5t9 25.5v319q0 18 -10.5 34t-26.5 28q-8 11 -20 20t-24 16v193h-20v20h-101v-520zM533 344v-319
q0 -8 -5 -15.5t-13 -7.5h-445q-8 0 -13.5 7.5t-5.5 15.5v319q0 13 8.5 25.5t21 23t26.5 17.5t25 10v200h72v-505q0 -9 6 -13.5t15 -4.5h135q9 0 15 4.5t6 13.5v505h71v-200q12 -3 26 -10t26 -17.5t20.5 -23t8.5 -25.5z" />
    <glyph glyph-name="FL0056h" unicode="v" horiz-adv-x="501" 
d="M487 5v610h-20v20h-102v-204q-13 -5 -26.5 -14t-25 -20.5t-19 -25t-7.5 -27.5v-232h-48v503h-20v20h-103v-204q-12 -5 -26 -13.5t-26 -20t-20 -25t-8 -28.5v-319q0 -11 6.5 -21t16.5 -14q5 -10 12.5 -16.5t18.5 -6.5h364q15 0 24 12.5t9 25.5zM452 25q0 -8 -5 -15.5
t-13 -7.5h-364q-8 0 -13.5 7.5t-5.5 15.5v319q0 13 8.5 25.5t21 23t26 17.5t24.5 10v200h73v-505q0 -9 6 -13.5t15 -4.5h77v247q0 13 8 25.5t19.5 23t25 17.5t25.5 10v200h72v-595z" />
    <glyph glyph-name="FL0077h" unicode="w" horiz-adv-x="753" 
d="M535 115q0 -3 -5 -3h-42v503h-20v20h-102v-204q-13 -5 -27 -14t-25.5 -20.5t-19 -25t-7.5 -27.5v-232h-48v503h-20v20h-102v-204q-13 -5 -27 -13.5t-26 -20t-20 -25t-8 -28.5v-319q0 -11 6.5 -21t16.5 -14q5 -10 12.5 -16.5t18.5 -6.5h615q14 0 24 12.5t10 25.5v319
q0 18 -10.5 33.5t-25.5 27.5q-8 10 -20.5 19l-24.5 17v194h-20v20h-103v-520zM704 344v-319q0 -8 -5.5 -15.5t-13.5 -7.5h-615q-8 0 -13.5 7.5t-5.5 15.5v319q0 13 8.5 25.5t21 23t26.5 17.5t25 10v200h72v-505q0 -9 6 -13.5t15 -4.5h77v247q0 13 8 25.5t20 23t25.5 17.5
t25.5 10v200h72v-523h77q8 0 14 4.5t6 13.5v505h73v-200q11 -3 25 -10t26.5 -17.5t21 -23t8.5 -25.5z" />
    <glyph glyph-name="FL007Bh" unicode="x" horiz-adv-x="584" 
d="M216 414q-12 0 -12 13v193h-72v-200q-11 -3 -25 -10t-26.5 -17.5t-21 -23t-8.5 -25.5v-342h153v290q1 6 6.5 11t9.5 8q1 0 1 1h225q5 0 11 -8t6 -13v-289h72v342q0 13 -8 25.5t-19.5 22.5t-24.5 17t-23 10v201h-153v-195q-3 -6 -18 -11h-73zM219 615h20v-186h48
q2 0 2.5 0.5t1.5 0.5h1v205h183v-20h20v-197q11 -7 21 -15t17 -16q15 -12 26 -28t11 -35v-357h-102v20h-20v290h-195q-1 -1 -7 -1q-4 -3 -7 -7v-302h-183v20h-20v357q0 15 8 28.5t20 25t26 20t27 13.5v204h102v-20z" />
    <glyph glyph-name="FL0079h" unicode="y" 
d="M204 620h-72v-291q0 -6 5 -11.5t13 -5.5h210q9 0 13 -3t8 -8v-188q-4 -16 -21 -16h-135q-9 0 -15 4.5t-6 13.5v78h-153v-168q0 -8 5.5 -15.5t13.5 -7.5h445q8 0 13 7.5t5 15.5v319q0 13 -8.5 25.5t-20.5 23t-26 17.5t-26 10v200h-71v-193q0 -13 -12 -13h-153q-1 1 -2 1
t-2 1h1q-4 2 -6.5 3.5t-2.5 7.5v193zM239 429h127v206h101v-20h20v-193q12 -7 24 -16t20 -20q16 -12 26.5 -28t10.5 -34v-319q0 -13 -9 -25.5t-24 -12.5h-445q-11 0 -18.5 6.5t-12.5 16.5q-10 4 -16.5 14t-6.5 21v183h183v-20h20v-76h121q3 0 6 4v161h-196q-12 0 -20.5 6.5
t-12.5 15.5q-8 4 -14 12.5t-6 17.5v306h102v-20h20v-186z" />
    <glyph glyph-name="FL007Fh" unicode="z" 
d="M36 25q0 -11 6.5 -21t16.5 -14q5 -10 12.5 -16.5t18.5 -6.5h445q15 0 24 12.5t9 25.5v183h-20v20h-182v-93q0 -3 -6 -3h-90l201 290q10 14 13 26.5t3 20.5v131q0 7 -7 16.5t-18 14.5h1h-1v1v-1q-4 9 -12 16.5t-18 7.5h-280q-7 0 -13 -4t-11 -9.5t-8 -11.5t-3 -10v-142h19
v-20h103v51v0q0 1 -1 2h75l-277 -364v-102zM349 510q-2 15 -13 15h-119q-4 0 -8.5 -5.5t-4.5 -11.5v-35h-72v127q0 5 6 12.5t14 7.5h280q8 0 14 -7.5t6 -12.5v-131q0 -6 -2.5 -16t-10.5 -21l-220 -318q5 -17 21 -17h120q9 0 15 4.5t6 13.5v78h152v-168q0 -8 -5 -15.5
t-13 -7.5h-445q-8 0 -13.5 7.5t-5.5 15.5v96z" />
    <glyph glyph-name="FL0081h" unicode="{" horiz-adv-x="471" 
d="M344 576v94h-192q-8 0 -14.5 -7.5t-6.5 -12.5v-230q-11 -3 -25 -10t-26 -17.5t-20.5 -23t-8.5 -25.5v-369q0 -8 5.5 -15.5t13.5 -7.5h274v95h-119q-9 0 -15 4.5t-6 13.5v494q0 6 4.5 11.5t8.5 5.5h127zM238 542q1 -1 1 -3v-477h120v-20h20v-125h-290q-10 0 -17.5 6.5
t-12.5 16.5q-10 4 -16.5 14t-6.5 21v369q0 15 8 28.5t20 25t26 20t26 13.5v219q0 8 11 21.5t25 13.5h207v-20h20v-123h-141z" />
    <glyph glyph-name="FL00A5h" unicode="|" horiz-adv-x="250" 
d="M201 344q0 13 -8 25.5t-20 23t-25.5 17.5t-24.5 10v200h-72v-618h150v342zM55 -33v20h-19v648h102v-20h19v-194q12 -8 23.5 -16.5t19.5 -18.5q15 -12 25.5 -28t10.5 -34v-357h-181z" />
    <glyph glyph-name="FL0082h" unicode="}" horiz-adv-x="471" 
d="M249 62h-135v-125h20v-20h290q14 0 23.5 12.5t9.5 25.5v369q0 18 -10.5 33.5t-24.5 27.5q-8 10 -20.5 19l-24.5 17v209q0 6 -7 16t-18 15q-5 8 -13 16t-18 8h-207v-123h20v-20h121v-477q0 -3 -6 -3zM321 670q8 0 14.5 -7.5t6.5 -12.5v-230q11 -3 25 -10t26.5 -17.5
t21 -23t8.5 -25.5v-369q0 -8 -5.5 -15.5t-13.5 -7.5h-275v95h120q8 0 14 4.5t6 13.5v494q0 6 -4.5 11.5t-7.5 5.5h-128v94h192z" />
    <glyph glyph-name="FL0062h" unicode="~" horiz-adv-x="501" 
d="M158 429h127v62h-127v-2v-60zM123 508q0 6 3.5 11.5t9.5 5.5h151q4 0 8.5 -5.5t4.5 -11.5v-81q0 -13 -12 -13h-153q-1 1 -2 1t-2 1h1q-4 2 -6.5 3.5t-2.5 7.5v81zM279 112q6 0 6 3v162h-125q-1 0 -1.5 -0.5l-0.5 -0.5v-164h121zM281 312q5 0 11 -3t8 -12v-182
q0 -9 -6 -13.5t-15 -4.5h-135q-9 0 -15 4.5t-6 13.5v182q1 7 6 11t11 4h141zM434 1q8 0 13 7.5t5 15.5v320q0 13 -8.5 25.5t-20.5 23t-26 17.5t-26 10v180q0 5 -6 12.5t-14 7.5h-268q-14 0 -23 -7t-9 -21v-564q14 -24 22 -27h361zM90 -34q-8 4 -13.5 9t-11.5 13
q-8 5 -14.5 13t-14.5 21v570q0 22 13.5 32.5t33.5 10.5h268q10 0 18 -7.5t12 -16.5v1v-1h1h-1q11 -5 18 -14.5t7 -16.5v-158q12 -7 24 -16t20 -20q16 -12 26.5 -28t10.5 -34v-320q0 -13 -9 -25.5t-24 -12.5h-364z" />
    <glyph glyph-name="FL0080h" horiz-adv-x="231" 
 />
    <glyph glyph-name="FL20ACh" unicode="&#x20ac;" horiz-adv-x="645" 
d="M36 374h20v-20h43v-9h-63v-133h20v-20h43v-167q0 -11 6.5 -21t16.5 -14q5 -10 12.5 -16.5t17.5 -6.5h446q15 0 24 12.5t9 25.5v183h-20v20h-182v-93q0 -3 -6 -3h-121v80h105v133h-20v20h-85v9h105v133h-20v4h42v-33h20v-20h101v142q0 7 -7 16.5t-18 14.5q-4 9 -12 16.5
t-18 7.5h-280q-14 0 -25 -13.5t-11 -21.5v-94h-143v-132zM194 492v108q0 5 6.5 12.5t14.5 7.5h280q8 0 14 -7.5t6 -12.5v-127h-71v35q0 6 -4.5 11.5t-8.5 5.5h-151q-4 0 -8.5 -5.5t-4.5 -11.5v-16h105v-103h-105v-59h105v-103h-105v-112q0 -9 6 -13.5t15 -4.5h135
q9 0 15 4.5t6 13.5v78h152v-168q0 -8 -5 -15.5t-13 -7.5h-445q-8 0 -13.5 7.5t-5.5 15.5v202h-63v103h63v14q0 11 6.5 22.5t17.5 22.5h-87v103h143z" />
    <glyph glyph-name="FL201Ah" unicode="&#x201a;" horiz-adv-x="252" 
d="M116 -115h20v-20h102v323h-20v20h-182v-221h19v-20h61v-82zM131 2h-80v191h152v-293h-72v102z" />
    <glyph glyph-name="FL0073h" unicode="&#x192;" 
d="M239 112h121q6 0 6 3v376h-128q1 -1 1 -2v0v-377zM204 508q0 6 4.5 11.5t8.5 5.5h151q4 0 8.5 -5.5t4.5 -11.5v-393q0 -9 -6 -13.5t-15 -4.5h-135q-9 0 -15 4.5t-6 13.5v393zM515 2q8 0 13 7.5t5 15.5v319q0 13 -8.5 25.5t-20.5 23t-26 17.5t-26 10v180q0 5 -6 12.5
t-14 7.5h-349q-14 0 -23 -7t-9 -21v-203q0 -13 8.5 -25.5t21 -23t26.5 -18t25 -10.5v-284q12 -22 21 -26h362zM172 -33q-14 4 -29 24q-15 10 -26 32v267q-13 8 -24.5 17t-19.5 19q-16 13 -26.5 29t-10.5 34v203q0 22 13.5 32.5t33.5 10.5h349q10 0 18 -7.5t12 -16.5v1v-1h1
h-1q11 -5 18 -14.5t7 -16.5v-158q12 -7 24 -16t20 -20q16 -12 26.5 -28t10.5 -34v-319q0 -13 -9 -25.5t-24 -12.5h-363z" />
    <glyph glyph-name="FL201Eh" unicode="&#x201e;" horiz-adv-x="459" 
d="M322 -115h20v-20h103v323h-20v20h-183v-221h20v-20h60v-82zM116 -115h20v-20h103v323h-20v20h-183v-221h20v-20h60v-82zM131 2h-80v191h153v-293h-73v102zM337 2h-80v191h153v-293h-73v102z" />
    <glyph glyph-name="FL2026h" unicode="&#x2026;" horiz-adv-x="694" 
d="M491 2h154v190h-154v-190zM271 2h154v190h-154v-190zM51 2h153v190h-153v-190zM460 -33h-184v20h-20v220h184v-20h20v-220zM680 -33h-184v20h-19v220h183v-20h20v-220zM239 -33h-183v20h-20v220h183v-20h20v-220z" />
    <glyph glyph-name="FL2020h" unicode="&#x2020;" horiz-adv-x="464" 
d="M36 374h20v-20h63v-10v-357h20v-20h182v387h129v133h-20v19h-109v109h-19v20h-102v-129h-164v-132zM215 492v128h72v-128h128v-103h-128v-387h-153v342q0 11 6.5 22.5t17.5 22.5h-107v103h164z" />
    <glyph glyph-name="FL2021h" unicode="&#x2021;" horiz-adv-x="464" 
d="M36 212h20v-20h63v-205h20v-20h182v225h129v133h-20v20h-109v9h129v133h-20v19h-109v109h-19v20h-102v-129h-164v-132h20v-20h63v-9h-83v-133zM134 330v14q0 11 6.5 22.5t17.5 22.5h-107v103h164v128h72v-128h128v-103h-128v-59h128v-103h-128v-225h-153v225h-83v103h83z
" />
    <glyph glyph-name="FL0058h" unicode="&#x2c6;" 
d="M216 414q-12 0 -12 13v193h-72v-200q-11 -3 -25 -10t-26.5 -17.5t-21 -23t-8.5 -25.5v-342h153v299q1 8 8 9q1 1 2 1t2 1h153q12 0 12 -13v-297h71v304q12 3 26 10t26 17.5t20.5 22.5t8.5 26v238h-152v-195q-3 -6 -18 -11h-147zM219 615h20v-186h122q2 0 2.5 0.5t1.5 0.5
h1v205h182v-20h20v-253q0 -15 -8 -29t-20 -25.5t-26 -20t-27 -13.5v-307h-101v20h-20v290h-125l-1 -1h-1v-309h-183v20h-20v357q0 15 8 28.5t20 25t26 20t27 13.5v204h102v-20z" />
    <glyph glyph-name="FL2030h" unicode="&#x2030;" horiz-adv-x="1046" 
d="M571 73l2 2v31h-110q1 -1 1 -2v0v-31h107zM908 73l2 2v31h-110q1 -1 1 -2v0v-31h107zM159 503h106l2 2v31h-109q1 -1 1 -2v0v-31zM282 501q0 -6 -3 -7.5t-6 -3.5h1q-1 -1 -2 -1t-2 -1h-134q-12 0 -12 13v53q0 6 4.5 11t8.5 5h132q6 0 9.5 -5t3.5 -11v-53zM925 71
q0 -6 -3 -7.5t-6 -3.5h1q-1 -1 -2 -1t-2 -1h-135q-12 0 -12 13v53q0 6 4.5 11.5t8.5 5.5h133q6 0 9.5 -5.5t3.5 -11.5v-53zM588 71q0 -6 -3 -7.5t-6 -3.5h1q-1 -1 -2 -1t-2 -1h-135q-12 0 -12 13v53q0 6 4.5 11.5t8.5 5.5h133q6 0 9.5 -5.5t3.5 -11.5v-53zM354 645
q0 5 -6 12.5t-14 7.5h-262q-8 0 -14.5 -7.5t-6.5 -12.5v-243q0 -16 24 -16h261q8 0 13 5.5t5 11.5v242zM997 215q0 5 -6 12.5t-14 7.5h-262q-8 0 -14.5 -7.5t-6.5 -12.5v-243q0 -16 24 -16h261q8 0 13 5.5t5 11.5v242zM660 215q0 5 -6 12.5t-14 7.5h-263q-8 0 -14.5 -7.5
t-6.5 -12.5v-243q0 -16 24 -16h262q8 0 13 5.5t5 11.5v242zM498 273q8 0 13 5.5t5 11.5v330h-72v-258q0 -6 -3 -7.5t-6 -3.5h1q-1 -1 -2 -1t-2 -1h-238q-11 -3 -25 -9t-26 -15t-20.5 -20.5t-8.5 -25.5v-277h153v260q4 5 8 8t13 3h210zM531 635v-20h20v-345q0 -13 -7 -20h96
q9 0 17.5 -7.5t12.5 -15.5q6 -2 9 -6q4 9 14 19t22 10h262q10 0 18 -7.5t12 -16.5v1q11 -5 18 -15t7 -17v-242q0 -11 -9 -21.5t-24 -10.5h-261q-33 0 -38 22q-3 0 -4 1q-1 0 -1.5 0.5t-1.5 0.5q-3 -9 -11.5 -16.5t-19.5 -7.5h-262q-33 0 -38 22q-12 3 -16.5 10.5t-4.5 18.5
v243q0 10 11 23h-44q-4 0 -6 -2v-269h-183v20h-20v292q0 25 18.5 43t39.5 29h-62q-34 0 -38 22q-12 3 -16.5 10t-4.5 19v243q0 8 11 21.5t25 13.5h262q10 0 18 -7.5t12 -16.5q11 -5 18 -14.5t7 -16.5v-242q0 -10 -7 -19h45l2 2v269h102z" />
    <glyph glyph-name="FL0160h" unicode="&#x160;" 
d="M119 824l143 -176h4l10 -12h-124q-7 0 -13 -4t-11 -9.5t-8 -11.5t-3 -10v-272q0 -9 6 -17.5t14 -12.5q4 -9 12.5 -15.5t20.5 -6.5h196v-161q-3 -4 -6 -4h-121v77h-20v20h-183v-184q0 -11 6.5 -21t16.5 -14q5 -10 12.5 -16.5t18.5 -6.5h445q15 0 24 12.5t9 25.5v315
q0 18 -10.5 33.5t-24.5 27.5q-14 17 -36.5 30t-40.5 18h-217v62h127v-33h20v-20h101v143q0 7 -7 16.5t-18 14.5h1h-1v1v-1q-4 9 -12 16.5t-18 7.5h-85l138 168h-38l18 20h-162l-5 -20h-13l-5 20h-161zM204 427q0 -6 2.5 -7.5t6.5 -3.5h-1q1 -1 2 -1t2 -1h237q12 -3 26 -10
t26 -16.5t20 -22t8 -25.5v-315q0 -8 -5 -15.5t-13 -7.5h-445q-8 0 -13.5 7.5t-5.5 15.5v169h153v-79q0 -9 6 -13.5t15 -4.5h135q17 0 21 16v188q-4 5 -8 8t-13 3h-210q-8 0 -13 5.5t-5 11.5v272q0 5 6 12.5t14 7.5h280q8 0 14 -7.5t6 -12.5v-128h-71v36q0 6 -4.5 11.5
t-8.5 5.5h-151q-12 0 -13 -14v-85zM292 717h2l22 92h116l-118 -146h-44l-120 146h118z" />
    <glyph glyph-name="FL2039h" unicode="&#x2039;" horiz-adv-x="243" 
d="M229 517l-20 -18v38l-173 -143v-60l19 -17v-3l174 -143v162l-20 5v13l20 5v161zM104 362l90 -22v-117l-143 119v44l143 118v-117l-90 -23v-2z" />
    <glyph glyph-name="FL0152h" unicode="&#x152;" horiz-adv-x="913" 
d="M678 409h-20v20h-88v62h126v-33h20v-20h102v142q0 7 -7 16.5t-18 14.5q-4 9 -12 16.5t-18 7.5h-280q-10 0 -18 -5q-8 5 -18 5h-294q-14 0 -25 -13.5t-11 -21.5v-169q-13 -5 -27 -13.5t-26 -20t-20 -25t-8 -28.5v-319q0 -11 6.5 -21t16.5 -14q5 -10 12.5 -16.5t18.5 -6.5
h776q15 0 24 12.5t9 25.5v183h-20v20h-183v-93q0 -3 -6 -3h-120v163q2 2 6 2h102v132zM535 301v-186q0 -9 6 -13.5t15 -4.5h134q9 0 15 4.5t6 13.5v78h153v-168q0 -8 -5 -15.5t-13 -7.5h-776q-8 0 -13.5 7.5t-5.5 15.5v319q0 13 8.5 25.5t21 23t26.5 17.5t25 10v180
q0 5 6.5 12.5t14.5 7.5h294q9 0 18 -14q8 14 18 14h280q8 0 14 -7.5t6 -12.5v-127h-72v35q0 6 -4.5 11.5t-8.5 5.5h-150q-5 0 -8.5 -5t-4.5 -10v-83q0 -13 12 -13h97v-102h-88q-9 0 -13 -3t-8 -8zM381 508q0 6 -4.5 11.5t-8.5 5.5h-150q-4 0 -8.5 -5.5t-4.5 -11.5v-393
q0 -9 6 -13.5t14 -4.5h135q16 0 21 15v232q0 13 8.5 25.5t21 23t26.5 17.5t25 10v53h-81v35zM366 344v-229q-3 -3 -6 -3h-121v377v0q0 1 -1 2h128v-33h20v-20h61v-7q-13 -5 -27 -13.5t-26 -20t-20 -25t-8 -28.5z" />
    <glyph glyph-name="FL017Dh" unicode="&#x17d;" 
d="M304 824l-5 -20h-14l-4 20h-162l143 -176h4l10 -12h-159v-178h19v-20h102v53h127v-62h-237q-13 -3 -29 -11t-30 -20t-23.5 -26.5t-9.5 -31.5v-315q0 -11 6 -21.5t17 -14.5q4 -8 11.5 -15t18.5 -7h445q14 0 24 12.5t10 25.5v184h-20v20h-183v-94q0 -3 -6 -3h-121v163
q2 2 6 2h243v339h-20v20h-120l138 168h-38l18 20h-161zM380 526h-177v-53h-71v148h320v-309h-228q-9 0 -13 -3t-8 -8v-188q4 -16 21 -16h135q9 0 15 4.5t6 13.5v79h153v-169q0 -8 -5.5 -15.5t-13.5 -7.5h-445q-8 0 -13 7.5t-5 15.5v315q0 13 8 25.5t20 22t26 16.5t26 10h249
v112zM270 663l-120 146h118l22 -92h2l23 92h117l-118 -146h-44z" />
    <glyph glyph-name="FL2018h" unicode="&#x2018;" horiz-adv-x="252" 
d="M157 612h-19v20h-102v-323h19v-20h183v221h-20v20h-61v82zM123 515h80v-191h-152v293h72v-102z" />
    <glyph glyph-name="FL2019h" unicode="&#x2019;" horiz-adv-x="252" 
d="M116 310h20v-20h102v323h-20v20h-182v-220h19v-20h61v-83zM131 428h-80v190h152v-293h-72v103z" />
    <glyph glyph-name="FL201Ch" unicode="&#x201c;" horiz-adv-x="459" 
d="M157 612h-20v20h-102v-323h20v-20h183v221h-20v20h-61v82zM363 612h-20v20h-102v-323h20v-20h183v221h-20v20h-61v82zM122 515h81v-191h-153v293h72v-102zM328 515h81v-191h-153v293h72v-102z" />
    <glyph glyph-name="FL201Dh" unicode="&#x201d;" horiz-adv-x="459" 
d="M322 310h20v-20h103v323h-20v20h-183v-220h20v-20h60v-83zM116 310h20v-20h103v323h-20v20h-183v-220h20v-20h60v-83zM131 428h-80v190h153v-293h-73v103zM337 428h-80v190h153v-293h-73v103z" />
    <glyph glyph-name="FL2022h" unicode="&#x2022;" 
d="M535 -33q15 0 24 12.5t9 25.5v319q0 18 -10.5 34t-26.5 28q-8 11 -20 20t-24 16v158q0 7 -7 17t-18 15v-1q-4 9 -12 16.5t-18 7.5h-280q-7 0 -13 -4t-11 -9.5t-8 -11.5t-3 -10v-169q-13 -5 -27 -13.5t-26 -20t-20 -25t-8 -28.5v-319q0 -11 6.5 -21t16.5 -14
q5 -10 12.5 -16.5t18.5 -6.5h445zM70 2q-8 0 -13.5 7.5t-5.5 15.5v319q0 13 8.5 25.5t21 23t26.5 17.5t25 10v180q0 5 6 12.5t14 7.5h280q8 0 14 -7.5t6 -12.5v-180q12 -3 26 -10t26 -17.5t20.5 -23t8.5 -25.5v-319q0 -8 -5 -15.5t-13 -7.5h-445z" />
    <glyph glyph-name="FL2013h" unicode="&#x2013;" horiz-adv-x="420" 
d="M51 308h320v102h-320v-102zM56 273v20h-20v131h350v-19h20v-132h-350z" />
    <glyph glyph-name="FL2014h" unicode="&#x2014;" horiz-adv-x="522" 
d="M51 308h422v102h-422v-102zM56 273v20h-20v131h452v-19h20v-132h-452z" />
    <glyph glyph-name="FL004Bh" unicode="&#x2dc;" horiz-adv-x="501" 
d="M136 414q-13 0 -13 13v193h-72v-618h151v295q0 6 3.5 8.5t8.5 4.5q1 0 2 1l1 1h66q3 0 10 -5t7 -10v-295h152v342q0 13 -8.5 25.5t-20.5 23t-26 17.5t-26 10v200h-71v-193q0 -6 -3 -7.5t-6 -3.5h1q-1 -1 -2 -1t-2 -1h-152zM138 615h20v-186h125l2 2v204h101v-20h20v-193
q12 -7 24 -16t20 -20q16 -12 26.5 -28t10.5 -34v-357h-182v20h-20v290h-44q-1 0 -1 -1h-1h1q-1 -1 -3 -1v-308h-181v20h-20v648h102v-20z" />
    <glyph glyph-name="FL2122h" unicode="&#x2122;" horiz-adv-x="396" 
d="M193 688h-157v-51h20v-20h33v-109h19v-20h52v129h30v-109h20v-20h44v33q5 -9 8 -11t8 -2l1 -2q6 -14 10.5 -16t11.5 -2h5q4 0 9 3t13 17h18v-20h44v180h-20v20h-20q-18 0 -24.5 -5.5t-16.5 -24.5v2q-2 -2 -3 -4.5t-3 -4.5q1 2 -0.5 -0.5t-3.5 -6.5t-5 -9t-5 -8
q-7 11 -14.5 21t-14.5 15q-9 11 -18.5 18.5t-15.5 7.5q-8 0 -11.5 -0.5t-5.5 -5.5h-8v5zM206 668q1 0 2 0.5t3 0.5q8 0 8 5q6 -2 17.5 -15t17.5 -27l21 -69q7 14 10 24t7 26q0 3 1 4q7 11 11 18.5t8 13.5q9 16 13.5 20t16.5 4h5v-150h-14v98l-7 13q-12 -39 -20 -61
t-13.5 -33.5t-9 -14t-5.5 -2.5h-5q-2 0 -3.5 1t-4.5 7l-37 100l-9 -9v-99h-14v145h1zM125 523h-22v129h-52v21h127v-21h-53v-129z" />
    <glyph glyph-name="FL0161h" unicode="&#x161;" 
d="M119 824l143 -176h4l10 -12h-124q-7 0 -13 -4t-11 -9.5t-8 -11.5t-3 -10v-272q0 -9 6 -17.5t14 -12.5q4 -9 12.5 -15.5t20.5 -6.5h196v-161q-3 -4 -6 -4h-121v77h-20v20h-183v-184q0 -11 6.5 -21t16.5 -14q5 -10 12.5 -16.5t18.5 -6.5h445q15 0 24 12.5t9 25.5v315
q0 18 -10.5 33.5t-24.5 27.5q-14 17 -36.5 30t-40.5 18h-217v62h127v-33h20v-20h101v143q0 7 -7 16.5t-18 14.5h1h-1v1v-1q-4 9 -12 16.5t-18 7.5h-85l138 168h-38l18 20h-162l-5 -20h-13l-5 20h-161zM204 427q0 -6 2.5 -7.5t6.5 -3.5h-1q1 -1 2 -1t2 -1h237q12 -3 26 -10
t26 -16.5t20 -22t8 -25.5v-315q0 -8 -5 -15.5t-13 -7.5h-445q-8 0 -13.5 7.5t-5.5 15.5v169h153v-79q0 -9 6 -13.5t15 -4.5h135q17 0 21 16v188q-4 5 -8 8t-13 3h-210q-8 0 -13 5.5t-5 11.5v272q0 5 6 12.5t14 7.5h280q8 0 14 -7.5t6 -12.5v-128h-71v36q0 6 -4.5 11.5
t-8.5 5.5h-151q-12 0 -13 -14v-85zM292 717h2l22 92h116l-118 -146h-44l-120 146h118z" />
    <glyph glyph-name="FL203Ah" unicode="&#x203a;" horiz-adv-x="243" 
d="M50 504v-117l90 -23v-2l-90 -22v-117l143 119v44zM35 537l173 -143v-4l20 -16v-60l-174 -143v36l-19 -16v162l19 5v13l-19 5v161z" />
    <glyph glyph-name="FL0153h" unicode="&#x153;" horiz-adv-x="913" 
d="M678 409h-20v20h-88v62h126v-33h20v-20h102v142q0 7 -7 16.5t-18 14.5q-4 9 -12 16.5t-18 7.5h-280q-10 0 -18 -5q-8 5 -18 5h-294q-14 0 -25 -13.5t-11 -21.5v-169q-13 -5 -27 -13.5t-26 -20t-20 -25t-8 -28.5v-319q0 -11 6.5 -21t16.5 -14q5 -10 12.5 -16.5t18.5 -6.5
h776q15 0 24 12.5t9 25.5v183h-20v20h-183v-93q0 -3 -6 -3h-120v163q2 2 6 2h102v132zM535 301v-186q0 -9 6 -13.5t15 -4.5h134q9 0 15 4.5t6 13.5v78h153v-168q0 -8 -5 -15.5t-13 -7.5h-776q-8 0 -13.5 7.5t-5.5 15.5v319q0 13 8.5 25.5t21 23t26.5 17.5t25 10v180
q0 5 6.5 12.5t14.5 7.5h294q9 0 18 -14q8 14 18 14h280q8 0 14 -7.5t6 -12.5v-127h-72v35q0 6 -4.5 11.5t-8.5 5.5h-150q-5 0 -8.5 -5t-4.5 -10v-83q0 -13 12 -13h97v-102h-88q-9 0 -13 -3t-8 -8zM381 508q0 6 -4.5 11.5t-8.5 5.5h-150q-4 0 -8.5 -5.5t-4.5 -11.5v-393
q0 -9 6 -13.5t14 -4.5h135q16 0 21 15v232q0 13 8.5 25.5t21 23t26.5 17.5t25 10v53h-81v35zM366 344v-229q-3 -3 -6 -3h-121v377v0q0 1 -1 2h128v-33h20v-20h61v-7q-13 -5 -27 -13.5t-26 -20t-20 -25t-8 -28.5z" />
    <glyph glyph-name="FL017Eh" unicode="&#x17e;" 
d="M304 824l-5 -20h-14l-4 20h-162l143 -176h4l10 -12h-124q-7 0 -13 -4t-11 -9.5t-8 -11.5t-3 -10v-143h19v-20h103v51v0q0 1 -1 2h82l-284 -364v-102q0 -11 6.5 -21t16.5 -14q5 -10 12.5 -16.5t18.5 -6.5h445q15 0 24 12.5t9 25.5v184h-20v20h-182v-94q0 -3 -6 -3h-90
l201 290l1 1q9 13 12 25.5t3 20.5v132q0 7 -7 16.5t-18 14.5h1h-1v1v-1q-4 9 -12 16.5t-18 7.5h-85l138 168h-38l18 20h-161zM356 511q-2 15 -13 15h-126q-4 0 -8.5 -5.5t-4.5 -11.5v-36h-72v128q0 5 6 12.5t14 7.5h280q8 0 14 -7.5t6 -12.5v-132q0 -6 -2.5 -16t-10.5 -21
l-220 -318q5 -17 21 -17h120q9 0 15 4.5t6 13.5v79h152v-169q0 -8 -5 -15.5t-13 -7.5h-445q-8 0 -13.5 7.5t-5.5 15.5v96zM270 663l-120 146h118l22 -92h2l23 92h117l-118 -146h-44z" />
    <glyph glyph-name="FL0178h" unicode="&#x178;" 
d="M469 804h-20v20h-148v-20h-18v20h-148v-175h19v-13h-37v-307q0 -9 6 -17.5t14 -12.5q4 -9 12.5 -15.5t20.5 -6.5h196v-161q-3 -4 -6 -4h-121v77h-20v20h-183v-184q0 -11 6.5 -21t16.5 -14q5 -10 12.5 -16.5t18.5 -6.5h445q15 0 24 12.5t9 25.5v319q0 18 -10.5 34
t-26.5 28q-8 11 -20 20t-24 16v194h-20v14h2v174zM204 427q0 -6 2.5 -7.5t6.5 -3.5h-1q1 -1 2 -1t2 -1h153q12 0 12 13v194h71v-201q12 -3 26 -10t26 -17.5t20.5 -23t8.5 -25.5v-319q0 -8 -5 -15.5t-13 -7.5h-445q-8 0 -13.5 7.5t-5.5 15.5v169h153v-79q0 -9 6 -13.5
t15 -4.5h135q17 0 21 16v188q-4 5 -8 8t-13 3h-210q-8 0 -13 5.5t-5 11.5v292h72v-194zM239 616h-20v14h84v19h18v-19h45v-201h-127v187zM149 809h119v-145h-119v145zM316 809h118v-145h-118v145z" />
    <glyph glyph-name="FL00A1h" unicode="&#xa1;" horiz-adv-x="252" 
d="M238 258v114h-20v20h-182v-405h19v-20h102v203q12 5 26.5 13.5t26.5 20t20 25.5t8 29zM36 413h19v-20h183v222h-20v20h-182v-222zM203 278q0 -14 -8.5 -26t-20.5 -22.5t-26 -17.5t-25 -10v-200h-72v375h152v-99zM51 620h152v-192h-152v192z" />
    <glyph glyph-name="FL00A2h" unicode="&#xa2;" 
d="M405 -118v85h130q15 0 24 12.5t9 25.5v184h-20v19h-182v-93l-1 -1h-126v375v2h127v-33h20v-20h101v143q0 7 -7 16.5t-18 14.5q-4 9 -12 16t-18 7h-27v60h-19v20h-184v-80h-50q-7 0 -13 -4t-11 -9t-8 -11t-3 -10v-170q-13 -5 -27 -13.5t-26 -20t-20 -25t-8 -28.5v-319
q0 -11 6 -20.5t17 -13.5q8 -21 30 -24h113v-65h20v-20h183zM217 2h-147q-8 1 -13.5 8t-5.5 15v319q0 13 8.5 25.5t21 23t26.5 17.5t25 10v181q0 5 6 12.5t14 7.5h65v79h154v-79h61q8 0 14 -7.5t6 -12.5v-128h-71v36q0 11 -8 17h-157q-4 -1 -8 -6.5t-4 -10.5v-394
q0 -12 12 -16h157v1q8 6 8 15v79h152v-169q0 -8 -5 -15.5t-13 -7.5h-144v-85h-154v85z" />
    <glyph glyph-name="FL00A3h" unicode="&#xa3;" horiz-adv-x="658" 
d="M36 296h20v-20h67v-160q-1 -2 -3 -4h-84v-125h20v-20h554q14 0 24 12.5t10 25.5v183h-20v20h-183v-93q0 -3 -6 -3h-110v163h1l1 1h200v133h-20v20h-182v62h23v-33h20v-20h102v142q0 6 -7 16t-17 15q-5 8 -13 16t-18 8h-177q-14 0 -24.5 -13.5t-10.5 -21.5v-168l-3 -3
h-164v-133zM206 414q9 7 12 12v174q0 5 6 12.5t14 7.5h177q8 0 14.5 -7.5t6.5 -12.5v-127h-73v35q0 6 -4.5 11.5t-8.5 5.5h-47q-5 0 -8.5 -5t-4.5 -10v-83q0 -13 12 -13h190v-103h-189q-6 -2 -8.5 -4.5t-4.5 -5.5v-186q0 -9 5 -13t13 -5h127q9 0 15 4.5t6 13.5v78h153v-168
q0 -8 -5.5 -15.5t-13.5 -7.5h-539v95h74q12 5 13 17v183q-3 10 -17 14h-70v103h155z" />
    <glyph glyph-name="FL00A9h" unicode="&#xa4;" 
d="M239 322h125l2 2v60h-128q1 -1 1 -2v0v-60zM381 320q0 -6 -3 -7.5t-6 -3.5h1q-1 -1 -2 -1t-2 -1h-153q-12 0 -12 13v82q0 6 4.5 11.5t8.5 5.5h151q6 0 9.5 -5.5t3.5 -11.5v-82zM204 513v107h-72v-200q-11 -3 -25 -10t-26.5 -17.5t-21 -23t-8.5 -25.5v-342h153v203h177
v-203h152v342q0 13 -8.5 25.5t-20.5 23t-26 17.5t-26 10v200h-71v-107h-177zM219 615h20v-87h127v107h101v-20h20v-193q12 -7 24 -16t20 -20q16 -12 26.5 -28t10.5 -34v-357h-182v20h-20v183h-127v-203h-183v20h-20v357q0 15 8 28.5t20 25t26 20t27 13.5v204h102v-20z" />
    <glyph glyph-name="FL00AAh" unicode="&#xa5;" horiz-adv-x="676" 
d="M219 635h-102v-306q0 -9 6 -17.5t15 -12.5q4 -9 12.5 -15.5t19.5 -6.5h196v-161q-3 -4 -6 -4h-121v76h-20v20h-183v-183q0 -11 6.5 -21t16.5 -14q5 -10 12.5 -16.5t18.5 -6.5h445q15 0 24 12.5t9 25.5v187h94v133h-20v20h-79l-2 4l-3 5h104v133h-20v19h-155v109h-19v20
h-102v-206h-127v186h-20v20zM204 427q0 -6 2.5 -7.5t6.5 -3.5h-1q1 -1 2 -1t2 -1h153q12 0 12 13v193h72v-128h174v-103h-119q11 -11 18 -22.5t7 -22.5v-14h94v-103h-94v-202q0 -8 -5 -15.5t-13 -7.5h-445q-8 0 -13.5 7.5t-5.5 15.5v168h153v-78q0 -9 6 -13.5t15 -4.5h135
q17 0 21 16v188q-4 5 -8 8t-13 3h-209q-8 0 -13.5 5.5t-5.5 11.5v291h72v-193z" />
    <glyph glyph-name="FL00A8h" unicode="&#xa6;" horiz-adv-x="252" 
d="M36 -140h19v-20h183v903h-20v20h-102v-332q-13 -5 -27 -13.5t-26 -20t-19.5 -25t-7.5 -28.5v-484zM51 344q0 13 8.5 25.5t20.5 23t26 17.5t25 10v328h72v-873h-152v469z" />
    <glyph glyph-name="FL00B3h" unicode="&#xa7;" horiz-adv-x="501" 
d="M363 322l2 2v60h-127q1 -1 1 -2v0v-60h124zM380 320q0 -6 -3 -7.5t-6 -3.5h1q-1 -1 -2 -1t-2 -1h-152q-12 0 -12 13v82q0 6 4.5 11.5t8.5 5.5h150q6 0 9.5 -5.5t3.5 -11.5v-82zM146 513q-13 -2 -15 -13v-79q0 -4 -15 -11h1l-19.5 -12.5t-22 -16t-17.5 -18t-7 -19.5v-342
h153v203h234q9 0 11.5 2t2.5 8v405h-72v-107h-234zM365 528v107h102v-20h20v-420q0 -16 -5 -20.5t-24 -4.5h-219v-203h-183v20h-20v357q0 13 8 25t19 22t24 18l22 14q2 1 5 1q2 0 2 -1v78q3 24 29 27h220z" />
    <glyph glyph-name="FL0066h" unicode="&#xa8;" 
d="M535 -33q15 0 24 12.5t9 25.5v319q0 18 -10.5 34t-26.5 28q-8 11 -20 20t-24 16v158q0 7 -7 16.5t-18 14.5q-4 9 -12 16.5t-18 7.5h-349q-20 0 -33.5 -10.5t-13.5 -32.5v-567q0 -11 6.5 -21t16.5 -14q5 -10 12.5 -16.5t18.5 -6.5h445zM70 2q-8 0 -13.5 7.5t-5.5 15.5v567
q0 14 9 21t23 7h349q8 0 14 -7.5t6 -12.5v-180q12 -3 26 -10t26 -17.5t20.5 -23t8.5 -25.5v-319q0 -8 -5 -15.5t-13 -7.5h-445zM381 508q0 6 -4.5 11.5t-8.5 5.5h-151q-4 0 -8.5 -5.5t-4.5 -11.5v-393q0 -9 6 -13.5t15 -4.5h135q9 0 15 4.5t6 13.5v393zM360 112h-121v377v0
q0 1 -1 2h128v-376q0 -3 -6 -3z" />
    <glyph glyph-name="FL00B1h" unicode="&#xa9;" horiz-adv-x="306" 
d="M213 640l-9 6l3 -3h-1q6 -4 9 -7zM220 585q-1 -3 -1.5 -6t-1.5 -5l4 -1q4 8 6 19l-16 -3l8 -3zM191 597l-2 2q-2 3 -3.5 4.5l-2.5 2.5l-6 -1q-2 2 -2 4q-23 0 -23 -31v-6h2q15 0 25 29zM155 540q36 0 47 36l-14 6q-10 -25 -34 -25q-37 0 -37 41q0 46 38 46q18 0 30 -22
l15 4q-8 31 -45 31q-54 0 -54 -59q0 -58 54 -58zM158 688q16 0 31 -7.5t27 -20t19 -27.5t7 -30v-5q0 -20 -12.5 -41.5t-33.5 -33.5q-31 -11 -41 -11h-2q-7 0 -20 2t-24 9q-10 7 -18 15.5t-13 19.5v-1q-11 16 -11 41q0 28 11 46q26 44 77 44h3zM155 701q-20 0 -39 -8.5
t-33.5 -22.5t-23 -32.5t-8.5 -39.5q0 -25 15 -50q11 -14 17 -20.5t20 -17.5h-1q13 -6 26.5 -10t26.5 -4q30 0 53.5 17t32.5 34q16 31 16 51q0 26 -13 46q-7 14 -15.5 24t-26.5 21h1q-5 2 -13 4q-14 5 -22 6.5t-13 1.5zM155 716q8 0 34 -9v1l9 -3t13 -4q22 -14 33 -28
q16 -13 28 -33v1q20 -32 20 -63q0 -26 -17 -57q-5 -10 -15 -20.5t-23 -19.5t-29 -14.5t-33 -5.5t-32 4t-29 11q-11 8 -17.5 14.5t-14.5 15.5l-14 14.5t-16 19.5q-16 26 -16 58q0 24 9.5 45.5t26 37.5t38 25.5t45.5 9.5z" />
    <glyph glyph-name="FL00ABh" unicode="&#xaa;" horiz-adv-x="501" 
d="M235 487q0 4 10 4h40v-213q0 -18 10.5 -34t25.5 -29q8 -10 18.5 -19t23.5 -17v-192h20v-20h103v610q0 11 -7 21.5t-18 14.5v-1q-4 10 -12 16.5t-17 6.5h-364q-15 0 -24 -12.5t-9 -25.5v-610h20v-20h101v203q13 5 27 13.5t25.5 20t19 25.5t7.5 29v229zM200 278
q0 -14 -8 -26t-20 -22.5t-25.5 -17.5t-25.5 -10v-200h-71v595q0 8 5 15.5t13 7.5h364q8 0 13.5 -7.5t5.5 -15.5v-595h-73v200q-12 3 -25.5 10t-25 17.5t-19.5 22.5t-8 26v227l-2 3q-2 17 -21 17h-52q-8 0 -16.5 -5t-8.5 -14v-228z" />
    <glyph glyph-name="FL00AEh" unicode="&#xab;" horiz-adv-x="440" 
d="M426 517l-20 -18v38l-174 -143v-60l20 -17v-3l174 -143v162l-20 5v13l20 5v161zM230 517l-20 -18v38l-174 -143v-60l20 -17v-3l174 -143v162l-20 5v13l20 5v161zM104 362l91 -22v-117l-144 119v44l144 118v-117l-91 -23v-2zM300 362l91 -22v-117l-144 119v44l144 118
v-117l-91 -23v-2z" />
    <glyph glyph-name="FL00ACh" unicode="&#xac;" horiz-adv-x="420" 
d="M406 166v241h-20v20h-350v-132h20v-20h198v-89h20v-20h132zM269 310h-218v102h320v-212h-102v110z" />
    <glyph glyph-name="FL00ADh" unicode="&#xad;" horiz-adv-x="359" 
d="M51 308h259v102h-259v-102zM56 273v20h-20v131h289v-19h20v-132h-289z" />
    <glyph glyph-name="FL00B2h" unicode="&#xae;" horiz-adv-x="306" 
d="M212 560q0 1 2 3q1 1 1 2t1 2v-1q1 2 2 3.5t2 3.5q-3 -4 -11 -10l0.5 -1t2.5 -2zM201 644q0 -1 3 -4q1 -1 1 -3l3 -1q3 -2 11 -10q-2 3 -3.5 6l-3.5 7q-5 3 -8.5 5.5t-7.5 3.5q2 -2 5 -3v-1zM160 548v-22q6 0 10 1zM125 637h39q13 -7 13 -17q0 -11 -5.5 -15.5t-23.5 -4.5
h-23v37zM110 651v-109h15v46h13q8 0 13 -5h-1q7 -3 21 -21l8 -20h19l-13 22q-8 11 -12 15.5t-15 11.5q36 1 36 31q0 6 -7 16l-4 4l-5 2.5l-3 1.5q-8 5 -29 5h-36zM158 686q16 0 31 -7t26.5 -19t18.5 -27.5t7 -31.5l1 -4q-1 -9 -2 -14t-2.5 -9t-4 -8.5t-6.5 -12.5
q-22 -26 -36.5 -34t-35.5 -8h-4q-9 0 -21.5 5t-24.5 12.5t-20 15t-8 12.5q-6 19 -7.5 24.5t-3.5 16.5q0 12 2.5 23t9.5 22q26 44 77 44h3zM155 700q-16 0 -28 -2.5t-22 -9.5q-14 -7 -24 -18t-21 -34q-1 -3 -3 -7l-4 -14t-2 -18q0 -26 14 -52v1q32 -50 90 -50h2q8 0 20.5 3.5
t24.5 10t22.5 15.5t15.5 20q17 32 17 52q0 24 -16 51t-42 40q-9 7 -20.5 9.5t-23.5 2.5zM155 715q32 0 56 -17q10 -5 18 -12.5l16 -15.5q21 -17 34 -42.5t13 -50.5t-18 -58h-1q-6 -14 -18.5 -24.5t-26.5 -18t-28 -11.5t-23 -4h-2q-61 0 -96 44q-7 6 -12.5 12t-8.5 11
q-22 42 -22 69q0 12 2.5 21.5t6.5 20.5q2 4 3 7q12 24 22.5 35.5t25.5 17.5q23 16 59 16z" />
    <glyph glyph-name="FL00AFh" unicode="&#xaf;" horiz-adv-x="500" 
d="M26 517h418v98h-418v-98zM31 482v20h-20v127h448v-19h20v-128h-448z" />
    <glyph glyph-name="FL00B0h" unicode="&#xb0;" 
d="M203 195q0 5 2.5 7t6.5 4h-1q1 1 2 1t2 1h153q12 0 12 -13v-193h72v200q11 3 25 10t26.5 17.5t21 22.5t8.5 26v342h-153v-299q-4 -5 -8 -8t-13 -3h-138q-2 0 -9 3t-9 9v298h-152v-342q0 -14 8.5 -26t20.5 -22.5t26 -17.5t26 -10v-200h71v193zM548 615h20v-357
q0 -15 -8 -29t-20 -25.5t-26.5 -20t-26.5 -13.5v-203h-102v20h-20v186h-125l-2 -2v-204h-102v20h-19v192q-14 8 -25.5 16.5t-19.5 19.5q-15 13 -25.5 28.5t-10.5 34.5v357h182v-20h20v-290h121q3 0 6 3v307h183v-20z" />
    <glyph glyph-name="FL00B4h" unicode="&#xb1;" horiz-adv-x="420" 
d="M296 166v110h110v133h-20v19h-90v89h-19v20h-133v-109h-108v-132h20v-20h88v-90h20v-20h132zM406 -33v133h-20v20h-350v-133h20v-20h350zM159 311h-108v103h108v108h103v-108h109v-103h-109v-110h-103v110zM51 105h320v-103h-320v103z" />
    <glyph glyph-name="FL00B6h" unicode="&#xb2;" horiz-adv-x="419" 
d="M36 558v-184h20v-20h349v125h-20v20h-150v-48h-30v58h103q10 0 19 7.5t9 15.5v135q0 4 -6 11t-14 10q-2 6 -10.5 14.5t-19.5 8.5h-191v-76h19v-19h121v-7h-129q-9 -2 -21.5 -6.5t-23 -11t-18 -15t-7.5 -18.5zM250 642q-1 8 -10 8h-131v46h177q6 0 10.5 -3.5t4.5 -5.5
v-135q0 -3 -4 -5.5t-9 -2.5h-103q-10 0 -14 -4l-1 -1v-102h80v47h120v-95h-319v169q0 6 6 12t14.5 11t18.5 8.5t18 4.5h132h1q0 1 1 1q2 1 5 2t3 4v41z" />
    <glyph glyph-name="FL00BAh" unicode="&#xb3;" horiz-adv-x="823" 
d="M514 326l-22 -5l2 25l-52 -11l-3 -23l-7 2v15l-46 12l-4 -64l-75 75v-35q-17 20 -50 20h-20q-11 -7 -20 -16h1q-11 -2 -18 -3l2 24q-27 -4 -48 -9.5t-35 -14.5v1l-22 -3l2 23l-49 -6l-16 -150l23 7l-3 -27l55 19l1 10l4 -2t5 -3h-1q16 -27 49 -27q9 0 12 1h1q0 1 1 1
t1.5 0.5t1.5 0.5q2 1 5 2t17 3l-2 23q15 -22 55 -22q12 0 17 1q1 0 1.5 0.5t2.5 0.5q22 0 35 16h-1l13 2v-23l50 9v30q34 -34 62 -34l7 7v-7l48 11v-2h52q13 24 20 27l3 -6l10 -2h-1l5 -7.5t5 -10.5l33 -6v-1h6l44 4v30q32 -32 59 -32l35 -30l44 41l-28 12l5 5h8l17 111
l-23 3l3 17l-59 9l-2 -26l-5 1v16l-49 10l-4 -61l-51 56v-2l-20 22v-43l-2 2q-1 1 -2 1l-1 1q-15 24 -36 24q-22 0 -28 -10l-1 1q-8 -10 -19 -28zM306 285q-11 -79 -46 -79q-2 0 -3.5 -0.5t-3.5 -0.5q-5 -1 -14 -1q-32 0 -42 18q0 72 46 100h14q40 0 49 -37zM548 242
q-15 0 -31 -27h-25q11 56 51 110q2 5 17 5q21 0 33 -36v-82l-14 3q-14 27 -31 27zM342 264v-56l-20 -4v111l73 -72l5 79l17 -5v-111q-28 0 -75 58zM636 270v-58l-20 -2v110l70 -75l4 82l20 -5v-111q-29 0 -74 59zM179 302q-1 1 -7 1q-14 0 -34 -17q-18 -21 -18 -47
q0 -24 27 -24q8 0 13.5 0.5t9.5 1.5l1 -17q-5 -2 -8 -2t-5 -1q-3 -1 -5.5 -1.5t-5.5 -0.5q-35 0 -47 52q-2 2 -2 6v8q0 52 89 64l-2 -25l-3 1.5t-3 0.5zM283 268v4q0 2 -0.5 5t-0.5 6q-11 14 -25 14q-23 0 -36 -36v-8q0 -29 20 -29q15 0 34 10q5 10 6.5 16.5t1.5 17.5z
M456 322l22 5l-7 -110l-28 -7zM64 319l19 3l-8 -110l-24 -8zM746 327l28 -5l-13 -82l-19 2zM556 307l-25 -42h42zM156 230q3 14 13 26q11 10 17 11h2q-2 -6 -3 -12.5l-2 -13.5q-7 -3 -13 -6t-14 -5zM732 199l13 10l17 -6l-17 -16zM263 245q-4 -4 -7 -4l5.5 9.5t6.5 7.5
q-1 -4 -2 -7t-3 -7v1zM745 226h2v-1h-2v1z" />
    <glyph glyph-name="FL0069h" unicode="&#xb4;" horiz-adv-x="500" 
d="M37 -13h20v-20h429v125h-20v20h-66v224q0 12 -9 23.5t-22 22.5q-9 11 -21.5 21t-25.5 18v65q0 1 4 5h159v124h-20v20h-429v-125h20v-19h142v-62q-3 0 -4 -1q-8 -4 -20.5 -11t-24.5 -16.5t-20.5 -21t-8.5 -24.5v-241l-2 -2h-81v-125zM125 97q6 5 7.5 7.5t2.5 8.5v242
q0 10 8 19t19 17.5t22.5 14.5l19.5 10q5 2 6 2.5l3 1.5v91q-2 8 -13 14h-149v95h399v-95h-150q-12 -8 -13 -18v-87q6 -1 19 -7.5t26 -15.5t23 -20t10 -21v-243q1 -11 13 -16h73v-95h-399v95h73z" />
    <glyph glyph-name="FL00B5h" unicode="&#xb5;" 
d="M238 429v186h-20v20h-101v-204q-13 -5 -27.5 -13.5t-26.5 -20t-19.5 -25t-7.5 -28.5v-319q0 -11 6 -21.5t17 -14.5q4 -8 11.5 -15t18.5 -7h445q14 0 24 12.5t10 25.5v183h-20v20h-183v-93q0 -3 -6 -3h-121v163q2 2 6 2h209q14 0 24 10.5t10 21.5v306h-20v20h-102v-204
l-2 -2h-125zM433 312h-209q-9 0 -13 -3t-8 -8v-188q4 -16 21 -16h135q9 0 15 4.5t6 13.5v78h153v-168q0 -8 -5.5 -15.5t-13.5 -7.5h-445q-8 0 -13 7.5t-5 15.5v319q0 13 8.5 25.5t20.5 23t26 17.5t26 10v200h71v-193q0 -13 12 -13h153q1 1 2 1t2 1h-1q3 2 6 3.5t3 7.5v193
h72v-291q0 -6 -5.5 -11.5t-13.5 -5.5z" />
    <glyph glyph-name="FL0052h" unicode="&#xb6;" 
d="M568 356v224q0 7 -7 16.5t-18 14.5h1h-1v1v-1q-4 9 -12 16.5t-18 7.5h-361q-7 0 -13 -4t-11 -9.5t-8 -11.5t-3 -10v-169q-13 -5 -27 -13.5t-26 -20t-20 -25t-8 -28.5v-357h20v-20h183v308h1l1 1h125v-289h20v-20h101v301q13 5 27 13.5t26 20t20 25.5t8 29zM533 376
q0 -14 -8.5 -26t-20.5 -22.5t-26 -17.5t-26 -10v-298h-71v296q0 13 -12 13h-153q-1 -1 -2 -1t-2 -1q-7 -1 -8 -9v-298h-153v342q0 13 8.5 25.5t21 23t26.5 17.5t25 10v180q0 5 6 12.5t14 7.5h361q8 0 14 -7.5t6 -12.5v-224zM460 508q0 6 -4.5 11.5t-8.5 5.5h-230
q-5 0 -8.5 -5t-4.5 -10v-83q0 -13 12 -13h226q15 5 18 11v83zM440 429h-201v62h206v-61h-1q-1 0 -1.5 -0.5t-2.5 -0.5z" />
    <glyph glyph-name="FL00B8h" unicode="&#xb7;" horiz-adv-x="252" 
d="M51 263h152v190h-152v-190zM238 228h-183v20h-19v220h182v-20h20v-220z" />
    <glyph glyph-name="FL007Eh" unicode="&#xb8;" 
d="M36 -13h20v-20h512v221h-20v20h-182v-96h-127v165h248v338h-20v20h-350v-177h19v-20h103v53h127v-62h-330v-442zM204 525v-52h-72v147h320v-308h-248v-215h177v96h152v-191h-482v412h330v111h-177z" />
    <glyph glyph-name="FL00B9h" unicode="&#xb9;" horiz-adv-x="218" 
d="M50 389h120v307h-119v-46h52q9 -2 11 -8v-45q-9 -1 -20 -4.5t-20.5 -8.5t-16.5 -11t-7 -13v-171zM185 711v-20h20v-337h-150v20h-19v186q0 17 21 31t42 19v6h-43v19h-19v76h148z" />
    <glyph glyph-name="FL00BDh" unicode="&#xba;" horiz-adv-x="420" 
d="M158 505h124l2 2v60h-127q1 -1 1 -2v0v-60zM299 503q0 -6 -3 -7.5t-6 -3.5h1q-1 -1 -2 -1t-2 -1h-152q-12 0 -12 13v82q0 6 4.5 11.5t8.5 5.5h150q6 0 9.5 -5.5t3.5 -11.5v-82zM371 676q0 5 -6 12.5t-14 7.5h-279q-8 0 -14.5 -7.5t-6.5 -12.5v-271q0 -16 24 -16h278
q8 0 13 5.5t5 11.5v270zM406 386q0 -11 -9 -21.5t-24 -10.5h-278q-34 0 -38 22q-12 3 -16.5 10t-4.5 19v271q0 8 11 21.5t25 13.5h279q10 0 18 -7.5t12 -16.5q11 -5 18 -14.5t7 -16.5v-270z" />
    <glyph glyph-name="FL00BBh" unicode="&#xbb;" horiz-adv-x="440" 
d="M247 504v-117l90 -23v-2l-90 -22v-117l144 119v44zM51 504v-117l90 -23v-2l-90 -22v-117l144 119v44zM36 537l174 -143v-4l20 -16v-60l-174 -143v36l-20 -16v162l20 5v13l-20 5v161zM232 537l174 -143v-4l20 -16v-60l-174 -143v36l-20 -16v162l20 5v13l-20 5v161z" />
    <glyph glyph-name="mu" unicode="&#xbc;" horiz-adv-x="1160" 
d="M1146 257q0 19 -25 37v-1q-4 6 -11.5 13.5t-19.5 14.5q15 12 15 33v19l-20 5v15l-98 24q3 9 3 23l-20 19v1l-22 21h-133l3 18l-23 2l3 18l-67 6l-114 -21l-13 11l1 2l-36 33l-132 -61l-62 37q-26 -11 -46.5 -28t-46.5 -48l-69 23h-5q-45 0 -48 -90l-81 8l-6 -58l27 -34
l-68 -9l14 -53l16 -8l4 -12l31 -14l-19 -14q0 -40 23 -46q7 -21 30 -21l61 -11v-33l20 -2v-18l153 -13l-2 -8l22 -13l-2 -7l34 -20l145 21v-8l20 -7v-13l38 -13l129 61l43 -35l46 8l64 67q20 -11 34.5 -16.5t34.5 -5.5q29 0 40 27l7 61l59 -12q34 13 34 42v6l-6 17l-22 27
h41l17 31v-1zM1109 287l-14 -28h-64l42 -52v1l3 -9v-5q0 -18 -20 -27l-71 15l-9 -78q-5 -13 -25 -13q-17 0 -31 5.5t-34 16.5l-9 2l-67 -70l-33 -6l-44 38l-135 -64l-21 7v38l-177 -25l-20 11l8 33l-181 15v21l22 24l-116 19q-20 0 -20 24l45 33l-79 34l-8 30l79 12l-41 50
l4 36l82 -8q0 91 33 91h4l77 -24q29 34 46.5 51t36.5 25l64 -37l128 58l25 -21l-3 -18l3 -8l143 26l49 -5l-6 -39h165l15 -14q-1 -31 -26 -33v-2l141 -36v-7q0 -29 -51 -35v-2q90 -33 92 -50h-2zM1084 291l-112 52l68 19h11l-10 15l-160 32l57 39h-191l14 45l-184 -25l-5 39
l-16 5l-127 -58l-56 40l-76 -75q-7 -4 -16 -4q-27 0 -70 27l-14 -92l-89 8l4 -30l47 -56l-87 -5v-2l118 -57l-80 -33l171 -36l-58 -36l196 -7l-21 -44l177 29l22 -25l-9 -26l143 65l65 -40l71 80l90 -27l7 91l93 -14q1 5 1 6t2 1q0 18 -58 78l88 7zM691 328l-22 -5l2 25
l-52 -11l-3 -23l-7 2v15l-46 12l-4 -64l-75 75v-35q-17 20 -50 20h-20q-11 -7 -20 -16h1q-11 -2 -18 -3l2 24q-28 -4 -49 -9.5t-35 -14.5v1l-21 -3l2 23l-43 -6l9 63q17 -10 30.5 -14t27.5 -4q16 0 27 7l67 66l53 -35l114 50l3 -17l17 2l3 -22l148 20l-4 -18h25l-5 -19h111
l-17 -12l37 -9l-17 -11l110 -23l-43 -12l13 -6l-33 5l-2 -26l-5 1v16l-49 10l-4 -61l-50 56v-2l-20 22v-43l-2 2q-1 1 -2 1l-1 1q-15 24 -37 24t-28 -10l-1 1q-8 -10 -19 -28zM805 175l43 4v30q32 -32 59 -32l35 -31l2 2l-1 -21l-83 24l-68 -75l-58 37l-117 -54l-15 18h-2
l-18 20l-126 -21l7 14l-29 1l9 19l-122 4l19 12l-39 8l19 11l-87 19l52 19l1 10l4 -2t5 -3h-1q16 -27 49 -27q9 0 12 1h1q0 1 1 1t1.5 0.5t1.5 0.5q2 1 5.5 2t17.5 3l-2 23q15 -22 55 -22q12 0 17 1q1 0 1.5 0.5t2.5 0.5q22 0 35 16l12 2v-23l50 9v30q34 -34 62 -34l7 7v-7
l48 11v-2h52q13 24 20 27l3 -6l10 -2h-1q6 -8 11 -18l33 -6v-1h6zM483 287q-11 -80 -46 -80q-2 0 -3.5 -0.5t-3.5 -0.5q-5 -1 -14 -1q-32 0 -42 18q0 73 46 101h14q40 0 49 -37zM725 243q-15 0 -31 -27h-25q11 58 51 111q2 5 17 5q20 0 34 -36v-83l-15 3q-14 27 -31 27z
M519 265v-56l-20 -4v112l73 -73l5 80l17 -5v-112q-28 0 -75 58zM814 272v-59l-20 -2v111l69 -76l4 83l20 -5v-112q-30 0 -73 60zM355 304q-1 1 -7 1q-14 0 -34 -17q-18 -21 -18 -48q0 -24 27 -24q8 0 13.5 0.5t9.5 1.5l1 -17q-5 -2 -8 -2t-5 -1q-3 -1 -5.5 -1.5t-5.5 -0.5
q-36 0 -46 52q-2 2 -2 6v8q0 53 88 65l-2 -25l-3 1.5t-3 0.5zM212 238l-66 77v-1l-1 7l80 -7l-11 -102l-48 23zM460 270v4q0 2 -0.5 5t-0.5 6q-11 14 -25 14q-23 0 -36 -37v-8q0 -29 20 -29q15 0 34 10q5 10 6.5 16.5t1.5 18.5zM633 324l22 5l-7 -111l-28 -7zM241 321l19 3
l-8 -111l-24 -8zM1040 202l-68 11l8 56q48 -49 60 -67zM923 329l28 -5l-13 -83l-19 2zM733 309l-25 -42h42zM986 309l46 -22l-50 -3zM332 231q3 14 13 26q5 5 9.5 8t7.5 4h2q-2 -7 -3 -13.5l-2 -13.5q-7 -3 -13 -6t-14 -5zM909 200l13 10l17 -6l-17 -16zM206 170l27 11
l-2 -16zM440 246q-4 -4 -7 -4l5.5 9.5t6.5 7.5q-1 -4 -2 -7t-3 -7v1zM922 227h2v-1h-2v1z" />
    <glyph glyph-name="FL00BEh" unicode="&#xbd;" horiz-adv-x="663" 
d="M166 386h120v308h-119v-46h52q9 -2 11 -8v-45q-9 -1 -20 -4.5t-20.5 -8.5t-16.5 -11t-7 -13v-172zM493 139q0 -3 -3 -4t-5 -2q-1 0 -1 -1h-1h-131q-8 -1 -18 -4.5t-19 -8.5t-15 -11t-6 -12v-170h320v96h-121v-48h-79v103l1 1q4 4 14 4h103q5 0 9 2.5t4 5.5v135
q0 2 -4.5 5.5t-10.5 3.5h-177v-45h130q9 0 10 -8v-42zM435 273q8 0 13 5.5t5 11.5v330h-72v-258q0 -6 -3 -7.5t-6 -3.5h1q-1 -1 -2 -1t-2 -1h-238q-11 -3 -25 -9t-26 -15t-20.5 -20.5t-8.5 -25.5v-277h153v260q4 5 8 8t13 3h210zM467 635v-20h20v-345q0 -13 -8 -21h51
q11 0 19.5 -8.5t10.5 -14.5q8 -3 14 -10t6 -11v-135q0 -8 -9 -15.5t-19 -7.5h-103v-58h29v48h151v-20h20v-126h-350v20h-20v185q0 10 7.5 18.5t18.5 15t23 11t22 6.5h128v7h-120v20h-20v64h-93q-4 0 -6 -2v-269h-183v20h-20v292q0 18 9.5 32t24 24.5t30.5 18t28 10.5h43v7
h-19v187q0 17 21 31t42 19v5h-43v20h-19v76h148v-20h20v-325h43l2 2v269h101z" />
    <glyph glyph-name="FL0B23h" unicode="&#xbe;" horiz-adv-x="1115" 
d="M900 184l-17 16l16 13l22 -9zM690 269h35l-14 34zM918 239l-23 2l4 90l32 -5zM232 212l-28 -9l13 120l23 3zM436 274q0 2 -0.5 4t-0.5 5q-11 14 -23 14q-20 0 -34 -35v-8q0 -27 18 -27q7 0 15 2t17 7q5 10 6.5 16.5t1.5 17.5v4zM628 216l-32 -7l13 117l26 5zM341 298
q-5 3 -6 3.5t-3 0.5q0 1 -6 1q-12 0 -32 -17q-18 -21 -18 -46q0 -22 25 -22q19 0 25 3l1 -21q-7 -2 -10 -2.5t-5 -1.5q-3 -1 -5.5 -1.5t-5.5 -0.5q-36 0 -48 53v-1q-2 2 -2 8v8q0 55 92 67zM866 210q-32 0 -72 54v-53l-24 -2v119l69 -76l4 79l24 -5v-115zM573 205
q-29 0 -74 53v-51l-24 -4v120l73 -73l5 76l21 -5v-115zM733 214q-14 27 -30 27q-13 0 -29 -27h-29q12 62 52 116v-1q2 5 18 5q23 0 36 -38v-85zM463 287q-10 -82 -48 -82q-2 0 -3.5 -0.5t-3.5 -0.5q-5 -1 -14 -1q-34 0 -44 18q0 77 46 105h16q42 0 51 -39zM1036 194
q-2 18 -62 78l91 7l-5 10l-115 55l73 20h6l-7 11l-164 33l55 38h-185l13 45l-183 -25l-5 39l-14 5l-128 -58l-55 38l-74 -74q-7 -4 -18 -4q-29 0 -69 26l-13 -90l-89 8l4 -27v1l51 -60l-90 -5l119 -57l-78 -33l171 -36l-56 -34l191 -7l-21 -44l176 29l22 -25l-8 -25l142 65
l62 -39l70 77l90 -26l7 91l93 -14q0 7 3 7zM1109 246l-82 -7q44 -49 44 -80q-3 0 -3.5 -1t-1.5 -8l-92 14l-7 -93l-97 29l-73 -82l-69 42l-163 -74l11 34l-31 -14l12 39l-184 -30l12 25l-32 -5l14 30l-189 7l29 18l-49 2l47 29l-141 30l25 9l-45 11l80 33l-67 33l2 8l-22 12
l5 23l68 3l-33 40l-6 49l93 -8l15 100q56 -37 80 -37q7 0 11 2h-1l81 82l58 -42l125 57l29 -10l2 -15l18 -5l1 -11l174 24l-8 -24l28 4l-9 -28h189l-29 -20h49l-48 -34l97 -18l13 -19h-1l8 -1l28 -40h-33l-19 -5l50 -23l6 -15l14 -5z" />
    <glyph glyph-name="FL00BFh" unicode="&#xbf;" horiz-adv-x="581" 
d="M299 429h153v191h-153v-191zM284 635h183v-20h20v-221h-183v20h-20v221zM121 195q0 5 2.5 7t6.5 4h-1q1 1 2 1t2 1h238q11 3 25 9.5t26 16.5t20.5 22t8.5 26v95h-153v-56q-4 -5 -8 -8t-13 -3h-209q-8 0 -13 -5.5t-5 -11.5v-271q0 -5 6 -12.5t14 -7.5h300v95h-236
q-12 0 -13 14v84zM466 372h20v-110q0 -17 -9.5 -32t-24 -26.5t-30.5 -19.5t-28 -11h-236l-2 -2v-59h229v-20h20v-125h-315q-11 0 -19 8t-13 16q-9 5 -16 14.5t-7 16.5v271q0 11 9 21.5t24 10.5h209q3 0 6 3v64h183v-20z" />
    <glyph glyph-name="FL00C0h" unicode="&#xc0;" 
d="M359 664l-45 145h-118l120 -145h43zM360 112q6 0 6 3v162h-124q-1 0 -3 -2v-163h121zM361 312q16 -4 20 -13v-184q0 -9 -6 -13.5t-15 -4.5h-135q-9 0 -15 4.5t-6 13.5v185q2 6 9 9t9 3h139zM381 436q0 -8 -2 -13t-11 -8h-237q-11 -3 -25 -9.5t-26 -15.5t-20.5 -21
t-8.5 -25v-319q0 -8 5.5 -15.5t13.5 -7.5h445q8 0 13 7.5t5 15.5v319q0 13 -8.5 25.5t-20.5 23t-26 17.5t-26 10v181q0 5 -6 12.5t-14 7.5h-280q-8 0 -14 -7.5t-6 -12.5v-128h72v36q0 6 4.5 11.5t8.5 5.5h151q4 0 8 -5t5 -10v-75zM397 636h35q10 0 18 -7.5t12 -16.5v1
q11 -5 18 -15t7 -17v-159q12 -7 24 -16t20 -20q16 -12 26.5 -28t10.5 -34v-319q0 -13 -9 -25.5t-24 -12.5h-445q-11 0 -18.5 6.5t-12.5 16.5q-10 4 -16.5 14t-6.5 21v319q0 17 9.5 31t24 25.5t30.5 19t28 10.5h237q1 0 1 6v55h-128q1 -1 1 -2v0v-51h-103v20h-19v143
q0 4 3 10t8 11.5t11 9.5t13 4h170l-11 13h-3l-144 175h161l5 -20h15z" />
    <glyph glyph-name="FL00C1h" unicode="&#xc1;" 
d="M268 664l119 145h-118l-45 -145h44zM360 112q6 0 6 3v162h-124q-1 0 -3 -2v-163h121zM361 312q16 -4 20 -13v-184q0 -9 -6 -13.5t-15 -4.5h-135q-9 0 -15 4.5t-6 13.5v185q2 6 9 9t9 3h139zM381 436q0 -8 -2 -13t-11 -8h-237q-11 -3 -25 -9.5t-26 -15.5t-20.5 -21
t-8.5 -25v-319q0 -8 5.5 -15.5t13.5 -7.5h445q8 0 13 7.5t5 15.5v319q0 13 -8.5 25.5t-20.5 23t-26 17.5t-26 10v181q0 5 -6 12.5t-14 7.5h-280q-8 0 -14 -7.5t-6 -12.5v-128h72v36q0 6 4.5 11.5t8.5 5.5h151q4 0 8 -5t5 -10v-75zM259 824h160l-17 -20h37l-139 -168h132
q10 0 18 -7.5t12 -16.5q11 -5 18 -14.5t7 -16.5v-159q12 -7 24 -16t20 -20q16 -12 26.5 -28t10.5 -34v-319q0 -13 -9 -25.5t-24 -12.5h-445q-11 0 -18.5 6.5t-12.5 16.5q-10 4 -16.5 14t-6.5 21v319q0 17 9.5 31t24 25.5t30.5 19t28 10.5h237q1 0 1 6v55h-128q1 -1 1 -2v0
v-51h-103v20h-19v143q0 4 3 10t8 11.5t11 9.5t13 4h74l4 13h-25z" />
    <glyph glyph-name="FL00C2h" unicode="&#xc2;" 
d="M302 636h20l-4 13h-13zM360 112q6 0 6 3v162h-124q-1 0 -3 -2v-163h121zM292 755l23 -91h117l-118 145h-44l-120 -145h118l22 91h2zM361 312q16 -4 20 -13v-184q0 -9 -6 -13.5t-15 -4.5h-135q-9 0 -15 4.5t-6 13.5v185q2 6 9 9t9 3h139zM381 436q0 -8 -2 -13t-11 -8h-237
q-11 -3 -25 -9.5t-26 -15.5t-20.5 -21t-8.5 -25v-319q0 -8 5.5 -15.5t13.5 -7.5h445q8 0 13 7.5t5 15.5v319q0 13 -8.5 25.5t-20.5 23t-26 17.5t-26 10v181q0 5 -6 12.5t-14 7.5h-280q-8 0 -14 -7.5t-6 -12.5v-128h72v36q0 6 4.5 11.5t8.5 5.5h151q4 0 8 -5t5 -10v-75z
M448 630q10 -8 14 -18v1q11 -5 18 -15t7 -17v-159q12 -7 24 -16t20 -20q16 -12 26.5 -28t10.5 -34v-319q0 -13 -9 -25.5t-24 -12.5h-445q-11 0 -18.5 6.5t-12.5 16.5q-10 4 -16.5 14t-6.5 21v319q0 17 9.5 31t24 25.5t30.5 19t28 10.5h237q1 0 1 6v55h-128q1 -1 1 -2v0v-51
h-103v20h-19v143q0 7 7.5 17.5t17.5 15.5h-1l13 15h-35l143 175h60l16 -20h4l143 -174h-37z" />
    <glyph glyph-name="FL00C3h" unicode="&#xc3;" 
d="M276 636h20l-4 13h-13zM360 112q6 0 6 3v162h-124q-1 0 -3 -2v-163h121zM296 809h-52l-119 -145h117l22 91h2l23 -91h53l118 145h-116l-22 -92h-2zM361 312q16 -4 20 -13v-184q0 -9 -6 -13.5t-15 -4.5h-135q-9 0 -15 4.5t-6 13.5v185q2 6 9 9t9 3h139zM381 436
q0 -8 -2 -13t-11 -8h-237q-11 -3 -25 -9.5t-26 -15.5t-20.5 -21t-8.5 -25v-319q0 -8 5.5 -15.5t13.5 -7.5h445q8 0 13 7.5t5 15.5v319q0 13 -8.5 25.5t-20.5 23t-26 17.5t-26 10v181q0 5 -6 12.5t-14 7.5h-280q-8 0 -14 -7.5t-6 -12.5v-128h72v36q0 6 4.5 11.5t8.5 5.5h151
q4 0 8 -5t5 -10v-75zM308 824l5 -20h13l5 20h162l-18 -20h38l-139 -168h58q10 0 18 -7.5t12 -16.5q11 -5 18 -14.5t7 -16.5v-159q12 -7 24 -16t20 -20q16 -12 26.5 -28t10.5 -34v-319q0 -13 -9 -25.5t-24 -12.5h-445q-11 0 -18.5 6.5t-12.5 16.5q-10 4 -16.5 14t-6.5 21v319
q0 17 9.5 31t24 25.5t30.5 19t28 10.5h237q1 0 1 6v55h-128q1 -1 1 -2v0v-51h-103v20h-19v143q0 5 4.5 14t12.5 15h-21l16 19h-36l143 175h72z" />
    <glyph glyph-name="FL00C4h" unicode="&#xc4;" 
d="M303 636h18v13h-18v-13zM149 664h119v145h-119v-145zM316 664h118v145h-118v-145zM360 112q6 0 6 3v162h-124q-1 0 -3 -2v-163h121zM361 312q16 -4 20 -13v-184q0 -9 -6 -13.5t-15 -4.5h-135q-9 0 -15 4.5t-6 13.5v185q2 6 9 9t9 3h139zM381 436q0 -8 -2 -13t-11 -8h-237
q-11 -3 -25 -9.5t-26 -15.5t-20.5 -21t-8.5 -25v-319q0 -8 5.5 -15.5t13.5 -7.5h445q8 0 13 7.5t5 15.5v319q0 13 -8.5 25.5t-20.5 23t-26 17.5t-26 10v181q0 5 -6 12.5t-14 7.5h-280q-8 0 -14 -7.5t-6 -12.5v-128h72v36q0 6 4.5 11.5t8.5 5.5h151q4 0 8 -5t5 -10v-75z
M469 630h-21q10 -8 14 -18v1v-1h1h-1q11 -5 18 -14.5t7 -16.5v-159q12 -7 24 -16t20 -20q16 -12 26.5 -28t10.5 -34v-319q0 -13 -9 -25.5t-24 -12.5h-445q-11 0 -18.5 6.5t-12.5 16.5q-10 4 -16.5 14t-6.5 21v319q0 17 9.5 31t24 25.5t30.5 19t28 10.5h237q1 0 1 6v55h-128
q1 -1 1 -2v0v-51h-103v20h-19v143q0 4 3 10t8 11.5t11 9.5t13 4h2v13h-19v175h148v-20h18v20h148v-20h20v-174z" />
    <glyph glyph-name="FL00C5h" unicode="&#xc5;" 
d="M315 704h-46v65h46v-65zM233 664h119v145h-119v-145zM360 112q6 0 6 3v162h-124q-1 0 -3 -2v-163h121zM361 312q16 -4 20 -13v-184q0 -9 -6 -13.5t-15 -4.5h-135q-9 0 -15 4.5t-6 13.5v185q2 6 9 9t9 3h139zM381 436q0 -8 -2 -13t-11 -8h-237q-11 -3 -25 -9.5t-26 -15.5
t-20.5 -21t-8.5 -25v-319q0 -8 5.5 -15.5t13.5 -7.5h445q8 0 13 7.5t5 15.5v319q0 13 -8.5 25.5t-20.5 23t-26 17.5t-26 10v181q0 5 -6 12.5t-14 7.5h-280q-8 0 -14 -7.5t-6 -12.5v-128h72v36q0 6 4.5 11.5t8.5 5.5h151q4 0 8 -5t5 -10v-75zM366 491h-128q1 -1 1 -2v0v-51
h-103v20h-19v143q0 4 3 10t8 11.5t11 9.5t13 4h86v13h-20v175h149v-20h20v-168h45q10 0 18 -7.5t12 -16.5v1v-1h1h-1q11 -5 18 -14.5t7 -16.5v-159q12 -7 24 -16t20 -20q16 -12 26.5 -28t10.5 -34v-319q0 -13 -9 -25.5t-24 -12.5h-445q-11 0 -18.5 6.5t-12.5 16.5
q-10 4 -16.5 14t-6.5 21v319q0 17 9.5 31t24 25.5t30.5 19t28 10.5h237q1 0 1 6v55z" />
    <glyph glyph-name="FL00C6h" unicode="&#xc6;" horiz-adv-x="913" 
d="M763 635h-280q-12 0 -21 -7q-9 7 -19 7h-290q-14 0 -25 -13.5t-11 -21.5v-169q-13 -5 -27 -13.5t-26 -20t-20 -25t-8 -28.5v-357h20v-20h183v308q2 2 6 2h121v-290h20v-20h480q15 0 24 12.5t9 25.5v183h-20v20h-183v-93q0 -3 -6 -3h-120v163q2 2 6 2h102v132h-20v20h-88
v60v0q0 1 -1 2h127v-33h20v-20h102v142q0 7 -7 17t-18 15v-1q-4 9 -12 16.5t-18 7.5zM535 301v-186q0 -9 6 -13.5t15 -4.5h134q9 0 15 4.5t6 13.5v78h153v-168q0 -8 -5 -15.5t-13 -7.5h-465v298q-2 6 -9 9t-9 3h-138q-8 0 -12 -3t-8 -8v-299h-154v342q0 13 8.5 25.5t21 23
t26.5 17.5t25 10v180q0 5 6.5 12.5t14.5 7.5h290q5 0 11 -5t8 -11q3 5 8.5 10.5t12.5 5.5h280q8 0 14 -7.5t6 -12.5v-127h-72v35q0 6 -4.5 11.5t-8.5 5.5h-150q-5 0 -8.5 -5t-4.5 -10v-83q0 -13 12 -13h97v-102h-88q-9 0 -13 -3t-8 -8zM381 508q0 6 -3.5 11.5t-9.5 5.5h-150
q-4 0 -8.5 -5.5t-4.5 -11.5v-81q0 -13 12 -13h152q1 1 2 1t2 1h-1q3 2 6 3.5t3 7.5v81zM239 489v0q0 1 -1 2h128v-60l-2 -2h-125v60z" />
    <glyph glyph-name="FL00C7h" unicode="&#xc7;" 
d="M432 635h-280q-7 0 -13 -4t-11 -9t-8 -11t-3 -10v-170q-13 -5 -27 -13.5t-26 -20t-20 -25t-8 -28.5v-319q0 -11 6.5 -21t16.5 -14q5 -10 12.5 -16.5t18.5 -6.5h159v-35h-2h-51v-103h20v-20h139q8 0 21.5 11t13.5 25v122h145q15 0 24 12.5t9 25.5v184h-20v19h-182v-93
q0 -3 -6 -3h-121v377v0q0 1 -1 2h128v-33h20v-20h101v143q0 7 -7 16.5t-18 14.5h1h-1v1v-1q-4 8 -12 15.5t-18 7.5zM381 509q0 6 -4.5 11.5t-8.5 5.5h-151q-4 0 -8.5 -5.5t-4.5 -11.5v-394q0 -9 6 -13.5t15 -4.5h135q9 0 15 4.5t6 13.5v79h152v-169q0 -8 -5 -15.5t-13 -7.5
h-160v-137q0 -8 -7.5 -14.5t-12.5 -6.5h-124v73h36q6 0 11.5 4.5t5.5 8.5v72h-194q-8 0 -13.5 7.5t-5.5 15.5v319q0 13 8.5 25.5t21 23t26.5 17.5t25 10v181q0 5 6 12t14 7h280q8 0 14 -7t6 -12v-128h-71v36z" />
    <glyph glyph-name="FL00C8h" unicode="&#xc8;" 
d="M487 309v272q0 7 -7 17t-18 15v-1q-4 9 -12 16.5t-18 7.5h-35l-52 168h-15l-5 20h-161l144 -175h3l11 -13h-170q-7 0 -13 -4t-11 -9.5t-8 -11.5t-3 -10v-171q-11 -5 -24 -12t-24.5 -16t-20.5 -20.5t-12 -23.5v-333q0 -11 6.5 -21t16.5 -14q5 -10 12.5 -16.5t18.5 -6.5
h445q15 0 24 12.5t9 25.5v184h-20v20h-182v-94q0 -3 -6 -3h-121v162q3 3 6 3h209q15 0 24 10.5t9 21.5zM452 329q0 -6 -5 -11.5t-13 -5.5h-209q-8 0 -11.5 -2.5t-6.5 -5.5l-3 -3v-186q0 -9 6 -13.5t15 -4.5h135q9 0 15 4.5t6 13.5v79h152v-169q0 -8 -5 -15.5t-13 -7.5h-445
q-8 0 -13.5 7.5t-5.5 15.5v330q3 12 12 22.5t21 19t25 14.5t23 9v181q0 5 6 12.5t14 7.5h280q8 0 14 -7.5t6 -12.5v-272zM381 509q0 6 -3.5 11.5t-9.5 5.5h-151q-4 0 -8.5 -5.5t-4.5 -11.5v-82q0 -3 1.5 -5t8.5 -8h155q1 1 2 1t2 1h-1q3 2 6 3.5t3 7.5v82zM316 664l-120 145
h118l45 -145h-43zM239 489v0q0 1 -1 2h128v-60l-2 -2h-125v60z" />
    <glyph glyph-name="FL00C9h" unicode="&#xc9;" 
d="M205 649h25l-4 -13h-74q-7 0 -13 -4t-11 -9.5t-8 -11.5t-3 -10v-171q-11 -5 -24 -12t-24.5 -16t-20.5 -20.5t-12 -23.5v-333q0 -11 6.5 -21t16.5 -14q5 -10 12.5 -16.5t18.5 -6.5h445q15 0 24 12.5t9 25.5v184h-20v20h-182v-94q0 -3 -6 -3h-121v162q3 3 6 3h209
q15 0 24 10.5t9 21.5v272q0 7 -7 16.5t-18 14.5q-4 9 -12 16.5t-18 7.5h-132l139 168h-37l17 20h-160zM452 329q0 -6 -5 -11.5t-13 -5.5h-209q-8 0 -11.5 -2.5t-6.5 -5.5l-3 -3v-186q0 -9 6 -13.5t15 -4.5h135q9 0 15 4.5t6 13.5v79h152v-169q0 -8 -5 -15.5t-13 -7.5h-445
q-8 0 -13.5 7.5t-5.5 15.5v330q3 12 12 22.5t21 19t25 14.5t23 9v181q0 5 6 12.5t14 7.5h280q8 0 14 -7.5t6 -12.5v-272zM381 509q0 6 -3.5 11.5t-9.5 5.5h-151q-4 0 -8.5 -5.5t-4.5 -11.5v-82q0 -3 1.5 -5t8.5 -8h155q1 1 2 1t2 1h-1q3 2 6 3.5t3 7.5v82zM224 664l45 145
h118l-119 -145h-44zM239 429v60v0q0 1 -1 2h128v-60l-2 -2h-125z" />
    <glyph glyph-name="FL00CAh" unicode="&#xca;" 
d="M487 309v272q0 7 -7 16.5t-18 14.5q-4 10 -14 18h37l-143 174h-4l-16 20h-60l-143 -175h35l-13 -15h1q-10 -5 -17.5 -15.5t-7.5 -17.5v-171q-11 -5 -24 -12t-24.5 -16t-20.5 -20.5t-12 -23.5v-333q0 -11 6.5 -21t16.5 -14q5 -10 12.5 -16.5t18.5 -6.5h445q15 0 24 12.5
t9 25.5v184h-20v20h-182v-94q0 -3 -6 -3h-121v162q3 3 6 3h209q15 0 24 10.5t9 21.5zM452 329q0 -6 -5 -11.5t-13 -5.5h-209q-8 0 -11.5 -2.5t-6.5 -5.5l-3 -3v-186q0 -9 6 -13.5t15 -4.5h135q9 0 15 4.5t6 13.5v79h152v-169q0 -8 -5 -15.5t-13 -7.5h-445q-8 0 -13.5 7.5
t-5.5 15.5v330q3 12 12 22.5t21 19t25 14.5t23 9v181q0 5 6 12.5t14 7.5h280q8 0 14 -7.5t6 -12.5v-272zM290 755l-22 -91h-118l120 145h44l118 -145h-117l-23 91h-2zM381 509q0 6 -3.5 11.5t-9.5 5.5h-151q-4 0 -8.5 -5.5t-4.5 -11.5v-82q0 -3 1.5 -5t8.5 -8h155q1 1 2 1
t2 1h-1q3 2 6 3.5t3 7.5v82zM239 429v60v0q0 1 -1 2h128v-60l-2 -2h-125zM305 649h13l4 -13h-20z" />
    <glyph glyph-name="FL00CBh" unicode="&#xcb;" 
d="M283 824h-148v-175h19v-13h-2q-7 0 -13 -4t-11 -9.5t-8 -11.5t-3 -10v-171q-11 -5 -24 -12t-24.5 -16t-20.5 -20.5t-12 -23.5v-333q0 -11 6.5 -21t16.5 -14q5 -10 12.5 -16.5t18.5 -6.5h445q15 0 24 12.5t9 25.5v184h-20v20h-182v-94q0 -3 -6 -3h-121v162q3 3 6 3h209
q15 0 24 10.5t9 21.5v272q0 7 -7 16.5t-18 14.5q-4 10 -14 18h21v174h-20v20h-148v-20h-18v20zM452 329q0 -6 -5 -11.5t-13 -5.5h-209q-8 0 -11.5 -2.5t-6.5 -5.5l-3 -3v-186q0 -9 6 -13.5t15 -4.5h135q9 0 15 4.5t6 13.5v79h152v-169q0 -8 -5 -15.5t-13 -7.5h-445
q-8 0 -13.5 7.5t-5.5 15.5v330q3 12 12 22.5t21 19t25 14.5t23 9v181q0 5 6 12.5t14 7.5h280q8 0 14 -7.5t6 -12.5v-272zM381 509q0 6 -3.5 11.5t-9.5 5.5h-151q-4 0 -8.5 -5.5t-4.5 -11.5v-82q0 -3 1.5 -5t8.5 -8h155q1 1 2 1t2 1h-1q3 2 6 3.5t3 7.5v82zM149 809h119v-145
h-119v145zM316 809h118v-145h-118v145zM239 489v0q0 1 -1 2h128v-60l-2 -2h-125v60zM303 649h18v-13h-18v13z" />
    <glyph glyph-name="FL00CCh" unicode="&#xcc;" horiz-adv-x="330" 
d="M316 -33v368q0 14 -9 26t-21 21q-8 11 -22 21t-27 16v197h-20v14h61l-54 174h-14l-5 20h-160l143 -175h3l11 -13h-87v-206q-11 -4 -24.5 -12t-25.5 -18t-20.5 -21.5t-8.5 -22.5v-369h20v-20h260zM51 356q0 10 10 21t23 20t26.5 15.5t19.5 7.5v201h73v-201l3 -1.5t6 -2.5
q7 -4 18.5 -10t23 -14t19.5 -17.5t8 -19.5v-353h-230v354zM196 664l-120 145h118l44 -145h-42z" />
    <glyph glyph-name="FL00CDh" unicode="&#xcd;" horiz-adv-x="330" 
d="M73 649h25l-5 -19h21v-201q-3 0 -4 -1l-20.5 -10.5t-24.5 -16t-20.5 -21.5t-8.5 -25v-368h20v-20h260v369q0 11 -9 23t-21 22q-9 12 -23 22t-27 18v195h-20v20h-48l139 168h-38l18 20h-160zM51 355q0 10 8 19.5t19 17.5t22.5 14l19.5 10q5 2 6 2.5l3 1.5v201h73v-201
q6 -1 19 -7.5t26.5 -15.5t23.5 -20t10 -21v-354h-230v353zM92 664l45 145h117l-118 -145h-44z" />
    <glyph glyph-name="FL00CEh" unicode="&#xce;" horiz-adv-x="330" 
d="M359 630l-143 174h-4l-16 20h-60l-143 -175h36l-16 -19h101v-201q-3 0 -4 -1l-20.5 -10.5t-24.5 -16t-20.5 -21.5t-8.5 -25v-368h20v-20h260v369q0 11 -9 23t-21 22q-9 12 -22.5 22t-26.5 18v195h-20v14h142zM51 355q0 10 8 19.5t19 17.5t22.5 14l19.5 10q5 2 6 2.5
l3 1.5v201h73v-201q6 -1 19.5 -7.5t26.5 -15.5t23 -20t10 -21v-354h-230v353zM164 755l-22 -91h-117l119 145h44l118 -145h-117l-23 91h-2zM179 649h13l4 -13h-20z" />
    <glyph glyph-name="FL00CFh" unicode="&#xcf;" horiz-adv-x="330" 
d="M342 804h-20v20h-148v-20h-18v20h-148v-175h20v-19h86v-201q-3 0 -4 -1l-20.5 -10.5t-24.5 -16t-20.5 -21.5t-8.5 -25v-368h20v-20h260v369q0 11 -9 23t-21 22q-9 12 -23 22l-26 18v195h-20v14h125v174zM51 355q0 10 8 19.5t19 17.5t22.5 14l19.5 10q5 2 6 2.5l3 1.5v201
h73v-201q6 -1 19.5 -7.5t26.5 -15.5t23 -20t10 -21v-354h-230v353zM23 809h118v-145h-118v145zM189 809h118v-145h-118v145zM176 649h18v-13h-18v13z" />
    <glyph glyph-name="FL00D0h" unicode="&#xd0;" horiz-adv-x="671" 
d="M36 296h20v-20h71v-251q0 -11 6.5 -21t16.5 -14q5 -10 12 -16.5t18 -6.5h443q14 0 24 12.5t10 25.5v319q0 18 -10.5 33.5t-25.5 27.5q-8 10 -20.5 19l-24.5 17v159q0 6 -7 15.5t-18 15.5h1h-1v1v-1q-4 9 -12 16.5t-19 7.5h-358q-7 0 -13 -4t-11 -9.5t-8 -11.5t-3 -10
v-171h-91v-133zM142 414v186q0 5 6 12.5t14 7.5h358q8 0 14.5 -7.5t6.5 -12.5v-180q11 -3 25 -10t26.5 -17.5t21 -23t8.5 -25.5v-319q0 -8 -5.5 -15.5t-13.5 -7.5h-443q-7 0 -12.5 7.5t-5.5 15.5v286h-91v103h91zM469 115v395q-3 6 -6 9t-6 5l-1 1h-229q-12 0 -13 -14v-91
q8 -1 19 -6h137v-103h-75v-196q0 -9 6 -13.5t15 -4.5h131q8 0 14 4t7 13zM453 121q0 -9 -6 -9h-117v164h75v133h-20v20h-136v62h205v-369z" />
    <glyph glyph-name="FL00D1h" unicode="&#xd1;" 
d="M236 824l-143 -175h36l-16 -19h21q-8 -6 -12.5 -15t-4.5 -14v-170q-13 -5 -27 -13.5t-26 -20t-20 -25t-8 -28.5v-357h20v-20h183v522v0q0 1 -1 2h128v-504h20v-20h182v357q0 18 -10.5 34t-26.5 28q-8 11 -20 20t-24 16v159q0 7 -7 16.5t-18 14.5h1h-1v1v-1q-4 9 -12 16.5
t-18 7.5h-58l139 168h-38l18 20h-162l-5 -20h-13l-5 20h-72zM381 509q0 6 -4.5 11.5t-8.5 5.5h-151q-4 0 -8.5 -5.5t-4.5 -11.5v-507h-153v342q0 13 8.5 25.5t21 23t26.5 17.5t25 10v181q0 5 6 12.5t14 7.5h280q8 0 14 -7.5t6 -12.5v-181q12 -3 26 -10t26 -17.5t20.5 -23
t8.5 -25.5v-342h-152v507zM320 717h2l22 92h116l-118 -145h-53l-23 91h-2l-22 -91h-117l119 145h52zM279 649h13l4 -13h-20z" />
    <glyph glyph-name="FL00D2h" unicode="&#xd2;" 
d="M345 804h-15l-5 20h-161l144 -175h3l11 -13h-170q-7 0 -13 -4t-11 -9.5t-8 -11.5t-3 -10v-170q-13 -5 -27 -13.5t-26 -20t-20 -25t-8 -28.5v-319q0 -11 6.5 -21t16.5 -14q5 -10 12.5 -16.5t18.5 -6.5h445q15 0 24 12.5t9 25.5v319q0 18 -10.5 34t-26.5 28q-8 11 -20 20
t-24 16v159q0 7 -7 16.5t-18 14.5h1h-1v1v-1q-4 9 -12 16.5t-18 7.5h-35zM70 2q-8 0 -13.5 7.5t-5.5 15.5v319q0 13 8.5 25.5t21 23t26.5 17.5t25 10v181q0 5 6 12.5t14 7.5h280q8 0 14 -7.5t6 -12.5v-181q12 -3 26 -10t26 -17.5t20.5 -23t8.5 -25.5v-319q0 -8 -5 -15.5
t-13 -7.5h-445zM381 509q0 6 -4.5 11.5t-8.5 5.5h-151q-4 0 -8.5 -5.5t-4.5 -11.5v-394q0 -9 6 -13.5t15 -4.5h135q9 0 15 4.5t6 13.5v394zM366 115q0 -3 -6 -3h-121v377v0q0 1 -1 2h128v-376zM316 664l-120 145h118l45 -145h-43z" />
    <glyph glyph-name="FL00D3h" unicode="&#xd3;" 
d="M205 649h25l-4 -13h-74q-7 0 -13 -4t-11 -9.5t-8 -11.5t-3 -10v-170q-13 -5 -27 -13.5t-26 -20t-20 -25t-8 -28.5v-319q0 -11 6.5 -21t16.5 -14q5 -10 12.5 -16.5t18.5 -6.5h445q15 0 24 12.5t9 25.5v319q0 18 -10.5 34t-26.5 28q-8 11 -20 20t-24 16v159q0 7 -7 16.5
t-18 14.5q-4 9 -12 16.5t-18 7.5h-132l139 168h-37l17 20h-160zM70 2q-8 0 -13.5 7.5t-5.5 15.5v319q0 13 8.5 25.5t21 23t26.5 17.5t25 10v181q0 5 6 12.5t14 7.5h280q8 0 14 -7.5t6 -12.5v-181q12 -3 26 -10t26 -17.5t20.5 -23t8.5 -25.5v-319q0 -8 -5 -15.5t-13 -7.5
h-445zM381 509q0 6 -4.5 11.5t-8.5 5.5h-151q-4 0 -8.5 -5.5t-4.5 -11.5v-394q0 -9 6 -13.5t15 -4.5h135q9 0 15 4.5t6 13.5v394zM366 115q0 -3 -6 -3h-121v377v0q0 1 -1 2h128v-376zM224 664l45 145h118l-119 -145h-44z" />
    <glyph glyph-name="FL00D4h" unicode="&#xd4;" 
d="M485 630l-143 174h-4l-16 20h-60l-143 -175h35l-13 -15h1q-10 -5 -17.5 -15.5t-7.5 -17.5v-170q-13 -5 -27 -13.5t-26 -20t-20 -25t-8 -28.5v-319q0 -11 6.5 -21t16.5 -14q5 -10 12.5 -16.5t18.5 -6.5h445q15 0 24 12.5t9 25.5v319q0 18 -10.5 34t-26.5 28q-8 11 -20 20
t-24 16v159q0 7 -7 17t-18 15v-1q-4 10 -14 18h37zM70 2q-8 0 -13.5 7.5t-5.5 15.5v319q0 13 8.5 25.5t21 23t26.5 17.5t25 10v181q0 5 6 12.5t14 7.5h280q8 0 14 -7.5t6 -12.5v-181q12 -3 26 -10t26 -17.5t20.5 -23t8.5 -25.5v-319q0 -8 -5 -15.5t-13 -7.5h-445zM381 509
q0 6 -4.5 11.5t-8.5 5.5h-151q-4 0 -8.5 -5.5t-4.5 -11.5v-394q0 -9 6 -13.5t15 -4.5h135q9 0 15 4.5t6 13.5v394zM360 112h-121v377v0q0 1 -1 2h128v-376q0 -3 -6 -3zM290 755l-22 -91h-118l120 145h44l118 -145h-117l-23 91h-2zM305 649h13l4 -13h-20z" />
    <glyph glyph-name="FL00D5h" unicode="&#xd5;" 
d="M236 824l-143 -175h36l-16 -19h21q-8 -6 -12.5 -15t-4.5 -14v-170q-13 -5 -27 -13.5t-26 -20t-20 -25t-8 -28.5v-319q0 -11 6.5 -21t16.5 -14q5 -10 12.5 -16.5t18.5 -6.5h445q15 0 24 12.5t9 25.5v319q0 18 -10.5 34t-26.5 28q-8 11 -20 20t-24 16v159q0 7 -7 16.5
t-18 14.5h1h-1v1v-1q-4 9 -12 16.5t-18 7.5h-58l139 168h-38l18 20h-162l-5 -20h-13l-5 20h-72zM70 2q-8 0 -13.5 7.5t-5.5 15.5v319q0 13 8.5 25.5t21 23t26.5 17.5t25 10v181q0 5 6 12.5t14 7.5h280q8 0 14 -7.5t6 -12.5v-181q12 -3 26 -10t26 -17.5t20.5 -23t8.5 -25.5
v-319q0 -8 -5 -15.5t-13 -7.5h-445zM381 509q0 6 -4.5 11.5t-8.5 5.5h-151q-4 0 -8.5 -5.5t-4.5 -11.5v-394q0 -9 6 -13.5t15 -4.5h135q9 0 15 4.5t6 13.5v394zM360 112h-121v377v0q0 1 -1 2h128v-376q0 -3 -6 -3zM320 717h2l22 92h116l-118 -145h-53l-23 91h-2l-22 -91
h-117l119 145h52zM279 649h13l4 -13h-20z" />
    <glyph glyph-name="FL00D6h" unicode="&#xd6;" 
d="M303 636h18v13h-18v-13zM316 664h118v145h-118v-145zM149 664h119v145h-119v-145zM366 491h-128q1 -1 1 -2v0v-377h121q6 0 6 3v376zM381 115q0 -9 -6 -13.5t-15 -4.5h-135q-9 0 -15 4.5t-6 13.5v394q0 6 4.5 11.5t8.5 5.5h151q4 0 8.5 -5.5t4.5 -11.5v-394zM515 2
q8 0 13 7.5t5 15.5v319q0 13 -8.5 25.5t-20.5 23t-26 17.5t-26 10v181q0 5 -6 12.5t-14 7.5h-280q-8 0 -14 -7.5t-6 -12.5v-181q-11 -3 -25 -10t-26.5 -17.5t-21 -23t-8.5 -25.5v-319q0 -8 5.5 -15.5t13.5 -7.5h445zM283 804h18v20h148v-20h20v-174h-21q10 -8 14 -18v1
q11 -5 18 -15t7 -17v-159q12 -7 24 -16t20 -20q16 -12 26.5 -28t10.5 -34v-319q0 -13 -9 -25.5t-24 -12.5h-445q-11 0 -18.5 6.5t-12.5 16.5q-10 4 -16.5 14t-6.5 21v319q0 15 8 28.5t20 25t26 20t27 13.5v170q0 4 3 10t8 11.5t11 9.5t13 4h2v13h-19v175h148v-20z" />
    <glyph glyph-name="FL00D7h" unicode="&#xd7;" horiz-adv-x="399" 
d="M391 264l-21 20l-56 57l77 78l-114 113l-77 -78l-77 77l-93 -93l76 -77l-76 -77l113 -113l77 77l77 -78zM123 213l-71 71l76 77l-76 77l71 71l77 -76l77 77l72 -71l-77 -78l77 -78l-72 -71l-77 77z" />
    <glyph glyph-name="FL00D8h" unicode="&#xd8;" 
d="M90 -33h445q15 0 24 12.5t9 25.5v319q0 18 -10.5 34t-26.5 28q-8 11 -20 20t-24 16v158q0 7 -7 16.5t-18 14.5q-4 9 -12 16.5t-18 7.5h-280q-7 0 -13 -4t-11 -9.5t-8 -11.5t-3 -10v-169q-13 -5 -27 -13.5t-26 -20t-20 -25t-8 -28.5v-319q0 -11 6.5 -21t16.5 -14
q5 -10 12.5 -16.5t18.5 -6.5zM70 2q-8 0 -13.5 7.5t-5.5 15.5v319q0 13 8.5 25.5t21 23t26.5 17.5t25 10v180q0 5 6 12.5t14 7.5h280q8 0 14 -7.5t6 -12.5v-180q12 -3 26 -10t26 -17.5t20.5 -23t8.5 -25.5v-319q0 -8 -5 -15.5t-13 -7.5h-445zM217 525q-4 0 -8.5 -5.5
t-4.5 -11.5v-354h2l149 371h-138zM232 97h128q9 0 15 4.5t6 13.5v352h-2zM239 489v0q0 1 -1 2h87l-86 -216v214zM360 112h-79l85 212v-209q0 -3 -6 -3z" />
    <glyph glyph-name="FL00D9h" unicode="&#xd9;" 
d="M366 115q0 -3 -6 -3h-121v504h-20v20h-102v-205q-13 -5 -27 -13.5t-26 -20t-20 -25t-8 -28.5v-319q0 -11 6.5 -21t16.5 -14q5 -10 12.5 -16.5t18.5 -6.5h445q15 0 24 12.5t9 25.5v319q0 18 -10.5 34t-26.5 28q-8 11 -20 20t-24 16v194h-20v20h-70l-52 168h-15l-5 20h-161
l144 -175h3l17 -19h38v-515zM533 344v-319q0 -8 -5 -15.5t-13 -7.5h-445q-8 0 -13.5 7.5t-5.5 15.5v319q0 13 8.5 25.5t21 23t26.5 17.5t25 10v201h72v-506q0 -9 6 -13.5t15 -4.5h135q9 0 15 4.5t6 13.5v506h71v-201q12 -3 26 -10t26 -17.5t20.5 -23t8.5 -25.5zM196 809h118
l45 -145h-43z" />
    <glyph glyph-name="FL00DAh" unicode="&#xda;" 
d="M366 115q0 -3 -6 -3h-121v504h-20v20h-102v-205q-13 -5 -27 -13.5t-26 -20t-20 -25t-8 -28.5v-319q0 -11 6.5 -21t16.5 -14q5 -10 12.5 -16.5t18.5 -6.5h445q15 0 24 12.5t9 25.5v319q0 18 -10.5 34t-26.5 28q-8 11 -20 20t-24 16v194h-20v20h-101v-521zM533 344v-319
q0 -8 -5 -15.5t-13 -7.5h-445q-8 0 -13.5 7.5t-5.5 15.5v319q0 13 8.5 25.5t21 23t26.5 17.5t25 10v201h72v-506q0 -9 6 -13.5t15 -4.5h135q9 0 15 4.5t6 13.5v506h71v-201q12 -3 26 -10t26 -17.5t20.5 -23t8.5 -25.5zM205 649h25l-5 -19h71l143 174h-37l17 20h-160z
M224 664l45 145h118l-119 -145h-44z" />
    <glyph glyph-name="FL00DBh" unicode="&#xdb;" 
d="M485 630l-143 174h-4l-16 20h-60l-143 -175h35l-11 -13h-26v-205q-13 -5 -27 -13.5t-26 -20t-20 -25t-8 -28.5v-319q0 -11 6.5 -21t16.5 -14q5 -10 12.5 -16.5t18.5 -6.5h445q15 0 24 12.5t9 25.5v319q0 18 -10.5 34t-26.5 28q-8 11 -20 20t-24 16v194h-20v14h18z
M533 344v-319q0 -8 -5 -15.5t-13 -7.5h-445q-8 0 -13.5 7.5t-5.5 15.5v319q0 13 8.5 25.5t21 23t26.5 17.5t25 10v201h72v-506q0 -9 6 -13.5t15 -4.5h135q9 0 15 4.5t6 13.5v506h71v-201q12 -3 26 -10t26 -17.5t20.5 -23t8.5 -25.5zM366 115q0 -3 -6 -3h-121v504h-20v14h82
l5 19h12l6 -19h42v-515zM290 755l-22 -91h-118l120 145h44l118 -145h-117l-23 91h-2z" />
    <glyph glyph-name="FL00DCh" unicode="&#xdc;" 
d="M283 824h-148v-175h19v-13h-37v-205q-13 -5 -27 -13.5t-26 -20t-20 -25t-8 -28.5v-319q0 -11 6.5 -21t16.5 -14q5 -10 12.5 -16.5t18.5 -6.5h445q15 0 24 12.5t9 25.5v319q0 18 -10.5 34t-26.5 28q-8 11 -20 20t-24 16v194h-20v14h2v174h-20v20h-148v-20h-18v20zM533 344
v-319q0 -8 -5 -15.5t-13 -7.5h-445q-8 0 -13.5 7.5t-5.5 15.5v319q0 13 8.5 25.5t21 23t26.5 17.5t25 10v201h72v-506q0 -9 6 -13.5t15 -4.5h135q9 0 15 4.5t6 13.5v506h71v-201q12 -3 26 -10t26 -17.5t20.5 -23t8.5 -25.5zM366 115q0 -3 -6 -3h-121v504h-20v14h84v19h18
v-19h45v-515zM316 809h118v-145h-118v145zM149 809h119v-145h-119v145z" />
    <glyph glyph-name="FL00DDh" unicode="&#xdd;" 
d="M239 616h-20v20h-102v-307q0 -9 6 -17.5t14 -12.5q4 -9 12.5 -15.5t20.5 -6.5h196v-161q-3 -4 -6 -4h-121v77h-20v20h-183v-184q0 -11 6.5 -21t16.5 -14q5 -10 12.5 -16.5t18.5 -6.5h445q15 0 24 12.5t9 25.5v319q0 18 -10.5 34t-26.5 28q-8 11 -20 20t-24 16v194h-20v20
h-101v-207h-127v187zM204 427q0 -6 2.5 -7.5t6.5 -3.5h-1q1 -1 2 -1t2 -1h153q12 0 12 13v194h71v-201q12 -3 26 -10t26 -17.5t20.5 -23t8.5 -25.5v-319q0 -8 -5 -15.5t-13 -7.5h-445q-8 0 -13.5 7.5t-5.5 15.5v169h153v-79q0 -9 6 -13.5t15 -4.5h135q17 0 21 16v188
q-4 5 -8 8t-13 3h-210q-8 0 -13 5.5t-5 11.5v292h72v-194zM205 649h25l-5 -19h71l143 174h-37l17 20h-160zM224 664l45 145h118l-119 -145h-44z" />
    <glyph glyph-name="FL0039h" unicode="&#xde;" horiz-adv-x="501" 
d="M158 429h127v62h-127v-2v-60zM123 508q0 6 3.5 11.5t9.5 5.5h151q4 0 8.5 -5.5t4.5 -11.5v-81q0 -13 -12 -13h-153q-1 1 -2 1t-2 1h1q-4 2 -6.5 3.5t-2.5 7.5v81zM51 329q0 -6 5.5 -11.5t13.5 -5.5h209q9 0 13 -3t8 -8v-299h152v342q0 13 -8.5 25.5t-20.5 23t-26 17.5
t-26 10v180q0 5 -6 12.5t-14 7.5h-279q-8 0 -14.5 -7.5t-6.5 -12.5v-271zM36 600q0 8 11 21.5t25 13.5h279q10 0 18 -7.5t12 -16.5q11 -5 18 -14.5t7 -16.5v-158q12 -7 24 -16t20 -20q16 -12 26.5 -28t10.5 -34v-357h-182v20h-20v290h-195q-12 0 -20.5 6.5t-12.5 15.5
q-9 4 -15 12.5t-6 17.5v271z" />
    <glyph glyph-name="FL00DFh" unicode="&#xdf;" horiz-adv-x="581" 
d="M36 -140h20v-20h183v649v0q0 1 -1 2h127v-62h-109v-132h20v-20h89v-162q0 -3 -6 -3h-103v-125h20v-20h258q15 0 24 12.5t9 25.5v319q0 18 -10.5 34t-26.5 28q-8 11 -20 20t-24 16v159q0 7 -7 16t-18 14h1h-1v1v-1q-4 9 -12 16.5t-18 7.5h-278q-7 0 -13 -4t-11 -9.5
t-8 -11.5t-3 -10v-169q-13 -5 -27.5 -13.5t-26.5 -20t-20 -25t-8 -28.5v-484zM51 344q0 13 8.5 25.5t21 23t26.5 17.5t26 10v180q0 5 6 12.5t14 7.5h278q8 0 14 -7.5t6 -12.5v-180q12 -3 26 -10t26 -17.5t20.5 -23t8.5 -25.5v-319q0 -8 -5 -15.5t-13 -7.5h-243v95h88
q9 0 15 4.5t6 13.5v186q-4 5 -8 8t-13 3h-88v102h97q12 0 12 13v84q-1 5 -5 10t-8 5h-150q-4 0 -8.5 -5.5t-4.5 -11.5v-634h-153v469z" />
    <glyph glyph-name="FL00E0h" unicode="&#xe0;" 
d="M568 -33v357q0 18 -10.5 34t-26.5 28q-8 11 -20 20t-24 16v159q0 7 -7 17t-18 15v-1q-4 9 -12 16.5t-18 7.5h-35l-52 168h-15l-5 20h-161l144 -175h3l11 -13h-170q-7 0 -13 -4t-11 -9.5t-8 -11.5t-3 -10v-170q-13 -5 -27 -13.5t-26 -20t-20 -25t-8 -28.5v-357h20v-20h183
v308q2 2 6 2h121v-290h20v-20h182zM381 300q-2 6 -9 9t-9 3h-138q-9 0 -13 -3t-8 -8v-299h-153v342q0 13 8.5 25.5t21 23t26.5 17.5t25 10v181q0 5 6 12.5t14 7.5h280q8 0 14 -7.5t6 -12.5v-181q12 -3 26 -10t26 -17.5t20.5 -23t8.5 -25.5v-342h-152v298zM381 509
q0 6 -3.5 11.5t-9.5 5.5h-151q-4 0 -8.5 -5.5t-4.5 -11.5v-82q0 -13 12 -13h153q1 1 2 1t2 1h-1q3 2 6 3.5t3 7.5v82zM316 664l-120 145h118l45 -145h-43zM239 429v60v0q0 1 -1 2h128v-60l-2 -2h-125z" />
    <glyph glyph-name="FL00E1h" unicode="&#xe1;" 
d="M205 649h25l-4 -13h-74q-7 0 -13 -4t-11 -9.5t-8 -11.5t-3 -10v-170q-13 -5 -27 -13.5t-26 -20t-20 -25t-8 -28.5v-357h20v-20h183v308q2 2 6 2h121v-290h20v-20h182v357q0 18 -10.5 34t-26.5 28q-8 11 -20 20t-24 16v159q0 7 -7 16.5t-18 14.5q-4 9 -12 16.5t-18 7.5
h-132l139 168h-37l17 20h-160zM381 300q-2 6 -9 9t-9 3h-138q-9 0 -13 -3t-8 -8v-299h-153v342q0 13 8.5 25.5t21 23t26.5 17.5t25 10v181q0 5 6 12.5t14 7.5h280q8 0 14 -7.5t6 -12.5v-181q12 -3 26 -10t26 -17.5t20.5 -23t8.5 -25.5v-342h-152v298zM381 509q0 6 -3.5 11.5
t-9.5 5.5h-151q-4 0 -8.5 -5.5t-4.5 -11.5v-82q0 -13 12 -13h153q1 1 2 1t2 1h-1q3 2 6 3.5t3 7.5v82zM224 664l45 145h118l-119 -145h-44zM239 429v60v0q0 1 -1 2h128v-60l-2 -2h-125z" />
    <glyph glyph-name="FL00E2h" unicode="&#xe2;" 
d="M568 -33v357q0 18 -10.5 34t-26.5 28q-8 11 -20 20t-24 16v159q0 7 -7 16.5t-18 14.5h1h-1v1v-1q-4 10 -14 18h37l-143 174h-4l-16 20h-60l-143 -175h35l-13 -15h1q-10 -5 -17.5 -15.5t-7.5 -17.5v-170q-13 -5 -27 -13.5t-26 -20t-20 -25t-8 -28.5v-357h20v-20h183v308
q2 2 6 2h121v-290h20v-20h182zM381 300q-2 6 -9 9t-9 3h-138q-9 0 -13 -3t-8 -8v-299h-153v342q0 13 8.5 25.5t21 23t26.5 17.5t25 10v181q0 5 6 12.5t14 7.5h280q8 0 14 -7.5t6 -12.5v-181q12 -3 26 -10t26 -17.5t20.5 -23t8.5 -25.5v-342h-152v298zM290 755l-22 -91h-118
l120 145h44l118 -145h-117l-23 91h-2zM381 509q0 6 -3.5 11.5t-9.5 5.5h-151q-4 0 -8.5 -5.5t-4.5 -11.5v-82q0 -13 12 -13h153q1 1 2 1t2 1h-1q3 2 6 3.5t3 7.5v82zM239 429v60v0q0 1 -1 2h128v-60l-2 -2h-125zM305 649h13l4 -13h-20z" />
    <glyph glyph-name="FL00E3h" unicode="&#xe3;" 
d="M568 -33v357q0 18 -10.5 34t-26.5 28q-8 11 -20 20t-24 16v159q0 7 -7 17t-18 15v-1q-4 9 -12 16.5t-18 7.5h-58l139 168h-38l18 20h-162l-5 -20h-13l-5 20h-72l-143 -175h36l-16 -19h21q-8 -6 -12.5 -15t-4.5 -14v-170q-13 -5 -27 -13.5t-26 -20t-20 -25t-8 -28.5v-357
h20v-20h183v308q2 2 6 2h121v-290h20v-20h182zM381 300q-2 6 -9 9t-9 3h-138q-9 0 -13 -3t-8 -8v-299h-153v342q0 13 8.5 25.5t21 23t26.5 17.5t25 10v181q0 5 6 12.5t14 7.5h280q8 0 14 -7.5t6 -12.5v-181q12 -3 26 -10t26 -17.5t20.5 -23t8.5 -25.5v-342h-152v298z
M320 717h2l22 92h116l-118 -145h-53l-23 91h-2l-22 -91h-117l119 145h52zM381 509q0 6 -3.5 11.5t-9.5 5.5h-151q-4 0 -8.5 -5.5t-4.5 -11.5v-82q0 -13 12 -13h153q1 1 2 1t2 1h-1q3 2 6 3.5t3 7.5v82zM239 429v60v0q0 1 -1 2h128v-60l-2 -2h-125zM279 649h13l4 -13h-20z
" />
    <glyph glyph-name="FL00E4h" unicode="&#xe4;" 
d="M283 824h-148v-175h19v-13h-2q-7 0 -13 -4t-11 -9.5t-8 -11.5t-3 -10v-170q-13 -5 -27 -13.5t-26 -20t-20 -25t-8 -28.5v-357h20v-20h183v308q2 2 6 2h121v-290h20v-20h182v357q0 18 -10.5 34t-26.5 28q-8 11 -20 20t-24 16v159q0 7 -7 16.5t-18 14.5q-4 10 -14 18h21
v174h-20v20h-148v-20h-18v20zM381 300q-2 6 -9 9t-9 3h-138q-9 0 -13 -3t-8 -8v-299h-153v342q0 13 8.5 25.5t21 23t26.5 17.5t25 10v181q0 5 6 12.5t14 7.5h280q8 0 14 -7.5t6 -12.5v-181q12 -3 26 -10t26 -17.5t20.5 -23t8.5 -25.5v-342h-152v298zM381 509q0 6 -3.5 11.5
t-9.5 5.5h-151q-4 0 -8.5 -5.5t-4.5 -11.5v-82q0 -13 12 -13h153q1 1 2 1t2 1h-1q3 2 6 3.5t3 7.5v82zM149 809h119v-145h-119v145zM316 809h118v-145h-118v145zM239 429v60v0q0 1 -1 2h128v-60l-2 -2h-125zM303 649h18v-13h-18v13z" />
    <glyph glyph-name="FL00E5h" unicode="&#xe5;" 
d="M315 704h-46v65h46v-65zM239 429h125l2 2v60h-128q1 -1 1 -2v0v-60zM233 664h119v145h-119v-145zM381 427q0 -6 -3 -7.5t-6 -3.5h1q-1 -1 -2 -1t-2 -1h-153q-12 0 -12 13v82q0 6 4.5 11.5t8.5 5.5h151q6 0 9.5 -5.5t3.5 -11.5v-82zM381 2h152v342q0 13 -8.5 25.5
t-20.5 23t-26 17.5t-26 10v181q0 5 -6 12.5t-14 7.5h-280q-8 0 -14 -7.5t-6 -12.5v-181q-11 -3 -25 -10t-26.5 -17.5t-21 -23t-8.5 -25.5v-342h153v299q4 5 8 8t13 3h138q2 0 9 -3t9 -9v-298zM387 636h45q10 0 18 -7.5t12 -16.5v1q11 -5 18 -15t7 -17v-159q12 -7 24 -16
t20 -20q16 -12 26.5 -28t10.5 -34v-357h-182v20h-20v290h-121q-4 0 -6 -2v-308h-183v20h-20v357q0 15 8 28.5t20 25t26 20t27 13.5v170q0 4 3 10t8 11.5t11 9.5t13 4h86v13h-20v175h149v-20h20v-168z" />
    <glyph glyph-name="FL00E6h" unicode="&#xe6;" horiz-adv-x="913" 
d="M763 635h-280q-12 0 -21 -7q-9 7 -19 7h-290q-14 0 -25 -13.5t-11 -21.5v-169q-13 -5 -27 -13.5t-26 -20t-20 -25t-8 -28.5v-357h20v-20h183v308q2 2 6 2h121v-290h20v-20h480q15 0 24 12.5t9 25.5v183h-20v20h-183v-93q0 -3 -6 -3h-120v163q2 2 6 2h102v132h-20v20h-88
v60v0q0 1 -1 2h127v-33h20v-20h102v142q0 7 -7 17t-18 15v-1q-4 9 -12 16.5t-18 7.5zM535 301v-186q0 -9 6 -13.5t15 -4.5h134q9 0 15 4.5t6 13.5v78h153v-168q0 -8 -5 -15.5t-13 -7.5h-465v298q-2 6 -9 9t-9 3h-138q-8 0 -12 -3t-8 -8v-299h-154v342q0 13 8.5 25.5t21 23
t26.5 17.5t25 10v180q0 5 6.5 12.5t14.5 7.5h290q5 0 11 -5t8 -11q3 5 8.5 10.5t12.5 5.5h280q8 0 14 -7.5t6 -12.5v-127h-72v35q0 6 -4.5 11.5t-8.5 5.5h-150q-5 0 -8.5 -5t-4.5 -10v-83q0 -13 12 -13h97v-102h-88q-9 0 -13 -3t-8 -8zM381 508q0 6 -3.5 11.5t-9.5 5.5h-150
q-4 0 -8.5 -5.5t-4.5 -11.5v-81q0 -13 12 -13h152q1 1 2 1t2 1h-1q3 2 6 3.5t3 7.5v81zM239 489v0q0 1 -1 2h128v-60l-2 -2h-125v60z" />
    <glyph glyph-name="FL00E7h" unicode="&#xe7;" 
d="M432 635h-280q-7 0 -13 -4t-11 -9t-8 -11t-3 -10v-170q-13 -5 -27 -13.5t-26 -20t-20 -25t-8 -28.5v-319q0 -11 6.5 -21t16.5 -14q5 -10 12.5 -16.5t18.5 -6.5h159v-35h-2h-51v-103h20v-20h139q8 0 21.5 11t13.5 25v122h145q15 0 24 12.5t9 25.5v184h-20v19h-182v-93
q0 -3 -6 -3h-121v377v0q0 1 -1 2h128v-33h20v-20h101v143q0 7 -7 16.5t-18 14.5h1h-1v1v-1q-4 8 -12 15.5t-18 7.5zM381 509q0 6 -4.5 11.5t-8.5 5.5h-151q-4 0 -8.5 -5.5t-4.5 -11.5v-394q0 -9 6 -13.5t15 -4.5h135q9 0 15 4.5t6 13.5v79h152v-169q0 -8 -5 -15.5t-13 -7.5
h-160v-137q0 -8 -7.5 -14.5t-12.5 -6.5h-124v73h36q6 0 11.5 4.5t5.5 8.5v72h-194q-8 0 -13.5 7.5t-5.5 15.5v319q0 13 8.5 25.5t21 23t26.5 17.5t25 10v181q0 5 6 12t14 7h280q8 0 14 -7t6 -12v-128h-71v36z" />
    <glyph glyph-name="FL00E8h" unicode="&#xe8;" 
d="M316 664h43l-45 145h-118zM204 301q4 5 8 8t13 3h88v102h-97q-12 0 -12 13v84q1 5 4.5 10t8.5 5h151q4 0 8.5 -5.5t4.5 -11.5v-36h71v128q0 5 -6 12.5t-14 7.5h-280q-8 0 -14 -7.5t-6 -12.5v-181q-11 -3 -25 -10t-26.5 -17.5t-21 -23t-8.5 -25.5v-319q0 -8 5.5 -15.5
t13.5 -7.5h445q8 0 13 7.5t5 15.5v169h-152v-79q0 -9 -6 -13.5t-15 -4.5h-135q-9 0 -15 4.5t-6 13.5v186zM397 636h35q10 0 18 -7.5t12 -16.5q11 -5 18 -14.5t7 -16.5v-143h-101v20h-20v33h-128q1 -1 1 -2v0v-60h89v-20h20v-132h-103q-4 0 -6 -2v-163h121q6 0 6 3v94h182
v-20h20v-184q0 -13 -9 -25.5t-24 -12.5h-445q-11 0 -18.5 6.5t-12.5 16.5q-10 4 -16.5 14t-6.5 21v319q0 15 8 28.5t20 25t26 20t27 13.5v170q0 4 3 10t8 11.5t11 9.5t13 4h170l-11 13h-3l-144 175h161l5 -20h15z" />
    <glyph glyph-name="FL00E9h" unicode="&#xe9;" 
d="M268 664l119 145h-118l-45 -145h44zM204 301q4 5 8 8t13 3h88v102h-97q-12 0 -12 13v84q1 5 4.5 10t8.5 5h151q4 0 8.5 -5.5t4.5 -11.5v-36h71v128q0 5 -6 12.5t-14 7.5h-280q-8 0 -14 -7.5t-6 -12.5v-181q-11 -3 -25 -10t-26.5 -17.5t-21 -23t-8.5 -25.5v-319
q0 -8 5.5 -15.5t13.5 -7.5h445q8 0 13 7.5t5 15.5v169h-152v-79q0 -9 -6 -13.5t-15 -4.5h-135q-9 0 -15 4.5t-6 13.5v186zM259 824h160l-17 -20h37l-139 -168h132q10 0 18 -7.5t12 -16.5q11 -5 18 -14.5t7 -16.5v-143h-101v20h-20v33h-128q1 -1 1 -2v0v-60h89v-20h20v-132
h-103q-4 0 -6 -2v-163h121q6 0 6 3v94h182v-20h20v-184q0 -13 -9 -25.5t-24 -12.5h-445q-11 0 -18.5 6.5t-12.5 16.5q-10 4 -16.5 14t-6.5 21v319q0 15 8 28.5t20 25t26 20t27 13.5v170q0 4 3 10t8 11.5t11 9.5t13 4h74l4 13h-25z" />
    <glyph glyph-name="FL00EAh" unicode="&#xea;" 
d="M302 636h20l-4 13h-13zM292 755l23 -91h117l-118 145h-44l-120 -145h118l22 91h2zM204 301q4 5 8 8t13 3h88v102h-97q-12 0 -12 13v84q1 5 4.5 10t8.5 5h151q4 0 8.5 -5.5t4.5 -11.5v-36h71v128q0 5 -6 12.5t-14 7.5h-280q-8 0 -14 -7.5t-6 -12.5v-181q-11 -3 -25 -10
t-26.5 -17.5t-21 -23t-8.5 -25.5v-319q0 -8 5.5 -15.5t13.5 -7.5h445q8 0 13 7.5t5 15.5v169h-152v-79q0 -9 -6 -13.5t-15 -4.5h-135q-9 0 -15 4.5t-6 13.5v186zM448 630q10 -8 14 -18v1v-1h1h-1q11 -5 18 -14.5t7 -16.5v-143h-101v20h-20v33h-127v-62h89v-20h20v-132h-103
q-4 0 -6 -2v-163h121q6 0 6 3v94h182v-20h20v-184q0 -13 -9 -25.5t-24 -12.5h-445q-11 0 -18.5 6.5t-12.5 16.5q-10 4 -16.5 14t-6.5 21v319q0 15 8 28.5t20 25t26 20t27 13.5v170q0 7 7.5 17.5t17.5 15.5h-1l13 15h-35l143 175h60l16 -20h4l143 -174h-37z" />
    <glyph glyph-name="FL00EBh" unicode="&#xeb;" 
d="M303 636h18v13h-18v-13zM316 664h118v145h-118v-145zM149 664h119v145h-119v-145zM204 301q4 5 8 8t13 3h88v102h-97q-12 0 -12 13v84q1 5 4.5 10t8.5 5h151q4 0 8.5 -5.5t4.5 -11.5v-36h71v128q0 5 -6 12.5t-14 7.5h-280q-8 0 -14 -7.5t-6 -12.5v-181q-11 -3 -25 -10
t-26.5 -17.5t-21 -23t-8.5 -25.5v-319q0 -8 5.5 -15.5t13.5 -7.5h445q8 0 13 7.5t5 15.5v169h-152v-79q0 -9 -6 -13.5t-15 -4.5h-135q-9 0 -15 4.5t-6 13.5v186zM469 630h-21q10 -8 14 -18q11 -5 18 -14.5t7 -16.5v-143h-101v20h-20v33h-127v-62h89v-20h20v-132h-103
q-4 0 -6 -2v-163h121q6 0 6 3v94h182v-20h20v-184q0 -13 -9 -25.5t-24 -12.5h-445q-11 0 -18.5 6.5t-12.5 16.5q-10 4 -16.5 14t-6.5 21v319q0 15 8 28.5t20 25t26 20t27 13.5v170q0 4 3 10t8 11.5t11 9.5t13 4h2v13h-19v175h148v-20h18v20h148v-20h20v-174z" />
    <glyph glyph-name="FL00ECh" unicode="&#xec;" horiz-adv-x="252" 
d="M36 -13h20v-20h182v649h-20v14h49l-54 174h-15l-5 20h-159l142 -175h3l11 -13h-74v-205q-13 -5 -27 -13.5t-26 -20t-19.5 -25t-7.5 -28.5v-357zM51 344q0 13 8.5 25.5t20.5 23t26 17.5t25 10v201h72v-619h-152v342zM65 809h117l45 -145h-43z" />
    <glyph glyph-name="FL00EDh" unicode="&#xed;" horiz-adv-x="252" 
d="M68 649h24l-5 -19h29v-199q-13 -5 -27 -13.5t-26 -20t-19.5 -25t-7.5 -28.5v-357h20v-20h182v649h-20v20h-56l139 168h-38l18 20h-160zM51 344q0 13 8.5 25.5t20.5 23t26 17.5t25 10v201h72v-619h-152v342zM86 664l45 145h117l-118 -145h-44z" />
    <glyph glyph-name="FL00EEh" unicode="&#xee;" horiz-adv-x="253" 
d="M36 -13h20v-20h183v649h-20v14h140l-143 174h-4l-16 20h-60l-143 -175h36l-16 -19h103v-199q-12 -5 -26 -13.5t-26 -20t-20 -25t-8 -28.5v-357zM51 344q0 13 8.5 25.5t20.5 23t26 17.5t25 10v201h73v-619h-153v342zM164 755l-22 -91h-117l119 145h44l118 -145h-117
l-23 91h-2zM179 649h13l4 -13h-20z" />
    <glyph glyph-name="FL00EFh" unicode="&#xef;" horiz-adv-x="253" 
d="M36 -13h20v-20h183v649h-20v14h123v174h-20v20h-148v-20h-18v20h-148v-175h20v-19h88v-199q-12 -5 -26 -13.5t-26 -20t-20 -25t-8 -28.5v-357zM51 344q0 13 8.5 25.5t20.5 23t26 17.5t25 10v201h73v-619h-153v342zM23 809h118v-145h-118v145zM189 809h118v-145h-118v145z
M176 649h18v-13h-18v13z" />
    <glyph glyph-name="FL00F0h" unicode="&#xf0;" 
d="M366 436q0 -6 -1 -6h-237q-12 -3 -28 -10.5t-30.5 -19t-24 -25.5t-9.5 -31v-319q0 -11 6.5 -21t16.5 -14q5 -10 12.5 -16.5t18.5 -6.5h445q15 0 24 12.5t9 25.5v319q0 18 -10.5 34t-26.5 28q-8 11 -20 20t-24 16v158q0 7 -7 17t-18 15v-1q-4 9 -12 16.5t-18 7.5h-27v57
h-19v20h-184v-77h-53q-14 -2 -23 -14.5t-9 -20.5v-142h19v-20h103v51v0q0 1 -1 2h128v-55zM381 511q-1 5 -5 10t-8 5h-151q-4 0 -8.5 -5.5t-4.5 -11.5v-36h-72v127q0 5 5 12t13 8h67v77h154v-77h61q8 0 14 -7.5t6 -12.5v-180q12 -3 26 -10t26 -17.5t20.5 -23t8.5 -25.5v-319
q0 -8 -5 -15.5t-13 -7.5h-445q-8 0 -13.5 7.5t-5.5 15.5v319q0 13 8.5 25t20.5 21t26 15.5t25 9.5h237q9 3 11 8t2 13v75zM222 312q-2 0 -9 -3t-9 -9v-185q0 -9 6 -13.5t15 -4.5h135q9 0 15 4.5t6 13.5v184q-4 9 -20 13h-139zM360 112h-121v163q2 2 3 2h124v-162q0 -3 -6 -3
z" />
    <glyph glyph-name="FL00F1h" unicode="&#xf1;" 
d="M236 824l-143 -175h36l-16 -19h21q-8 -6 -12.5 -15t-4.5 -14v-170q-13 -5 -27 -13.5t-26 -20t-20 -25t-8 -28.5v-357h20v-20h183v522v0q0 1 -1 2h128v-504h20v-20h182v357q0 18 -10.5 34t-26.5 28q-8 11 -20 20t-24 16v159q0 7 -7 16.5t-18 14.5h1h-1v1v-1q-4 9 -12 16.5
t-18 7.5h-58l139 168h-38l18 20h-162l-5 -20h-13l-5 20h-72zM381 509q0 6 -4.5 11.5t-8.5 5.5h-151q-4 0 -8.5 -5.5t-4.5 -11.5v-507h-153v342q0 13 8.5 25.5t21 23t26.5 17.5t25 10v181q0 5 6 12.5t14 7.5h280q8 0 14 -7.5t6 -12.5v-181q12 -3 26 -10t26 -17.5t20.5 -23
t8.5 -25.5v-342h-152v507zM320 717h2l22 92h116l-118 -145h-53l-23 91h-2l-22 -91h-117l119 145h52zM279 649h13l4 -13h-20z" />
    <glyph glyph-name="FL00F2h" unicode="&#xf2;" 
d="M345 804h-15l-5 20h-161l144 -175h3l11 -13h-170q-7 0 -13 -4t-11 -9.5t-8 -11.5t-3 -10v-170q-13 -5 -27 -13.5t-26 -20t-20 -25t-8 -28.5v-319q0 -11 6.5 -21t16.5 -14q5 -10 12.5 -16.5t18.5 -6.5h445q15 0 24 12.5t9 25.5v319q0 18 -10.5 34t-26.5 28q-8 11 -20 20
t-24 16v159q0 7 -7 16.5t-18 14.5h1h-1v1v-1q-4 9 -12 16.5t-18 7.5h-35zM70 2q-8 0 -13.5 7.5t-5.5 15.5v319q0 13 8.5 25.5t21 23t26.5 17.5t25 10v181q0 5 6 12.5t14 7.5h280q8 0 14 -7.5t6 -12.5v-181q12 -3 26 -10t26 -17.5t20.5 -23t8.5 -25.5v-319q0 -8 -5 -15.5
t-13 -7.5h-445zM381 509q0 6 -4.5 11.5t-8.5 5.5h-151q-4 0 -8.5 -5.5t-4.5 -11.5v-394q0 -9 6 -13.5t15 -4.5h135q9 0 15 4.5t6 13.5v394zM366 115q0 -3 -6 -3h-121v377v0q0 1 -1 2h128v-376zM316 664l-120 145h118l45 -145h-43z" />
    <glyph glyph-name="FL00F3h" unicode="&#xf3;" 
d="M205 649h25l-4 -13h-74q-7 0 -13 -4t-11 -9.5t-8 -11.5t-3 -10v-170q-13 -5 -27 -13.5t-26 -20t-20 -25t-8 -28.5v-319q0 -11 6.5 -21t16.5 -14q5 -10 12.5 -16.5t18.5 -6.5h445q15 0 24 12.5t9 25.5v319q0 18 -10.5 34t-26.5 28q-8 11 -20 20t-24 16v159q0 7 -7 16.5
t-18 14.5q-4 9 -12 16.5t-18 7.5h-132l139 168h-37l17 20h-160zM70 2q-8 0 -13.5 7.5t-5.5 15.5v319q0 13 8.5 25.5t21 23t26.5 17.5t25 10v181q0 5 6 12.5t14 7.5h280q8 0 14 -7.5t6 -12.5v-181q12 -3 26 -10t26 -17.5t20.5 -23t8.5 -25.5v-319q0 -8 -5 -15.5t-13 -7.5
h-445zM381 509q0 6 -4.5 11.5t-8.5 5.5h-151q-4 0 -8.5 -5.5t-4.5 -11.5v-394q0 -9 6 -13.5t15 -4.5h135q9 0 15 4.5t6 13.5v394zM366 115q0 -3 -6 -3h-121v377v0q0 1 -1 2h128v-376zM224 664l45 145h118l-119 -145h-44z" />
    <glyph glyph-name="FL00F5h" unicode="&#xf4;" 
d="M485 630l-143 174h-4l-16 20h-60l-143 -175h35l-13 -15h1q-10 -5 -17.5 -15.5t-7.5 -17.5v-170q-13 -5 -27 -13.5t-26 -20t-20 -25t-8 -28.5v-319q0 -11 6.5 -21t16.5 -14q5 -10 12.5 -16.5t18.5 -6.5h445q15 0 24 12.5t9 25.5v319q0 18 -10.5 34t-26.5 28q-8 11 -20 20
t-24 16v159q0 7 -7 17t-18 15v-1q-4 10 -14 18h37zM70 2q-8 0 -13.5 7.5t-5.5 15.5v319q0 13 8.5 25.5t21 23t26.5 17.5t25 10v181q0 5 6 12.5t14 7.5h280q8 0 14 -7.5t6 -12.5v-181q12 -3 26 -10t26 -17.5t20.5 -23t8.5 -25.5v-319q0 -8 -5 -15.5t-13 -7.5h-445zM381 509
q0 6 -4.5 11.5t-8.5 5.5h-151q-4 0 -8.5 -5.5t-4.5 -11.5v-394q0 -9 6 -13.5t15 -4.5h135q9 0 15 4.5t6 13.5v394zM360 112h-121v377v0q0 1 -1 2h128v-376q0 -3 -6 -3zM290 755l-22 -91h-118l120 145h44l118 -145h-117l-23 91h-2zM305 649h13l4 -13h-20z" />
    <glyph glyph-name="FL00F4h" unicode="&#xf5;" 
d="M236 824l-143 -175h36l-16 -19h21q-8 -6 -12.5 -15t-4.5 -14v-170q-13 -5 -27 -13.5t-26 -20t-20 -25t-8 -28.5v-319q0 -11 6.5 -21t16.5 -14q5 -10 12.5 -16.5t18.5 -6.5h445q15 0 24 12.5t9 25.5v319q0 18 -10.5 34t-26.5 28q-8 11 -20 20t-24 16v159q0 7 -7 16.5
t-18 14.5h1h-1v1v-1q-4 9 -12 16.5t-18 7.5h-58l139 168h-38l18 20h-162l-5 -20h-13l-5 20h-72zM70 2q-8 0 -13.5 7.5t-5.5 15.5v319q0 13 8.5 25.5t21 23t26.5 17.5t25 10v181q0 5 6 12.5t14 7.5h280q8 0 14 -7.5t6 -12.5v-181q12 -3 26 -10t26 -17.5t20.5 -23t8.5 -25.5
v-319q0 -8 -5 -15.5t-13 -7.5h-445zM381 509q0 6 -4.5 11.5t-8.5 5.5h-151q-4 0 -8.5 -5.5t-4.5 -11.5v-394q0 -9 6 -13.5t15 -4.5h135q9 0 15 4.5t6 13.5v394zM360 112h-121v377v0q0 1 -1 2h128v-376q0 -3 -6 -3zM320 717h2l22 92h116l-118 -145h-53l-23 91h-2l-22 -91
h-117l119 145h52zM279 649h13l4 -13h-20z" />
    <glyph glyph-name="FL00F6h" unicode="&#xf6;" 
d="M303 636h18v13h-18v-13zM316 664h118v145h-118v-145zM149 664h119v145h-119v-145zM366 491h-128q1 -1 1 -2v0v-377h121q6 0 6 3v376zM381 115q0 -9 -6 -13.5t-15 -4.5h-135q-9 0 -15 4.5t-6 13.5v394q0 6 4.5 11.5t8.5 5.5h151q4 0 8.5 -5.5t4.5 -11.5v-394zM515 2
q8 0 13 7.5t5 15.5v319q0 13 -8.5 25.5t-20.5 23t-26 17.5t-26 10v181q0 5 -6 12.5t-14 7.5h-280q-8 0 -14 -7.5t-6 -12.5v-181q-11 -3 -25 -10t-26.5 -17.5t-21 -23t-8.5 -25.5v-319q0 -8 5.5 -15.5t13.5 -7.5h445zM283 804h18v20h148v-20h20v-174h-21q10 -8 14 -18v1
q11 -5 18 -15t7 -17v-159q12 -7 24 -16t20 -20q16 -12 26.5 -28t10.5 -34v-319q0 -13 -9 -25.5t-24 -12.5h-445q-11 0 -18.5 6.5t-12.5 16.5q-10 4 -16.5 14t-6.5 21v319q0 15 8 28.5t20 25t26 20t27 13.5v170q0 4 3 10t8 11.5t11 9.5t13 4h2v13h-19v175h148v-20z" />
    <glyph glyph-name="FL00F7h" unicode="&#xf7;" horiz-adv-x="522" 
d="M206 115h119v139h-119v-139zM205 461h119v140h-119v-140zM359 80h-148v20h-20v169h149v-20h19v-169zM51 311h422v102h-422v-102zM56 276v20h-20v132h174v18h-20v170h149v-20h19v-168h130v-20h20v-132h-452z" />
    <glyph glyph-name="FL00F8h" unicode="&#xf8;" 
d="M90 -33h445q15 0 24 12.5t9 25.5v319q0 18 -10.5 34t-26.5 28q-8 11 -20 20t-24 16v158q0 7 -7 16.5t-18 14.5q-4 9 -12 16.5t-18 7.5h-280q-7 0 -13 -4t-11 -9.5t-8 -11.5t-3 -10v-169q-13 -5 -27 -13.5t-26 -20t-20 -25t-8 -28.5v-319q0 -11 6.5 -21t16.5 -14
q5 -10 12.5 -16.5t18.5 -6.5zM70 2q-8 0 -13.5 7.5t-5.5 15.5v319q0 13 8.5 25.5t21 23t26.5 17.5t25 10v180q0 5 6 12.5t14 7.5h280q8 0 14 -7.5t6 -12.5v-180q12 -3 26 -10t26 -17.5t20.5 -23t8.5 -25.5v-319q0 -8 -5 -15.5t-13 -7.5h-445zM217 525q-4 0 -8.5 -5.5
t-4.5 -11.5v-354h2l149 371h-138zM232 97h128q9 0 15 4.5t6 13.5v352h-2zM239 489v0q0 1 -1 2h87l-86 -216v214zM360 112h-79l85 212v-209q0 -3 -6 -3z" />
    <glyph glyph-name="FL00F9h" unicode="&#xf9;" 
d="M366 115q0 -3 -6 -3h-121v504h-20v20h-102v-205q-13 -5 -27 -13.5t-26 -20t-20 -25t-8 -28.5v-319q0 -11 6.5 -21t16.5 -14q5 -10 12.5 -16.5t18.5 -6.5h445q15 0 24 12.5t9 25.5v319q0 18 -10.5 34t-26.5 28q-8 11 -20 20t-24 16v194h-20v20h-70l-52 168h-15l-5 20h-161
l144 -175h3l17 -19h38v-515zM533 344v-319q0 -8 -5 -15.5t-13 -7.5h-445q-8 0 -13.5 7.5t-5.5 15.5v319q0 13 8.5 25.5t21 23t26.5 17.5t25 10v201h72v-506q0 -9 6 -13.5t15 -4.5h135q9 0 15 4.5t6 13.5v506h71v-201q12 -3 26 -10t26 -17.5t20.5 -23t8.5 -25.5zM196 809h118
l45 -145h-43z" />
    <glyph glyph-name="FL00FAh" unicode="&#xfa;" 
d="M366 115q0 -3 -6 -3h-121v504h-20v20h-102v-205q-13 -5 -27 -13.5t-26 -20t-20 -25t-8 -28.5v-319q0 -11 6.5 -21t16.5 -14q5 -10 12.5 -16.5t18.5 -6.5h445q15 0 24 12.5t9 25.5v319q0 18 -10.5 34t-26.5 28q-8 11 -20 20t-24 16v194h-20v20h-101v-521zM533 344v-319
q0 -8 -5 -15.5t-13 -7.5h-445q-8 0 -13.5 7.5t-5.5 15.5v319q0 13 8.5 25.5t21 23t26.5 17.5t25 10v201h72v-506q0 -9 6 -13.5t15 -4.5h135q9 0 15 4.5t6 13.5v506h71v-201q12 -3 26 -10t26 -17.5t20.5 -23t8.5 -25.5zM205 649h25l-5 -19h71l143 174h-37l17 20h-160z
M224 664l45 145h118l-119 -145h-44z" />
    <glyph glyph-name="FL00FBh" unicode="&#xfb;" 
d="M485 630l-143 174h-4l-16 20h-60l-143 -175h35l-11 -13h-26v-205q-13 -5 -27 -13.5t-26 -20t-20 -25t-8 -28.5v-319q0 -11 6.5 -21t16.5 -14q5 -10 12.5 -16.5t18.5 -6.5h445q15 0 24 12.5t9 25.5v319q0 18 -10.5 34t-26.5 28q-8 11 -20 20t-24 16v194h-20v14h18z
M533 344v-319q0 -8 -5 -15.5t-13 -7.5h-445q-8 0 -13.5 7.5t-5.5 15.5v319q0 13 8.5 25.5t21 23t26.5 17.5t25 10v201h72v-506q0 -9 6 -13.5t15 -4.5h135q9 0 15 4.5t6 13.5v506h71v-201q12 -3 26 -10t26 -17.5t20.5 -23t8.5 -25.5zM366 115q0 -3 -6 -3h-121v504h-20v14h82
l5 19h12l6 -19h42v-515zM290 755l-22 -91h-118l120 145h44l118 -145h-117l-23 91h-2z" />
    <glyph glyph-name="FL00FCh" unicode="&#xfc;" 
d="M283 824h-148v-175h19v-13h-37v-205q-13 -5 -27 -13.5t-26 -20t-20 -25t-8 -28.5v-319q0 -11 6.5 -21t16.5 -14q5 -10 12.5 -16.5t18.5 -6.5h445q15 0 24 12.5t9 25.5v319q0 18 -10.5 34t-26.5 28q-8 11 -20 20t-24 16v194h-20v14h2v174h-20v20h-148v-20h-18v20zM533 344
v-319q0 -8 -5 -15.5t-13 -7.5h-445q-8 0 -13.5 7.5t-5.5 15.5v319q0 13 8.5 25.5t21 23t26.5 17.5t25 10v201h72v-506q0 -9 6 -13.5t15 -4.5h135q9 0 15 4.5t6 13.5v506h71v-201q12 -3 26 -10t26 -17.5t20.5 -23t8.5 -25.5zM366 115q0 -3 -6 -3h-121v504h-20v14h84v19h18
v-19h45v-515zM316 809h118v-145h-118v145zM149 809h119v-145h-119v145z" />
    <glyph glyph-name="FL00FDh" unicode="&#xfd;" 
d="M239 616h-20v20h-102v-307q0 -9 6 -17.5t14 -12.5q4 -9 12.5 -15.5t20.5 -6.5h196v-161q-3 -4 -6 -4h-121v77h-20v20h-183v-184q0 -11 6.5 -21t16.5 -14q5 -10 12.5 -16.5t18.5 -6.5h445q15 0 24 12.5t9 25.5v319q0 18 -10.5 34t-26.5 28q-8 11 -20 20t-24 16v194h-20v20
h-101v-207h-127v187zM204 427q0 -6 2.5 -7.5t6.5 -3.5h-1q1 -1 2 -1t2 -1h153q12 0 12 13v194h71v-201q12 -3 26 -10t26 -17.5t20.5 -23t8.5 -25.5v-319q0 -8 -5 -15.5t-13 -7.5h-445q-8 0 -13.5 7.5t-5.5 15.5v169h153v-79q0 -9 6 -13.5t15 -4.5h135q17 0 21 16v188
q-4 5 -8 8t-13 3h-210q-8 0 -13 5.5t-5 11.5v292h72v-194zM205 649h25l-5 -19h71l143 174h-37l17 20h-160zM224 664l45 145h118l-119 -145h-44z" />
    <glyph glyph-name="FL00FEh" unicode="&#xfe;" horiz-adv-x="501" 
d="M487 152v271q0 7 -7 16.5t-18 14.5q-4 9 -12 16.5t-18 7.5h-193v137h-20v20h-103v-204q-14 -5 -28 -14t-25.5 -20.5t-19 -25t-7.5 -27.5v-357h20v-20h183v151q2 2 6 2h209q15 0 24 10.5t9 21.5zM452 171q0 -5 -5 -10.5t-13 -5.5h-209q-9 0 -13 -3t-8 -8v-142h-153v342
q0 12 7.5 24.5t19.5 23t26 18t27 10.5v200h73v-135q0 -14 14 -22h214q8 0 14 -7.5t6 -12.5v-272zM380 351q0 6 -3.5 11.5t-9.5 5.5h-150q-4 0 -8.5 -5.5t-4.5 -11.5v-82q0 -13 12 -13h152q1 1 2 1t2 1h-1q3 2 6 3.5t3 7.5v82zM239 331v0q0 1 -1 2h127v-60l-2 -2h-124v60z
" />
    <glyph glyph-name="FL00FFh" unicode="&#xff;" 
d="M469 804h-20v20h-148v-20h-18v20h-148v-175h19v-13h-37v-307q0 -9 6 -17.5t14 -12.5q4 -9 12.5 -15.5t20.5 -6.5h196v-161q-3 -4 -6 -4h-121v77h-20v20h-183v-184q0 -11 6.5 -21t16.5 -14q5 -10 12.5 -16.5t18.5 -6.5h445q15 0 24 12.5t9 25.5v319q0 18 -10.5 34
t-26.5 28q-8 11 -20 20t-24 16v194h-20v14h2v174zM204 427q0 -6 2.5 -7.5t6.5 -3.5h-1q1 -1 2 -1t2 -1h153q12 0 12 13v194h71v-201q12 -3 26 -10t26 -17.5t20.5 -23t8.5 -25.5v-319q0 -8 -5 -15.5t-13 -7.5h-445q-8 0 -13.5 7.5t-5.5 15.5v169h153v-79q0 -9 6 -13.5
t15 -4.5h135q17 0 21 16v188q-4 5 -8 8t-13 3h-210q-8 0 -13 5.5t-5 11.5v292h72v-194zM239 616h-20v14h84v19h18v-19h45v-201h-127v187zM149 809h119v-145h-119v145zM316 809h118v-145h-118v145z" />
    </font>
</defs>
</svg>
