<?xml version="1.0" standalone="no"?>
<!DOCTYPE svg PUBLIC "-//W3C//DTD SVG 1.1//EN" "http://www.w3.org/Graphics/SVG/1.1/DTD/svg11.dtd" >
<svg>
<metadata>
Created by FontForge 20090914 at Fri Feb 24 02:31:06 2012
 By root
Copyright \251 2002 - Font Diner - http://www.fontdiner.com
</metadata>
<defs>
<font id="AirConditioner" horiz-adv-x="828" >
  <font-face 
    font-family="Air Conditioner"
    font-weight="400"
    font-stretch="normal"
    units-per-em="1000"
    panose-1="2 0 5 5 2 0 0 2 0 4"
    ascent="800"
    descent="-200"
    x-height="311"
    cap-height="568"
    bbox="-268 -568 1496 862"
    underline-thickness="20"
    underline-position="-113"
    unicode-range="U+0020-U+FB02"
  />
<missing-glyph horiz-adv-x="1000" 
 />
    <glyph glyph-name="fi" unicode="fi" horiz-adv-x="-8000" 
 />
    <glyph glyph-name="fl" unicode="fl" horiz-adv-x="-8000" 
 />
    <glyph glyph-name=".notdef" horiz-adv-x="1000" 
 />
    <glyph glyph-name="NUL" horiz-adv-x="500" 
 />
    <glyph glyph-name="nonmarkingreturn" horiz-adv-x="-8000" 
 />
    <glyph glyph-name="space" unicode=" " horiz-adv-x="600" 
 />
    <glyph glyph-name="exclam" unicode="!" horiz-adv-x="365" 
d="M265 35q0 -17 -13 -29.5t-30 -12.5t-29.5 12.5t-12.5 29.5t12.5 29.5t29.5 12.5t30 -12.5t13 -29.5zM256 142q0 -14 -11 -24.5t-25 -10.5t-24.5 10.5t-10.5 24.5v390q0 14 10.5 25t24.5 11t25 -11t11 -25v-390z" />
    <glyph glyph-name="quotedbl" unicode="&#x22;" horiz-adv-x="306" 
d="M70 388q0 -14 -10.5 -24.5t-24.5 -10.5t-24.5 10.5t-10.5 24.5v144q0 14 10.5 25t24.5 11t24.5 -11t10.5 -25v-144zM206 388q0 -14 -10.5 -24.5t-24.5 -10.5t-24.5 10.5t-10.5 24.5v144q0 14 10.5 25t24.5 11t24.5 -11t10.5 -25v-144z" />
    <glyph glyph-name="numbersign" unicode="#" horiz-adv-x="575" 
d="M195 326l-15 -101h100l15 101h-100zM475 362q0 -14 -10.5 -25t-24.5 -11h-74l-15 -101h63q14 0 24.5 -10.5t10.5 -24.5t-10.5 -24.5t-24.5 -10.5h-73l-11 -74q-2 -13 -12 -21.5t-23 -8.5q-14 0 -24.5 10.5t-10.5 24.5t4 34t6 35h-101l-11 -74q-2 -13 -11.5 -21.5
t-22.5 -8.5q-14 0 -25 10.5t-11 24.5t4 34t6 35h-63q-14 0 -24.5 10.5t-10.5 24.5t10.5 24.5t24.5 10.5h73l15 101h-62q-14 0 -25 11t-11 25t11 24.5t25 10.5h73l11 73q2 13 11.5 21.5t22.5 8.5q14 0 25 -10.5t11 -24.5t-4 -33.5t-6 -34.5h101l10 73q2 13 12 21.5t23 8.5
q14 0 25 -10.5t11 -24.5t-4 -33.5t-6 -34.5h63q14 0 24.5 -10.5t10.5 -24.5z" />
    <glyph glyph-name="dollar" unicode="$" horiz-adv-x="581" 
d="M205 397h-51q-7 0 -19 -0.5t-24 -2.5t-22.5 -6t-14.5 -12t-4 -19q0 -12 5 -20q5 -7 15 -11t22 -5.5t23.5 -2t18.5 -0.5h51v79zM410 208q0 5 -0.5 9.5t-2.5 9.5q-4 8 -14.5 12t-22.5 6t-23.5 2.5t-19.5 0.5h-51v-79h51q8 0 19 0.5t23 2t22 5.5t15 11q3 5 3.5 10t0.5 10z
M481 208q0 -44 -20.5 -67t-51 -32.5t-66.5 -10t-67 -0.5v-63q0 -14 -11 -24.5t-25 -10.5t-24.5 10.5t-10.5 24.5v63h-170q-14 0 -24.5 11t-10.5 25t10.5 24.5t24.5 10.5h170v79q-31 0 -67 0.5t-66.5 10t-51 32t-20.5 66.5t20.5 67t51 32.5t66.5 10t67 0.5v65q0 14 10.5 25
t24.5 11t25 -11t11 -25v-65h169q14 0 25 -10.5t11 -24.5t-11 -24.5t-25 -10.5h-169v-79q31 0 67 -0.5t66.5 -10t51 -32.5t20.5 -67z" />
    <glyph glyph-name="percent" unicode="%" horiz-adv-x="972" 
d="M321 412q0 11 -0.5 21.5t-5.5 21.5q-7 15 -21.5 23t-31.5 12.5t-34.5 5.5t-31.5 1t-32.5 -1t-36 -5.5t-32 -13.5t-20.5 -26q-4 -9 -4.5 -19t-0.5 -20t0.5 -20t4.5 -19q6 -16 20.5 -25.5t32 -14t36 -5.5t32.5 -1t31.5 1t34.5 5t31.5 12t21.5 23q5 11 5.5 22t0.5 22z
M801 155v20t-4 19q-6 17 -20.5 26t-32 13.5t-36 5.5t-32.5 1t-32.5 -1t-36 -5.5t-32 -13.5t-20.5 -26q-4 -9 -4 -19v-20q0 -11 0.5 -21.5t5.5 -21.5q7 -15 21.5 -23t31.5 -12.5t34.5 -5.5t31.5 -1t31.5 1t34.5 5.5t31.5 12.5t21.5 23q5 11 5.5 21.5t0.5 21.5zM785 532
q0 -15 -14 -27l-626 -498q-8 -7 -22 -7t-25 10.5t-11 24.5q0 16 14 28l547 434h-213q-14 0 -29 -2t-29 -8q8 -17 11.5 -36t3.5 -39q0 -46 -15.5 -76.5t-42 -48t-62 -24.5t-76.5 -7t-76.5 7t-62 24.5t-42 48t-15.5 76.5q0 47 15.5 77t42 47.5t62 24.5t76.5 7q33 0 68 -5.5
t64 -22.5q23 16 51 22t56 6h314q14 0 25 -11t11 -25zM872 155q0 -46 -15.5 -76.5t-42 -47.5t-62 -24t-76.5 -7t-76.5 7t-62 24t-42 47.5t-15.5 76.5q0 47 15.5 77t42 47.5t62 24.5t76.5 7t76.5 -7t62 -24.5t42 -47.5t15.5 -77z" />
    <glyph glyph-name="ampersand" unicode="&#x26;" horiz-adv-x="807" 
d="M435 121l-106.5 66t-100.5 74l-44 -13.5t-52.5 -21t-43.5 -30.5t-18 -41q0 -16 11 -29t26.5 -22.5t32.5 -16t30 -9.5q19 -5 38 -6.5t39 -1.5q50 0 97 14t91 37zM433 430q0 21 -14 34.5t-33.5 20.5t-41 9.5t-37.5 2.5q-15 0 -37 -2.5t-41.5 -10t-33.5 -20.5t-14 -34
q0 -12 7 -25t17 -25t21 -23t19 -18q9 3 26.5 7t38.5 10t42.5 14t39.5 17.5t29.5 20t11.5 22.5zM707 35q0 -14 -10.5 -24.5t-24.5 -10.5q-7 0 -31 11t-51.5 25l-51 27t-31.5 17q-59 -35 -124.5 -57.5t-135.5 -22.5q-29 0 -61.5 4t-63 14.5t-57 27.5t-44.5 43
q-10 14 -15.5 31.5t-5.5 34.5q0 35 15.5 61t40 45t54.5 32t58 23q-22 23 -39.5 52t-17.5 62q0 39 18.5 65.5t47 42.5t63.5 23t67 7t67 -7t64 -23t47.5 -42.5t18.5 -65.5q0 -35 -20 -59.5t-49 -41t-62 -27l-60 -18.5q46 -34 93 -64t97 -58q44 30 81 64q9 8 17.5 17.5
t17.5 17.5q7 5 12.5 8t14.5 3q14 0 24.5 -10.5t10.5 -24.5q0 -8 -2 -12.5t-7 -10.5q-6 -9 -19 -21.5t-28 -25.5l-29.5 -24.5l-23.5 -18.5l38 -19.5l39 -19.5q9 -5 19 -9t19 -9q20 -12 20 -32z" />
    <glyph glyph-name="quotesingle" unicode="'" horiz-adv-x="170" 
d="M70 388q0 -14 -10.5 -24.5t-24.5 -10.5t-24.5 10.5t-10.5 24.5v144q0 14 10.5 25t24.5 11t24.5 -11t10.5 -25v-144z" />
    <glyph glyph-name="parenleft" unicode="(" horiz-adv-x="280" 
d="M180 -46q0 -14 -10.5 -25t-24.5 -11q-8 0 -12.5 2.5t-10.5 6.5q-8 5 -20 20.5t-17 23.5q-47 68 -66 149t-19 162t19 162.5t66 149.5q5 8 17 23.5t20 20.5q6 4 10.5 6t12.5 2q14 0 24.5 -10.5t10.5 -24.5q0 -9 -3 -14t-9 -12q-13 -14 -25 -31q-41 -58 -57 -130.5
t-16 -141.5t16 -141t57 -130q12 -17 25 -31q6 -7 9 -12t3 -14z" />
    <glyph glyph-name="parenright" unicode=")" horiz-adv-x="280" 
d="M180 282q0 -81 -19 -162t-66 -149q-5 -8 -17 -23.5t-20 -20.5q-6 -4 -10.5 -6.5t-12.5 -2.5q-14 0 -24.5 11t-10.5 25q0 9 3 14t9 12q13 14 25 31q41 58 57 130t16 141t-16 141.5t-57 130.5q-12 17 -25 31q-6 7 -9 12t-3 14q0 14 10.5 24.5t24.5 10.5q8 0 12.5 -2
t10.5 -6q8 -5 20 -20.5t17 -23.5q47 -68 66 -149.5t19 -162.5z" />
    <glyph glyph-name="asterisk" unicode="*" horiz-adv-x="499" 
d="M399 181q0 -14 -11 -24.5t-25 -10.5q-10 0 -17 4l-111 65v-129q0 -14 -11 -24.5t-25 -10.5t-24.5 10.5t-10.5 24.5v129l-111 -65q-7 -4 -18 -4q-14 0 -24.5 10.5t-10.5 24.5q0 20 18 30l111 65l-111 64q-18 10 -18 30q0 14 10.5 25t24.5 11q10 0 18 -5l111 -64v128
q0 14 10.5 24.5t24.5 10.5t25 -10.5t11 -24.5v-128l111 64q8 5 17 5q14 0 25 -11t11 -25q0 -20 -18 -30l-111 -64l111 -65q18 -10 18 -30z" />
    <glyph glyph-name="plus" unicode="+" horiz-adv-x="549" 
d="M449 276q0 -14 -10.5 -25t-24.5 -11h-154v-154q0 -14 -10.5 -24.5t-24.5 -10.5t-25 10.5t-11 24.5v154h-154q-14 0 -24.5 11t-10.5 25t10.5 24.5t24.5 10.5h154v154q0 14 11 24.5t25 10.5t24.5 -10.5t10.5 -24.5v-154h154q14 0 24.5 -10.5t10.5 -24.5z" />
    <glyph glyph-name="comma" unicode="," horiz-adv-x="420" 
d="M320 35q0 -5 -4 -15l-69 -145q-10 -20 -32 -20q-14 0 -24.5 10.5t-10.5 24.5q0 8 3 16l70 144q10 20 31 20q14 0 25 -10.5t11 -24.5z" />
    <glyph glyph-name="hyphen" unicode="-" horiz-adv-x="549" 
d="M449 276q0 -14 -10.5 -25t-24.5 -11h-379q-14 0 -24.5 11t-10.5 25t10.5 24.5t24.5 10.5h379q14 0 24.5 -10.5t10.5 -24.5z" />
    <glyph glyph-name="period" unicode="." horiz-adv-x="365" 
d="M265 35q0 -17 -13 -29.5t-30 -12.5t-29.5 12.5t-12.5 29.5t12.5 29.5t29.5 12.5t30 -12.5t13 -29.5z" />
    <glyph glyph-name="slash" unicode="/" horiz-adv-x="388" 
d="M288 532q0 -8 -3 -14l-217 -497q-10 -21 -33 -21q-14 0 -24.5 10.5t-10.5 24.5q0 8 3 14l218 497q10 22 32 22q14 0 24.5 -11t10.5 -25z" />
    <glyph glyph-name="zero" unicode="0" horiz-adv-x="971" 
d="M800 283q0 24 -3 48t-14 47q-20 42 -62 65.5t-92.5 35.5t-102.5 14.5t-91 2.5q-38 0 -89 -2.5t-101 -13.5t-92 -33.5t-63 -62.5q-12 -23 -16 -49t-4 -52t4 -52.5t16 -49.5q21 -40 63 -62.5t92 -33.5t101 -13.5t89 -2.5q39 0 91 2.5t102.5 14.5t92.5 35.5t62 65.5
q11 23 14 47.5t3 48.5zM871 283q0 -62 -18.5 -112.5t-68.5 -91.5q-32 -26 -75.5 -42t-91.5 -24.5t-95.5 -11t-86.5 -2.5t-86.5 2.5t-95 11t-91 24.5t-75.5 42q-50 41 -68.5 91.5t-18.5 112.5t18.5 112.5t68.5 90.5q32 26 75.5 42t91 24.5t95 11.5t86.5 3t86.5 -3t95.5 -11.5
t91.5 -24.5t75.5 -42q50 -40 68.5 -90.5t18.5 -112.5z" />
    <glyph glyph-name="one" unicode="1" horiz-adv-x="170" 
d="M70 35q0 -14 -10.5 -24.5t-24.5 -10.5t-24.5 10.5t-10.5 24.5v497q0 14 10.5 25t24.5 11t24.5 -11t10.5 -25v-497z" />
    <glyph glyph-name="two" unicode="2" horiz-adv-x="808" 
d="M708 383q0 -48 -20.5 -79t-52.5 -50.5t-72.5 -29t-79.5 -14.5q-40 -5 -79.5 -7t-79.5 -2q-36 0 -75.5 -5.5t-74.5 -19.5t-61.5 -39.5t-37.5 -66.5h587q14 0 24.5 -11t10.5 -25t-10.5 -24.5t-24.5 -10.5h-627q-16 0 -25.5 10.5t-9.5 26.5q0 42 17 79t44 67
q24 26 55.5 43.5t66 28t71 14.5t70.5 4q26 0 69.5 1t89.5 7.5t86 20t57 37.5q8 11 9.5 21.5t1.5 23.5t-1.5 24t-9.5 22q-17 24 -57 37.5t-86 20t-89.5 7.5t-69.5 1q-32 0 -67.5 -1t-71 -5t-69.5 -12t-63 -22q-10 -5 -18 -5q-14 0 -24.5 10.5t-10.5 24.5q0 11 5 18t13 13
q7 5 15.5 8.5l16.5 6.5q30 12 64.5 18.5t70.5 10.5t72 5t67 1q40 0 79.5 -2t79.5 -7q39 -5 79.5 -15t72.5 -29.5t52.5 -50.5t20.5 -79z" />
    <glyph glyph-name="three" unicode="3" horiz-adv-x="856" 
d="M756 158q0 -51 -20.5 -82t-53 -48t-73 -23t-81.5 -6h-493q-14 0 -24.5 10.5t-10.5 24.5t10.5 24.5t24.5 10.5h487q25 0 53.5 1.5t53 9.5t40.5 26.5t16 51.5q0 12 -2 24t-9 23q-10 16 -29 24.5t-41 12.5t-44 5t-38 1h-487q-14 0 -24.5 10.5t-10.5 24.5t10.5 24.5
t24.5 10.5h487q25 0 53.5 1.5t53 9.5t40.5 26.5t16 51.5q0 12 -2 24t-9 23q-10 16 -29 24.5t-41 12.5t-44 4.5t-38 0.5h-487q-14 0 -24.5 11t-10.5 25t10.5 24.5t24.5 10.5h493q41 0 81.5 -6t73 -23.5t53 -48.5t20.5 -82q0 -39 -14.5 -71t-48.5 -53q34 -21 48.5 -53.5
t14.5 -71.5z" />
    <glyph glyph-name="four" unicode="4" horiz-adv-x="864" 
d="M764 213q0 -14 -10.5 -24.5t-24.5 -10.5h-88v-143q0 -14 -10.5 -24.5t-24.5 -10.5t-25 10.5t-11 24.5v143h-535q-14 0 -24.5 10.5t-10.5 24.5q0 19 15 29l464 319q11 7 20 7q14 0 24.5 -11t10.5 -25q0 -19 -15 -29l-370 -255h421v284q0 14 11 25t25 11t24.5 -11t10.5 -25
v-284h88q14 0 24.5 -10.5t10.5 -24.5z" />
    <glyph glyph-name="five" unicode="5" horiz-adv-x="808" 
d="M708 182q0 -48 -20.5 -79t-52.5 -50.5t-72.5 -29.5t-79.5 -15q-40 -5 -79.5 -6.5t-79.5 -1.5q-32 0 -68 1t-73 5t-72 11t-65 19l-14.5 6t-13.5 8q-8 6 -13 12.5t-5 17.5q0 14 10.5 25t24.5 11q8 0 18 -5q29 -15 63 -23t69.5 -12t71 -5t67.5 -1q17 0 43 0.5t56 2.5
t61.5 6.5t59.5 12t50 19t33 28.5q7 11 8.5 21t1.5 22t-1.5 22.5t-8.5 21.5q-11 17 -33 28.5t-50 19t-59.5 12t-61.5 6.5t-56 2.5t-43 0.5q-32 0 -67.5 -1t-71 -5t-69.5 -12t-63 -23q-10 -5 -18 -5q-14 0 -24.5 10t-10.5 25v248q0 14 10.5 25t24.5 11h627q14 0 24.5 -11
t10.5 -25t-10.5 -24.5t-24.5 -10.5h-592v-160q29 9 61 14.5t65 8.5t65.5 4t62.5 1q40 0 79.5 -2t79.5 -7q39 -5 79.5 -15t72.5 -29.5t52.5 -50.5t20.5 -79z" />
    <glyph glyph-name="six" unicode="6" horiz-adv-x="926" 
d="M826 187q0 -46 -18 -77t-48 -51t-67.5 -31t-76.5 -17q-45 -7 -90.5 -9.5t-90.5 -2.5q-40 0 -87 2.5t-94.5 11t-91 24.5t-75.5 42q-50 41 -68.5 91t-18.5 113t18.5 113t68.5 91q32 26 75.5 42t91 24.5t94.5 11t87 2.5q38 0 79 -2t82.5 -8.5t81 -18t72.5 -30.5
q10 -5 20.5 -11.5t18.5 -14.5q12 -12 12 -27q0 -14 -10.5 -24.5t-24.5 -10.5q-11 0 -22 8l-19 13t-20 11q-28 14 -62.5 22.5t-70 13.5t-71 6.5t-66.5 1.5q-37 0 -87 -2.5t-99 -13t-91 -32t-64 -58.5q-14 -24 -19 -51.5t-5 -55.5t5 -55.5t19 -51.5q22 -37 64 -58.5t91 -32
t99 -13t87 -2.5q18 0 44 0.5t56.5 2.5t62 6t60 12t51 19.5t34.5 28.5q8 11 10 23t2 25t-2 24.5t-10 22.5q-12 17 -34.5 29t-51 19.5t-60 12t-62 6.5t-56.5 2.5t-44 0.5q-33 0 -69 -1t-72.5 -5.5t-71 -13t-64.5 -23.5q-8 -4 -17 -4q-14 0 -25 10.5t-11 24.5q0 11 5 18t13 13
q7 5 14.5 8l15.5 6q30 12 65.5 19.5t73 11.5t74.5 5t69 1q45 0 90.5 -2t90.5 -9q39 -6 76.5 -17t67.5 -31t48 -51t18 -77z" />
    <glyph glyph-name="seven" unicode="7" horiz-adv-x="797" 
d="M697 532q0 -15 -9 -24l-455 -497q-11 -11 -26 -11q-14 0 -24.5 10.5t-10.5 24.5q0 15 9 24l401 438h-547q-14 0 -24.5 10.5t-10.5 24.5t10.5 25t24.5 11h627q14 0 24.5 -11t10.5 -25z" />
    <glyph glyph-name="eight" unicode="8" horiz-adv-x="834" 
d="M664 158q0 13 -2 25.5t-10 23.5q-10 15 -29 23.5t-41 12t-43.5 4.5t-37.5 1h-267q-16 0 -38 -1t-44 -4.5t-41 -12t-29 -23.5q-8 -11 -10 -23.5t-2 -25.5q0 -33 16 -51.5t40.5 -26.5t53.5 -9.5t54 -1.5h267q25 0 53.5 1.5t53 9.5t40.5 26.5t16 51.5zM664 407q0 13 -2 25.5
t-10 23.5q-10 15 -29 23t-41 12t-43.5 4.5t-37.5 0.5h-267q-16 0 -38 -0.5t-44 -4.5t-41 -12t-29 -23q-8 -11 -10 -23.5t-2 -25.5q0 -33 16 -51.5t40.5 -26.5t53.5 -9.5t54 -1.5h267q25 0 53.5 1.5t53 9.5t40.5 26.5t16 51.5zM734 158q0 -50 -19.5 -81t-51.5 -48.5
t-72 -23.5t-81 -6h-286q-41 0 -81 6t-72 23.5t-51.5 48.5t-19.5 81q0 39 14.5 71.5t48.5 53.5q-34 21 -48.5 53t-14.5 71q0 50 20 81t51.5 48.5t72 24t80.5 6.5h286q41 0 81 -6.5t71.5 -24t51.5 -48.5t20 -81q0 -39 -14.5 -71t-48.5 -53q34 -21 48.5 -53.5t14.5 -71.5z" />
    <glyph glyph-name="nine" unicode="9" horiz-adv-x="925" 
d="M825 283q0 -63 -18.5 -112.5t-68.5 -90.5q-32 -26 -75.5 -41.5t-91 -24t-94.5 -11.5t-87 -3q-37 0 -78.5 2t-83 8t-81 17.5t-72.5 30.5q-10 5 -20 11.5t-18 14.5q-13 13 -13 27t10.5 25t24.5 11q12 0 23 -8l18.5 -13.5t19.5 -11.5q29 -14 63 -22.5t69.5 -13.5t71 -6.5
t66.5 -1.5q38 0 87.5 2.5t98.5 13t91 32t64 58.5q14 24 18.5 51.5t4.5 55.5t-4.5 55.5t-18.5 51.5q-22 37 -64 58.5t-91 32t-98.5 13t-87.5 2.5q-17 0 -43.5 -0.5t-57 -2.5t-62 -6t-60 -12t-51 -19.5t-34.5 -28.5q-8 -11 -10 -23t-2 -25t2 -24.5t10 -22.5q12 -17 34.5 -28.5
t51 -19.5t60 -12t62 -6t57 -2.5t43.5 -0.5q33 0 69 1t72.5 5t71 12.5t64.5 23.5q8 4 17 4q14 0 25 -10.5t11 -24.5q0 -11 -5 -17.5t-13 -12.5q-7 -5 -14.5 -8.5t-15.5 -6.5q-30 -12 -65.5 -19.5t-73 -11.5t-74.5 -5t-69 -1q-45 0 -90.5 2.5t-90.5 9.5q-39 6 -76.5 17t-67 31
t-47.5 50.5t-18 76.5t18 77t47.5 51t67 31t76.5 17q45 7 90.5 9.5t90.5 2.5q40 0 87 -3t94.5 -11.5t91 -24t75.5 -41.5q50 -41 68.5 -91.5t18.5 -112.5z" />
    <glyph glyph-name="colon" unicode=":" horiz-adv-x="365" 
d="M265 35q0 -17 -13 -29.5t-30 -12.5t-29.5 12.5t-12.5 29.5t12.5 29.5t29.5 12.5t30 -12.5t13 -29.5zM265 276q0 -17 -13 -30t-30 -13t-29.5 13t-12.5 30t12.5 29.5t29.5 12.5t30 -12.5t13 -29.5z" />
    <glyph glyph-name="semicolon" unicode=";" horiz-adv-x="420" 
d="M320 35q0 -5 -4 -15l-69 -145q-10 -20 -32 -20q-14 0 -24.5 10.5t-10.5 24.5q0 8 3 16l70 144q10 20 31 20q14 0 25 -10.5t11 -24.5zM320 276q0 -17 -13 -30t-30 -13t-29.5 13t-12.5 30t12.5 29.5t29.5 12.5t30 -12.5t13 -29.5z" />
    <glyph glyph-name="less" unicode="&#x3c;" horiz-adv-x="550" 
d="M450 159q0 -14 -10.5 -24.5t-24.5 -10.5q-7 0 -10 1l-380 117q-11 4 -18 13.5t-7 20.5q0 25 25 33l380 117q6 2 10 2q14 0 24.5 -10.5t10.5 -24.5q0 -11 -7 -20.5t-18 -13.5l-270 -83l270 -84q25 -8 25 -33z" />
    <glyph glyph-name="equal" unicode="=" horiz-adv-x="549" 
d="M449 211q0 -14 -10.5 -25t-24.5 -11h-379q-14 0 -24.5 11t-10.5 25t10.5 24.5t24.5 10.5h379q14 0 24.5 -10.5t10.5 -24.5zM449 347q0 -14 -10.5 -25t-24.5 -11h-379q-14 0 -24.5 11t-10.5 25t10.5 24.5t24.5 10.5h379q14 0 24.5 -10.5t10.5 -24.5z" />
    <glyph glyph-name="greater" unicode="&#x3e;" horiz-adv-x="550" 
d="M450 276q0 -11 -7 -20.5t-18 -13.5l-380 -117q-3 -1 -10 -1q-14 0 -24.5 10.5t-10.5 24.5q0 25 25 33l270 84l-270 83q-11 4 -18 13.5t-7 20.5q0 14 10.5 24.5t24.5 10.5q4 0 10 -2l380 -117q25 -8 25 -33z" />
    <glyph glyph-name="question" unicode="?" horiz-adv-x="727" 
d="M283 35q0 -17 -13 -29.5t-30 -12.5t-29.5 12.5t-12.5 29.5t12.5 29.5t29.5 12.5t30 -12.5t13 -29.5zM627 403q0 -46 -23.5 -77.5t-59.5 -50.5t-78.5 -27t-80.5 -8q-30 0 -51 -3.5t-34.5 -14t-19.5 -29.5t-6 -51q0 -14 -11 -25t-25 -11t-24.5 11t-10.5 25q0 48 12 80
t35 51.5t57 28t78 8.5q21 0 50.5 4t56.5 14t45.5 28.5t18.5 46.5q0 10 -2 18t-7 16q-15 21 -49 33t-73 18t-76.5 7t-59.5 1q-28 0 -59 -1t-62 -4.5t-60.5 -10.5t-55.5 -19q-8 -4 -17 -4q-14 0 -24.5 10.5t-10.5 24.5q0 11 5 18t13 13q5 3 11 5.5l11 4.5q27 11 58.5 18
t64.5 10.5t65.5 4.5t60.5 1t64 -1t73.5 -6t73.5 -15t64.5 -28.5t45.5 -46t17 -67.5z" />
    <glyph glyph-name="at" unicode="@" horiz-adv-x="969" 
d="M574 279q0 11 -1.5 21.5t-7.5 20.5q-9 15 -28 24t-41 13t-44 5t-37 1q-16 0 -38.5 -1t-45 -5.5t-41.5 -14.5t-27 -27q-4 -9 -5 -18t-1 -19t1 -19t5 -18q8 -17 27 -27t41.5 -14.5t45 -5.5t38.5 -1q15 0 37 1t44 5t41 13t28 24q6 10 7.5 20.5t1.5 21.5zM869 283
q0 -35 -10 -72.5t-37 -62.5q-17 -15 -36.5 -23.5t-42.5 -8.5q-42 0 -73.5 19.5t-51.5 54.5q-16 -22 -40.5 -35.5t-52 -20.5t-56 -9t-54.5 -2q-40 0 -81 5.5t-74 22t-53.5 47t-20.5 81.5t20.5 81.5t53.5 47t74 22t81 5.5q41 0 85.5 -6t80.5 -28q1 18 7 34t29 16
q14 0 25 -10.5t11 -24.5q0 -11 -1.5 -23t-1.5 -23q0 -23 2.5 -55t12.5 -60.5t28.5 -48.5t50.5 -20q17 0 28 10.5t17 25.5t8 32t2 29q0 28 -4.5 55.5t-18.5 51.5q-22 37 -64 58.5t-91 32t-98.5 13t-87.5 2.5q-37 0 -87 -2.5t-99 -13t-91 -32t-64 -58.5q-14 -24 -19 -51.5
t-5 -55.5t5 -55.5t19 -51.5q22 -37 64 -58.5t91 -32t99 -13t87 -2.5q59 0 116.5 5.5t114.5 22.5q3 1 5.5 1.5t5.5 0.5q15 0 25 -10.5t10 -24.5q0 -23 -24 -34q-6 -3 -14 -4.5t-15 -3.5q-55 -14 -111 -18.5t-113 -4.5q-40 0 -87 2.5t-94 11t-90.5 24.5t-76.5 42
q-50 40 -68.5 90.5t-18.5 112.5t18.5 113t68.5 91q33 26 76.5 42t90.5 24.5t94 11t87 2.5t87 -2.5t94.5 -11t90.5 -24.5t76 -42q50 -40 68 -91t18 -113z" />
    <glyph glyph-name="A" unicode="A" 
d="M658 289q0 24 -2.5 48t-11.5 47q-15 39 -47.5 62t-72 34t-82 14t-78.5 3q-34 0 -76 -3t-81.5 -14t-72 -32.5t-48.5 -58.5q-11 -24 -13.5 -49t-2.5 -51v-53h588v53zM728 35q0 -14 -10.5 -24.5t-24.5 -10.5t-24.5 10.5t-10.5 24.5v130h-588v-130q0 -14 -10.5 -24.5
t-24.5 -10.5t-24.5 10.5t-10.5 24.5v254q0 86 29 140.5t78.5 85t115.5 42t141 11.5t141 -11.5t115.5 -42t78.5 -85t29 -140.5v-254z" />
    <glyph glyph-name="B" unicode="B" horiz-adv-x="856" 
d="M685 158q0 13 -2 25.5t-10 23.5q-10 15 -29 23.5t-41 12t-43.5 4.5t-37.5 1h-452v-179h452q25 0 53.5 1.5t53 9.5t40.5 26.5t16 51.5zM685 407q0 13 -2 25.5t-10 23.5q-10 15 -29 23t-41 12t-43.5 4.5t-37.5 0.5h-452v-178h452q25 0 53.5 1.5t53 9.5t40.5 26.5t16 51.5z
M756 158q0 -51 -20 -82t-52.5 -48t-73 -23t-81.5 -6h-494q-14 0 -24.5 10.5t-10.5 24.5v498q0 14 10.5 25t24.5 11h116.5t127 -0.5t127 -0.5h116.5q41 0 83 -5.5t75.5 -22.5t54.5 -48.5t21 -83.5q0 -39 -14.5 -71t-48.5 -53q34 -21 48.5 -53.5t14.5 -71.5z" />
    <glyph glyph-name="C" unicode="C" horiz-adv-x="901" 
d="M801 111q0 -9 -3 -15t-9 -12q-7 -7 -16 -12.5l-17 -10.5q-33 -20 -73.5 -32t-82.5 -19t-84.5 -9t-80.5 -2q-40 0 -87 2.5t-94.5 11t-91 24.5t-75.5 42q-50 41 -68.5 91.5t-18.5 112.5t18.5 112.5t68.5 91.5q32 26 75.5 42t91 24.5t94.5 11t87 2.5q38 0 80.5 -2t84.5 -9
t82.5 -19t73.5 -32l17 -10.5t16 -12.5q6 -6 9 -12t3 -15q0 -14 -10.5 -24.5t-24.5 -10.5q-11 0 -22 8q-14 11 -32 21q-28 15 -63 24.5t-72 14.5t-73.5 6.5t-68.5 1.5q-37 0 -87 -2.5t-99 -13t-91 -32t-64 -58.5q-14 -24 -19 -51.5t-5 -55.5t5 -55.5t19 -51.5
q22 -37 64 -58.5t91 -32t99 -13t87 -2.5q32 0 68.5 1.5t73.5 6.5t72 14.5t63 24.5q18 10 32 21q11 8 22 8q14 0 24.5 -10.5t10.5 -24.5z" />
    <glyph glyph-name="D" unicode="D" horiz-adv-x="857" 
d="M687 286q0 26 -3.5 51.5t-15.5 48.5q-21 39 -62 61t-90 33.5t-98.5 14t-87.5 2.5h-260v-427h260q39 0 89 3t98 14.5t88.5 35t61.5 63.5q12 23 16 48.5t4 51.5zM757 286q0 -94 -38 -150.5t-99 -86.5t-137 -39.5t-153 -9.5h-295q-14 0 -24.5 10.5t-10.5 24.5v497
q0 14 10.5 25t24.5 11h295q75 0 151 -9t137.5 -39t100 -85.5t38.5 -148.5z" />
    <glyph glyph-name="E" unicode="E" horiz-adv-x="843" 
d="M743 35q0 -14 -10.5 -24.5t-24.5 -10.5h-626q-14 0 -25 10.5t-11 24.5v130h-81q-14 0 -24.5 11t-10.5 25t10.5 24.5t24.5 10.5h81v296q0 14 11 25t25 11h626q14 0 24.5 -11t10.5 -25t-10.5 -24.5t-24.5 -10.5h-591v-261h475q14 0 24.5 -10.5t10.5 -24.5t-10.5 -25
t-24.5 -11h-475v-95h591q14 0 24.5 -10.5t10.5 -24.5z" />
    <glyph glyph-name="F" unicode="F" horiz-adv-x="843" 
d="M743 532q0 -14 -10.5 -24.5t-24.5 -10.5h-591v-261h475q14 0 24.5 -10.5t10.5 -24.5t-10.5 -25t-24.5 -11h-475v-130q0 -14 -10.5 -24.5t-24.5 -10.5t-25 10.5t-11 24.5v130h-81q-14 0 -24.5 11t-10.5 25t10.5 24.5t24.5 10.5h81v296q0 14 11 25t25 11h626q14 0 24.5 -11
t10.5 -25z" />
    <glyph glyph-name="G" unicode="G" horiz-adv-x="975" 
d="M875 201q0 -15 -7.5 -22.5t-18 -10.5t-23 -3h-22.5v-130q0 -14 -10.5 -24.5t-24.5 -10.5q-23 0 -29 15t-6 33q-33 -15 -70 -25t-76 -15.5t-77.5 -7.5t-74.5 -2q-40 0 -87.5 3t-94.5 11.5t-90.5 24.5t-76.5 42q-51 40 -69 91t-18 113t18 113t69 91q33 26 76.5 42
t90.5 24.5t94.5 11t87.5 2.5q38 0 79.5 -2t83 -8t81 -17.5t72.5 -30.5q10 -5 20.5 -12t18.5 -15q6 -6 9 -12t3 -15q0 -14 -10.5 -24.5t-24.5 -10.5q-11 0 -22 8l-17.5 13t-19.5 11q-28 14 -62.5 23t-71 14t-72 6.5t-67.5 1.5q-37 0 -87 -2.5t-99.5 -13t-91.5 -31.5t-64 -59
q-14 -25 -19 -52.5t-5 -55.5t5 -56t19 -52q22 -37 64 -58.5t91.5 -32t99.5 -13t87 -2.5q33 0 73 2t80.5 8.5t78.5 18.5t66 31v36h-406q-14 0 -25 11t-11 25t11 24.5t25 10.5h512q14 0 24.5 -10.5t10.5 -24.5z" />
    <glyph glyph-name="H" unicode="H" horiz-adv-x="843" 
d="M743 35q0 -14 -10.5 -24.5t-24.5 -10.5t-24.5 10.5t-10.5 24.5v130h-556v-130q0 -14 -10.5 -24.5t-24.5 -10.5t-25 10.5t-11 24.5v130h-81q-14 0 -24.5 11t-10.5 25t10.5 24.5t24.5 10.5h81v296q0 14 11 25t25 11t24.5 -11t10.5 -25v-296h556v296q0 14 10.5 25t24.5 11
t24.5 -11t10.5 -25v-497z" />
    <glyph glyph-name="I" unicode="I" horiz-adv-x="549" 
d="M449 35q0 -14 -10.5 -24.5t-24.5 -10.5h-379q-14 0 -24.5 10.5t-10.5 24.5t10.5 24.5t24.5 10.5h154v427h-154q-14 0 -24.5 10.5t-10.5 24.5t10.5 25t24.5 11h379q14 0 24.5 -11t10.5 -25t-10.5 -24.5t-24.5 -10.5h-154v-427h154q14 0 24.5 -10.5t10.5 -24.5z" />
    <glyph glyph-name="J" unicode="J" 
d="M728 279q0 -86 -29 -140.5t-78.5 -85t-115.5 -42t-141 -11.5t-141 11.5t-115.5 42t-78.5 85t-29 140.5q0 14 10.5 24.5t24.5 10.5t24.5 -10.5t10.5 -24.5q0 -25 3 -50t12 -48q15 -38 47.5 -60t72.5 -33.5t82 -14.5t77 -3t77 3t82 14.5t72.5 33.5t47.5 60q9 23 12 48t3 50
v253q0 14 10.5 25t24.5 11t24.5 -11t10.5 -25v-253z" />
    <glyph glyph-name="K" unicode="K" horiz-adv-x="797" 
d="M697 35q0 -14 -10.5 -24.5t-24.5 -10.5q-10 0 -17 4l-445 241q-1 0 -2 1l-128 -67v-144q0 -14 -10.5 -24.5t-24.5 -10.5t-24.5 10.5t-10.5 24.5v497q0 14 10.5 25t24.5 11t24.5 -11t10.5 -25v-273l575 304q8 5 17 5q14 0 24.5 -11t10.5 -25q0 -21 -19 -31l-406 -215
l407 -220q18 -10 18 -31z" />
    <glyph glyph-name="L" unicode="L" horiz-adv-x="797" 
d="M697 35q0 -14 -10.5 -24.5t-24.5 -10.5h-627q-14 0 -24.5 10.5t-10.5 24.5v497q0 14 10.5 25t24.5 11t24.5 -11t10.5 -25v-462h592q14 0 24.5 -10.5t10.5 -24.5z" />
    <glyph glyph-name="M" unicode="M" horiz-adv-x="1025" 
d="M925 35q0 -14 -10.5 -24.5t-24.5 -10.5t-25 10.5t-11 24.5v254q0 50 -7.5 88.5t-27 65t-54 40.5t-89.5 14t-89.5 -14t-54 -40.5t-27 -65t-7.5 -88.5v-254q0 -14 -11 -24.5t-25 -10.5t-24.5 10.5t-10.5 24.5v254q0 50 -7.5 88.5t-27 65t-54 40.5t-89.5 14t-89.5 -14
t-54.5 -40.5t-27.5 -65t-7.5 -88.5v-254q0 -14 -10.5 -24.5t-24.5 -10.5t-24.5 10.5t-10.5 24.5v254q0 64 12.5 115.5t42 88t77 56t117.5 19.5q33 0 64 -5t58.5 -17.5t51 -32.5t39.5 -50q17 30 40 50t51 32.5t59 17.5t64 5q70 0 117.5 -19.5t77 -56t42 -88t12.5 -115.5v-254
z" />
    <glyph glyph-name="N" unicode="N" horiz-adv-x="797" 
d="M697 35q0 -14 -10.5 -24.5t-24.5 -10.5t-22 7l-570 452v-424q0 -14 -10.5 -24.5t-24.5 -10.5t-24.5 10.5t-10.5 24.5v497q0 14 10.5 25t24.5 11q12 0 22 -8l570 -452v424q0 14 10.5 25t24.5 11t24.5 -11t10.5 -25v-497z" />
    <glyph glyph-name="O" unicode="O" horiz-adv-x="951" 
d="M800 283q0 24 -2.5 48t-13.5 47q-20 42 -62.5 65.5t-93 35.5t-102.5 14.5t-91 2.5q-38 0 -89 -2.5t-101 -13.5t-92 -33.5t-63 -62.5q-12 -23 -16 -49t-4 -52t4 -52.5t16 -49.5q21 -40 63 -62.5t92 -33.5t101 -13.5t89 -2.5q39 0 91 2.5t102.5 14.5t93 35.5t62.5 65.5
q11 23 13.5 47.5t2.5 48.5zM871 283q0 -62 -18.5 -112.5t-68.5 -91.5q-32 -26 -75.5 -42t-91.5 -24.5t-95.5 -11t-86.5 -2.5t-86.5 2.5t-95 11t-91 24.5t-75.5 42q-50 41 -68.5 91.5t-18.5 112.5t18.5 112.5t68.5 90.5q32 26 75.5 42t91 24.5t95 11.5t86.5 3t86.5 -3
t95.5 -11.5t91.5 -24.5t75.5 -42q50 -40 68.5 -90.5t18.5 -112.5z" />
    <glyph glyph-name="P" unicode="P" horiz-adv-x="856" 
d="M685 407q0 13 -2 25.5t-10 23.5q-10 15 -29 23t-41 12t-43.5 4.5t-37.5 0.5h-452v-178h452q25 0 53.5 1.5t53 9.5t40.5 26.5t16 51.5zM756 407q0 -52 -21 -83.5t-54.5 -48t-75.5 -22t-83 -5.5h-452v-213q0 -14 -10.5 -24.5t-24.5 -10.5t-24.5 10.5t-10.5 24.5v497
q0 14 10.5 25t24.5 11q122 0 243.5 -0.5t243.5 -0.5q41 0 83 -5.5t75.5 -22.5t54.5 -48.5t21 -83.5z" />
    <glyph glyph-name="Q" unicode="Q" horiz-adv-x="950" 
d="M799 283q0 27 -4 54t-18 51q-22 38 -64 60t-91 32.5t-99 13t-88 2.5t-88 -2.5t-99 -13t-91 -32.5t-64 -60q-14 -24 -18.5 -51t-4.5 -54q0 -25 3.5 -50t14.5 -48q19 -38 56.5 -60.5t82 -34.5t91 -15.5t82.5 -4.5v161q0 14 10.5 24.5t24.5 10.5t24.5 -10.5t10.5 -24.5v-161
q36 1 82.5 4.5t91 15.5t81.5 34.5t56 60.5q11 23 14.5 48t3.5 50zM870 283q0 -90 -35 -144.5t-92 -84.5t-128.5 -41t-144.5 -13v-111q0 -14 -10.5 -24.5t-24.5 -10.5t-24.5 10.5t-10.5 24.5v111q-73 2 -144.5 13t-128.5 41t-92 84.5t-35 144.5q0 62 18.5 113t68.5 91
q32 26 75.5 42t91 24.5t94.5 11t87 2.5t87 -2.5t94.5 -11t91 -24.5t75.5 -42q50 -41 68.5 -91t18.5 -113z" />
    <glyph glyph-name="R" unicode="R" horiz-adv-x="856" 
d="M685 407q0 13 -2 25.5t-10 23.5q-10 15 -29 23t-41 12t-43.5 4.5t-37.5 0.5h-452v-178h452q25 0 53.5 1.5t53 9.5t40.5 26.5t16 51.5zM756 35q0 -14 -11 -24.5t-25 -10.5q-17 0 -29 15l-163 233h-458v-213q0 -14 -10.5 -24.5t-24.5 -10.5t-24.5 10.5t-10.5 24.5v497
q0 14 10.5 25t24.5 11q122 0 243.5 -0.5t243.5 -0.5q41 0 83 -5.5t75.5 -22.5t54.5 -48.5t21 -83.5q0 -70 -40.5 -106.5t-105.5 -47.5l139 -198q7 -10 7 -20z" />
    <glyph glyph-name="S" unicode="S" horiz-adv-x="856" 
d="M756 158q0 -50 -20 -81t-52 -48.5t-72.5 -23.5t-81.5 -6h-495q-14 0 -24.5 10.5t-10.5 24.5t10.5 24.5t24.5 10.5h487q25 0 53.5 1.5t53 9.5t40.5 26.5t16 51.5q0 12 -2 23.5t-8 22.5q-10 16 -29 25t-41 13t-44.5 5t-38.5 1h-288q-41 0 -83 5.5t-75.5 22t-54.5 48
t-21 83.5q0 50 20 81.5t52 49t72.5 23.5t81.5 6h494q14 0 25 -10.5t11 -24.5t-11 -25t-25 -11h-486q-16 0 -38.5 -0.5t-44.5 -4.5t-41 -13t-29 -25q-6 -11 -8.5 -22.5t-2.5 -23.5q0 -33 16 -51.5t40.5 -26.5t53.5 -9.5t54 -1.5h288q41 0 83 -5.5t75.5 -22.5t54.5 -48.5
t21 -83.5z" />
    <glyph glyph-name="T" unicode="T" horiz-adv-x="797" 
d="M697 532q0 -14 -10.5 -24.5t-24.5 -10.5h-278v-462q0 -14 -10.5 -24.5t-24.5 -10.5t-25 10.5t-11 24.5v462h-278q-14 0 -24.5 10.5t-10.5 24.5t10.5 25t24.5 11h627q14 0 24.5 -11t10.5 -25z" />
    <glyph glyph-name="U" unicode="U" 
d="M728 279q0 -86 -29 -140.5t-78.5 -85t-115.5 -42t-141 -11.5t-141 11.5t-115.5 42t-78.5 85t-29 140.5v253q0 14 10.5 25t24.5 11t24.5 -11t10.5 -25v-253q0 -25 3 -50t12 -48q15 -38 47.5 -60t72.5 -33.5t82 -14.5t77 -3t77 3t82 14.5t72.5 33.5t47.5 60q9 23 12 48
t3 50v253q0 14 10.5 25t24.5 11t24.5 -11t10.5 -25v-253z" />
    <glyph glyph-name="V" unicode="V" horiz-adv-x="947" 
d="M847 532q0 -13 -7 -21l-389 -498q-11 -13 -27 -13q-17 0 -28 13l-389 498q-7 8 -7 21q0 14 10.5 25t24.5 11q16 0 28 -14l361 -462l360 462q11 14 28 14q14 0 24.5 -11t10.5 -25z" />
    <glyph glyph-name="W" unicode="W" horiz-adv-x="1025" 
d="M925 279q0 -64 -12.5 -115.5t-42 -88t-77 -56t-117.5 -19.5q-33 0 -64 5t-59 17t-51 32t-40 50q-16 -30 -39.5 -50t-51 -32t-58.5 -17t-64 -5q-70 0 -117.5 19.5t-77 56t-42 88t-12.5 115.5v253q0 14 10.5 25t24.5 11t24.5 -11t10.5 -25v-253q0 -49 7.5 -88t27.5 -66
t54.5 -41t89.5 -14t89.5 14t54 41t27 66t7.5 88v253q0 14 10.5 25t24.5 11t25 -11t11 -25v-253q0 -49 7.5 -88t27 -66t54 -41t89.5 -14t89.5 14t54 41t27 66t7.5 88v253q0 14 11 25t25 11t24.5 -11t10.5 -25v-253z" />
    <glyph glyph-name="X" unicode="X" horiz-adv-x="797" 
d="M697 35q0 -14 -10.5 -24.5t-24.5 -10.5t-22 7l-291 232l-292 -232q-8 -7 -22 -7t-24.5 10.5t-10.5 24.5q0 17 13 28l279 221l-279 221q-13 11 -13 27q0 14 10.5 25t24.5 11q12 0 22 -8l292 -231l291 231q10 8 22 8q14 0 24.5 -11t10.5 -25q0 -16 -13 -27l-279 -221
l279 -221q13 -11 13 -28z" />
    <glyph glyph-name="Y" unicode="Y" 
d="M728 444q0 -79 -24.5 -131.5t-68.5 -84t-104.5 -45.5t-131.5 -17v-131q0 -14 -10.5 -24.5t-24.5 -10.5t-24.5 10.5t-10.5 24.5v131q-71 3 -131.5 17t-104.5 45.5t-68.5 84t-24.5 131.5v88q0 14 10.5 25t24.5 11t24.5 -11t10.5 -25v-88q0 -25 2.5 -50t12.5 -48
q16 -38 48.5 -60t72 -33t81.5 -14t77 -3t77 3t81.5 14t72 33t48.5 60q10 23 12.5 48t2.5 50v88q0 14 10.5 25t24.5 11t24.5 -11t10.5 -25v-88z" />
    <glyph glyph-name="Z" unicode="Z" horiz-adv-x="797" 
d="M697 35q0 -14 -10.5 -24.5t-24.5 -10.5h-627q-14 0 -24.5 10.5t-10.5 24.5q0 17 13 28l548 434h-526q-14 0 -24.5 10.5t-10.5 24.5t10.5 25t24.5 11h627q14 0 24.5 -11t10.5 -25q0 -16 -13 -27l-548 -435h526q14 0 24.5 -10.5t10.5 -24.5z" />
    <glyph glyph-name="bracketleft" unicode="[" horiz-adv-x="335" 
d="M235 -46q0 -14 -10.5 -25t-24.5 -11h-165q-14 0 -24.5 11t-10.5 25v657q0 14 10.5 25t24.5 11h165q14 0 24.5 -11t10.5 -25t-10.5 -24.5t-24.5 -10.5h-130v-587h130q14 0 24.5 -10.5t10.5 -24.5z" />
    <glyph glyph-name="backslash" unicode="\" horiz-adv-x="388" 
d="M288 35q0 -14 -10.5 -24.5t-24.5 -10.5q-23 0 -33 21l-217 497q-3 6 -3 14q0 14 10.5 25t24.5 11q22 0 32 -22l218 -497q3 -6 3 -14z" />
    <glyph glyph-name="bracketright" unicode="]" horiz-adv-x="335" 
d="M235 -46q0 -14 -10.5 -25t-24.5 -11h-165q-14 0 -24.5 11t-10.5 25t10.5 24.5t24.5 10.5h130v587h-130q-14 0 -24.5 10.5t-10.5 24.5t10.5 25t24.5 11h165q14 0 24.5 -11t10.5 -25v-657z" />
    <glyph glyph-name="asciicircum" unicode="^" horiz-adv-x="404" 
d="M304 286q0 -14 -10.5 -24.5t-24.5 -10.5q-11 0 -19.5 7t-13.5 18l-84 200l-83 -200q-5 -11 -14 -18t-20 -7q-14 0 -24.5 10.5t-10.5 24.5q0 4 2 10l117 280q5 11 13.5 18t19.5 7t20 -7t14 -18l117 -280q1 -3 1 -10z" />
    <glyph glyph-name="underscore" unicode="_" horiz-adv-x="549" 
d="M584 36q0 -14 -10.5 -25t-24.5 -11h-549q-14 0 -24.5 11t-10.5 25t10.5 24.5t24.5 10.5h549q14 0 24.5 -10.5t10.5 -24.5z" />
    <glyph glyph-name="grave" unicode="`" horiz-adv-x="660" 
d="M400 588q0 -14 -10.5 -24.5t-24.5 -10.5q-22 0 -32 20l-69 144q-4 10 -4 15q0 14 11 25t25 11q10 0 18 -6t13 -15l70 -144q3 -7 3 -15z" />
    <glyph glyph-name="a" unicode="a" horiz-adv-x="923" 
d="M427 155q0 11 -1 21.5t-7 20.5q-9 15 -28 24t-41 13t-44 5t-37 1q-16 0 -38.5 -1t-45.5 -5.5t-42 -14.5t-27 -27q-4 -9 -5 -18t-1 -19t1 -19t5 -18q8 -17 27 -27t42 -14.5t45.5 -5.5t38.5 -1q15 0 37 1t44 5t41 13t28 24q6 10 7 20.5t1 21.5zM1062 73q0 -9 -4 -17
q-2 -5 -6.5 -10t-8.5 -8q-24 -22 -56 -30t-64 -8h-325q-81 0 -123 71q-16 -24 -40.5 -38t-52.5 -21.5t-57.5 -9.5t-55.5 -2q-40 0 -81 5t-74 21.5t-53.5 47t-20.5 81.5t20.5 81.5t53.5 47t74 22t81 5.5q41 0 86.5 -6t81.5 -29q0 9 1.5 19t5 17.5t11 12.5t19.5 5
q14 0 24.5 -10.5t10.5 -24.5q0 -11 -1 -22.5t-1 -22.5q0 -22 3 -53t12.5 -59.5t27.5 -48t48 -19.5h325q7 0 17.5 0.5t21 2.5t20 6t14.5 11q7 10 16 14t15 4q14 0 24.5 -10.5t10.5 -24.5z" />
    <glyph glyph-name="b" unicode="b" horiz-adv-x="826" 
d="M436 155q0 11 -1 21.5t-7 20.5q-9 15 -28 24t-41 13t-44 5t-37 1t-37 -1t-44 -5t-41 -13t-28 -24q-6 -10 -7 -20.5t-1 -21.5q0 -9 0.5 -18.5t4.5 -18.5q8 -17 25.5 -27t38.5 -14.5t42.5 -5.5t36.5 -1h3h8q16 0 39 1t46 6t42 15.5t26 28.5q4 8 4 16.5v17.5zM965 73
q0 -9 -4 -17q-2 -5 -6.5 -10t-8.5 -8q-24 -22 -56 -30t-64 -8h-561q-49 0 -94 9.5t-83 41.5q-2 2 -4.5 3.5t-4.5 4.5q-19 24 -30.5 55t-18 65t-8.5 68t-2 63q0 83 12 167l4 31.5t6 30.5q4 13 12.5 21t22.5 8t24.5 -11t10.5 -25v-6q-10 -54 -15.5 -108.5t-5.5 -109.5v-22.5
t1 -22.5q18 16 40.5 25.5t47.5 14.5t50 6.5t48 1.5q41 0 81.5 -5.5t73.5 -22t53.5 -47t20.5 -81.5q0 -23 -5 -44.5t-18 -40.5h342q7 0 17.5 0.5t21 2.5t20 6t14.5 11q7 10 16 14t15 4q14 0 24.5 -10.5t10.5 -24.5z" />
    <glyph glyph-name="c" unicode="c" horiz-adv-x="781" 
d="M920 73q0 -9 -4 -17q-2 -5 -6.5 -10t-8.5 -8q-24 -22 -56 -30t-64 -8h-512q-40 0 -81 5t-74 21.5t-53.5 47t-20.5 81.5t20.5 81.5t53.5 47t74 22t81 5.5q30 0 67.5 -1.5t70.5 -12t55.5 -33t22.5 -64.5q0 -14 -11 -24.5t-25 -10.5t-24.5 10.5t-10.5 24.5q0 18 -18.5 26.5
t-43 11.5t-48.5 2.5t-35 -0.5q-15 0 -37.5 -1t-44.5 -5.5t-41 -13.5t-28 -25q-5 -9 -6.5 -19t-1.5 -21t1.5 -21t6.5 -19q9 -16 28 -25t41 -13.5t44.5 -5.5t37.5 -1h512q7 0 17.5 0.5t21 2.5t20 6t14.5 11q7 10 16 14t15 4q14 0 24.5 -10.5t10.5 -24.5z" />
    <glyph glyph-name="d" unicode="d" horiz-adv-x="932" 
d="M407 155q0 11 -1 21.5t-7 20.5q-9 15 -28 24t-41 13t-44 5t-37 1q-16 0 -38.5 -1t-45.5 -5.5t-42 -14.5t-27 -27q-4 -9 -5 -18t-1 -19t1 -19t5 -18q8 -17 27 -27t42 -14.5t45.5 -5.5t38.5 -1q15 0 37 1t44 5t41 13t28 24q6 10 7 20.5t1 21.5zM1071 73q0 -9 -4 -17
q-2 -5 -6.5 -10t-8.5 -8q-24 -22 -56 -30t-64 -8h-341q-43 0 -76.5 19.5t-56.5 56.5q-15 -25 -39.5 -40.5t-53 -23t-59 -10t-57.5 -2.5q-40 0 -81 5t-74 21.5t-53.5 47t-20.5 81.5t20.5 81.5t53.5 47t74 22t81 5.5t83.5 -5.5t78.5 -25.5q0 8 -0.5 15t-0.5 15q0 42 3.5 83.5
t9.5 83.5q2 15 3.5 31.5t6.5 30.5q4 13 12 21t22 8t25 -11t11 -25q0 -2 -0.5 -3t-0.5 -3q-10 -54 -15.5 -108.5t-5.5 -109.5q0 -27 2.5 -68t13.5 -78.5t33 -64.5t61 -27h341q7 0 17.5 0.5t21 2.5t20 6t14.5 11q7 10 16 14t15 4q14 0 24.5 -10.5t10.5 -24.5z" />
    <glyph glyph-name="e" unicode="e" horiz-adv-x="771" 
d="M408 217q-8 10 -26.5 14.5t-40 6.5t-41.5 2h-31q-15 0 -37.5 -1t-44.5 -5.5t-41 -13t-28 -24.5q-5 -10 -6.5 -20t-1.5 -21q0 -13 3 -25l89.5 24t89.5 26q29 8 58 17t58 20zM910 73q0 -9 -4 -17q-2 -5 -6.5 -10t-8.5 -8q-24 -22 -56 -30t-64 -8h-502q-40 0 -81 5t-74 21.5
t-53.5 47t-20.5 81.5t20.5 81.5t53.5 47t74 22t81 5.5q30 0 67.5 -1.5t70.5 -12t55.5 -33t22.5 -64.5q0 -13 -8.5 -22.5t-21 -16.5t-26 -11.5t-23.5 -7.5q-54 -19 -109 -34.5l-111 -30.5q20 -4 41 -5.5t42 -1.5h502q7 0 17.5 0.5t21 2.5t20 6t14.5 11q7 10 16 14t15 4
q14 0 24.5 -10.5t10.5 -24.5z" />
    <glyph glyph-name="f" unicode="f" horiz-adv-x="756" 
d="M895 73q0 -9 -4 -17q-2 -5 -6.5 -10t-8.5 -8q-24 -22 -56 -30t-64 -8h-403q25 -34 49 -73.5t43 -82t31 -86.5t12 -87q0 -39 -14 -80.5t-39 -75.5t-60.5 -56t-78.5 -22q-56 0 -94.5 36t-63.5 92.5t-38.5 127t-20 139t-8 128t-1.5 94.5v42q0 78 4 156.5t10 156.5l4 44l4 44
q1 9 1.5 19.5t2.5 19.5q4 14 12 23t23 9q14 0 24.5 -11t10.5 -25v-4q0 -57 -4 -114t-8.5 -114t-8.5 -114t-4 -114q0 -24 1 -75.5t5.5 -114t14 -129t26.5 -121t43.5 -89.5t64.5 -35q27 0 49.5 16.5t38.5 41.5t25 53t9 52q0 37 -11.5 76t-29.5 76.5t-40 72.5t-43 64
q-10 14 -20.5 26t-20.5 26q-8 11 -8 23q0 14 10.5 24.5t24.5 10.5h476q7 0 17.5 0.5t21 2.5t20 6t14.5 11q7 10 16 14t15 4q14 0 24.5 -10.5t10.5 -24.5z" />
    <glyph glyph-name="g" unicode="g" horiz-adv-x="874" 
d="M417 155q0 11 -1 21.5t-7 20.5q-9 15 -28 24t-41 13t-44 5t-37 1q-16 0 -38.5 -1t-45.5 -5.5t-42 -14.5t-27 -27q-4 -9 -5 -18t-1 -19t1 -19t5 -18q8 -17 27 -27t42 -14.5t45.5 -5.5t38.5 -1q15 0 37 1t44 5t41 13t28 24q6 10 7 20.5t1 21.5zM1013 73q0 -9 -4 -17
q-2 -5 -6.5 -10t-8.5 -8q-24 -22 -56 -30t-64 -8h-318q-12 0 -24.5 2t-23.5 7q-1 -35 -3 -91t-9.5 -120t-21.5 -128t-39 -116t-62 -84.5t-90 -32.5q-43 0 -78.5 22t-61 56t-39.5 75.5t-14 80.5q0 41 23.5 80.5t58 73t75 61t73.5 44.5q7 4 17 4q14 0 24.5 -10.5t10.5 -24.5
q0 -11 -5 -18t-13 -13l-28.5 -17.5l-28.5 -17.5l-40.5 -29.5t-44.5 -39.5t-36 -45.5t-15 -47.5t9 -52t25 -53t38.5 -41.5t49.5 -16.5q37 0 63 33.5t43 85t26.5 114.5t14.5 122.5t6.5 108t1.5 70.5q-18 -14 -40 -22t-45.5 -12.5t-47.5 -6t-46 -1.5q-40 0 -81 5t-74 21.5
t-53.5 47t-20.5 81.5t20.5 81.5t53.5 47t74 22t81 5.5q21 0 44.5 -1.5t46 -5.5t44 -11.5t39.5 -20.5q0 5 -0.5 11.5t-0.5 11.5q0 15 10 25t25 10t24 -9.5t11 -23.5q2 -10 1.5 -20t0.5 -20q1 -23 1.5 -46t1.5 -46v-21.5t1 -20.5q2 -11 6 -22t11 -19q6 -7 14.5 -9.5t16.5 -2.5
h318q7 0 17.5 0.5t21 2.5t20 6t14.5 11q7 10 16 14t15 4q14 0 24.5 -10.5t10.5 -24.5z" />
    <glyph glyph-name="h" unicode="h" horiz-adv-x="936" 
d="M1075 73q0 -9 -4 -17q-2 -5 -6.5 -10t-8.5 -8q-24 -22 -56 -30t-64 -8h-363q-31 0 -54 12t-37.5 32.5t-21.5 46.5t-7 54q0 3 0.5 7t0.5 7q0 10 -1.5 20t-6.5 19q-8 15 -25.5 23.5t-37.5 12.5t-40.5 5t-35.5 1t-36 -1t-41.5 -5t-37.5 -13t-25 -25q-5 -10 -6 -20t-1 -21
v-120q0 -14 -10.5 -24.5t-24.5 -10.5t-24.5 10.5t-10.5 24.5v497q0 14 10.5 25t24.5 11t24.5 -11t10.5 -25v-248q32 17 71.5 22t75.5 5q42 0 81 -6t69.5 -23t48.5 -47.5t18 -79.5v-9q0 -12 2 -25.5t7 -25t15 -18.5t25 -7h363q7 0 17.5 0.5t21 2.5t20 6t14.5 11q7 10 16 14
t15 4q14 0 24.5 -10.5t10.5 -24.5z" />
    <glyph glyph-name="i" unicode="i" horiz-adv-x="674" 
d="M813 73q0 -9 -4 -17q-2 -5 -6.5 -10t-8.5 -8q-24 -22 -56 -30t-64 -8h-320q-62 0 -110 26t-78 80q-23 -51 -63.5 -78.5t-97.5 -27.5q-14 0 -24.5 10.5t-10.5 24.5t10.5 24.5t24.5 10.5q39 0 63 20t36.5 50t17 65t4.5 65q0 17 8.5 29t27.5 12t27 -12.5t8 -28.5
q0 -38 8.5 -74t27 -64t48.5 -45t73 -17h320q7 0 17.5 0.5t21 2.5t20 6t14.5 11q7 10 16 14t15 4q14 0 24.5 -10.5t10.5 -24.5zM204 418q0 -17 -13 -29.5t-30 -12.5t-29.5 12.5t-12.5 29.5t12.5 29.5t29.5 12.5t30 -12.5t13 -29.5z" />
    <glyph glyph-name="j" unicode="j" horiz-adv-x="547" 
d="M686 73q0 -9 -4 -17q-2 -5 -6.5 -10t-8.5 -8q-24 -22 -56 -30t-64 -8h-349q-27 0 -48 10q-1 -35 -3 -91.5t-9.5 -120t-21.5 -128t-39 -117t-62 -85t-90 -32.5q-43 0 -78.5 22t-61 56t-39.5 75.5t-14 80.5q0 41 23.5 80.5t58 73t75 61t73.5 44.5q7 4 17 4q14 0 24.5 -10.5
t10.5 -24.5q0 -20 -18 -31l-27 -15.5t-27 -16.5q-18 -12 -42 -30t-45.5 -40t-37 -46.5t-15.5 -48.5t9 -52t25 -53t39 -41.5t50 -16.5q38 0 64.5 35t43.5 90t26.5 121.5t14 128.5t5.5 112.5t1 73.5q0 57 -3.5 113t-3.5 113q0 15 10 25t25 10q16 0 25 -9.5t11 -23.5
q2 -9 1.5 -19t0.5 -19q2 -25 2 -49t1 -49v-20t1 -20q1 -9 5 -21t11 -19q12 -12 32 -12l349 2q7 0 17.5 0.5t21 2.5t20 6t14.5 11q7 10 16 14t15 4q14 0 24.5 -10.5t10.5 -24.5zM145 417q0 -17 -12.5 -29.5t-29.5 -12.5t-29.5 12.5t-12.5 29.5t12.5 29.5t29.5 12.5
t29.5 -12.5t12.5 -29.5z" />
    <glyph glyph-name="k" unicode="k" horiz-adv-x="868" 
d="M1007 73q0 -9 -4 -17q-2 -5 -6.5 -10t-8.5 -8q-24 -22 -56 -30t-64 -8h-330q-34 0 -71 3.5t-73 13t-68.5 26.5t-56.5 43q-8 8 -16.5 20.5t-11.5 23.5q-1 4 -1 11q0 14 10.5 24.5t24.5 10.5q15 0 30.5 -1.5t31.5 -1.5q8 0 27.5 1t39.5 4.5t35.5 10.5t15.5 19
q-5 10 -23.5 16t-40 9.5t-42 5t-29.5 1.5q-15 0 -38.5 -1t-47 -4.5t-44 -11.5t-30.5 -23q-6 -9 -7.5 -18.5t-1.5 -20.5v-126q0 -14 -11 -24.5t-25 -10.5t-24.5 10.5t-10.5 24.5v497q0 14 10.5 25t24.5 11t25 -11t11 -25v-250q37 19 82.5 24t86.5 5q24 0 59 -4t67.5 -15
t56 -31t23.5 -53q0 -31 -16 -51t-40 -31.5t-52.5 -16.5t-52.5 -6q39 -20 84.5 -26.5t88.5 -6.5h330q7 0 17.5 0.5t21 2.5t20 6t14.5 11q7 10 16 14t15 4q14 0 24.5 -10.5t10.5 -24.5z" />
    <glyph glyph-name="l" unicode="l" horiz-adv-x="587" 
d="M725 73q0 -9 -4 -17q-2 -5 -6.5 -10t-8.5 -8q-24 -22 -56 -30t-64 -8h-385q-59 0 -94.5 31.5t-55 78.5t-25.5 101t-6 99q0 85 12 167l4 31.5t6 30.5q4 13 12.5 21t22.5 8t24.5 -11t10.5 -25v-6q-10 -54 -15.5 -108.5t-5.5 -109.5q0 -27 2.5 -68t13.5 -78.5t33 -64.5
t61 -27h385q7 0 17.5 0.5t21 2.5t20 6t14.5 11q7 10 16 14t15 4q14 0 24.5 -10.5t10.5 -24.5z" />
    <glyph glyph-name="m" unicode="m" horiz-adv-x="1186" 
d="M1325 73q0 -9 -4 -17q-2 -5 -6.5 -10t-8.5 -8q-24 -22 -56 -30t-64 -8h-330q-30 0 -51.5 13t-34.5 33.5t-19 46.5t-6 52v14q0 11 -0.5 21t-5.5 19q-7 15 -22 23t-32.5 12t-35.5 5t-32 1q-12 0 -27.5 -0.5t-31.5 -3.5t-30 -8.5t-23 -14.5q-11 -11 -14 -27t-3 -31v-120
q0 -14 -10.5 -24.5t-24.5 -10.5t-24.5 10.5t-10.5 24.5v120q0 11 -0.5 21.5t-5.5 20.5q-7 15 -21.5 24t-32.5 13t-36.5 5t-32.5 1q-12 0 -27.5 -0.5t-31 -3.5t-29.5 -8.5t-23 -14.5q-11 -11 -14.5 -27t-3.5 -31v-120q0 -14 -10.5 -24.5t-24.5 -10.5t-24.5 10.5t-10.5 24.5
v241q0 14 10.5 24.5t24.5 10.5q12 0 21.5 -7t12.5 -18q29 16 63.5 20.5t66.5 4.5q21 0 43.5 -2t44 -7.5t41.5 -15.5t35 -26q15 17 34.5 27t41.5 15t44.5 7t43.5 2q42 0 78 -7t62.5 -24.5t42 -47.5t16.5 -77q0 -2 -0.5 -4.5t-0.5 -4.5q0 -10 1.5 -23t5.5 -25t12.5 -20
t21.5 -8h330q7 0 17.5 0.5t21 2.5t20 6t14.5 11q7 10 16 14t15 4q14 0 24.5 -10.5t10.5 -24.5z" />
    <glyph glyph-name="n" unicode="n" horiz-adv-x="865" 
d="M1004 73q0 -9 -4 -17q-2 -5 -6.5 -10t-8.5 -8q-24 -22 -56 -30t-64 -8h-292q-31 0 -54 12t-37.5 32.5t-21.5 46.5t-7 54q0 3 0.5 7t0.5 7q0 10 -1.5 20t-6.5 19q-8 15 -25.5 23.5t-37.5 12.5t-40.5 5t-35.5 1t-36 -1t-41.5 -5t-37.5 -13t-25 -25q-5 -10 -6 -20t-1 -21
v-120q0 -14 -10.5 -24.5t-24.5 -10.5t-24.5 10.5t-10.5 24.5v241q0 14 10.5 24.5t24.5 10.5q13 0 22.5 -8t12.5 -20q32 17 71.5 22.5t75.5 5.5q41 0 79.5 -6t69.5 -22.5t49.5 -46.5t18.5 -78v-12q0 -13 2 -26.5t7 -24.5t14.5 -18t25.5 -7h292q7 0 17.5 0.5t21 2.5t20 6
t14.5 11q7 10 16 14t15 4q14 0 24.5 -10.5t10.5 -24.5z" />
    <glyph glyph-name="o" unicode="o" horiz-adv-x="863" 
d="M427 155q0 18 -3 29.5t-16 25.5q-10 10 -28 16t-38.5 9t-40 4t-32.5 1q-16 0 -38.5 -1t-45.5 -5.5t-42 -14.5t-27 -27q-4 -9 -5 -18t-1 -19t1 -19t5 -18q8 -17 27 -27t42 -14.5t45.5 -5.5t38.5 -1t38.5 1t45 5.5t41.5 14.5t27 27q4 9 5 18t1 19zM973 276q0 -14 -10.5 -25
t-24.5 -11h-405q-14 0 -27 -1.5t-26 -6.5q10 -17 14 -37t4 -40q0 -51 -20.5 -81.5t-53.5 -47t-73.5 -21.5t-81.5 -5q-40 0 -81 5t-74 21.5t-53.5 47t-20.5 81.5t20.5 81.5t53.5 47t74 22t81 5.5q39 0 80.5 -5t76.5 -23q23 17 51 22.5t56 5.5h405q14 0 24.5 -10.5t10.5 -24.5
z" />
    <glyph glyph-name="p" unicode="p" horiz-adv-x="890" 
d="M481 155q0 11 -1.5 21.5t-7.5 20.5q-9 15 -28 24t-41 13t-44 5t-37 1q-16 0 -38.5 -1t-45 -5.5t-41.5 -14.5t-27 -27q-4 -9 -5 -18t-1 -19t1 -19t5 -18q8 -17 27 -27t41.5 -14.5t45 -5.5t38.5 -1q15 0 37 1t44 5t41 13t28 24q6 10 7.5 20.5t1.5 21.5zM1029 73
q0 -9 -4 -17q-2 -5 -6.5 -10t-8.5 -8q-24 -22 -56 -30t-64 -8h-574q-38 0 -80 6t-76 25v-564q0 -14 -10.5 -24.5t-24.5 -10.5t-24.5 10.5t-10.5 24.5v816q0 14 10.5 24.5t24.5 10.5q17 0 26 -11t9 -27q35 20 78.5 25.5t83.5 5.5q41 0 81.5 -5.5t73.5 -22t53.5 -47
t20.5 -81.5q0 -23 -5 -44.5t-18 -40.5h362q7 0 17.5 0.5t21 2.5t20 6t14.5 11q7 10 16 14t15 4q14 0 24.5 -10.5t10.5 -24.5z" />
    <glyph glyph-name="q" unicode="q" horiz-adv-x="999" 
d="M407 155q0 11 -1 21.5t-7 20.5q-9 15 -28 24t-41 13t-44 5t-37 1q-16 0 -38.5 -1t-45.5 -5.5t-42 -14.5t-27 -27q-4 -9 -5 -18t-1 -19t1 -19t5 -18q8 -17 27 -27t42 -14.5t45.5 -5.5t38.5 -1q15 0 37 1t44 5t41 13t28 24q6 10 7 20.5t1 21.5zM1138 73q0 -9 -4 -17
q-2 -5 -6.5 -10t-8.5 -8q-24 -22 -56 -30t-64 -8h-296q25 -34 49 -73.5t43.5 -82t31.5 -86.5t12 -87q0 -39 -14 -80.5t-39.5 -75.5t-61 -56t-78.5 -22q-54 0 -92 34.5t-63 89.5t-39 122.5t-20.5 134.5t-8.5 125t-2 94q-36 -24 -83 -30.5t-89 -6.5q-40 0 -81 5t-74 21.5
t-53.5 47t-20.5 81.5t20.5 81.5t53.5 47t74 22t81 5.5q22 0 45.5 -1.5t47 -5.5t45 -12t39.5 -22q0 10 1 20.5t4.5 19.5t11 14.5t20.5 5.5q15 0 25 -10t10 -25q0 -57 -3.5 -113t-3.5 -113q0 -23 1 -73.5t5.5 -112.5t14 -128.5t26.5 -121.5t43.5 -90t64.5 -35q27 0 50 16.5
t39 41.5t25 53t9 52q0 37 -11.5 76t-29.5 76.5t-40 72.5t-43 64q-10 14 -20.5 26t-20.5 26q-4 5 -6.5 10.5t-2.5 12.5q0 14 11 24.5t25 10.5h368q7 0 17.5 0.5t21 2.5t20 6t14.5 11q7 10 16 14t15 4q14 0 24.5 -10.5t10.5 -24.5z" />
    <glyph glyph-name="r" unicode="r" horiz-adv-x="875" 
d="M1014 73q0 -9 -4 -17q-2 -5 -6.5 -10t-8.5 -8q-24 -22 -56 -30t-64 -8h-256q-55 0 -97.5 17.5t-71.5 49t-44 75.5t-16 98h-194q-3 -44 -13.5 -87t-33 -77t-58 -55t-86.5 -21q-14 0 -24.5 10.5t-10.5 24.5t10.5 24.5t24.5 10.5q40 0 64 21t36.5 52t16.5 67t4 66
q0 14 10.5 24.5t24.5 10.5h265q14 0 25 -10.5t11 -24.5q0 -7 -1 -13.5t-1 -13.5q0 -39 9 -72t28.5 -57t49.5 -37t72 -13h256q7 0 17.5 0.5t21 2.5t20 6t14.5 11q7 10 16 14t15 4q14 0 24.5 -10.5t10.5 -24.5z" />
    <glyph glyph-name="s" unicode="s" horiz-adv-x="841" 
d="M980 73q0 -9 -4 -17q-2 -5 -6.5 -10t-8.5 -8q-24 -22 -56 -30t-64 -8h-512q-15 0 -25 10t-10 25q0 14 9 23.5t23 11.5q24 4 44.5 16.5t20.5 41.5q0 17 -16 33.5t-37.5 31t-44 26t-35.5 16.5l-119 -181q-10 -16 -26 -26.5t-34 -16.5t-37 -8.5t-37 -2.5q-14 0 -24.5 10.5
t-10.5 24.5t10.5 24.5t24.5 10.5q6 0 17 1t22.5 3.5t21.5 7t14 10.5l169 257q10 16 30 16q14 0 24.5 -10.5t10.5 -24.5q0 -11 -5.5 -19l-10.5 -16q24 -10 53 -26.5t53.5 -37.5t41 -47t16.5 -56q0 -15 -3 -29.5t-11 -28.5h393q7 0 17.5 0.5t21 2.5t20 6t14.5 11q7 10 16 14
t15 4q14 0 24.5 -10.5t10.5 -24.5z" />
    <glyph glyph-name="t" unicode="t" horiz-adv-x="574" 
d="M812 437q0 -14 -10.5 -25t-24.5 -11h-680q-2 -23 -3 -46.5t-1 -46.5q0 -27 2.5 -68t13.5 -78.5t33 -64.5t61 -27h371q7 0 17.5 0.5t21 2.5t20 6t14.5 11q7 10 16 14t15 4q14 0 24.5 -10.5t10.5 -24.5q0 -9 -4 -17q-2 -5 -6.5 -10t-8.5 -8q-24 -22 -56 -30t-64 -8h-371
q-59 0 -94.5 31.5t-55 78.5t-25.5 101t-6 99q0 23 1 45.5t3 45.5h-190q-14 0 -24.5 11t-10.5 25t10.5 24.5t24.5 10.5h198l4 33.5t6 33.5q3 13 12 21t23 8t24.5 -11t10.5 -25q0 -11 -3.5 -29.5t-5.5 -30.5h672q14 0 24.5 -10.5t10.5 -24.5z" />
    <glyph glyph-name="u" unicode="u" horiz-adv-x="901" 
d="M1040 73q0 -9 -4 -17q-2 -5 -6.5 -10t-8.5 -8q-24 -22 -56 -30t-64 -8h-335q-77 0 -118 64q-15 -21 -38 -33.5t-49 -19.5t-53 -9t-51 -2q-41 0 -80 6t-69.5 22.5t-49 47t-18.5 79.5v121q0 14 10.5 24.5t24.5 10.5t24.5 -10.5t10.5 -24.5v-121q0 -11 1 -20.5t6 -19.5
q8 -16 25 -25t37.5 -13.5t41.5 -5.5t36 -1t36 1t41.5 5.5t37.5 13.5t25 25q5 10 6 19.5t1 20.5v91q0 3 0.5 5t0.5 4q1 5 0.5 11t0.5 11q2 14 11 23.5t24 9.5h2q14 0 21 -5.5t9.5 -14.5t2.5 -19.5v-20.5q0 -22 2.5 -53t11.5 -59.5t27 -48t49 -19.5h335q7 0 17.5 0.5t21 2.5
t20 6t14.5 11q7 10 16 14t15 4q14 0 24.5 -10.5t10.5 -24.5z" />
    <glyph glyph-name="v" unicode="v" horiz-adv-x="792" 
d="M931 73q0 -9 -4 -17q-2 -5 -6.5 -10t-8.5 -8q-24 -22 -56 -30t-64 -8h-355q-35 0 -64 14t-49 42q-18 -20 -43.5 -38t-53.5 -18q-23 0 -45.5 14.5t-44 37t-41 51.5t-35.5 58t-28.5 56t-19.5 45q-3 6 -3 14q0 14 10.5 24.5t24.5 10.5q23 0 33 -22l15 -32.5t15 -31.5
q5 -10 19.5 -36t32 -52t36 -46.5t31.5 -20.5q14 0 33.5 20.5t38.5 47t35 52.5l22 36l18 32t17 33q10 20 31 20q14 0 25 -10.5t11 -24.5q0 -9 -11.5 -32t-26 -49t-29 -48.5l-20.5 -31.5q11 -21 26.5 -33t39.5 -12h355q7 0 17.5 0.5t21 2.5t20 6t14.5 11q7 10 16 14t15 4
q14 0 24.5 -10.5t10.5 -24.5z" />
    <glyph glyph-name="w" unicode="w" horiz-adv-x="1018" 
d="M1157 73q0 -9 -4 -17q-2 -5 -6.5 -10t-8.5 -8q-24 -22 -56 -30t-64 -8h-335q-73 0 -115 59q-14 -20 -35 -39.5t-48 -19.5q-26 0 -48.5 20.5t-40.5 49.5t-31.5 59.5l-21.5 49.5l-23.5 -49.5t-33.5 -59.5t-42 -49.5t-49 -20.5q-22 0 -41.5 15.5t-35.5 38t-28 46.5l-20 41
l-11 26.5l-17 41t-15.5 41t-6.5 26.5q0 14 10.5 24.5t24.5 10.5q26 0 34 -24l18 -48.5t27 -66.5t31 -63t30 -38q10 6 21 21t22.5 35.5t23 44.5t21 46l17.5 40.5t12 29.5q9 23 34 23q12 0 20.5 -6.5t12.5 -17.5l18 -48.5t27 -66.5t31 -63t30 -38q10 6 21 21t22.5 35.5
t23 44.5t21 46l17 40.5t12.5 29.5q10 23 33 23q14 0 24.5 -10.5t10.5 -24.5q0 -8 -8 -29t-18.5 -44.5l-20.5 -44.5l-14 -29q1 -2 1.5 -2.5t1.5 -2.5q11 -24 26.5 -39t44.5 -15h335q7 0 17.5 0.5t21 2.5t20 6t14.5 11q7 10 16 14t15 4q14 0 24.5 -10.5t10.5 -24.5z" />
    <glyph glyph-name="x" unicode="x" horiz-adv-x="787" 
d="M926 73q0 -9 -4 -17q-2 -5 -6.5 -10t-8.5 -8q-24 -22 -56 -30t-64 -8h-350q-7 0 -23 7t-36 18.5l-41.5 24.5l-41 25.5l-34.5 22l-21 13.5l-166 -106q-7 -5 -19 -5q-14 0 -24.5 10.5t-10.5 24.5q0 20 16 30l139 88l-70.5 46t-69.5 48q-15 11 -15 29q0 14 10.5 24.5
t24.5 10.5q11 0 20 -6l83 -55l83 -55l174 110q9 6 19 6q14 0 24.5 -10.5t10.5 -24.5q0 -20 -16 -30l-147 -94l30.5 -20l38 -24l37.5 -22.5t31 -15.5h344q7 0 17.5 0.5t21 2.5t20 6t14.5 11q7 10 16 14t15 4q14 0 24.5 -10.5t10.5 -24.5z" />
    <glyph glyph-name="y" unicode="y" horiz-adv-x="867" 
d="M1006 73q0 -9 -4 -17q-2 -5 -6.5 -10t-8.5 -8q-24 -22 -56 -30t-64 -8h-339q-28 0 -49 10q-1 -35 -3 -91.5t-9.5 -120t-21.5 -128t-39 -116.5t-62 -84.5t-90 -32.5q-43 0 -78.5 22t-61 56t-39.5 75.5t-14 80.5q0 41 23.5 80.5t58 73t75 61t73.5 44.5q7 4 17 4
q14 0 24.5 -10.5t10.5 -24.5q0 -20 -18 -31l-27 -15.5t-27 -16.5q-18 -12 -42 -30t-45.5 -40t-37 -46.5t-15.5 -48.5t9 -52t25 -53t39 -41.5t50 -16.5q37 0 62.5 32.5t42.5 83t26.5 112t14.5 119.5t6.5 105.5t1.5 69.5q-33 -19 -73.5 -24.5t-77.5 -5.5q-41 0 -80 6
t-69.5 22.5t-49 47t-18.5 79.5v121q0 14 10.5 24.5t24.5 10.5t24.5 -10.5t10.5 -24.5v-121q0 -11 1.5 -21t6.5 -20q8 -16 25.5 -24.5t37.5 -13t40.5 -5.5t35.5 -1t35.5 1t41 5.5t38 13t25.5 24.5q5 10 6 20t1 21v96q0 11 -1 22t-1 22q0 15 10 25t25 10t24 -9.5t11 -23.5
q2 -11 2 -23t1 -23q2 -29 2 -56.5t1 -56.5q3 -19 10 -34q6 -13 15.5 -23.5t24.5 -10.5h339q7 0 17.5 0.5t21 2.5t20 6t14.5 11q7 10 16 14t15 4q14 0 24.5 -10.5t10.5 -24.5z" />
    <glyph glyph-name="z" unicode="z" horiz-adv-x="769" 
d="M908 73q0 -9 -4 -17q-2 -5 -6.5 -10t-8.5 -8q-24 -22 -56 -30t-64 -8h-320q1 -5 1.5 -11.5t0.5 -11.5q0 -32 -5.5 -84.5t-18 -112.5t-31.5 -121t-45 -110.5t-60 -80.5t-77 -31t-78.5 22t-61 56t-39.5 75.5t-14 80.5q0 47 29.5 91t72.5 81.5t91.5 66.5t86.5 46q8 3 15 3
q14 0 25 -10.5t11 -24.5q0 -20 -20 -32l-33.5 -17t-33.5 -18q-21 -12 -50.5 -32.5t-56.5 -45.5t-46.5 -53t-19.5 -55q0 -24 9 -52t25 -53t38.5 -41.5t49.5 -16.5q20 0 38.5 19.5t34.5 50t29 68t23 73t16.5 65t9.5 44.5q7 37 11 74t4 75q0 16 -4 27t-15 22q-10 9 -25 15
t-32 10t-33.5 5.5t-29.5 1.5q-5 0 -11 -0.5t-11 -0.5q-15 0 -25 10t-10 25q0 14 7.5 22.5t19.5 12.5q11 4 23 6t23 6l26.5 10t37.5 16.5t33.5 21t14.5 21.5q0 2 -2 4.5t-4 3.5q-19 14 -50.5 19t-54.5 5q-22 0 -51 -2t-55 -10.5t-44 -25.5t-18 -47q0 -14 -10.5 -24.5
t-24.5 -10.5t-24.5 10.5t-10.5 24.5q0 48 22.5 78.5t57.5 47.5t77 23.5t81 6.5q23 0 54.5 -4.5t59.5 -16t47.5 -31.5t19.5 -51q0 -18 -7 -33t-18 -27.5t-25 -22.5t-28 -18q22 -9 40 -23t43 -14h325q7 0 17.5 0.5t21 2.5t20 6t14.5 11q7 10 16 14t15 4q14 0 24.5 -10.5
t10.5 -24.5z" />
    <glyph glyph-name="braceleft" unicode="{" horiz-adv-x="435" 
d="M335 -46q0 -14 -10.5 -25t-24.5 -11h-165q-14 0 -25 11t-11 25v221l-86 74q-13 11 -13 27t13 27l86 73v235q0 14 11 25t25 11h165q14 0 24.5 -11t10.5 -25t-10.5 -24.5t-24.5 -10.5h-130v-217q0 -15 -13 -26l-67 -57l67 -57q13 -11 13 -27v-203h130q14 0 24.5 -10.5
t10.5 -24.5z" />
    <glyph glyph-name="bar" unicode="|" horiz-adv-x="170" 
d="M70 35q0 -14 -10.5 -24.5t-24.5 -10.5t-24.5 10.5t-10.5 24.5v497q0 14 10.5 25t24.5 11t24.5 -11t10.5 -25v-497z" />
    <glyph glyph-name="braceright" unicode="}" horiz-adv-x="435" 
d="M335 276q0 -16 -13 -27l-86 -74v-221q0 -14 -11 -25t-25 -11h-165q-14 0 -24.5 11t-10.5 25t10.5 24.5t24.5 10.5h130v203q0 16 13 27l67 57l-67 57q-13 11 -13 26v217h-130q-14 0 -24.5 10.5t-10.5 24.5t10.5 25t24.5 11h165q14 0 25 -11t11 -25v-235l86 -73
q13 -11 13 -27z" />
    <glyph glyph-name="asciitilde" unicode="~" horiz-adv-x="490" 
d="M390 312q0 -18 -15 -29l-107 -73q-9 -6 -20 -6q-10 0 -19 6l-87 59l-87 -59q-9 -6 -20 -6q-14 0 -24.5 10.5t-10.5 24.5q0 20 15 30l107 72q9 6 20 6t20 -6l86 -59l87 59q9 6 20 6q14 0 24.5 -10.5t10.5 -24.5z" />
    <glyph glyph-name="Adieresis" unicode="&#xc4;" 
d="M658 289q0 24 -2.5 48t-11.5 47q-15 39 -47.5 62t-72 34t-82 14t-78.5 3q-34 0 -76 -3t-81.5 -14t-72 -32.5t-48.5 -58.5q-11 -24 -13.5 -49t-2.5 -51v-53h588v53zM728 35q0 -14 -10.5 -24.5t-24.5 -10.5t-24.5 10.5t-10.5 24.5v130h-588v-130q0 -14 -10.5 -24.5
t-24.5 -10.5t-24.5 10.5t-10.5 24.5v254q0 86 29 140.5t78.5 85t115.5 42t141 11.5t141 -11.5t115.5 -42t78.5 -85t29 -140.5v-254zM345 675q0 -17 -13 -30t-30 -13t-29.5 13t-12.5 30t12.5 29.5t29.5 12.5t30 -12.5t13 -29.5zM465 675q0 -17 -13 -30t-30 -13t-29.5 13
t-12.5 30t12.5 29.5t29.5 12.5t30 -12.5t13 -29.5z" />
    <glyph glyph-name="Aring" unicode="&#xc5;" 
d="M414 745q0 20 -13.5 33.5t-33.5 13.5t-33.5 -13.5t-13.5 -33.5t13.5 -33.5t33.5 -13.5t33.5 13.5t13.5 33.5zM485 745q0 -24 -9.5 -45.5t-25.5 -37.5t-37.5 -25.5t-45.5 -9.5t-45.5 9.5t-37.5 25.5t-25 37.5t-9 45.5t9 45.5t25 37.5t37.5 25t45.5 9t45.5 -9t37.5 -25
t25.5 -37.5t9.5 -45.5zM658 289q0 24 -2.5 48t-11.5 47q-15 39 -47.5 62t-72 34t-82 14t-78.5 3q-34 0 -76 -3t-81.5 -14t-72 -32.5t-48.5 -58.5q-11 -24 -13.5 -49t-2.5 -51v-53h588v53zM728 35q0 -14 -10.5 -24.5t-24.5 -10.5t-24.5 10.5t-10.5 24.5v130h-588v-130
q0 -14 -10.5 -24.5t-24.5 -10.5t-24.5 10.5t-10.5 24.5v254q0 86 29 140.5t78.5 85t115.5 42t141 11.5t141 -11.5t115.5 -42t78.5 -85t29 -140.5v-254z" />
    <glyph glyph-name="Ccedilla" unicode="&#xc7;" horiz-adv-x="901" 
d="M801 111q0 -9 -3 -15t-9 -12q-7 -7 -16 -12.5l-17 -10.5q-33 -20 -73.5 -32t-82.5 -19t-84.5 -9t-80.5 -2q-40 0 -87 2.5t-94.5 11t-91 24.5t-75.5 42q-50 41 -68.5 91.5t-18.5 112.5t18.5 112.5t68.5 91.5q32 26 75.5 42t91 24.5t94.5 11t87 2.5q38 0 80.5 -2t84.5 -9
t82.5 -19t73.5 -32l17 -10.5t16 -12.5q6 -6 9 -12t3 -15q0 -14 -10.5 -24.5t-24.5 -10.5q-11 0 -22 8q-14 11 -32 21q-28 15 -63 24.5t-72 14.5t-73.5 6.5t-68.5 1.5q-37 0 -87 -2.5t-99 -13t-91 -32t-64 -58.5q-14 -24 -19 -51.5t-5 -55.5t5 -55.5t19 -51.5
q22 -37 64 -58.5t91 -32t99 -13t87 -2.5q32 0 68.5 1.5t73.5 6.5t72 14.5t63 24.5q18 10 32 21q11 8 22 8q14 0 24.5 -10.5t10.5 -24.5zM562 -154q0 -30 -14.5 -46.5t-36.5 -24.5t-48 -9.5t-48 -1.5q-28 0 -56 4t-50 16t-35.5 33t-13.5 56q0 28 9.5 47.5t26 32.5t38 20
t46.5 9q0 9 0.5 19.5t3.5 19t10.5 14t20.5 5.5q14 0 24.5 -10.5t10.5 -24.5v-57q0 -17 -9 -24.5t-22 -10t-29 -2.5t-29 -3t-22 -10.5t-9 -24.5q0 -5 0.5 -9.5t3.5 -9.5q5 -8 15 -12t22.5 -5.5t24.5 -2t19 -0.5h17t23 0.5t22 2.5t14 6v3q0 14 11 24.5t25 10.5t24.5 -10.5
t10.5 -24.5z" />
    <glyph glyph-name="Eacute" unicode="&#xc9;" horiz-adv-x="843" 
d="M743 35q0 -14 -10.5 -24.5t-24.5 -10.5h-626q-14 0 -25 10.5t-11 24.5v130h-81q-14 0 -24.5 11t-10.5 25t10.5 24.5t24.5 10.5h81v296q0 14 11 25t25 11h626q14 0 24.5 -11t10.5 -25t-10.5 -24.5t-24.5 -10.5h-591v-261h475q14 0 24.5 -10.5t10.5 -24.5t-10.5 -25
t-24.5 -11h-475v-95h591q14 0 24.5 -10.5t10.5 -24.5zM470 792q0 -5 -4 -15l-69 -144q-10 -20 -32 -20q-14 0 -24.5 10.5t-10.5 24.5q0 8 3 15l70 144q5 9 13 15t18 6q14 0 25 -11t11 -25z" />
    <glyph glyph-name="Ntilde" unicode="&#xd1;" horiz-adv-x="797" 
d="M697 35q0 -14 -10.5 -24.5t-24.5 -10.5t-22 7l-570 452v-424q0 -14 -10.5 -24.5t-24.5 -10.5t-24.5 10.5t-10.5 24.5v497q0 14 10.5 25t24.5 11q12 0 22 -8l570 -452v424q0 14 10.5 25t24.5 11t24.5 -11t10.5 -25v-497zM561 742q0 -18 -15 -29l-107 -73q-9 -6 -20 -6
q-10 0 -19 6l-87 59l-87 -59q-9 -6 -20 -6q-14 0 -24.5 10.5t-10.5 24.5q0 20 15 30l107 72q9 6 20 6t20 -6l86 -59l87 59q9 6 20 6q14 0 24.5 -10.5t10.5 -24.5z" />
    <glyph glyph-name="Odieresis" unicode="&#xd6;" horiz-adv-x="951" 
d="M800 283q0 24 -2.5 48t-13.5 47q-20 42 -62.5 65.5t-93 35.5t-102.5 14.5t-91 2.5q-38 0 -89 -2.5t-101 -13.5t-92 -33.5t-63 -62.5q-12 -23 -16 -49t-4 -52t4 -52.5t16 -49.5q21 -40 63 -62.5t92 -33.5t101 -13.5t89 -2.5q39 0 91 2.5t102.5 14.5t93 35.5t62.5 65.5
q11 23 13.5 47.5t2.5 48.5zM871 283q0 -62 -18.5 -112.5t-68.5 -91.5q-32 -26 -75.5 -42t-91.5 -24.5t-95.5 -11t-86.5 -2.5t-86.5 2.5t-95 11t-91 24.5t-75.5 42q-50 41 -68.5 91.5t-18.5 112.5t18.5 112.5t68.5 90.5q32 26 75.5 42t91 24.5t95 11.5t86.5 3t86.5 -3
t95.5 -11.5t91.5 -24.5t75.5 -42q50 -40 68.5 -90.5t18.5 -112.5zM415 675q0 -17 -13 -30t-30 -13t-29.5 13t-12.5 30t12.5 29.5t29.5 12.5t30 -12.5t13 -29.5zM535 675q0 -17 -13 -30t-30 -13t-29.5 13t-12.5 30t12.5 29.5t29.5 12.5t30 -12.5t13 -29.5z" />
    <glyph glyph-name="Udieresis" unicode="&#xdc;" 
d="M345 675q0 -17 -13 -30t-30 -13t-29.5 13t-12.5 30t12.5 29.5t29.5 12.5t30 -12.5t13 -29.5zM465 675q0 -17 -13 -30t-30 -13t-29.5 13t-12.5 30t12.5 29.5t29.5 12.5t30 -12.5t13 -29.5zM728 279q0 -86 -29 -140.5t-78.5 -85t-115.5 -42t-141 -11.5t-141 11.5t-115.5 42
t-78.5 85t-29 140.5v253q0 14 10.5 25t24.5 11t24.5 -11t10.5 -25v-253q0 -25 3 -50t12 -48q15 -38 47.5 -60t72.5 -33.5t82 -14.5t77 -3t77 3t82 14.5t72.5 33.5t47.5 60q9 23 12 48t3 50v253q0 14 10.5 25t24.5 11t24.5 -11t10.5 -25v-253z" />
    <glyph glyph-name="aacute" unicode="&#xe1;" horiz-adv-x="923" 
d="M427 155q0 11 -1 21.5t-7 20.5q-9 15 -28 24t-41 13t-44 5t-37 1q-16 0 -38.5 -1t-45.5 -5.5t-42 -14.5t-27 -27q-4 -9 -5 -18t-1 -19t1 -19t5 -18q8 -17 27 -27t42 -14.5t45.5 -5.5t38.5 -1q15 0 37 1t44 5t41 13t28 24q6 10 7 20.5t1 21.5zM1062 73q0 -9 -4 -17
q-2 -5 -6.5 -10t-8.5 -8q-24 -22 -56 -30t-64 -8h-325q-81 0 -123 71q-16 -24 -40.5 -38t-52.5 -21.5t-57.5 -9.5t-55.5 -2q-40 0 -81 5t-74 21.5t-53.5 47t-20.5 81.5t20.5 81.5t53.5 47t74 22t81 5.5q41 0 86.5 -6t81.5 -29q0 9 1.5 19t5 17.5t11 12.5t19.5 5
q14 0 24.5 -10.5t10.5 -24.5q0 -11 -1 -22.5t-1 -22.5q0 -22 3 -53t12.5 -59.5t27.5 -48t48 -19.5h325q7 0 17.5 0.5t21 2.5t20 6t14.5 11q7 10 16 14t15 4q14 0 24.5 -10.5t10.5 -24.5zM371 563q0 -5 -4 -15l-69 -144q-10 -20 -32 -20q-14 0 -24.5 10.5t-10.5 24.5
q0 8 3 15l70 144q5 9 13 15t18 6q14 0 25 -11t11 -25z" />
    <glyph glyph-name="agrave" unicode="&#xe0;" horiz-adv-x="923" 
d="M310 418q0 -14 -10.5 -24.5t-24.5 -10.5q-22 0 -32 20l-69 144q-4 10 -4 15q0 14 11 25t25 11q10 0 18 -6t13 -15l70 -144q3 -7 3 -15zM427 155q0 11 -1 21.5t-7 20.5q-9 15 -28 24t-41 13t-44 5t-37 1q-16 0 -38.5 -1t-45.5 -5.5t-42 -14.5t-27 -27q-4 -9 -5 -18t-1 -19
t1 -19t5 -18q8 -17 27 -27t42 -14.5t45.5 -5.5t38.5 -1q15 0 37 1t44 5t41 13t28 24q6 10 7 20.5t1 21.5zM1062 73q0 -9 -4 -17q-2 -5 -6.5 -10t-8.5 -8q-24 -22 -56 -30t-64 -8h-325q-81 0 -123 71q-16 -24 -40.5 -38t-52.5 -21.5t-57.5 -9.5t-55.5 -2q-40 0 -81 5
t-74 21.5t-53.5 47t-20.5 81.5t20.5 81.5t53.5 47t74 22t81 5.5q41 0 86.5 -6t81.5 -29q0 9 1.5 19t5 17.5t11 12.5t19.5 5q14 0 24.5 -10.5t10.5 -24.5q0 -11 -1 -22.5t-1 -22.5q0 -22 3 -53t12.5 -59.5t27.5 -48t48 -19.5h325q7 0 17.5 0.5t21 2.5t20 6t14.5 11
q7 10 16 14t15 4q14 0 24.5 -10.5t10.5 -24.5z" />
    <glyph glyph-name="acircumflex" unicode="&#xe2;" horiz-adv-x="923" 
d="M427 155q0 11 -1 21.5t-7 20.5q-9 15 -28 24t-41 13t-44 5t-37 1q-16 0 -38.5 -1t-45.5 -5.5t-42 -14.5t-27 -27q-4 -9 -5 -18t-1 -19t1 -19t5 -18q8 -17 27 -27t42 -14.5t45.5 -5.5t38.5 -1q15 0 37 1t44 5t41 13t28 24q6 10 7 20.5t1 21.5zM1062 73q0 -9 -4 -17
q-2 -5 -6.5 -10t-8.5 -8q-24 -22 -56 -30t-64 -8h-325q-81 0 -123 71q-16 -24 -40.5 -38t-52.5 -21.5t-57.5 -9.5t-55.5 -2q-40 0 -81 5t-74 21.5t-53.5 47t-20.5 81.5t20.5 81.5t53.5 47t74 22t81 5.5q41 0 86.5 -6t81.5 -29q0 9 1.5 19t5 17.5t11 12.5t19.5 5
q14 0 24.5 -10.5t10.5 -24.5q0 -11 -1 -22.5t-1 -22.5q0 -22 3 -53t12.5 -59.5t27.5 -48t48 -19.5h325q7 0 17.5 0.5t21 2.5t20 6t14.5 11q7 10 16 14t15 4q14 0 24.5 -10.5t10.5 -24.5zM405 437q0 -14 -10.5 -25t-24.5 -11q-12 0 -22 8l-75 60l-75 -60q-10 -8 -22 -8
q-14 0 -24.5 11t-10.5 25q0 16 13 27l97 78q10 8 22 8t22 -8l97 -78q13 -11 13 -27z" />
    <glyph glyph-name="adieresis" unicode="&#xe4;" horiz-adv-x="923" 
d="M245 475q0 -17 -13 -30t-30 -13t-29.5 13t-12.5 30t12.5 29.5t29.5 12.5t30 -12.5t13 -29.5zM365 475q0 -17 -13 -30t-30 -13t-29.5 13t-12.5 30t12.5 29.5t29.5 12.5t30 -12.5t13 -29.5zM427 155q0 11 -1 21.5t-7 20.5q-9 15 -28 24t-41 13t-44 5t-37 1q-16 0 -38.5 -1
t-45.5 -5.5t-42 -14.5t-27 -27q-4 -9 -5 -18t-1 -19t1 -19t5 -18q8 -17 27 -27t42 -14.5t45.5 -5.5t38.5 -1q15 0 37 1t44 5t41 13t28 24q6 10 7 20.5t1 21.5zM1062 73q0 -9 -4 -17q-2 -5 -6.5 -10t-8.5 -8q-24 -22 -56 -30t-64 -8h-325q-81 0 -123 71q-16 -24 -40.5 -38
t-52.5 -21.5t-57.5 -9.5t-55.5 -2q-40 0 -81 5t-74 21.5t-53.5 47t-20.5 81.5t20.5 81.5t53.5 47t74 22t81 5.5q41 0 86.5 -6t81.5 -29q0 9 1.5 19t5 17.5t11 12.5t19.5 5q14 0 24.5 -10.5t10.5 -24.5q0 -11 -1 -22.5t-1 -22.5q0 -22 3 -53t12.5 -59.5t27.5 -48t48 -19.5
h325q7 0 17.5 0.5t21 2.5t20 6t14.5 11q7 10 16 14t15 4q14 0 24.5 -10.5t10.5 -24.5z" />
    <glyph glyph-name="atilde" unicode="&#xe3;" horiz-adv-x="923" 
d="M427 155q0 11 -1 21.5t-7 20.5q-9 15 -28 24t-41 13t-44 5t-37 1q-16 0 -38.5 -1t-45.5 -5.5t-42 -14.5t-27 -27q-4 -9 -5 -18t-1 -19t1 -19t5 -18q8 -17 27 -27t42 -14.5t45.5 -5.5t38.5 -1q15 0 37 1t44 5t41 13t28 24q6 10 7 20.5t1 21.5zM1062 73q0 -9 -4 -17
q-2 -5 -6.5 -10t-8.5 -8q-24 -22 -56 -30t-64 -8h-325q-81 0 -123 71q-16 -24 -40.5 -38t-52.5 -21.5t-57.5 -9.5t-55.5 -2q-40 0 -81 5t-74 21.5t-53.5 47t-20.5 81.5t20.5 81.5t53.5 47t74 22t81 5.5q41 0 86.5 -6t81.5 -29q0 9 1.5 19t5 17.5t11 12.5t19.5 5
q14 0 24.5 -10.5t10.5 -24.5q0 -11 -1 -22.5t-1 -22.5q0 -22 3 -53t12.5 -59.5t27.5 -48t48 -19.5h325q7 0 17.5 0.5t21 2.5t20 6t14.5 11q7 10 16 14t15 4q14 0 24.5 -10.5t10.5 -24.5zM481 543q0 -18 -15 -29l-107 -73q-9 -6 -20 -6q-10 0 -19 6l-87 59l-87 -59
q-9 -6 -20 -6q-14 0 -24.5 10.5t-10.5 24.5q0 20 15 30l107 72q9 6 20 6t20 -6l86 -59l87 59q9 6 20 6q14 0 24.5 -10.5t10.5 -24.5z" />
    <glyph glyph-name="aring" unicode="&#xe5;" horiz-adv-x="923" 
d="M324 525q0 20 -13.5 33.5t-33.5 13.5t-33.5 -13.5t-13.5 -33.5t13.5 -33.5t33.5 -13.5t33.5 13.5t13.5 33.5zM395 525q0 -24 -9.5 -45.5t-25.5 -37.5t-37.5 -25.5t-45.5 -9.5t-45.5 9.5t-37.5 25.5t-25 37.5t-9 45.5t9 45.5t25 37.5t37.5 25t45.5 9t45.5 -9t37.5 -25
t25.5 -37.5t9.5 -45.5zM427 155q0 11 -1 21.5t-7 20.5q-9 15 -28 24t-41 13t-44 5t-37 1q-16 0 -38.5 -1t-45.5 -5.5t-42 -14.5t-27 -27q-4 -9 -5 -18t-1 -19t1 -19t5 -18q8 -17 27 -27t42 -14.5t45.5 -5.5t38.5 -1q15 0 37 1t44 5t41 13t28 24q6 10 7 20.5t1 21.5zM1062 73
q0 -9 -4 -17q-2 -5 -6.5 -10t-8.5 -8q-24 -22 -56 -30t-64 -8h-325q-81 0 -123 71q-16 -24 -40.5 -38t-52.5 -21.5t-57.5 -9.5t-55.5 -2q-40 0 -81 5t-74 21.5t-53.5 47t-20.5 81.5t20.5 81.5t53.5 47t74 22t81 5.5q41 0 86.5 -6t81.5 -29q0 9 1.5 19t5 17.5t11 12.5t19.5 5
q14 0 24.5 -10.5t10.5 -24.5q0 -11 -1 -22.5t-1 -22.5q0 -22 3 -53t12.5 -59.5t27.5 -48t48 -19.5h325q7 0 17.5 0.5t21 2.5t20 6t14.5 11q7 10 16 14t15 4q14 0 24.5 -10.5t10.5 -24.5z" />
    <glyph glyph-name="ccedilla" unicode="&#xe7;" horiz-adv-x="781" 
d="M920 73q0 -9 -4 -17q-2 -5 -6.5 -10t-8.5 -8q-24 -22 -56 -30t-64 -8h-512q-40 0 -81 5t-74 21.5t-53.5 47t-20.5 81.5t20.5 81.5t53.5 47t74 22t81 5.5q30 0 67.5 -1.5t70.5 -12t55.5 -33t22.5 -64.5q0 -14 -11 -24.5t-25 -10.5t-24.5 10.5t-10.5 24.5q0 18 -18.5 26.5
t-43 11.5t-48.5 2.5t-35 -0.5q-15 0 -37.5 -1t-44.5 -5.5t-41 -13.5t-28 -25q-5 -9 -6.5 -19t-1.5 -21t1.5 -21t6.5 -19q9 -16 28 -25t41 -13.5t44.5 -5.5t37.5 -1h512q7 0 17.5 0.5t21 2.5t20 6t14.5 11q7 10 16 14t15 4q14 0 24.5 -10.5t10.5 -24.5zM423 -154
q0 -30 -14.5 -46.5t-36.5 -24.5t-48 -9.5t-48 -1.5q-28 0 -56 4t-50 16t-35.5 33t-13.5 56q0 28 9.5 47.5t26 32.5t38 20t46.5 9q0 9 0.5 19.5t3.5 19t10.5 14t20.5 5.5q14 0 24.5 -10.5t10.5 -24.5v-57q0 -17 -9 -24.5t-22 -10t-29 -2.5t-29 -3t-22 -10.5t-9 -24.5
q0 -5 0.5 -9.5t3.5 -9.5q5 -8 15 -12t22.5 -5.5t24.5 -2t19 -0.5h17t23 0.5t22 2.5t14 6v3q0 14 11 24.5t25 10.5t24.5 -10.5t10.5 -24.5z" />
    <glyph glyph-name="eacute" unicode="&#xe9;" horiz-adv-x="771" 
d="M408 217q-8 10 -26.5 14.5t-40 6.5t-41.5 2h-31q-15 0 -37.5 -1t-44.5 -5.5t-41 -13t-28 -24.5q-5 -10 -6.5 -20t-1.5 -21q0 -13 3 -25l89.5 24t89.5 26q29 8 58 17t58 20zM910 73q0 -9 -4 -17q-2 -5 -6.5 -10t-8.5 -8q-24 -22 -56 -30t-64 -8h-502q-40 0 -81 5t-74 21.5
t-53.5 47t-20.5 81.5t20.5 81.5t53.5 47t74 22t81 5.5q30 0 67.5 -1.5t70.5 -12t55.5 -33t22.5 -64.5q0 -13 -8.5 -22.5t-21 -16.5t-26 -11.5t-23.5 -7.5q-54 -19 -109 -34.5l-111 -30.5q20 -4 41 -5.5t42 -1.5h502q7 0 17.5 0.5t21 2.5t20 6t14.5 11q7 10 16 14t15 4
q14 0 24.5 -10.5t10.5 -24.5zM371 563q0 -5 -4 -15l-69 -144q-10 -20 -32 -20q-14 0 -24.5 10.5t-10.5 24.5q0 8 3 15l70 144q5 9 13 15t18 6q14 0 25 -11t11 -25z" />
    <glyph glyph-name="egrave" unicode="&#xe8;" horiz-adv-x="771" 
d="M310 418q0 -14 -10.5 -24.5t-24.5 -10.5q-22 0 -32 20l-69 144q-4 10 -4 15q0 14 11 25t25 11q10 0 18 -6t13 -15l70 -144q3 -7 3 -15zM408 217q-8 10 -26.5 14.5t-40 6.5t-41.5 2h-31q-15 0 -37.5 -1t-44.5 -5.5t-41 -13t-28 -24.5q-5 -10 -6.5 -20t-1.5 -21
q0 -13 3 -25l89.5 24t89.5 26q29 8 58 17t58 20zM910 73q0 -9 -4 -17q-2 -5 -6.5 -10t-8.5 -8q-24 -22 -56 -30t-64 -8h-502q-40 0 -81 5t-74 21.5t-53.5 47t-20.5 81.5t20.5 81.5t53.5 47t74 22t81 5.5q30 0 67.5 -1.5t70.5 -12t55.5 -33t22.5 -64.5q0 -13 -8.5 -22.5
t-21 -16.5t-26 -11.5t-23.5 -7.5q-54 -19 -109 -34.5l-111 -30.5q20 -4 41 -5.5t42 -1.5h502q7 0 17.5 0.5t21 2.5t20 6t14.5 11q7 10 16 14t15 4q14 0 24.5 -10.5t10.5 -24.5z" />
    <glyph glyph-name="ecircumflex" unicode="&#xea;" horiz-adv-x="771" 
d="M408 217q-8 10 -26.5 14.5t-40 6.5t-41.5 2h-31q-15 0 -37.5 -1t-44.5 -5.5t-41 -13t-28 -24.5q-5 -10 -6.5 -20t-1.5 -21q0 -13 3 -25l89.5 24t89.5 26q29 8 58 17t58 20zM910 73q0 -9 -4 -17q-2 -5 -6.5 -10t-8.5 -8q-24 -22 -56 -30t-64 -8h-502q-40 0 -81 5t-74 21.5
t-53.5 47t-20.5 81.5t20.5 81.5t53.5 47t74 22t81 5.5q30 0 67.5 -1.5t70.5 -12t55.5 -33t22.5 -64.5q0 -13 -8.5 -22.5t-21 -16.5t-26 -11.5t-23.5 -7.5q-54 -19 -109 -34.5l-111 -30.5q20 -4 41 -5.5t42 -1.5h502q7 0 17.5 0.5t21 2.5t20 6t14.5 11q7 10 16 14t15 4
q14 0 24.5 -10.5t10.5 -24.5zM405 437q0 -14 -10.5 -25t-24.5 -11q-12 0 -22 8l-75 60l-75 -60q-10 -8 -22 -8q-14 0 -24.5 11t-10.5 25q0 16 13 27l97 78q10 8 22 8t22 -8l97 -78q13 -11 13 -27z" />
    <glyph glyph-name="edieresis" unicode="&#xeb;" horiz-adv-x="771" 
d="M245 475q0 -17 -13 -30t-30 -13t-29.5 13t-12.5 30t12.5 29.5t29.5 12.5t30 -12.5t13 -29.5zM365 475q0 -17 -13 -30t-30 -13t-29.5 13t-12.5 30t12.5 29.5t29.5 12.5t30 -12.5t13 -29.5zM408 217q-8 10 -26.5 14.5t-40 6.5t-41.5 2h-31q-15 0 -37.5 -1t-44.5 -5.5
t-41 -13t-28 -24.5q-5 -10 -6.5 -20t-1.5 -21q0 -13 3 -25l89.5 24t89.5 26q29 8 58 17t58 20zM910 73q0 -9 -4 -17q-2 -5 -6.5 -10t-8.5 -8q-24 -22 -56 -30t-64 -8h-502q-40 0 -81 5t-74 21.5t-53.5 47t-20.5 81.5t20.5 81.5t53.5 47t74 22t81 5.5q30 0 67.5 -1.5
t70.5 -12t55.5 -33t22.5 -64.5q0 -13 -8.5 -22.5t-21 -16.5t-26 -11.5t-23.5 -7.5q-54 -19 -109 -34.5l-111 -30.5q20 -4 41 -5.5t42 -1.5h502q7 0 17.5 0.5t21 2.5t20 6t14.5 11q7 10 16 14t15 4q14 0 24.5 -10.5t10.5 -24.5z" />
    <glyph glyph-name="iacute" unicode="&#xed;" horiz-adv-x="674" 
d="M813 73q0 -9 -4 -17q-2 -5 -6.5 -10t-8.5 -8q-24 -22 -56 -30t-64 -8h-320q-62 0 -110 26t-78 80q-23 -51 -63.5 -78.5t-97.5 -27.5q-14 0 -24.5 10.5t-10.5 24.5t10.5 24.5t24.5 10.5q39 0 63 20t36.5 50t17 65t4.5 65q0 17 8.5 29t27.5 12t27 -12.5t8 -28.5
q0 -38 8.5 -74t27 -64t48.5 -45t73 -17h320q7 0 17.5 0.5t21 2.5t20 6t14.5 11q7 10 16 14t15 4q14 0 24.5 -10.5t10.5 -24.5zM271 563q0 -5 -4 -15l-69 -144q-10 -20 -32 -20q-14 0 -24.5 10.5t-10.5 24.5q0 8 3 15l70 144q5 9 13 15t18 6q14 0 25 -11t11 -25z" />
    <glyph glyph-name="igrave" unicode="&#xec;" horiz-adv-x="674" 
d="M200 418q0 -14 -10.5 -24.5t-24.5 -10.5q-22 0 -32 20l-69 144q-4 10 -4 15q0 14 11 25t25 11q10 0 18 -6t13 -15l70 -144q3 -7 3 -15zM813 73q0 -9 -4 -17q-2 -5 -6.5 -10t-8.5 -8q-24 -22 -56 -30t-64 -8h-320q-62 0 -110 26t-78 80q-23 -51 -63.5 -78.5t-97.5 -27.5
q-14 0 -24.5 10.5t-10.5 24.5t10.5 24.5t24.5 10.5q39 0 63 20t36.5 50t17 65t4.5 65q0 17 8.5 29t27.5 12t27 -12.5t8 -28.5q0 -38 8.5 -74t27 -64t48.5 -45t73 -17h320q7 0 17.5 0.5t21 2.5t20 6t14.5 11q7 10 16 14t15 4q14 0 24.5 -10.5t10.5 -24.5z" />
    <glyph glyph-name="icircumflex" unicode="&#xee;" horiz-adv-x="674" 
d="M813 73q0 -9 -4 -17q-2 -5 -6.5 -10t-8.5 -8q-24 -22 -56 -30t-64 -8h-320q-62 0 -110 26t-78 80q-23 -51 -63.5 -78.5t-97.5 -27.5q-14 0 -24.5 10.5t-10.5 24.5t10.5 24.5t24.5 10.5q39 0 63 20t36.5 50t17 65t4.5 65q0 17 8.5 29t27.5 12t27 -12.5t8 -28.5
q0 -38 8.5 -74t27 -64t48.5 -45t73 -17h320q7 0 17.5 0.5t21 2.5t20 6t14.5 11q7 10 16 14t15 4q14 0 24.5 -10.5t10.5 -24.5zM295 437q0 -14 -10.5 -25t-24.5 -11q-12 0 -22 8l-75 60l-75 -60q-10 -8 -22 -8q-14 0 -24.5 11t-10.5 25q0 16 13 27l97 78q10 8 22 8t22 -8
l97 -78q13 -11 13 -27z" />
    <glyph glyph-name="idieresis" unicode="&#xef;" horiz-adv-x="674" 
d="M145 475q0 -17 -13 -30t-30 -13t-29.5 13t-12.5 30t12.5 29.5t29.5 12.5t30 -12.5t13 -29.5zM265 475q0 -17 -13 -30t-30 -13t-29.5 13t-12.5 30t12.5 29.5t29.5 12.5t30 -12.5t13 -29.5zM813 73q0 -9 -4 -17q-2 -5 -6.5 -10t-8.5 -8q-24 -22 -56 -30t-64 -8h-320
q-62 0 -110 26t-78 80q-23 -51 -63.5 -78.5t-97.5 -27.5q-14 0 -24.5 10.5t-10.5 24.5t10.5 24.5t24.5 10.5q39 0 63 20t36.5 50t17 65t4.5 65q0 17 8.5 29t27.5 12t27 -12.5t8 -28.5q0 -38 8.5 -74t27 -64t48.5 -45t73 -17h320q7 0 17.5 0.5t21 2.5t20 6t14.5 11
q7 10 16 14t15 4q14 0 24.5 -10.5t10.5 -24.5z" />
    <glyph glyph-name="ntilde" unicode="&#xf1;" horiz-adv-x="865" 
d="M1004 73q0 -9 -4 -17q-2 -5 -6.5 -10t-8.5 -8q-24 -22 -56 -30t-64 -8h-292q-31 0 -54 12t-37.5 32.5t-21.5 46.5t-7 54q0 3 0.5 7t0.5 7q0 10 -1.5 20t-6.5 19q-8 15 -25.5 23.5t-37.5 12.5t-40.5 5t-35.5 1t-36 -1t-41.5 -5t-37.5 -13t-25 -25q-5 -10 -6 -20t-1 -21
v-120q0 -14 -10.5 -24.5t-24.5 -10.5t-24.5 10.5t-10.5 24.5v241q0 14 10.5 24.5t24.5 10.5q13 0 22.5 -8t12.5 -20q32 17 71.5 22.5t75.5 5.5q41 0 79.5 -6t69.5 -22.5t49.5 -46.5t18.5 -78v-12q0 -13 2 -26.5t7 -24.5t14.5 -18t25.5 -7h292q7 0 17.5 0.5t21 2.5t20 6
t14.5 11q7 10 16 14t15 4q14 0 24.5 -10.5t10.5 -24.5zM511 543q0 -18 -15 -29l-107 -73q-9 -6 -20 -6q-10 0 -19 6l-87 59l-87 -59q-9 -6 -20 -6q-14 0 -24.5 10.5t-10.5 24.5q0 20 15 30l107 72q9 6 20 6t20 -6l86 -59l87 59q9 6 20 6q14 0 24.5 -10.5t10.5 -24.5z" />
    <glyph glyph-name="oacute" unicode="&#xf3;" horiz-adv-x="863" 
d="M427 155q0 18 -3 29.5t-16 25.5q-10 10 -28 16t-38.5 9t-40 4t-32.5 1q-16 0 -38.5 -1t-45.5 -5.5t-42 -14.5t-27 -27q-4 -9 -5 -18t-1 -19t1 -19t5 -18q8 -17 27 -27t42 -14.5t45.5 -5.5t38.5 -1t38.5 1t45 5.5t41.5 14.5t27 27q4 9 5 18t1 19zM973 276q0 -14 -10.5 -25
t-24.5 -11h-405q-14 0 -27 -1.5t-26 -6.5q10 -17 14 -37t4 -40q0 -51 -20.5 -81.5t-53.5 -47t-73.5 -21.5t-81.5 -5q-40 0 -81 5t-74 21.5t-53.5 47t-20.5 81.5t20.5 81.5t53.5 47t74 22t81 5.5q39 0 80.5 -5t76.5 -23q23 17 51 22.5t56 5.5h405q14 0 24.5 -10.5t10.5 -24.5
zM371 563q0 -5 -4 -15l-69 -144q-10 -20 -32 -20q-14 0 -24.5 10.5t-10.5 24.5q0 8 3 15l70 144q5 9 13 15t18 6q14 0 25 -11t11 -25z" />
    <glyph glyph-name="ograve" unicode="&#xf2;" horiz-adv-x="863" 
d="M310 418q0 -14 -10.5 -24.5t-24.5 -10.5q-22 0 -32 20l-69 144q-4 10 -4 15q0 14 11 25t25 11q10 0 18 -6t13 -15l70 -144q3 -7 3 -15zM427 155q0 18 -3 29.5t-16 25.5q-10 10 -28 16t-38.5 9t-40 4t-32.5 1q-16 0 -38.5 -1t-45.5 -5.5t-42 -14.5t-27 -27q-4 -9 -5 -18
t-1 -19t1 -19t5 -18q8 -17 27 -27t42 -14.5t45.5 -5.5t38.5 -1t38.5 1t45 5.5t41.5 14.5t27 27q4 9 5 18t1 19zM973 276q0 -14 -10.5 -25t-24.5 -11h-405q-14 0 -27 -1.5t-26 -6.5q10 -17 14 -37t4 -40q0 -51 -20.5 -81.5t-53.5 -47t-73.5 -21.5t-81.5 -5q-40 0 -81 5
t-74 21.5t-53.5 47t-20.5 81.5t20.5 81.5t53.5 47t74 22t81 5.5q39 0 80.5 -5t76.5 -23q23 17 51 22.5t56 5.5h405q14 0 24.5 -10.5t10.5 -24.5z" />
    <glyph glyph-name="ocircumflex" unicode="&#xf4;" horiz-adv-x="863" 
d="M427 155q0 18 -3 29.5t-16 25.5q-10 10 -28 16t-38.5 9t-40 4t-32.5 1q-16 0 -38.5 -1t-45.5 -5.5t-42 -14.5t-27 -27q-4 -9 -5 -18t-1 -19t1 -19t5 -18q8 -17 27 -27t42 -14.5t45.5 -5.5t38.5 -1t38.5 1t45 5.5t41.5 14.5t27 27q4 9 5 18t1 19zM973 276q0 -14 -10.5 -25
t-24.5 -11h-405q-14 0 -27 -1.5t-26 -6.5q10 -17 14 -37t4 -40q0 -51 -20.5 -81.5t-53.5 -47t-73.5 -21.5t-81.5 -5q-40 0 -81 5t-74 21.5t-53.5 47t-20.5 81.5t20.5 81.5t53.5 47t74 22t81 5.5q39 0 80.5 -5t76.5 -23q23 17 51 22.5t56 5.5h405q14 0 24.5 -10.5t10.5 -24.5
zM395 437q0 -14 -10.5 -25t-24.5 -11q-12 0 -22 8l-75 60l-75 -60q-10 -8 -22 -8q-14 0 -24.5 11t-10.5 25q0 16 13 27l97 78q10 8 22 8t22 -8l97 -78q13 -11 13 -27z" />
    <glyph glyph-name="odieresis" unicode="&#xf6;" horiz-adv-x="863" 
d="M245 475q0 -17 -13 -30t-30 -13t-29.5 13t-12.5 30t12.5 29.5t29.5 12.5t30 -12.5t13 -29.5zM365 475q0 -17 -13 -30t-30 -13t-29.5 13t-12.5 30t12.5 29.5t29.5 12.5t30 -12.5t13 -29.5zM427 155q0 18 -3 29.5t-16 25.5q-10 10 -28 16t-38.5 9t-40 4t-32.5 1
q-16 0 -38.5 -1t-45.5 -5.5t-42 -14.5t-27 -27q-4 -9 -5 -18t-1 -19t1 -19t5 -18q8 -17 27 -27t42 -14.5t45.5 -5.5t38.5 -1t38.5 1t45 5.5t41.5 14.5t27 27q4 9 5 18t1 19zM973 276q0 -14 -10.5 -25t-24.5 -11h-405q-14 0 -27 -1.5t-26 -6.5q10 -17 14 -37t4 -40
q0 -51 -20.5 -81.5t-53.5 -47t-73.5 -21.5t-81.5 -5q-40 0 -81 5t-74 21.5t-53.5 47t-20.5 81.5t20.5 81.5t53.5 47t74 22t81 5.5q39 0 80.5 -5t76.5 -23q23 17 51 22.5t56 5.5h405q14 0 24.5 -10.5t10.5 -24.5z" />
    <glyph glyph-name="otilde" unicode="&#xf5;" horiz-adv-x="863" 
d="M427 155q0 18 -3 29.5t-16 25.5q-10 10 -28 16t-38.5 9t-40 4t-32.5 1q-16 0 -38.5 -1t-45.5 -5.5t-42 -14.5t-27 -27q-4 -9 -5 -18t-1 -19t1 -19t5 -18q8 -17 27 -27t42 -14.5t45.5 -5.5t38.5 -1t38.5 1t45 5.5t41.5 14.5t27 27q4 9 5 18t1 19zM973 276q0 -14 -10.5 -25
t-24.5 -11h-405q-14 0 -27 -1.5t-26 -6.5q10 -17 14 -37t4 -40q0 -51 -20.5 -81.5t-53.5 -47t-73.5 -21.5t-81.5 -5q-40 0 -81 5t-74 21.5t-53.5 47t-20.5 81.5t20.5 81.5t53.5 47t74 22t81 5.5q39 0 80.5 -5t76.5 -23q23 17 51 22.5t56 5.5h405q14 0 24.5 -10.5t10.5 -24.5
zM491 543q0 -18 -15 -29l-107 -73q-9 -6 -20 -6q-10 0 -19 6l-87 59l-87 -59q-9 -6 -20 -6q-14 0 -24.5 10.5t-10.5 24.5q0 20 15 30l107 72q9 6 20 6t20 -6l86 -59l87 59q9 6 20 6q14 0 24.5 -10.5t10.5 -24.5z" />
    <glyph glyph-name="uacute" unicode="&#xfa;" horiz-adv-x="901" 
d="M1040 73q0 -9 -4 -17q-2 -5 -6.5 -10t-8.5 -8q-24 -22 -56 -30t-64 -8h-335q-77 0 -118 64q-15 -21 -38 -33.5t-49 -19.5t-53 -9t-51 -2q-41 0 -80 6t-69.5 22.5t-49 47t-18.5 79.5v121q0 14 10.5 24.5t24.5 10.5t24.5 -10.5t10.5 -24.5v-121q0 -11 1 -20.5t6 -19.5
q8 -16 25 -25t37.5 -13.5t41.5 -5.5t36 -1t36 1t41.5 5.5t37.5 13.5t25 25q5 10 6 19.5t1 20.5v91q0 3 0.5 5t0.5 4q1 5 0.5 11t0.5 11q2 14 11 23.5t24 9.5h2q14 0 21 -5.5t9.5 -14.5t2.5 -19.5v-20.5q0 -22 2.5 -53t11.5 -59.5t27 -48t49 -19.5h335q7 0 17.5 0.5t21 2.5
t20 6t14.5 11q7 10 16 14t15 4q14 0 24.5 -10.5t10.5 -24.5zM371 563q0 -5 -4 -15l-69 -144q-10 -20 -32 -20q-14 0 -24.5 10.5t-10.5 24.5q0 8 3 15l70 144q5 9 13 15t18 6q14 0 25 -11t11 -25z" />
    <glyph glyph-name="ugrave" unicode="&#xf9;" horiz-adv-x="901" 
d="M310 418q0 -14 -10.5 -24.5t-24.5 -10.5q-22 0 -32 20l-69 144q-4 10 -4 15q0 14 11 25t25 11q10 0 18 -6t13 -15l70 -144q3 -7 3 -15zM1040 73q0 -9 -4 -17q-2 -5 -6.5 -10t-8.5 -8q-24 -22 -56 -30t-64 -8h-335q-77 0 -118 64q-15 -21 -38 -33.5t-49 -19.5t-53 -9
t-51 -2q-41 0 -80 6t-69.5 22.5t-49 47t-18.5 79.5v121q0 14 10.5 24.5t24.5 10.5t24.5 -10.5t10.5 -24.5v-121q0 -11 1 -20.5t6 -19.5q8 -16 25 -25t37.5 -13.5t41.5 -5.5t36 -1t36 1t41.5 5.5t37.5 13.5t25 25q5 10 6 19.5t1 20.5v91q0 3 0.5 5t0.5 4q1 5 0.5 11t0.5 11
q2 14 11 23.5t24 9.5h2q14 0 21 -5.5t9.5 -14.5t2.5 -19.5v-20.5q0 -22 2.5 -53t11.5 -59.5t27 -48t49 -19.5h335q7 0 17.5 0.5t21 2.5t20 6t14.5 11q7 10 16 14t15 4q14 0 24.5 -10.5t10.5 -24.5z" />
    <glyph glyph-name="ucircumflex" unicode="&#xfb;" horiz-adv-x="901" 
d="M1040 73q0 -9 -4 -17q-2 -5 -6.5 -10t-8.5 -8q-24 -22 -56 -30t-64 -8h-335q-77 0 -118 64q-15 -21 -38 -33.5t-49 -19.5t-53 -9t-51 -2q-41 0 -80 6t-69.5 22.5t-49 47t-18.5 79.5v121q0 14 10.5 24.5t24.5 10.5t24.5 -10.5t10.5 -24.5v-121q0 -11 1 -20.5t6 -19.5
q8 -16 25 -25t37.5 -13.5t41.5 -5.5t36 -1t36 1t41.5 5.5t37.5 13.5t25 25q5 10 6 19.5t1 20.5v91q0 3 0.5 5t0.5 4q1 5 0.5 11t0.5 11q2 14 11 23.5t24 9.5h2q14 0 21 -5.5t9.5 -14.5t2.5 -19.5v-20.5q0 -22 2.5 -53t11.5 -59.5t27 -48t49 -19.5h335q7 0 17.5 0.5t21 2.5
t20 6t14.5 11q7 10 16 14t15 4q14 0 24.5 -10.5t10.5 -24.5zM395 437q0 -14 -10.5 -25t-24.5 -11q-12 0 -22 8l-75 60l-75 -60q-10 -8 -22 -8q-14 0 -24.5 11t-10.5 25q0 16 13 27l97 78q10 8 22 8t22 -8l97 -78q13 -11 13 -27z" />
    <glyph glyph-name="udieresis" unicode="&#xfc;" horiz-adv-x="901" 
d="M245 475q0 -17 -13 -30t-30 -13t-29.5 13t-12.5 30t12.5 29.5t29.5 12.5t30 -12.5t13 -29.5zM365 475q0 -17 -13 -30t-30 -13t-29.5 13t-12.5 30t12.5 29.5t29.5 12.5t30 -12.5t13 -29.5zM1040 73q0 -9 -4 -17q-2 -5 -6.5 -10t-8.5 -8q-24 -22 -56 -30t-64 -8h-335
q-77 0 -118 64q-15 -21 -38 -33.5t-49 -19.5t-53 -9t-51 -2q-41 0 -80 6t-69.5 22.5t-49 47t-18.5 79.5v121q0 14 10.5 24.5t24.5 10.5t24.5 -10.5t10.5 -24.5v-121q0 -11 1 -20.5t6 -19.5q8 -16 25 -25t37.5 -13.5t41.5 -5.5t36 -1t36 1t41.5 5.5t37.5 13.5t25 25
q5 10 6 19.5t1 20.5v91q0 3 0.5 5t0.5 4q1 5 0.5 11t0.5 11q2 14 11 23.5t24 9.5h2q14 0 21 -5.5t9.5 -14.5t2.5 -19.5v-20.5q0 -22 2.5 -53t11.5 -59.5t27 -48t49 -19.5h335q7 0 17.5 0.5t21 2.5t20 6t14.5 11q7 10 16 14t15 4q14 0 24.5 -10.5t10.5 -24.5z" />
    <glyph glyph-name="dagger" unicode="&#x2020;" horiz-adv-x="359" 
d="M259 438q0 -14 -11 -24.5t-25 -10.5h-58v-368q0 -14 -11 -24.5t-25 -10.5t-24.5 10.5t-10.5 24.5v368h-59q-14 0 -24.5 10.5t-10.5 24.5t10.5 24.5t24.5 10.5h59v59q0 14 10.5 25t24.5 11t25 -11t11 -25v-59h58q14 0 25 -10.5t11 -24.5z" />
    <glyph glyph-name="degree" unicode="&#xb0;" horiz-adv-x="335" 
d="M164 615q0 20 -13.5 33.5t-33.5 13.5t-33.5 -13.5t-13.5 -33.5t13.5 -33.5t33.5 -13.5t33.5 13.5t13.5 33.5zM235 615q0 -24 -9.5 -45.5t-25.5 -37.5t-37.5 -25.5t-45.5 -9.5t-45.5 9.5t-37.5 25.5t-25 37.5t-9 45.5t9 45.5t25 37.5t37.5 25t45.5 9t45.5 -9t37.5 -25
t25.5 -37.5t9.5 -45.5z" />
    <glyph glyph-name="cent" unicode="&#xa2;" horiz-adv-x="607" 
d="M218 395q-18 -1 -40 -4.5t-42 -10.5t-36.5 -19.5t-23.5 -32.5q-4 -11 -5 -22t-1 -22q0 -13 1.5 -25.5t6.5 -24.5q8 -18 24.5 -29.5t36.5 -18t41 -10t38 -4.5v223zM507 181q0 -14 -13 -27q-18 -16 -43.5 -26.5t-54 -16.5t-56.5 -8.5t-51 -2.5v-65q0 -14 -11 -24.5
t-25 -10.5t-24.5 10.5t-10.5 24.5v67q-45 3 -84.5 13t-69 30.5t-47 54t-17.5 84.5t17.5 84.5t47 54t69 30t84.5 12.5v67q0 14 10.5 25t24.5 11t25 -11t11 -25v-65q23 0 51 -2.5t56.5 -8.5t54 -16t43.5 -27q13 -13 13 -27t-10.5 -24.5t-24.5 -10.5q-7 0 -12 2t-11 6
q-35 24 -76.5 30.5t-83.5 7.5v-226q42 1 83.5 7t76.5 30q6 4 11 6t12 2q14 0 24.5 -10.5t10.5 -24.5z" />
    <glyph glyph-name="sterling" unicode="&#xa3;" horiz-adv-x="693" 
d="M593 125q0 -14 -10.5 -25t-24.5 -11h-435q-15 0 -26.5 10t-11.5 26q0 6 3 21.5l6.5 33.5t7.5 34t5 24h-72q-14 0 -24.5 11t-10.5 25t10.5 24.5t24.5 10.5h86q22 92 79 129.5t150 37.5q34 0 68 -10.5t61 -30.5q15 -10 15 -29q0 -14 -10.5 -24.5t-24.5 -10.5q-11 0 -20 6
q-22 14 -42.5 21t-46.5 7q-29 0 -54 -3.5t-45 -14t-34.5 -29.5t-22.5 -49h181q14 0 25 -10.5t11 -24.5t-11 -25t-25 -11h-196l-16 -78h395q14 0 24.5 -10.5t10.5 -24.5z" />
    <glyph glyph-name="section" unicode="&#xa7;" horiz-adv-x="855" 
d="M586 283q0 19 -21.5 29t-49.5 14t-55 4h-38h-114q-11 0 -34 -0.5t-46 -5t-40.5 -14t-17.5 -27.5q0 -19 21.5 -29t49 -14t54.5 -4h38h115q11 0 34 0.5t46 5t40.5 14t17.5 27.5zM755 118q0 -42 -24 -65.5t-58.5 -35t-73.5 -14.5t-69 -3h-495q-14 0 -24.5 10.5t-10.5 24.5
t10.5 24.5t24.5 10.5h487q11 0 38 0.5t54.5 4.5t49 14t21.5 29t-21.5 28.5t-49.5 13.5t-54.5 4.5t-37.5 0.5h-189q-31 0 -71.5 2.5t-76.5 14t-61 35t-25 66.5q0 31 17 56q-22 5 -43 12.5t-37.5 20.5t-26 31.5t-9.5 44.5q0 42 24 65.5t58.5 35t74 14.5t69.5 3h494
q14 0 24.5 -10.5t10.5 -24.5t-10.5 -24.5t-24.5 -10.5h-486q-11 0 -38 -0.5t-55 -4.5t-49.5 -14t-21.5 -29q0 -12 10 -20.5t26 -14t35.5 -8t37.5 -3.5t33 -1h22h188q31 0 71.5 -2.5t76.5 -14t61 -35t25 -66.5q0 -15 -4 -29.5t-12 -26.5q23 -4 43.5 -12t36.5 -21t25.5 -31.5
t9.5 -44.5z" />
    <glyph glyph-name="bullet" unicode="&#x2022;" horiz-adv-x="335" 
d="M235 315q0 -24 -9.5 -45.5t-25.5 -37.5t-37.5 -25.5t-45.5 -9.5t-45.5 9.5t-37.5 25.5t-25 37.5t-9 45.5t9 45.5t25 37.5t37.5 25t45.5 9t45.5 -9t37.5 -25t25.5 -37.5t9.5 -45.5z" />
    <glyph glyph-name="paragraph" unicode="&#xb6;" horiz-adv-x="856" 
d="M517 497h-283q-16 0 -38 -1t-44 -4.5t-41 -12t-29 -23.5q-8 -11 -10 -23t-2 -25q0 -33 16 -51.5t40.5 -26.5t53.5 -9.5t54 -1.5h283v178zM685 497h-97v-178h97v178zM756 35q0 -14 -11 -24.5t-25 -10.5t-24.5 10.5t-10.5 24.5v213h-97v-213q0 -14 -11 -24.5t-25 -10.5
t-24.5 10.5t-10.5 24.5v213h-283q-41 0 -83 5.5t-75.5 22.5t-54.5 48.5t-21 83.5q0 51 20 82t52.5 48.5t73 23.5t81.5 6h493q14 0 25 -11t11 -25v-497z" />
    <glyph glyph-name="germandbls" unicode="&#xdf;" horiz-adv-x="848" 
d="M987 73q0 -9 -4 -17q-2 -5 -6.5 -10t-8.5 -8q-24 -22 -56 -30t-64 -8h-291q-29 0 -53 11.5t-41 36.5q-18 -17 -41 -27t-48 -15t-51 -6.5t-50 -1.5h-79q-14 0 -25 11t-11 25t11 24.5t25 10.5h79q25 0 53.5 1.5t53 10t40.5 26.5t16 51t-15 50.5t-38 26t-50.5 10t-52.5 1.5
h-80q-14 0 -24.5 11t-10.5 25t10.5 24.5t24.5 10.5h73q25 0 53.5 1.5t53 10t40.5 26.5t16 51t-16.5 50.5t-41 26t-53 10t-52.5 1.5q-25 0 -51.5 -2.5t-49 -12t-37 -28t-14.5 -49.5v-368q0 -34 -19 -67.5t-51 -48.5q-4 -2 -7.5 -3t-8.5 -1q-14 0 -24.5 10.5t-10.5 24.5
t8 21.5t17 15t17 18.5t8 30v368q0 48 19.5 79t51 50t71.5 26.5t81 7.5t82.5 -5.5t75 -23t54.5 -48.5t21 -82q0 -39 -14.5 -71t-47.5 -53q36 -23 50 -59t14 -77q0 -12 2 -25.5t7 -25t15 -18.5t25 -7h291q7 0 17.5 0.5t21 2.5t20 6t14.5 11q7 10 16 14t15 4q14 0 24.5 -10.5
t10.5 -24.5z" />
    <glyph glyph-name="registered" unicode="&#xae;" horiz-adv-x="861" 
d="M517 348q0 11 -7 16.5t-17 7.5t-21 2h-19h-208v-54h208h19t21 2.5t17 8.5t7 17zM587 161q0 -14 -10.5 -24.5t-24.5 -10.5q-17 0 -29 15l-76 109h-202v-89q0 -14 -11 -24.5t-25 -10.5t-24.5 10.5t-10.5 24.5v249q0 14 10.5 24.5t24.5 10.5h244q25 0 49 -4t43 -14.5
t30.5 -29.5t11.5 -49q0 -67 -62 -88l56 -79q6 -9 6 -20zM690 284q0 24 -2.5 48t-11.5 47q-16 41 -50 64.5t-76 35.5t-87 15t-82 3q-36 0 -80 -3t-85.5 -14.5t-76 -33.5t-51.5 -61q-11 -24 -14 -49.5t-3 -51.5t3 -51.5t14 -49.5q17 -39 51.5 -61t76 -33.5t85.5 -14.5t80 -3
q37 0 82 3.5t87 15.5t76 35.5t50 63.5q9 23 11.5 47t2.5 48zM761 284q0 -89 -31 -144.5t-83 -86.5t-121 -42t-145 -11t-145 11t-121.5 42t-83.5 86.5t-31 144.5t31 144.5t83.5 86.5t121.5 42t145 11t145 -11t121 -42t83 -86.5t31 -144.5z" />
    <glyph glyph-name="copyright" unicode="&#xa9;" horiz-adv-x="861" 
d="M595 198q0 -15 -13 -28q-16 -15 -39 -23.5t-48.5 -13.5t-51 -6.5t-46.5 -1.5q-41 0 -82.5 5.5t-74.5 22.5t-53.5 47.5t-20.5 81.5t20.5 81.5t53.5 47.5t74.5 22.5t82.5 5.5q21 0 46.5 -1.5t51 -6.5t48.5 -14t39 -24q13 -13 13 -27t-10.5 -24.5t-24.5 -10.5q-7 0 -12 2
t-11 6q-30 21 -67.5 25.5t-72.5 4.5q-16 0 -39 -1t-45.5 -6t-42 -14.5t-27.5 -27.5q-5 -9 -5.5 -18.5t-0.5 -19.5t0.5 -19.5t5.5 -18.5q8 -18 27.5 -27.5t42 -14.5t45.5 -6t39 -1q35 0 72.5 4.5t67.5 25.5q6 4 11 6t12 2q14 0 24.5 -10.5t10.5 -24.5zM690 284q0 24 -2.5 48
t-11.5 47q-16 41 -50 64.5t-76 35.5t-87 15t-82 3t-82 -3t-87 -15t-76.5 -35.5t-50.5 -64.5q-9 -23 -11.5 -47t-2.5 -48q0 -26 3 -51.5t14 -49.5q17 -39 51.5 -61t76 -33.5t85.5 -14.5t80 -3t79.5 3t85 14.5t76 33.5t51.5 61q11 24 14 49.5t3 51.5zM761 284
q0 -89 -31 -144.5t-83 -86.5t-121 -42t-145 -11t-145 11t-121.5 42t-83.5 86.5t-31 144.5t31 144.5t83.5 86.5t121.5 42t145 11t145 -11t121 -42t83 -86.5t31 -144.5z" />
    <glyph glyph-name="trademark" unicode="&#x2122;" horiz-adv-x="994" 
d="M384 532q0 -14 -10.5 -25t-24.5 -11h-122v-213q0 -14 -10.5 -24.5t-24.5 -10.5t-24.5 10.5t-10.5 24.5v213h-122q-14 0 -24.5 11t-10.5 25t10.5 24.5t24.5 10.5h314q14 0 24.5 -10.5t10.5 -24.5zM894 283q0 -14 -10.5 -24.5t-24.5 -10.5t-24.5 10.5t-10.5 24.5v126
q0 21 -2.5 37.5t-10 27t-21.5 16t-38 5.5t-38 -5.5t-21.5 -16t-9.5 -27t-2 -37.5v-126q0 -14 -11 -24.5t-25 -10.5t-24.5 10.5t-10.5 24.5v126q0 21 -2 37.5t-9.5 27t-21.5 16t-38 5.5t-38 -5.5t-21.5 -16t-10 -27t-2.5 -37.5v-126q0 -14 -10.5 -24.5t-24.5 -10.5
t-24.5 10.5t-10.5 24.5v130q0 71 33 112t109 41q29 0 57.5 -8t48.5 -31q20 23 49 31t58 8q76 0 109 -41t33 -112v-130z" />
    <glyph glyph-name="acute" unicode="&#xb4;" horiz-adv-x="660" 
d="M400 732q0 -5 -4 -15l-69 -144q-10 -20 -32 -20q-14 0 -24.5 10.5t-10.5 24.5q0 8 3 15l70 144q5 9 13 15t18 6q14 0 25 -11t11 -25z" />
    <glyph glyph-name="dieresis" unicode="&#xa8;" horiz-adv-x="725" 
d="M345 675q0 -17 -13 -30t-30 -13t-29.5 13t-12.5 30t12.5 29.5t29.5 12.5t30 -12.5t13 -29.5zM465 675q0 -17 -13 -30t-30 -13t-29.5 13t-12.5 30t12.5 29.5t29.5 12.5t30 -12.5t13 -29.5z" />
    <glyph glyph-name="notequal" unicode="&#x2260;" horiz-adv-x="549" 
d="M449 211q0 -14 -10.5 -25t-24.5 -11h-201l-67 -154q-10 -21 -33 -21q-14 0 -24.5 10.5t-10.5 24.5q0 8 3 14l55 126h-101q-14 0 -24.5 11t-10.5 25t10.5 24.5t24.5 10.5h132l29 65h-161q-14 0 -24.5 11t-10.5 25t10.5 24.5t24.5 10.5h192l72 164q10 22 32 22
q14 0 24.5 -11t10.5 -25q0 -8 -3 -14l-59 -136h110q14 0 24.5 -10.5t10.5 -24.5t-10.5 -25t-24.5 -11h-141l-29 -65h170q14 0 24.5 -10.5t10.5 -24.5z" />
    <glyph glyph-name="AE" unicode="&#xc6;" horiz-adv-x="1455" 
d="M658 286q0 24 -2.5 48t-11.5 47q-15 39 -47.5 62t-72 34.5t-82 14.5t-78.5 3q-34 0 -76 -3t-81.5 -14t-72 -32.5t-48.5 -58.5q-11 -24 -13.5 -49.5t-2.5 -51.5v-50h588v50zM1355 35q0 -14 -10.5 -24.5t-24.5 -10.5h-627q-14 0 -24.5 10.5t-10.5 24.5v130h-588v-130
q0 -14 -10.5 -24.5t-24.5 -10.5t-24.5 10.5t-10.5 24.5v251q0 86 29 140.5t78.5 85t115.5 42t141 11.5q36 0 76.5 -3t79.5 -12t74.5 -25t63.5 -42q0 11 -1 25.5t1.5 28t10 22.5t24.5 9h627q14 0 24.5 -11t10.5 -25t-10.5 -24.5t-24.5 -10.5h-592v-261h475q14 0 24.5 -10.5
t10.5 -24.5t-10.5 -25t-24.5 -11h-475v-95h592q14 0 24.5 -10.5t10.5 -24.5z" />
    <glyph glyph-name="Oslash" unicode="&#xd8;" horiz-adv-x="971" 
d="M476 496h-41q-38 0 -89 -2.5t-101 -13.5t-92 -33.5t-63 -62.5q-12 -23 -16 -49t-4 -52t4 -52.5t16 -49.5q13 -25 35 -42.5t49 -30t58 -20t62 -11.5zM800 283q0 24 -2.5 48t-13.5 47q-13 29 -38 49t-56.5 33t-67.5 20.5t-72 10.5l-182 -421q18 -1 35 -1h32q39 0 91 2.5
t102.5 14.5t93 35.5t62.5 65.5q11 23 13.5 47.5t2.5 48.5zM871 283q0 -62 -18.5 -112.5t-68.5 -91.5q-32 -26 -75.5 -42t-91.5 -24.5t-95.5 -11t-86.5 -2.5q-44 0 -97 3l-30 -70q-10 -21 -33 -21q-14 0 -24.5 10.5t-10.5 24.5q0 8 3 14l22 51q-51 8 -97.5 24t-80.5 44
q-50 41 -68.5 91.5t-18.5 112.5t18.5 112.5t68.5 90.5q32 26 75.5 42t91 24.5t95 11.5t86.5 3h34.5t36.5 -2l35 81q10 22 32 22q14 0 24.5 -11t10.5 -25q0 -8 -3 -14l-26 -60q58 -8 112.5 -24t92.5 -48q50 -40 68.5 -90.5t18.5 -112.5z" />
    <glyph glyph-name="infinity" unicode="&#x221e;" horiz-adv-x="818" 
d="M305 282q-12 10 -30.5 24t-38.5 27t-40 22.5t-36 9.5q-38 0 -64 -22t-26 -61t26.5 -60t63.5 -21q38 16 75.5 35.5t69.5 45.5zM647 281q0 35 -21 59.5t-58 24.5q-17 0 -38 -9t-41.5 -22t-39.5 -27.5l-32 -24.5l32.5 -25t38.5 -26.5t41 -21t39 -8.5q36 0 57.5 22t21.5 58z
M718 281q0 -32 -11 -59.5t-31 -47.5t-47.5 -31.5t-60.5 -11.5q-28 0 -56 10t-54.5 26t-51 34.5l-45.5 34.5q-19 -16 -43 -34t-50.5 -34t-54 -26.5t-53.5 -10.5q-33 0 -62.5 11t-51 30.5t-34 47.5t-12.5 62t12.5 62t34 48.5t51 31.5t62.5 11q27 0 54 -11t53.5 -27.5t50.5 -35
l43 -34.5q20 17 44.5 35.5t51.5 35t55.5 27t55.5 10.5q33 0 60.5 -12t47.5 -33t31 -49t11 -60z" />
    <glyph glyph-name="plusminus" unicode="&#xb1;" horiz-adv-x="549" 
d="M449 36q0 -14 -10.5 -25t-24.5 -11h-379q-14 0 -24.5 11t-10.5 25t10.5 24.5t24.5 10.5h379q14 0 24.5 -10.5t10.5 -24.5zM449 346q0 -14 -10.5 -25t-24.5 -11h-154v-154q0 -14 -10.5 -24.5t-24.5 -10.5t-25 10.5t-11 24.5v154h-154q-14 0 -24.5 11t-10.5 25t10.5 24.5
t24.5 10.5h154v154q0 14 11 24.5t25 10.5t24.5 -10.5t10.5 -24.5v-154h154q14 0 24.5 -10.5t10.5 -24.5z" />
    <glyph glyph-name="lessequal" unicode="&#x2264;" horiz-adv-x="550" 
d="M449 36q0 -14 -10.5 -25t-24.5 -11h-379q-14 0 -24.5 11t-10.5 25t10.5 24.5t24.5 10.5h379q14 0 24.5 -10.5t10.5 -24.5zM450 229q0 -14 -10.5 -24.5t-24.5 -10.5q-7 0 -10 1l-380 117q-11 4 -18 13.5t-7 20.5q0 25 25 33l380 117q6 2 10 2q14 0 24.5 -10.5t10.5 -24.5
q0 -11 -7 -20.5t-18 -13.5l-270 -83l270 -84q25 -8 25 -33z" />
    <glyph glyph-name="greaterequal" unicode="&#x2265;" horiz-adv-x="550" 
d="M449 36q0 -14 -10.5 -25t-24.5 -11h-379q-14 0 -24.5 11t-10.5 25t10.5 24.5t24.5 10.5h379q14 0 24.5 -10.5t10.5 -24.5zM450 346q0 -11 -7 -20.5t-18 -13.5l-380 -117q-3 -1 -10 -1q-14 0 -24.5 10.5t-10.5 24.5q0 25 25 33l270 84l-270 83q-11 4 -18 13.5t-7 20.5
q0 14 10.5 24.5t24.5 10.5q4 0 10 -2l380 -117q25 -8 25 -33z" />
    <glyph glyph-name="yen" unicode="&#xa5;" horiz-adv-x="599" 
d="M499 388q0 -52 -15.5 -87.5t-44 -58t-67.5 -33.5t-87 -14v-9h135q14 0 14 -14t-14 -14h-135v-9h135q14 0 14 -14t-14 -14h-135q0 -14 -10.5 -24.5t-24.5 -10.5t-24.5 10.5t-10.5 24.5h-135q-14 0 -14 14t14 14h134v9h-134q-14 0 -14 14t14 14h134v9q-48 3 -87 14
t-67.5 33.5t-44 58t-15.5 87.5v58q0 14 10.5 24.5t24.5 10.5t24.5 -10.5t10.5 -24.5v-58q0 -15 1.5 -30t7.5 -29q9 -22 29.5 -35t45 -19.5t50 -8t46.5 -1.5t46.5 1.5t50 8t44.5 19.5t29 35q6 14 7.5 29t1.5 30v58q0 14 10.5 24.5t24.5 10.5t24.5 -10.5t10.5 -24.5v-58z" />
    <glyph glyph-name="mu" unicode="&#xb5;" horiz-adv-x="880" 
d="M1019 73q0 -9 -4 -17q-2 -5 -6.5 -10t-8.5 -8q-24 -22 -56 -30t-64 -8h-355q-77 0 -118 63q-16 -21 -38.5 -33t-48 -19t-52.5 -9t-51 -2q-36 0 -75.5 5t-71.5 22v-140q0 -14 -10.5 -25t-24.5 -11t-24.5 11t-10.5 25v389q0 14 10.5 24.5t24.5 10.5t24.5 -10.5t10.5 -24.5
v-118v-3q0 -11 1 -20.5t6 -19.5q8 -16 25 -25t37.5 -13.5t41.5 -5.5t36 -1t36 1t41.5 5.5t37.5 13.5t25 25q5 10 6 19.5t1 20.5v91q0 10 0.5 21.5t3.5 21t10.5 15.5t21.5 6h1q14 0 21 -5.5t9.5 -14.5t2.5 -19.5v-20.5q0 -22 2.5 -53t12 -59.5t27.5 -48t49 -19.5h355
q7 0 17.5 0.5t21 2.5t20 6t14.5 11q7 10 16 14t15 4q14 0 24.5 -10.5t10.5 -24.5z" />
    <glyph glyph-name="mu" unicode="&#x3bc;" horiz-adv-x="880" 
d="M1019 73q0 -9 -4 -17q-2 -5 -6.5 -10t-8.5 -8q-24 -22 -56 -30t-64 -8h-355q-77 0 -118 63q-16 -21 -38.5 -33t-48 -19t-52.5 -9t-51 -2q-36 0 -75.5 5t-71.5 22v-140q0 -14 -10.5 -25t-24.5 -11t-24.5 11t-10.5 25v389q0 14 10.5 24.5t24.5 10.5t24.5 -10.5t10.5 -24.5
v-118v-3q0 -11 1 -20.5t6 -19.5q8 -16 25 -25t37.5 -13.5t41.5 -5.5t36 -1t36 1t41.5 5.5t37.5 13.5t25 25q5 10 6 19.5t1 20.5v91q0 10 0.5 21.5t3.5 21t10.5 15.5t21.5 6h1q14 0 21 -5.5t9.5 -14.5t2.5 -19.5v-20.5q0 -22 2.5 -53t12 -59.5t27.5 -48t49 -19.5h355
q7 0 17.5 0.5t21 2.5t20 6t14.5 11q7 10 16 14t15 4q14 0 24.5 -10.5t10.5 -24.5z" />
    <glyph glyph-name="partialdiff" unicode="&#x2202;" horiz-adv-x="627" 
d="M427 155q0 10 -1 19t-5 18q-8 17 -27 27t-41.5 14.5t-45 5.5t-38.5 1q-15 0 -37 -1t-44 -5t-41 -13t-28 -24q-6 -10 -7.5 -20.5t-1.5 -21.5t1.5 -21.5t7.5 -20.5q9 -15 28 -24t41 -13t44 -5t37 -1q16 0 38.5 1t45 5.5t41.5 14.5t27 27q4 9 5 18t1 19zM527 310
q0 -29 -2.5 -63t-9 -67.5t-18 -65t-30.5 -55.5q-2 -3 -4.5 -4.5t-4.5 -3.5q-41 -34 -89 -42.5t-100 -8.5q-40 0 -81 5t-74 21.5t-53.5 47t-20.5 81.5t20.5 81.5t53.5 47t74 22t81 5.5q23 0 48 -1.5t50 -6.5t47.5 -14.5t40.5 -25.5q1 11 1 22.5v22.5q0 55 -5.5 109.5
t-15.5 108.5v6q0 14 10.5 25t24.5 11t22.5 -8t12.5 -21q5 -14 6.5 -30.5t3.5 -30.5q12 -84 12 -168z" />
    <glyph glyph-name="summation" unicode="&#x2211;" horiz-adv-x="-8000" 
 />
    <glyph glyph-name="product" unicode="&#x220f;" horiz-adv-x="-8000" 
 />
    <glyph glyph-name="pi" unicode="&#x3c0;" horiz-adv-x="-8000" 
 />
    <glyph glyph-name="integral" unicode="&#x222b;" horiz-adv-x="-8000" 
 />
    <glyph glyph-name="ordfeminine" unicode="&#xaa;" horiz-adv-x="-8000" 
 />
    <glyph glyph-name="ordmasculine" unicode="&#xba;" horiz-adv-x="-8000" 
 />
    <glyph glyph-name="ae" unicode="&#xe6;" horiz-adv-x="-8000" 
 />
    <glyph glyph-name="oslash" unicode="&#xf8;" horiz-adv-x="863" 
d="M265 240q-16 0 -38.5 -1t-44.5 -6t-40 -14.5t-26 -26.5q-4 -9 -5 -18t-1 -19t1 -19t5 -18q9 -19 30 -28.5t47 -14.5zM427 155q0 18 -3 29.5t-16 25.5q-11 11 -29.5 17t-39.5 9l-72 -166h2q16 0 38.5 1t45 5.5t41.5 14.5t27 27q4 9 5 18t1 19zM973 276q0 -14 -10.5 -25
t-24.5 -11h-405q-14 0 -27 -1.5t-26 -6.5q10 -17 14 -37t4 -40q0 -51 -20.5 -81.5t-53.5 -47t-73.5 -21.5t-81.5 -5h-16t-16 1l-41 -94q-10 -21 -33 -21q-14 0 -24.5 10.5t-10.5 24.5q0 8 3 14l33 75q-26 6 -48.5 16.5t-39.5 27.5t-26.5 42t-9.5 59q0 51 20.5 81.5t53.5 47
t74 22t81 5.5h27l53 121q10 22 32 22q14 0 24.5 -11t10.5 -25q0 -8 -3 -14l-44 -101q15 -4 29 -8.5t28 -11.5q23 17 51 22.5t56 5.5h405q14 0 24.5 -10.5t10.5 -24.5z" />
    <glyph glyph-name="questiondown" unicode="&#xbf;" horiz-adv-x="727" 
d="M627 68q0 -11 -5 -18t-13 -13q-5 -3 -11 -5.5l-11 -4.5q-27 -11 -58.5 -18t-64.5 -10.5t-65 -4.5t-61 -1q-28 0 -64 1t-73.5 6t-73.5 15t-64.5 28.5t-45.5 46t-17 67.5q0 47 23.5 78t59.5 50t78.5 27t80.5 8q30 0 51 3.5t34.5 14t19.5 29.5t6 51q0 14 11 25t25 11
t24.5 -11t10.5 -25q0 -48 -12 -80t-35 -51.5t-57 -28t-78 -8.5q-21 0 -50.5 -4t-56.5 -14t-45.5 -28t-18.5 -47q0 -10 2 -18t7 -16q15 -21 49 -33t73 -18t76.5 -7t59.5 -1q28 0 59 1t62 4.5t61 10.5t55 19q8 4 17 4q14 0 24.5 -10.5t10.5 -24.5zM429 525q0 -17 -12.5 -29.5
t-29.5 -12.5t-30 12.5t-13 29.5t13 29.5t30 12.5t29.5 -12.5t12.5 -29.5z" />
    <glyph glyph-name="exclamdown" unicode="&#xa1;" horiz-adv-x="185" 
d="M80 29q0 -14 -10.5 -25t-24.5 -11t-25 11t-11 25v390q0 14 11 24.5t25 10.5t24.5 -10.5t10.5 -24.5v-390zM85 526q0 -17 -12.5 -29.5t-29.5 -12.5t-30 12.5t-13 29.5t13 29.5t30 12.5t29.5 -12.5t12.5 -29.5z" />
    <glyph glyph-name="logicalnot" unicode="&#xac;" horiz-adv-x="592" 
d="M492 181q0 -14 -10.5 -25t-24.5 -11t-24.5 11t-10.5 25v142h-387q-14 0 -24.5 10.5t-10.5 24.5t10.5 24.5t24.5 10.5h422q14 0 24.5 -10.5t10.5 -24.5v-177z" />
    <glyph glyph-name="radical" unicode="&#x221a;" horiz-adv-x="-8000" 
 />
    <glyph glyph-name="florin" unicode="&#x192;" horiz-adv-x="-8000" 
 />
    <glyph glyph-name="approxequal" unicode="&#x2248;" horiz-adv-x="-8000" 
 />
    <glyph glyph-name="Delta" unicode="&#x394;" horiz-adv-x="-8000" 
 />
    <glyph glyph-name="Delta" unicode="&#x2206;" horiz-adv-x="-8000" 
 />
    <glyph glyph-name="guillemotleft" unicode="&#xab;" horiz-adv-x="376" 
d="M140 131q0 -14 -11 -24.5t-25 -10.5q-21 0 -31 20l-70 144q-3 8 -3 16t3 15l70 144q10 20 31 20q14 0 25 -10.5t11 -24.5q0 -5 -4 -15l-62 -129l62 -130q4 -10 4 -15zM276 131q0 -14 -11 -24.5t-25 -10.5q-21 0 -31 20l-70 144q-3 8 -3 16t3 15l70 144q10 20 31 20
q14 0 25 -10.5t11 -24.5q0 -5 -4 -15l-62 -129l62 -130q4 -10 4 -15z" />
    <glyph glyph-name="guillemotright" unicode="&#xbb;" horiz-adv-x="376" 
d="M140 276q0 -8 -3 -16l-70 -144q-10 -20 -31 -20q-14 0 -25 10.5t-11 24.5q0 5 4 15l62 130l-62 129q-4 10 -4 15q0 14 11 24.5t25 10.5q21 0 31 -20l70 -144q3 -7 3 -15zM276 276q0 -8 -3 -16l-70 -144q-10 -20 -31 -20q-14 0 -25 10.5t-11 24.5q0 5 4 15l62 130l-62 129
q-4 10 -4 15q0 14 11 24.5t25 10.5q21 0 31 -20l70 -144q3 -7 3 -15z" />
    <glyph glyph-name="ellipsis" unicode="&#x2026;" horiz-adv-x="485" 
d="M85 35q0 -17 -13 -29.5t-30 -12.5t-29.5 12.5t-12.5 29.5t12.5 29.5t29.5 12.5t30 -12.5t13 -29.5zM235 35q0 -17 -13 -29.5t-30 -12.5t-29.5 12.5t-12.5 29.5t12.5 29.5t29.5 12.5t30 -12.5t13 -29.5zM385 35q0 -17 -13 -29.5t-30 -12.5t-29.5 12.5t-12.5 29.5
t12.5 29.5t29.5 12.5t30 -12.5t13 -29.5z" />
    <glyph glyph-name="nonbreakingspace" unicode="&#xa0;" horiz-adv-x="-8000" 
 />
    <glyph glyph-name="Agrave" unicode="&#xc0;" 
d="M658 289q0 24 -2.5 48t-11.5 47q-15 39 -47.5 62t-72 34t-82 14t-78.5 3q-34 0 -76 -3t-81.5 -14t-72 -32.5t-48.5 -58.5q-11 -24 -13.5 -49t-2.5 -51v-53h588v53zM728 35q0 -14 -10.5 -24.5t-24.5 -10.5t-24.5 10.5t-10.5 24.5v130h-588v-130q0 -14 -10.5 -24.5
t-24.5 -10.5t-24.5 10.5t-10.5 24.5v254q0 86 29 140.5t78.5 85t115.5 42t141 11.5t141 -11.5t115.5 -42t78.5 -85t29 -140.5v-254zM400 658q0 -14 -10.5 -24.5t-24.5 -10.5q-22 0 -32 20l-69 144q-4 10 -4 15q0 14 11 25t25 11q10 0 18 -6t13 -15l70 -144q3 -7 3 -15z" />
    <glyph glyph-name="Atilde" unicode="&#xc3;" 
d="M560 742q0 -18 -15 -29l-107 -73q-9 -6 -20 -6q-10 0 -19 6l-87 59l-87 -59q-9 -6 -20 -6q-14 0 -24.5 10.5t-10.5 24.5q0 20 15 30l107 72q9 6 20 6t20 -6l86 -59l87 59q9 6 20 6q14 0 24.5 -10.5t10.5 -24.5zM658 289q0 24 -2.5 48t-11.5 47q-15 39 -47.5 62t-72 34
t-82 14t-78.5 3q-34 0 -76 -3t-81.5 -14t-72 -32.5t-48.5 -58.5q-11 -24 -13.5 -49t-2.5 -51v-53h588v53zM728 35q0 -14 -10.5 -24.5t-24.5 -10.5t-24.5 10.5t-10.5 24.5v130h-588v-130q0 -14 -10.5 -24.5t-24.5 -10.5t-24.5 10.5t-10.5 24.5v254q0 86 29 140.5t78.5 85
t115.5 42t141 11.5t141 -11.5t115.5 -42t78.5 -85t29 -140.5v-254z" />
    <glyph glyph-name="Otilde" unicode="&#xd5;" horiz-adv-x="951" 
d="M800 283q0 24 -2.5 48t-13.5 47q-20 42 -62.5 65.5t-93 35.5t-102.5 14.5t-91 2.5q-38 0 -89 -2.5t-101 -13.5t-92 -33.5t-63 -62.5q-12 -23 -16 -49t-4 -52t4 -52.5t16 -49.5q21 -40 63 -62.5t92 -33.5t101 -13.5t89 -2.5q39 0 91 2.5t102.5 14.5t93 35.5t62.5 65.5
q11 23 13.5 47.5t2.5 48.5zM871 283q0 -62 -18.5 -112.5t-68.5 -91.5q-32 -26 -75.5 -42t-91.5 -24.5t-95.5 -11t-86.5 -2.5t-86.5 2.5t-95 11t-91 24.5t-75.5 42q-50 41 -68.5 91.5t-18.5 112.5t18.5 112.5t68.5 90.5q32 26 75.5 42t91 24.5t95 11.5t86.5 3t86.5 -3
t95.5 -11.5t91.5 -24.5t75.5 -42q50 -40 68.5 -90.5t18.5 -112.5zM641 742q0 -18 -15 -29l-107 -73q-9 -6 -20 -6q-10 0 -19 6l-87 59l-87 -59q-9 -6 -20 -6q-14 0 -24.5 10.5t-10.5 24.5q0 20 15 30l107 72q9 6 20 6t20 -6l86 -59l87 59q9 6 20 6q14 0 24.5 -10.5
t10.5 -24.5z" />
    <glyph glyph-name="OE" unicode="&#x152;" horiz-adv-x="1596" 
d="M798 283q0 26 -4 52t-16 49q-21 39 -63 61.5t-92 34t-100.5 14t-88.5 2.5t-88.5 -2.5t-100.5 -14t-92 -34t-63 -61.5q-12 -23 -16 -49t-4 -52t4 -52t16 -49q21 -39 63 -61.5t92 -34t100.5 -14t88.5 -2.5q36 0 84 2.5t95.5 12t89 28.5t65.5 52q-11 0 -25.5 -0.5t-28 2
t-22.5 10t-9 24.5q0 14 10.5 24.5t24.5 10.5h77q3 24 3 47zM1496 35q0 -14 -10.5 -24.5t-24.5 -10.5h-627q-14 0 -24.5 10.5t-10.5 24.5v59q-33 -31 -78 -50t-94.5 -28.5t-99.5 -12.5t-93 -3q-40 0 -87 2.5t-93.5 11t-90 24.5t-76.5 42q-50 39 -68.5 90.5t-18.5 112.5
t18.5 112.5t68.5 90.5q33 26 76.5 42t90 24.5t93.5 11t87 2.5q43 0 93 -3t99.5 -12.5t94.5 -28t78 -50.5v60q0 14 10.5 25t24.5 11h627q14 0 24.5 -11t10.5 -25t-10.5 -24.5t-24.5 -10.5h-592v-261h476q14 0 24.5 -10.5t10.5 -24.5t-10.5 -25t-24.5 -11h-476v-95h592
q14 0 24.5 -10.5t10.5 -24.5z" />
    <glyph glyph-name="oe" unicode="&#x153;" horiz-adv-x="-8000" 
 />
    <glyph glyph-name="endash" unicode="&#x2013;" horiz-adv-x="429" 
d="M329 276q0 -14 -10.5 -25t-24.5 -11h-259q-14 0 -24.5 11t-10.5 25t10.5 24.5t24.5 10.5h259q14 0 24.5 -10.5t10.5 -24.5z" />
    <glyph glyph-name="emdash" unicode="&#x2014;" horiz-adv-x="649" 
d="M549 276q0 -14 -10.5 -25t-24.5 -11h-479q-14 0 -24.5 11t-10.5 25t10.5 24.5t24.5 10.5h479q14 0 24.5 -10.5t10.5 -24.5z" />
    <glyph glyph-name="quotedblleft" unicode="&#x201c;" horiz-adv-x="376" 
d="M140 532q0 -5 -4 -15l-69 -144q-10 -20 -32 -20q-14 0 -24.5 10.5t-10.5 24.5q0 8 3 15l70 144q5 9 13 15t18 6q14 0 25 -11t11 -25zM276 532q0 -5 -4 -15l-69 -144q-10 -20 -32 -20q-14 0 -24.5 10.5t-10.5 24.5q0 8 3 15l70 144q5 9 13 15t18 6q14 0 25 -11t11 -25z
" />
    <glyph glyph-name="quotedblright" unicode="&#x201d;" horiz-adv-x="376" 
d="M140 532q0 -5 -4 -15l-69 -144q-10 -20 -32 -20q-14 0 -24.5 10.5t-10.5 24.5q0 8 3 15l70 144q5 9 13 15t18 6q14 0 25 -11t11 -25zM276 532q0 -5 -4 -15l-69 -144q-10 -20 -32 -20q-14 0 -24.5 10.5t-10.5 24.5q0 8 3 15l70 144q5 9 13 15t18 6q14 0 25 -11t11 -25z
" />
    <glyph glyph-name="quoteleft" unicode="&#x2018;" horiz-adv-x="240" 
d="M140 532q0 -5 -4 -15l-69 -144q-10 -20 -32 -20q-14 0 -24.5 10.5t-10.5 24.5q0 8 3 15l70 144q5 9 13 15t18 6q14 0 25 -11t11 -25z" />
    <glyph glyph-name="quoteright" unicode="&#x2019;" horiz-adv-x="240" 
d="M140 532q0 -5 -4 -15l-69 -144q-10 -20 -32 -20q-14 0 -24.5 10.5t-10.5 24.5q0 8 3 15l70 144q5 9 13 15t18 6q14 0 25 -11t11 -25z" />
    <glyph glyph-name="divide" unicode="&#xf7;" horiz-adv-x="549" 
d="M267 155q0 -17 -12.5 -29.5t-29.5 -12.5t-30 12.5t-13 29.5t13 30t30 13t29.5 -13t12.5 -30zM449 276q0 -14 -10.5 -25t-24.5 -11h-379q-14 0 -24.5 11t-10.5 25t10.5 24.5t24.5 10.5h379q14 0 24.5 -10.5t10.5 -24.5zM267 396q0 -17 -12.5 -29.5t-29.5 -12.5t-30 12.5
t-13 29.5t13 29.5t30 12.5t29.5 -12.5t12.5 -29.5z" />
    <glyph glyph-name="lozenge" unicode="&#x25ca;" horiz-adv-x="-8000" 
 />
    <glyph glyph-name="ydieresis" unicode="&#xff;" horiz-adv-x="867" 
d="M1006 73q0 -9 -4 -17q-2 -5 -6.5 -10t-8.5 -8q-24 -22 -56 -30t-64 -8h-339q-28 0 -49 10q-1 -35 -3 -91.5t-9.5 -120t-21.5 -128t-39 -116.5t-62 -84.5t-90 -32.5q-43 0 -78.5 22t-61 56t-39.5 75.5t-14 80.5q0 41 23.5 80.5t58 73t75 61t73.5 44.5q7 4 17 4
q14 0 24.5 -10.5t10.5 -24.5q0 -20 -18 -31l-27 -15.5t-27 -16.5q-18 -12 -42 -30t-45.5 -40t-37 -46.5t-15.5 -48.5t9 -52t25 -53t39 -41.5t50 -16.5q37 0 62.5 32.5t42.5 83t26.5 112t14.5 119.5t6.5 105.5t1.5 69.5q-33 -19 -73.5 -24.5t-77.5 -5.5q-41 0 -80 6
t-69.5 22.5t-49 47t-18.5 79.5v121q0 14 10.5 24.5t24.5 10.5t24.5 -10.5t10.5 -24.5v-121q0 -11 1.5 -21t6.5 -20q8 -16 25.5 -24.5t37.5 -13t40.5 -5.5t35.5 -1t35.5 1t41 5.5t38 13t25.5 24.5q5 10 6 20t1 21v96q0 11 -1 22t-1 22q0 15 10 25t25 10t24 -9.5t11 -23.5
q2 -11 2 -23t1 -23q2 -29 2 -56.5t1 -56.5q3 -19 10 -34q6 -13 15.5 -23.5t24.5 -10.5h339q7 0 17.5 0.5t21 2.5t20 6t14.5 11q7 10 16 14t15 4q14 0 24.5 -10.5t10.5 -24.5zM246 436q0 -17 -13 -30t-30 -13t-29.5 13t-12.5 30t12.5 29.5t29.5 12.5t30 -12.5t13 -29.5z
M366 436q0 -17 -13 -30t-30 -13t-29.5 13t-12.5 30t12.5 29.5t29.5 12.5t30 -12.5t13 -29.5z" />
    <glyph glyph-name="Ydieresis" unicode="&#x178;" 
d="M345 675q0 -17 -13 -30t-30 -13t-29.5 13t-12.5 30t12.5 29.5t29.5 12.5t30 -12.5t13 -29.5zM465 675q0 -17 -13 -30t-30 -13t-29.5 13t-12.5 30t12.5 29.5t29.5 12.5t30 -12.5t13 -29.5zM728 444q0 -79 -24.5 -131.5t-68.5 -84t-104.5 -45.5t-131.5 -17v-131
q0 -14 -10.5 -24.5t-24.5 -10.5t-24.5 10.5t-10.5 24.5v131q-71 3 -131.5 17t-104.5 45.5t-68.5 84t-24.5 131.5v88q0 14 10.5 25t24.5 11t24.5 -11t10.5 -25v-88q0 -25 2.5 -50t12.5 -48q16 -38 48.5 -60t72 -33t81.5 -14t77 -3t77 3t81.5 14t72 33t48.5 60q10 23 12.5 48
t2.5 50v88q0 14 10.5 25t24.5 11t24.5 -11t10.5 -25v-88z" />
    <glyph glyph-name="fraction" unicode="&#x2044;" horiz-adv-x="530" 
d="M430 532q0 -9 -7 -20l-359 -498q-11 -14 -29 -14q-14 0 -24.5 10.5t-10.5 24.5q0 11 7 21l359 497q12 15 29 15q14 0 24.5 -11t10.5 -25z" />
    <glyph glyph-name="guilsinglleft" unicode="&#x2039;" horiz-adv-x="240" 
d="M140 131q0 -14 -11 -24.5t-25 -10.5q-21 0 -31 20l-70 144q-3 8 -3 16t3 15l70 144q10 20 31 20q14 0 25 -10.5t11 -24.5q0 -5 -4 -15l-62 -129l62 -130q4 -10 4 -15z" />
    <glyph glyph-name="guilsinglright" unicode="&#x203a;" horiz-adv-x="240" 
d="M140 276q0 -8 -3 -16l-70 -144q-10 -20 -31 -20q-14 0 -25 10.5t-11 24.5q0 5 4 15l62 130l-62 129q-4 10 -4 15q0 14 11 24.5t25 10.5q21 0 31 -20l70 -144q3 -7 3 -15z" />
    <glyph glyph-name="daggerdbl" unicode="&#x2021;" horiz-adv-x="359" 
d="M259 438q0 -14 -11 -24.5t-25 -10.5h-58v-247h50q14 0 25 -10.5t11 -24.5t-11 -24.5t-25 -10.5h-50v-51q0 -14 -11 -24.5t-25 -10.5t-24.5 10.5t-10.5 24.5v51h-51q-14 0 -24.5 10.5t-10.5 24.5t10.5 24.5t24.5 10.5h51v247h-59q-14 0 -24.5 10.5t-10.5 24.5t10.5 24.5
t24.5 10.5h59v59q0 14 10.5 25t24.5 11t25 -11t11 -25v-59h58q14 0 25 -10.5t11 -24.5z" />
    <glyph glyph-name="periodcentered" unicode="&#xb7;" horiz-adv-x="185" 
d="M85 305q0 -17 -13 -30t-30 -13t-29.5 13t-12.5 30t12.5 29.5t29.5 12.5t30 -12.5t13 -29.5z" />
    <glyph glyph-name="quotesinglbase" unicode="&#x201a;" horiz-adv-x="240" 
d="M140 35q0 -5 -4 -15l-69 -145q-10 -20 -32 -20q-14 0 -24.5 10.5t-10.5 24.5q0 8 3 16l70 144q10 20 31 20q14 0 25 -10.5t11 -24.5z" />
    <glyph glyph-name="quotedblbase" unicode="&#x201e;" horiz-adv-x="380" 
d="M140 35q0 -5 -4 -15l-69 -145q-10 -20 -32 -20q-14 0 -24.5 10.5t-10.5 24.5q0 8 3 16l70 144q10 20 31 20q14 0 25 -10.5t11 -24.5zM280 35q0 -5 -4 -15l-69 -145q-10 -20 -32 -20q-14 0 -24.5 10.5t-10.5 24.5q0 8 3 16l70 144q10 20 31 20q14 0 25 -10.5t11 -24.5z
" />
    <glyph glyph-name="perthousand" unicode="&#x2030;" horiz-adv-x="1382" 
d="M321 412q0 11 -0.5 21.5t-5.5 21.5q-7 15 -21.5 23t-31.5 12.5t-34.5 5.5t-31.5 1t-32.5 -1t-36 -5.5t-32 -13.5t-20.5 -26q-4 -9 -4.5 -19t-0.5 -20t0.5 -20t4.5 -19q6 -16 20.5 -25.5t32 -14t36 -5.5t32.5 -1t31.5 1t34.5 5t31.5 12t21.5 23q5 11 5.5 22t0.5 22z
M801 155v20t-4 19q-6 17 -20.5 26t-32 13.5t-36 5.5t-32.5 1t-32.5 -1t-36 -5.5t-32 -13.5t-20.5 -26q-4 -9 -4 -19v-20q0 -11 0.5 -21.5t5.5 -21.5q7 -15 21.5 -23t31.5 -12.5t34.5 -5.5t31.5 -1t31.5 1t34.5 5.5t31.5 12.5t21.5 23q5 11 5.5 21.5t0.5 21.5zM1211 155v20
t-4 19q-6 17 -20.5 26t-32 13.5t-36 5.5t-32.5 1t-32.5 -1t-36 -5.5t-32 -13.5t-20.5 -26q-4 -9 -4 -19v-20q0 -11 0.5 -21.5t5.5 -21.5q7 -15 21.5 -23t31.5 -12.5t34.5 -5.5t31.5 -1t31.5 1t34.5 5.5t31.5 12.5t21.5 23q5 11 5.5 21.5t0.5 21.5zM785 532q0 -15 -14 -27
l-626 -498q-8 -7 -22 -7t-25 10.5t-11 24.5q0 16 14 28l547 434h-213q-14 0 -29 -2t-29 -8q8 -17 11.5 -36t3.5 -39q0 -46 -15.5 -76.5t-42 -48t-62 -24.5t-76.5 -7t-76.5 7t-62 24.5t-42 48t-15.5 76.5q0 47 15.5 77t42 47.5t62 24.5t76.5 7q33 0 68 -5.5t64 -22.5
q23 16 51 22t56 6h314q14 0 25 -11t11 -25zM872 155q0 -46 -15.5 -76.5t-42 -47.5t-62 -24t-76.5 -7t-76.5 7t-62 24t-42 47.5t-15.5 76.5q0 47 15.5 77t42 47.5t62 24.5t76.5 7t76.5 -7t62 -24.5t42 -47.5t15.5 -77zM1282 155q0 -46 -15.5 -76.5t-42 -47.5t-62 -24
t-76.5 -7t-76.5 7t-62 24t-42 47.5t-15.5 76.5q0 47 15.5 77t42 47.5t62 24.5t76.5 7t76.5 -7t62 -24.5t42 -47.5t15.5 -77z" />
    <glyph glyph-name="Acircumflex" unicode="&#xc2;" 
d="M658 289q0 24 -2.5 48t-11.5 47q-15 39 -47.5 62t-72 34t-82 14t-78.5 3q-34 0 -76 -3t-81.5 -14t-72 -32.5t-48.5 -58.5q-11 -24 -13.5 -49t-2.5 -51v-53h588v53zM728 35q0 -14 -10.5 -24.5t-24.5 -10.5t-24.5 10.5t-10.5 24.5v130h-588v-130q0 -14 -10.5 -24.5
t-24.5 -10.5t-24.5 10.5t-10.5 24.5v254q0 86 29 140.5t78.5 85t115.5 42t141 11.5t141 -11.5t115.5 -42t78.5 -85t29 -140.5v-254zM495 646q0 -14 -10.5 -25t-24.5 -11q-12 0 -22 8l-75 60l-75 -60q-10 -8 -22 -8q-14 0 -24.5 11t-10.5 25q0 16 13 27l97 78q10 8 22 8
t22 -8l97 -78q13 -11 13 -27z" />
    <glyph glyph-name="Ecircumflex" unicode="&#xca;" horiz-adv-x="843" 
d="M494 646q0 -14 -10.5 -25t-24.5 -11q-12 0 -22 8l-75 60l-75 -60q-10 -8 -22 -8q-14 0 -24.5 11t-10.5 25q0 16 13 27l97 78q10 8 22 8t22 -8l97 -78q13 -11 13 -27zM743 35q0 -14 -10.5 -24.5t-24.5 -10.5h-626q-14 0 -25 10.5t-11 24.5v130h-81q-14 0 -24.5 11
t-10.5 25t10.5 24.5t24.5 10.5h81v296q0 14 11 25t25 11h626q14 0 24.5 -11t10.5 -25t-10.5 -24.5t-24.5 -10.5h-591v-261h475q14 0 24.5 -10.5t10.5 -24.5t-10.5 -25t-24.5 -11h-475v-95h591q14 0 24.5 -10.5t10.5 -24.5z" />
    <glyph glyph-name="Aacute" unicode="&#xc1;" 
d="M658 289q0 24 -2.5 48t-11.5 47q-15 39 -47.5 62t-72 34t-82 14t-78.5 3q-34 0 -76 -3t-81.5 -14t-72 -32.5t-48.5 -58.5q-11 -24 -13.5 -49t-2.5 -51v-53h588v53zM728 35q0 -14 -10.5 -24.5t-24.5 -10.5t-24.5 10.5t-10.5 24.5v130h-588v-130q0 -14 -10.5 -24.5
t-24.5 -10.5t-24.5 10.5t-10.5 24.5v254q0 86 29 140.5t78.5 85t115.5 42t141 11.5t141 -11.5t115.5 -42t78.5 -85t29 -140.5v-254zM470 792q0 -5 -4 -15l-69 -144q-10 -20 -32 -20q-14 0 -24.5 10.5t-10.5 24.5q0 8 3 15l70 144q5 9 13 15t18 6q14 0 25 -11t11 -25z" />
    <glyph glyph-name="Edieresis" unicode="&#xcb;" horiz-adv-x="843" 
d="M743 35q0 -14 -10.5 -24.5t-24.5 -10.5h-626q-14 0 -25 10.5t-11 24.5v130h-81q-14 0 -24.5 11t-10.5 25t10.5 24.5t24.5 10.5h81v296q0 14 11 25t25 11h626q14 0 24.5 -11t10.5 -25t-10.5 -24.5t-24.5 -10.5h-591v-261h475q14 0 24.5 -10.5t10.5 -24.5t-10.5 -25
t-24.5 -11h-475v-95h591q14 0 24.5 -10.5t10.5 -24.5zM355 675q0 -17 -13 -30t-30 -13t-29.5 13t-12.5 30t12.5 29.5t29.5 12.5t30 -12.5t13 -29.5zM475 675q0 -17 -13 -30t-30 -13t-29.5 13t-12.5 30t12.5 29.5t29.5 12.5t30 -12.5t13 -29.5z" />
    <glyph glyph-name="Egrave" unicode="&#xc8;" horiz-adv-x="843" 
d="M410 658q0 -14 -10.5 -24.5t-24.5 -10.5q-22 0 -32 20l-69 144q-4 10 -4 15q0 14 11 25t25 11q10 0 18 -6t13 -15l70 -144q3 -7 3 -15zM743 35q0 -14 -10.5 -24.5t-24.5 -10.5h-626q-14 0 -25 10.5t-11 24.5v130h-81q-14 0 -24.5 11t-10.5 25t10.5 24.5t24.5 10.5h81v296
q0 14 11 25t25 11h626q14 0 24.5 -11t10.5 -25t-10.5 -24.5t-24.5 -10.5h-591v-261h475q14 0 24.5 -10.5t10.5 -24.5t-10.5 -25t-24.5 -11h-475v-95h591q14 0 24.5 -10.5t10.5 -24.5z" />
    <glyph glyph-name="Iacute" unicode="&#xcd;" horiz-adv-x="549" 
d="M449 35q0 -14 -10.5 -24.5t-24.5 -10.5h-379q-14 0 -24.5 10.5t-10.5 24.5t10.5 24.5t24.5 10.5h154v427h-154q-14 0 -24.5 10.5t-10.5 24.5t10.5 25t24.5 11h379q14 0 24.5 -11t10.5 -25t-10.5 -24.5t-24.5 -10.5h-154v-427h154q14 0 24.5 -10.5t10.5 -24.5zM331 792
q0 -5 -4 -15l-69 -144q-10 -20 -32 -20q-14 0 -24.5 10.5t-10.5 24.5q0 8 3 15l70 144q5 9 13 15t18 6q14 0 25 -11t11 -25z" />
    <glyph glyph-name="Icircumflex" unicode="&#xce;" horiz-adv-x="549" 
d="M354 646q0 -14 -10.5 -25t-24.5 -11q-12 0 -22 8l-75 60l-75 -60q-10 -8 -22 -8q-14 0 -24.5 11t-10.5 25q0 16 13 27l97 78q10 8 22 8t22 -8l97 -78q13 -11 13 -27zM449 35q0 -14 -10.5 -24.5t-24.5 -10.5h-379q-14 0 -24.5 10.5t-10.5 24.5t10.5 24.5t24.5 10.5h154
v427h-154q-14 0 -24.5 10.5t-10.5 24.5t10.5 25t24.5 11h379q14 0 24.5 -11t10.5 -25t-10.5 -24.5t-24.5 -10.5h-154v-427h154q14 0 24.5 -10.5t10.5 -24.5z" />
    <glyph glyph-name="Idieresis" unicode="&#xcf;" horiz-adv-x="549" 
d="M449 35q0 -14 -10.5 -24.5t-24.5 -10.5h-379q-14 0 -24.5 10.5t-10.5 24.5t10.5 24.5t24.5 10.5h154v427h-154q-14 0 -24.5 10.5t-10.5 24.5t10.5 25t24.5 11h379q14 0 24.5 -11t10.5 -25t-10.5 -24.5t-24.5 -10.5h-154v-427h154q14 0 24.5 -10.5t10.5 -24.5zM206 675
q0 -17 -13 -30t-30 -13t-29.5 13t-12.5 30t12.5 29.5t29.5 12.5t30 -12.5t13 -29.5zM326 675q0 -17 -13 -30t-30 -13t-29.5 13t-12.5 30t12.5 29.5t29.5 12.5t30 -12.5t13 -29.5z" />
    <glyph glyph-name="Igrave" unicode="&#xcc;" horiz-adv-x="549" 
d="M260 658q0 -14 -10.5 -24.5t-24.5 -10.5q-22 0 -32 20l-69 144q-4 10 -4 15q0 14 11 25t25 11q10 0 18 -6t13 -15l70 -144q3 -7 3 -15zM449 35q0 -14 -10.5 -24.5t-24.5 -10.5h-379q-14 0 -24.5 10.5t-10.5 24.5t10.5 24.5t24.5 10.5h154v427h-154q-14 0 -24.5 10.5
t-10.5 24.5t10.5 25t24.5 11h379q14 0 24.5 -11t10.5 -25t-10.5 -24.5t-24.5 -10.5h-154v-427h154q14 0 24.5 -10.5t10.5 -24.5z" />
    <glyph glyph-name="Oacute" unicode="&#xd3;" horiz-adv-x="951" 
d="M800 283q0 24 -2.5 48t-13.5 47q-20 42 -62.5 65.5t-93 35.5t-102.5 14.5t-91 2.5q-38 0 -89 -2.5t-101 -13.5t-92 -33.5t-63 -62.5q-12 -23 -16 -49t-4 -52t4 -52.5t16 -49.5q21 -40 63 -62.5t92 -33.5t101 -13.5t89 -2.5q39 0 91 2.5t102.5 14.5t93 35.5t62.5 65.5
q11 23 13.5 47.5t2.5 48.5zM871 283q0 -62 -18.5 -112.5t-68.5 -91.5q-32 -26 -75.5 -42t-91.5 -24.5t-95.5 -11t-86.5 -2.5t-86.5 2.5t-95 11t-91 24.5t-75.5 42q-50 41 -68.5 91.5t-18.5 112.5t18.5 112.5t68.5 90.5q32 26 75.5 42t91 24.5t95 11.5t86.5 3t86.5 -3
t95.5 -11.5t91.5 -24.5t75.5 -42q50 -40 68.5 -90.5t18.5 -112.5zM520 792q0 -5 -4 -15l-69 -144q-10 -20 -32 -20q-14 0 -24.5 10.5t-10.5 24.5q0 8 3 15l70 144q5 9 13 15t18 6q14 0 25 -11t11 -25z" />
    <glyph glyph-name="Ocircumflex" unicode="&#xd4;" horiz-adv-x="951" 
d="M574 646q0 -14 -10.5 -25t-24.5 -11q-12 0 -22 8l-75 60l-75 -60q-10 -8 -22 -8q-14 0 -24.5 11t-10.5 25q0 16 13 27l97 78q10 8 22 8t22 -8l97 -78q13 -11 13 -27zM800 283q0 24 -2.5 48t-13.5 47q-20 42 -62.5 65.5t-93 35.5t-102.5 14.5t-91 2.5q-38 0 -89 -2.5
t-101 -13.5t-92 -33.5t-63 -62.5q-12 -23 -16 -49t-4 -52t4 -52.5t16 -49.5q21 -40 63 -62.5t92 -33.5t101 -13.5t89 -2.5q39 0 91 2.5t102.5 14.5t93 35.5t62.5 65.5q11 23 13.5 47.5t2.5 48.5zM871 283q0 -62 -18.5 -112.5t-68.5 -91.5q-32 -26 -75.5 -42t-91.5 -24.5
t-95.5 -11t-86.5 -2.5t-86.5 2.5t-95 11t-91 24.5t-75.5 42q-50 41 -68.5 91.5t-18.5 112.5t18.5 112.5t68.5 90.5q32 26 75.5 42t91 24.5t95 11.5t86.5 3t86.5 -3t95.5 -11.5t91.5 -24.5t75.5 -42q50 -40 68.5 -90.5t18.5 -112.5z" />
    <glyph glyph-name="Ograve" unicode="&#xd2;" horiz-adv-x="951" 
d="M800 283q0 24 -2.5 48t-13.5 47q-20 42 -62.5 65.5t-93 35.5t-102.5 14.5t-91 2.5q-38 0 -89 -2.5t-101 -13.5t-92 -33.5t-63 -62.5q-12 -23 -16 -49t-4 -52t4 -52.5t16 -49.5q21 -40 63 -62.5t92 -33.5t101 -13.5t89 -2.5q39 0 91 2.5t102.5 14.5t93 35.5t62.5 65.5
q11 23 13.5 47.5t2.5 48.5zM871 283q0 -62 -18.5 -112.5t-68.5 -91.5q-32 -26 -75.5 -42t-91.5 -24.5t-95.5 -11t-86.5 -2.5t-86.5 2.5t-95 11t-91 24.5t-75.5 42q-50 41 -68.5 91.5t-18.5 112.5t18.5 112.5t68.5 90.5q32 26 75.5 42t91 24.5t95 11.5t86.5 3t86.5 -3
t95.5 -11.5t91.5 -24.5t75.5 -42q50 -40 68.5 -90.5t18.5 -112.5zM480 658q0 -14 -10.5 -24.5t-24.5 -10.5q-22 0 -32 20l-69 144q-4 10 -4 15q0 14 11 25t25 11q10 0 18 -6t13 -15l70 -144q3 -7 3 -15z" />
    <glyph glyph-name="Uacute" unicode="&#xda;" 
d="M728 279q0 -86 -29 -140.5t-78.5 -85t-115.5 -42t-141 -11.5t-141 11.5t-115.5 42t-78.5 85t-29 140.5v253q0 14 10.5 25t24.5 11t24.5 -11t10.5 -25v-253q0 -25 3 -50t12 -48q15 -38 47.5 -60t72.5 -33.5t82 -14.5t77 -3t77 3t82 14.5t72.5 33.5t47.5 60q9 23 12 48
t3 50v253q0 14 10.5 25t24.5 11t24.5 -11t10.5 -25v-253zM470 792q0 -5 -4 -15l-69 -144q-10 -20 -32 -20q-14 0 -24.5 10.5t-10.5 24.5q0 8 3 15l70 144q5 9 13 15t18 6q14 0 25 -11t11 -25z" />
    <glyph glyph-name="Ucircumflex" unicode="&#xdb;" 
d="M494 646q0 -14 -10.5 -25t-24.5 -11q-12 0 -22 8l-75 60l-75 -60q-10 -8 -22 -8q-14 0 -24.5 11t-10.5 25q0 16 13 27l97 78q10 8 22 8t22 -8l97 -78q13 -11 13 -27zM728 279q0 -86 -29 -140.5t-78.5 -85t-115.5 -42t-141 -11.5t-141 11.5t-115.5 42t-78.5 85t-29 140.5
v253q0 14 10.5 25t24.5 11t24.5 -11t10.5 -25v-253q0 -25 3 -50t12 -48q15 -38 47.5 -60t72.5 -33.5t82 -14.5t77 -3t77 3t82 14.5t72.5 33.5t47.5 60q9 23 12 48t3 50v253q0 14 10.5 25t24.5 11t24.5 -11t10.5 -25v-253z" />
    <glyph glyph-name="Ugrave" unicode="&#xd9;" 
d="M728 279q0 -86 -29 -140.5t-78.5 -85t-115.5 -42t-141 -11.5t-141 11.5t-115.5 42t-78.5 85t-29 140.5v253q0 14 10.5 25t24.5 11t24.5 -11t10.5 -25v-253q0 -25 3 -50t12 -48q15 -38 47.5 -60t72.5 -33.5t82 -14.5t77 -3t77 3t82 14.5t72.5 33.5t47.5 60q9 23 12 48
t3 50v253q0 14 10.5 25t24.5 11t24.5 -11t10.5 -25v-253zM430 658q0 -14 -10.5 -24.5t-24.5 -10.5q-22 0 -32 20l-69 144q-4 10 -4 15q0 14 11 25t25 11q10 0 18 -6t13 -15l70 -144q3 -7 3 -15z" />
    <glyph glyph-name="dotlessi" unicode="&#x131;" horiz-adv-x="674" 
d="M813 73q0 -9 -4 -17q-2 -5 -6.5 -10t-8.5 -8q-24 -22 -56 -30t-64 -8h-320q-62 0 -110 26t-78 80q-23 -51 -63.5 -78.5t-97.5 -27.5q-14 0 -24.5 10.5t-10.5 24.5t10.5 24.5t24.5 10.5q39 0 63 20t36.5 50t17 65t4.5 65q0 17 8.5 29t27.5 12t27 -12.5t8 -28.5
q0 -38 8.5 -74t27 -64t48.5 -45t73 -17h320q7 0 17.5 0.5t21 2.5t20 6t14.5 11q7 10 16 14t15 4q14 0 24.5 -10.5t10.5 -24.5z" />
    <glyph glyph-name="circumflex" unicode="&#x2c6;" horiz-adv-x="784" 
d="M524 636q0 -14 -10.5 -25t-24.5 -11q-12 0 -22 8l-75 60l-75 -60q-10 -8 -22 -8q-14 0 -24.5 11t-10.5 25q0 16 13 27l97 78q10 8 22 8t22 -8l97 -78q13 -11 13 -27z" />
    <glyph glyph-name="tilde" unicode="&#x2dc;" horiz-adv-x="910" 
d="M650 742q0 -18 -15 -29l-107 -73q-9 -6 -20 -6q-10 0 -19 6l-87 59l-87 -59q-9 -6 -20 -6q-14 0 -24.5 10.5t-10.5 24.5q0 20 15 30l107 72q9 6 20 6t20 -6l86 -59l87 59q9 6 20 6q14 0 24.5 -10.5t10.5 -24.5z" />
    <glyph glyph-name="macron" unicode="&#xaf;" horiz-adv-x="749" 
d="M489 676q0 -14 -10.5 -25t-24.5 -11h-159q-14 0 -24.5 11t-10.5 25t10.5 24.5t24.5 10.5h159q14 0 24.5 -10.5t10.5 -24.5z" />
    <glyph glyph-name="breve" unicode="&#x2d8;" horiz-adv-x="784" 
d="M524 707q-10 -47 -47 -76.5t-85 -29.5t-84.5 29.5t-46.5 76.5q-1 2 -1 4v4q0 14 10.5 24.5t24.5 10.5q19 0 26 -12t13.5 -27t18 -27t39.5 -12t39.5 12t18 27t13.5 27t26 12q14 0 24.5 -10.5t10.5 -24.5q0 -2 0.5 -4t-0.5 -4z" />
    <glyph glyph-name="dotaccent" unicode="&#x2d9;" horiz-adv-x="605" 
d="M345 675q0 -17 -13 -30t-30 -13t-29.5 13t-12.5 30t12.5 29.5t29.5 12.5t30 -12.5t13 -29.5z" />
    <glyph glyph-name="ring" unicode="&#x2da;" horiz-adv-x="755" 
d="M424 675q0 20 -13.5 33.5t-33.5 13.5t-33.5 -13.5t-13.5 -33.5t13.5 -33.5t33.5 -13.5t33.5 13.5t13.5 33.5zM495 675q0 -24 -9.5 -45.5t-25.5 -37.5t-37.5 -25.5t-45.5 -9.5t-45.5 9.5t-37.5 25.5t-25 37.5t-9 45.5t9 45.5t25 37.5t37.5 25t45.5 9t45.5 -9t37.5 -25
t25.5 -37.5t9.5 -45.5z" />
    <glyph glyph-name="cedilla" unicode="&#xb8;" horiz-adv-x="822" 
d="M562 -154q0 -30 -14.5 -46.5t-36.5 -24.5t-48 -9.5t-48 -1.5q-28 0 -56 4t-50 16t-35.5 33t-13.5 56q0 28 9.5 47.5t26 32.5t38 20t46.5 9q0 9 0.5 19.5t3.5 19t10.5 14t20.5 5.5q14 0 24.5 -10.5t10.5 -24.5v-57q0 -17 -9 -24.5t-22 -10t-29 -2.5t-29 -3t-22 -10.5
t-9 -24.5q0 -5 0.5 -9.5t3.5 -9.5q5 -8 15 -12t22.5 -5.5t24.5 -2t19 -0.5h17t23 0.5t22 2.5t14 6v3q0 14 11 24.5t25 10.5t24.5 -10.5t10.5 -24.5z" />
    <glyph glyph-name="hungarumlaut" unicode="&#x2dd;" horiz-adv-x="905" 
d="M488 747q0 -14 -12 -26l-157 -145q-9 -9 -24 -9q-14 0 -24.5 10.5t-10.5 24.5q0 15 11 26l158 145q9 9 24 9q14 0 24.5 -10.5t10.5 -24.5zM645 747q0 -15 -11 -26l-158 -145q-9 -9 -24 -9q-14 0 -24.5 10.5t-10.5 24.5t12 26l157 145q9 9 24 9q14 0 24.5 -10.5
t10.5 -24.5z" />
    <glyph glyph-name="ogonek" unicode="&#x2db;" horiz-adv-x="860" 
d="M600 -99q0 -8 -2 -12.5t-6 -10.5q-3 -5 -9 -9.5l-11 -8.5q-29 -25 -64 -39t-73 -14q-44 0 -77 17.5t-54.5 46.5t-32.5 66.5t-11 77.5q0 14 10.5 24.5t24.5 10.5t24.5 -10.5t10.5 -24.5q0 -24 6 -49t18.5 -44.5t32.5 -32t48 -12.5q32 0 56.5 13.5t46.5 33.5q6 6 11.5 9
t14.5 3q14 0 25 -10.5t11 -24.5z" />
    <glyph glyph-name="caron" unicode="&#x2c7;" horiz-adv-x="784" 
d="M524 724q0 -17 -13 -28l-97 -78q-10 -8 -22 -8t-22 8l-97 78q-13 11 -13 28q0 14 10.5 24.5t24.5 10.5q12 0 22 -8l75 -60l75 60q10 8 22 8q14 0 24.5 -10.5t10.5 -24.5z" />
    <glyph glyph-name="Euro" unicode="&#x20ac;" horiz-adv-x="718" 
d="M618 181q0 -16 -13 -27q-19 -18 -47 -28.5t-58 -16t-60 -7.5t-55 -2q-38 0 -81 4t-81 17.5t-67 40.5t-39 72h-103q-14 0 -14 14t14 14h98q-1 7 -1 14v14h-97q-14 0 -14 14t14 14h100q7 50 35 79.5t66.5 45t83.5 20t86 4.5q25 0 55 -2t60 -7.5t58 -16t47 -28.5
q13 -11 13 -27q0 -14 -10.5 -24.5t-24.5 -10.5q-12 0 -23 8q-36 26 -84 32t-91 6q-22 0 -54 -1.5t-62.5 -9t-54.5 -23.5t-30 -45h227q14 0 14 -14t-14 -14h-229v-9q0 -5 -0.5 -9.5t0.5 -9.5h172q14 0 14 -14t-14 -14h-164q11 -22 35 -35t52.5 -19.5t57.5 -8t50 -1.5
q43 0 91 6t84 32q11 8 23 8q14 0 24.5 -10.5t10.5 -24.5z" />
    <glyph glyph-name="lslash" unicode="&#x142;" horiz-adv-x="587" 
d="M725 73q0 -9 -4 -17q-2 -5 -6.5 -10t-8.5 -8q-24 -22 -56 -30t-64 -8h-385q-51 0 -84.5 24.5t-54 62.5t-29.5 84.5t-12 90.5l-116 -52q-14 -6 -27.5 -0.5t-19.5 18.5q-6 14 -1 27.5t19 19.5l144 64q3 69 12 138l4 31.5t6 30.5q4 13 12.5 21t22.5 8t24.5 -11t10.5 -25v-6
q-7 -38 -12 -77t-7 -78l129 58q14 6 27.5 1t18.5 -19q6 -14 1.5 -27.5t-18.5 -19.5l-160 -71q0 -30 4 -68.5t15 -73t33 -58t58 -23.5h385q7 0 17.5 0.5t21 2.5t20 6t14.5 11q7 10 16 14t15 4q14 0 24.5 -10.5t10.5 -24.5z" />
    <glyph glyph-name="Scaron" unicode="&#x160;" horiz-adv-x="856" 
d="M756 158q0 -50 -20 -81t-52 -48.5t-72.5 -23.5t-81.5 -6h-495q-14 0 -24.5 10.5t-10.5 24.5t10.5 24.5t24.5 10.5h487q25 0 53.5 1.5t53 9.5t40.5 26.5t16 51.5q0 12 -2 23.5t-8 22.5q-10 16 -29 25t-41 13t-44.5 5t-38.5 1h-288q-41 0 -83 5.5t-75.5 22t-54.5 48
t-21 83.5q0 50 20 81.5t52 49t72.5 23.5t81.5 6h494q14 0 25 -10.5t11 -24.5t-11 -25t-25 -11h-486q-16 0 -38.5 -0.5t-44.5 -4.5t-41 -13t-29 -25q-6 -11 -8.5 -22.5t-2.5 -23.5q0 -33 16 -51.5t40.5 -26.5t53.5 -9.5t54 -1.5h288q41 0 83 -5.5t75.5 -22.5t54.5 -48.5
t21 -83.5zM524 724q0 -17 -13 -28l-97 -78q-10 -8 -22 -8t-22 8l-97 78q-13 11 -13 28q0 14 10.5 24.5t24.5 10.5q12 0 22 -8l75 -60l75 60q10 8 22 8q14 0 24.5 -10.5t10.5 -24.5z" />
    <glyph glyph-name="scaron" unicode="&#x161;" horiz-adv-x="841" 
d="M414 574q0 -17 -13 -28l-97 -78q-10 -8 -22 -8t-22 8l-97 78q-13 11 -13 28q0 14 10.5 24.5t24.5 10.5q12 0 22 -8l75 -60l75 60q10 8 22 8q14 0 24.5 -10.5t10.5 -24.5zM980 73q0 -9 -4 -17q-2 -5 -6.5 -10t-8.5 -8q-24 -22 -56 -30t-64 -8h-512q-15 0 -25 10t-10 25
q0 14 9 23.5t23 11.5q24 4 44.5 16.5t20.5 41.5q0 17 -16 33.5t-37.5 31t-44 26t-35.5 16.5l-119 -181q-10 -16 -26 -26.5t-34 -16.5t-37 -8.5t-37 -2.5q-14 0 -24.5 10.5t-10.5 24.5t10.5 24.5t24.5 10.5q6 0 17 1t22.5 3.5t21.5 7t14 10.5l169 257q10 16 30 16
q14 0 24.5 -10.5t10.5 -24.5q0 -11 -5.5 -19l-10.5 -16q24 -10 53 -26.5t53.5 -37.5t41 -47t16.5 -56q0 -15 -3 -29.5t-11 -28.5h393q7 0 17.5 0.5t21 2.5t20 6t14.5 11q7 10 16 14t15 4q14 0 24.5 -10.5t10.5 -24.5z" />
    <glyph glyph-name="Yacute" unicode="&#xdd;" 
d="M728 444q0 -79 -24.5 -131.5t-68.5 -84t-104.5 -45.5t-131.5 -17v-131q0 -14 -10.5 -24.5t-24.5 -10.5t-24.5 10.5t-10.5 24.5v131q-71 3 -131.5 17t-104.5 45.5t-68.5 84t-24.5 131.5v88q0 14 10.5 25t24.5 11t24.5 -11t10.5 -25v-88q0 -25 2.5 -50t12.5 -48
q16 -38 48.5 -60t72 -33t81.5 -14t77 -3t77 3t81.5 14t72 33t48.5 60q10 23 12.5 48t2.5 50v88q0 14 10.5 25t24.5 11t24.5 -11t10.5 -25v-88zM450 732q0 -5 -4 -15l-69 -144q-10 -20 -32 -20q-14 0 -24.5 10.5t-10.5 24.5q0 8 3 15l70 144q5 9 13 15t18 6q14 0 25 -11
t11 -25z" />
    <glyph glyph-name="yacute" unicode="&#xfd;" horiz-adv-x="867" 
d="M370 612q0 -5 -4 -15l-69 -144q-10 -20 -32 -20q-14 0 -24.5 10.5t-10.5 24.5q0 8 3 15l70 144q5 9 13 15t18 6q14 0 25 -11t11 -25zM1006 73q0 -9 -4 -17q-2 -5 -6.5 -10t-8.5 -8q-24 -22 -56 -30t-64 -8h-339q-28 0 -49 10q-1 -35 -3 -91.5t-9.5 -120t-21.5 -128
t-39 -116.5t-62 -84.5t-90 -32.5q-43 0 -78.5 22t-61 56t-39.5 75.5t-14 80.5q0 41 23.5 80.5t58 73t75 61t73.5 44.5q7 4 17 4q14 0 24.5 -10.5t10.5 -24.5q0 -20 -18 -31l-27 -15.5t-27 -16.5q-18 -12 -42 -30t-45.5 -40t-37 -46.5t-15.5 -48.5t9 -52t25 -53t39 -41.5
t50 -16.5q37 0 62.5 32.5t42.5 83t26.5 112t14.5 119.5t6.5 105.5t1.5 69.5q-33 -19 -73.5 -24.5t-77.5 -5.5q-41 0 -80 6t-69.5 22.5t-49 47t-18.5 79.5v121q0 14 10.5 24.5t24.5 10.5t24.5 -10.5t10.5 -24.5v-121q0 -11 1.5 -21t6.5 -20q8 -16 25.5 -24.5t37.5 -13
t40.5 -5.5t35.5 -1t35.5 1t41 5.5t38 13t25.5 24.5q5 10 6 20t1 21v96q0 11 -1 22t-1 22q0 15 10 25t25 10t24 -9.5t11 -23.5q2 -11 2 -23t1 -23q2 -29 2 -56.5t1 -56.5q3 -19 10 -34q6 -13 15.5 -23.5t24.5 -10.5h339q7 0 17.5 0.5t21 2.5t20 6t14.5 11q7 10 16 14t15 4
q14 0 24.5 -10.5t10.5 -24.5z" />
    <glyph glyph-name="HT" horiz-adv-x="-8000" 
 />
    <glyph glyph-name="LF" horiz-adv-x="-8000" 
 />
    <glyph glyph-name="Thorn" unicode="&#xde;" horiz-adv-x="856" 
d="M685 291q0 13 -2 25t-10 23q-10 15 -29 23.5t-41 12t-43.5 4.5t-37.5 1h-452v-179h452q25 0 53.5 1.5t53 10t40.5 27t16 51.5zM756 291q0 -52 -21 -83.5t-54.5 -48.5t-75.5 -22.5t-83 -5.5h-452v-96q0 -14 -10.5 -24.5t-24.5 -10.5t-24.5 10.5t-10.5 24.5v497
q0 14 10.5 25t24.5 11t24.5 -11t10.5 -25v-82h452q41 0 83 -5.5t75.5 -22.5t54.5 -48t21 -83z" />
    <glyph glyph-name="thorn" unicode="&#xfe;" horiz-adv-x="856" 
d="M685 160q0 13 -2 25t-10 23q-10 15 -29 23.5t-41 12t-43.5 4.5t-37.5 1h-452v-179h452q25 0 53.5 1.5t53 10t40.5 27t16 51.5zM756 160q0 -52 -21 -83.5t-54.5 -48.5t-75.5 -22.5t-83 -5.5h-452v-96q0 -14 -10.5 -24.5t-24.5 -10.5t-24.5 10.5t-10.5 24.5v497
q0 14 10.5 25t24.5 11t24.5 -11t10.5 -25v-82h452q41 0 83 -5.5t75.5 -22.5t54.5 -48t21 -83z" />
    <glyph glyph-name="eth" unicode="&#xf0;" horiz-adv-x="627" 
d="M427 155q0 10 -1 19t-5 18q-8 17 -27 27t-41.5 14.5t-45 5.5t-38.5 1q-15 0 -37 -1t-44 -5t-41 -13t-28 -24q-6 -10 -7.5 -20.5t-1.5 -21.5t1.5 -21.5t7.5 -20.5q9 -15 28 -24t41 -13t44 -5t37 -1q16 0 38.5 1t45 5.5t41.5 14.5t27 27q4 9 5 18t1 19zM680 415
q0 -14 -10.5 -25t-24.5 -11h-120q1 -17 1.5 -34.5t0.5 -34.5q0 -29 -2.5 -63t-9 -67.5t-18 -65t-30.5 -55.5q-2 -3 -4.5 -4.5t-4.5 -3.5q-41 -34 -89 -42.5t-100 -8.5q-40 0 -81 5t-74 21.5t-53.5 47t-20.5 81.5t20.5 81.5t53.5 47t74 22t81 5.5q23 0 48 -1.5t50 -6.5
t47.5 -14.5t40.5 -25.5q1 11 1 22.5v22.5q0 18 -0.5 35.5t-1.5 35.5h-188q-14 0 -24.5 11t-10.5 25t10.5 24.5t24.5 10.5h181q-4 38 -12 76v6q0 14 10.5 25t24.5 11t22.5 -8t12.5 -21q5 -14 6.5 -30.5t3.5 -30.5q1 -7 1.5 -14t2.5 -14h126q14 0 24.5 -10.5t10.5 -24.5z" />
    <glyph glyph-name="Zcaron" unicode="&#x17d;" horiz-adv-x="797" 
d="M697 35q0 -14 -10.5 -24.5t-24.5 -10.5h-627q-14 0 -24.5 10.5t-10.5 24.5q0 17 13 28l548 434h-526q-14 0 -24.5 10.5t-10.5 24.5t10.5 25t24.5 11h627q14 0 24.5 -11t10.5 -25q0 -16 -13 -27l-548 -435h526q14 0 24.5 -10.5t10.5 -24.5zM485 724q0 -17 -13 -28l-97 -78
q-10 -8 -22 -8t-22 8l-97 78q-13 11 -13 28q0 14 10.5 24.5t24.5 10.5q12 0 22 -8l75 -60l75 60q10 8 22 8q14 0 24.5 -10.5t10.5 -24.5z" />
    <glyph glyph-name="zcaron" unicode="&#x17e;" horiz-adv-x="769" 
d="M364 574q0 -17 -13 -28l-97 -78q-10 -8 -22 -8t-22 8l-97 78q-13 11 -13 28q0 14 10.5 24.5t24.5 10.5q12 0 22 -8l75 -60l75 60q10 8 22 8q14 0 24.5 -10.5t10.5 -24.5zM908 73q0 -9 -4 -17q-2 -5 -6.5 -10t-8.5 -8q-24 -22 -56 -30t-64 -8h-320q1 -5 1.5 -11.5
t0.5 -11.5q0 -32 -5.5 -84.5t-18 -112.5t-31.5 -121t-45 -110.5t-60 -80.5t-77 -31t-78.5 22t-61 56t-39.5 75.5t-14 80.5q0 47 29.5 91t72.5 81.5t91.5 66.5t86.5 46q8 3 15 3q14 0 25 -10.5t11 -24.5q0 -20 -20 -32l-33.5 -17t-33.5 -18q-21 -12 -50.5 -32.5t-56.5 -45.5
t-46.5 -53t-19.5 -55q0 -24 9 -52t25 -53t38.5 -41.5t49.5 -16.5q20 0 38.5 19.5t34.5 50t29 68t23 73t16.5 65t9.5 44.5q7 37 11 74t4 75q0 16 -4 27t-15 22q-10 9 -25 15t-32 10t-33.5 5.5t-29.5 1.5q-5 0 -11 -0.5t-11 -0.5q-15 0 -25 10t-10 25q0 14 7.5 22.5t19.5 12.5
q11 4 23 6t23 6l26.5 10t37.5 16.5t33.5 21t14.5 21.5q0 2 -2 4.5t-4 3.5q-19 14 -50.5 19t-54.5 5q-22 0 -51 -2t-55 -10.5t-44 -25.5t-18 -47q0 -14 -10.5 -24.5t-24.5 -10.5t-24.5 10.5t-10.5 24.5q0 48 22.5 78.5t57.5 47.5t77 23.5t81 6.5q23 0 54.5 -4.5t59.5 -16
t47.5 -31.5t19.5 -51q0 -18 -7 -33t-18 -27.5t-25 -22.5t-28 -18q22 -9 40 -23t43 -14h325q7 0 17.5 0.5t21 2.5t20 6t14.5 11q7 10 16 14t15 4q14 0 24.5 -10.5t10.5 -24.5z" />
    <glyph glyph-name="DLE" horiz-adv-x="-8000" 
 />
    <glyph glyph-name="DC1" horiz-adv-x="-8000" 
 />
    <glyph glyph-name="DC2" horiz-adv-x="-8000" 
 />
    <glyph glyph-name="DC3" horiz-adv-x="-8000" 
 />
    <glyph glyph-name="DC4" horiz-adv-x="-8000" 
 />
    <glyph glyph-name="onehalf" unicode="&#xbd;" horiz-adv-x="785" 
d="M86 291q0 -14 -10.5 -25t-24.5 -11t-24.5 11t-10.5 25v241q0 14 10.5 25t24.5 11t24.5 -11t10.5 -25v-241zM430 532q0 -9 -7 -20l-359 -498q-11 -14 -29 -14q-14 0 -24.5 10.5t-10.5 24.5q0 11 7 21l359 497q12 15 29 15q14 0 24.5 -11t10.5 -25zM685 207
q0 -39 -21.5 -60.5t-52.5 -32t-66.5 -13t-63.5 -2.5q-9 0 -22.5 -1.5t-27 -4.5t-24.5 -8.5t-17 -14.5h255q14 0 24.5 -10.5t10.5 -24.5t-10.5 -24.5t-24.5 -10.5h-305q-16 0 -25.5 10.5t-9.5 25.5q0 24 9.5 46t25.5 39q26 29 65 39t76 10q8 0 30 0.5t45 3.5t41 10.5t18 22.5
t-18 22.5t-41 10.5t-45 3.5t-30 0.5q-29 0 -63 -2t-60 -15l-8.5 -3.5t-8.5 -1.5q-14 0 -25 10.5t-11 24.5q0 21 22.5 32.5t52 17.5t59 7t42.5 1q28 0 63.5 -2.5t66.5 -13t52.5 -32t21.5 -60.5z" />
    <glyph glyph-name="onequarter" unicode="&#xbc;" horiz-adv-x="748" 
d="M518 245l-129 -88h129v88zM86 291q0 -14 -10.5 -25t-24.5 -11t-24.5 11t-10.5 25v241q0 14 10.5 25t24.5 11t24.5 -11t10.5 -25v-241zM430 532q0 -9 -7 -20l-359 -498q-11 -14 -29 -14q-14 0 -24.5 10.5t-10.5 24.5q0 11 7 21l359 497q12 15 29 15q14 0 24.5 -11
t10.5 -25zM648 121q0 -14 -6 -21t-15 -10t-19.5 -3.5t-19.5 -0.5v-51q0 -14 -10.5 -24.5t-24.5 -10.5t-24.5 10.5t-10.5 24.5v51h-242q-14 0 -25 10.5t-11 24.5q0 8 4.5 16t11.5 13l225 156q9 6 20 6q14 0 26 -12q12 12 26 12t24.5 -10.5t10.5 -24.5v-120q9 0 19.5 -0.5
t19.5 -3.5t15 -10.5t6 -21.5z" />
    <glyph glyph-name="onesuperior" unicode="&#xb9;" horiz-adv-x="170" 
d="M70 291q0 -14 -10.5 -25t-24.5 -11t-24.5 11t-10.5 25v241q0 14 10.5 25t24.5 11t24.5 -11t10.5 -25v-241z" />
    <glyph glyph-name="threequarters" unicode="&#xbe;" horiz-adv-x="914" 
d="M684 245l-129 -88h129v88zM332 351q0 -29 -11 -48t-29.5 -29.5t-42 -14.5t-48.5 -4h-166q-14 0 -24.5 10.5t-10.5 24.5t10.5 25t24.5 11h166h18t20 2t16.5 7.5t6.5 15.5q0 11 -7 16t-16.5 7t-20 2h-17.5h-166q-14 0 -24.5 10.5t-10.5 24.5t10.5 25t24.5 11h166h18t20 2
t16.5 7.5t6.5 15.5q0 11 -7 16t-16.5 7t-20 2h-17.5h-166q-14 0 -24.5 10.5t-10.5 24.5t10.5 25t24.5 11h166q24 0 47.5 -4t42 -15t30 -29.5t11.5 -47.5q0 -17 -4.5 -32.5t-15.5 -28.5q11 -13 15.5 -28t4.5 -32zM629 532q0 -9 -7 -20l-359 -498q-11 -14 -29 -14
q-14 0 -24.5 10.5t-10.5 24.5q0 12 6 21l360 497q12 15 29 15q14 0 24.5 -11t10.5 -25zM814 121q0 -14 -6 -21t-15 -10t-19.5 -3.5t-19.5 -0.5v-51q0 -14 -10.5 -24.5t-24.5 -10.5t-24.5 10.5t-10.5 24.5v51h-242q-14 0 -25 10.5t-11 24.5q0 8 4.5 16t11.5 13l225 156
q9 6 20 6q14 0 26 -12q12 12 26 12t24.5 -10.5t10.5 -24.5v-120q9 0 19.5 -0.5t19.5 -3.5t15 -10.5t6 -21.5z" />
    <glyph glyph-name="threesuperior" unicode="&#xb3;" horiz-adv-x="432" 
d="M332 351q0 -29 -11 -48t-29.5 -29.5t-42 -14.5t-48.5 -4h-166q-14 0 -24.5 10.5t-10.5 24.5t10.5 25t24.5 11h166h18t20 2t16.5 7.5t6.5 15.5q0 11 -7 16t-16.5 7t-20 2h-17.5h-166q-14 0 -24.5 10.5t-10.5 24.5t10.5 25t24.5 11h166h18t20 2t16.5 7.5t6.5 15.5
q0 11 -7 16t-16.5 7t-20 2h-17.5h-166q-14 0 -24.5 10.5t-10.5 24.5t10.5 25t24.5 11h166q24 0 47.5 -4t42 -15t30 -29.5t11.5 -47.5q0 -17 -4.5 -32.5t-15.5 -28.5q11 -13 15.5 -28t4.5 -32z" />
    <glyph glyph-name="twosuperior" unicode="&#xb2;" horiz-adv-x="480" 
d="M380 467q0 -39 -21.5 -60.5t-52.5 -32t-66.5 -13t-63.5 -2.5q-9 0 -22.5 -1.5t-27 -4.5t-24.5 -8.5t-17 -14.5h255q14 0 24.5 -10.5t10.5 -24.5t-10.5 -24.5t-24.5 -10.5h-305q-16 0 -25.5 10.5t-9.5 25.5q0 24 9.5 46t25.5 39q26 29 65 39t76 10q8 0 30 0.5t45 3.5
t41 10.5t18 22.5t-18 22.5t-41 10.5t-45 3.5t-30 0.5q-29 0 -63 -2t-60 -15l-8.5 -3.5t-8.5 -1.5q-14 0 -25 10.5t-11 24.5q0 21 22.5 32.5t52 17.5t59 7t42.5 1q28 0 63.5 -2.5t66.5 -13t52.5 -32t21.5 -60.5z" />
    <glyph glyph-name="brokenbar" unicode="&#xa6;" horiz-adv-x="170" 
d="M70 35q0 -14 -10.5 -24.5t-24.5 -10.5t-24.5 10.5t-10.5 24.5v172q0 14 10.5 24.5t24.5 10.5t24.5 -10.5t10.5 -24.5v-172zM70 344q0 -14 -10.5 -24.5t-24.5 -10.5t-24.5 10.5t-10.5 24.5v188q0 14 10.5 25t24.5 11t24.5 -11t10.5 -25v-188z" />
    <glyph glyph-name="minus" unicode="&#x2212;" horiz-adv-x="549" 
d="M449 276q0 -14 -10.5 -25t-24.5 -11h-379q-14 0 -24.5 11t-10.5 25t10.5 24.5t24.5 10.5h379q14 0 24.5 -10.5t10.5 -24.5z" />
    <glyph glyph-name="multiply" unicode="&#xd7;" horiz-adv-x="438" 
d="M338 142q0 -14 -10.5 -25t-24.5 -11t-25 11l-109 109l-109 -109q-11 -11 -25 -11t-24.5 11t-10.5 25q0 15 10 25l109 109l-109 109q-10 10 -10 25q0 14 10.5 24.5t24.5 10.5q15 0 25 -10l109 -109l109 109q10 10 25 10q14 0 24.5 -10.5t10.5 -24.5q0 -15 -10 -25
l-109 -109l109 -109q10 -10 10 -25z" />
    <glyph glyph-name="RS" horiz-adv-x="-8000" 
 />
    <glyph glyph-name="US" horiz-adv-x="-8000" 
 />
    <glyph glyph-name="Lslash" unicode="&#x141;" horiz-adv-x="797" 
d="M697 35q0 -14 -10.5 -24.5t-24.5 -10.5h-627q-14 0 -24.5 10.5t-10.5 24.5v223l-109 -48q-14 -6 -27.5 -0.5t-19.5 18.5q-6 14 -1 27.5t19 19.5l138 61v196q0 14 10.5 25t24.5 11t24.5 -11t10.5 -25v-165l138 62q14 6 27 1t19 -19t1.5 -27.5t-18.5 -19.5l-167 -74v-220
h592q14 0 24.5 -10.5t10.5 -24.5z" />
    <glyph glyph-name="DEL" horiz-adv-x="-8000" 
 />
    <glyph glyph-name="Omega" unicode="&#x3a9;" horiz-adv-x="-8000" 
 />
    <glyph glyph-name="Omega" unicode="&#x2126;" horiz-adv-x="-8000" 
 />
    <glyph glyph-name="currency" unicode="&#xa4;" horiz-adv-x="718" 
d="M618 181q0 -16 -13 -27q-19 -18 -47 -28.5t-58 -16t-60 -7.5t-55 -2q-38 0 -81 4t-81 17.5t-67 40.5t-39 72h-103q-14 0 -14 14t14 14h98q-1 7 -1 14v14h-97q-14 0 -14 14t14 14h100q7 50 35 79.5t66.5 45t83.5 20t86 4.5q25 0 55 -2t60 -7.5t58 -16t47 -28.5
q13 -11 13 -27q0 -14 -10.5 -24.5t-24.5 -10.5q-12 0 -23 8q-36 26 -84 32t-91 6q-22 0 -54 -1.5t-62.5 -9t-54.5 -23.5t-30 -45h227q14 0 14 -14t-14 -14h-229v-9q0 -5 -0.5 -9.5t0.5 -9.5h172q14 0 14 -14t-14 -14h-164q11 -22 35 -35t52.5 -19.5t57.5 -8t50 -1.5
q43 0 91 6t84 32q11 8 23 8q14 0 24.5 -10.5t10.5 -24.5z" />
    <glyph glyph-name="apple" horiz-adv-x="1284" 
d="M788 -68q-8 -5 -16.5 -9t-17.5 -9q-85 -42 -184 -42q-132 0 -230 56q-40 23 -76 54t-62 73q-22 34 -35.5 63t-22 54.5t-12.5 48.5t-6 44l-38 -4q2 -25 8.5 -55t18.5 -62t29 -64.5t40 -63.5q29 -40 66 -70.5t81 -53.5q102 -52 237 -52q132 0 230 59q2 2 4 2.5t4 2.5z
M745 2q-17 -10 -34 -17.5t-36 -14.5q-27 -9 -54 -14t-51 -5q-112 0 -192 43q-68 35 -113 100q-34 48 -48 96t-17 80l-34 -2q2 -19 5.5 -40t11 -44t20 -49.5t32.5 -58.5q24 -37 56.5 -65t68.5 -48q89 -51 210 -51q91 0 167 38l15 7.5t15 8.5zM709 60q-68 -40 -143 -40
q-43 0 -78 9.5t-62 24t-47.5 32.5t-34.5 35q-16 19 -28.5 41.5t-21.5 45.5q-13 34 -15 68l-39 -3q2 -27 14.5 -70t42.5 -86q20 -29 45 -50.5t54 -37.5q74 -39 174 -39q29 0 70 10.5t84 34.5zM671 121q-1 -1 -1.5 -1t-1.5 -1q-46 -27 -102 -27q-32 0 -58 7.5t-46.5 18.5
t-36 25t-26.5 27q-23 29 -35 60t-14 52l-32 -3q2 -27 15.5 -63.5t41.5 -69.5q12 -15 29.5 -30t41 -27.5t53.5 -20.5t67 -8q63 0 122 34zM611 218q-23 -14 -51 -14q-38 0 -65 25t-31 61l-74 -5q1 -14 10 -39t30 -50q18 -22 51 -43t85 -21q25 0 46 6t38 17zM624 438
q-13 14 -29 22t-41 8q-28 0 -56 -10.5t-50 -29.5q-26 -21 -41 -55q-17 -37 -17 -82l74 6v3q0 40 28 68t68 28q21 0 39 -9zM659 509q-21 13 -48.5 22t-62.5 9q-26 0 -66 -12t-77 -42q-39 -32 -62 -77q-25 -51 -25 -121v-2l32 2q0 34 7 61t17.5 48t23 36t24.5 25
q28 23 62.5 36.5t69.5 13.5q22 0 40 -5.5t35 -16.5q4 -3 7 -5.5t7 -5.5zM691 573q-27 17 -61.5 28t-77.5 11q-55 0 -110 -22t-99 -61q-50 -45 -75 -101q-15 -32 -22 -67t-7 -73v-8l39 3v5q0 45 9.5 81.5t24 64.5t32.5 48.5t36 34.5q43 35 89 49t79 14q57 0 109 -25
q5 -2 10 -5l10 -6zM726 644q-10 5 -19 9l-20 9q-67 26 -139 26q-29 0 -59 -5t-62 -18q-33 -14 -64 -32t-59 -42q-30 -27 -56 -61t-43 -70q-19 -39 -29.5 -82.5t-10.5 -89.5v-13l35 2q-1 4 -1 11q0 84 33 156q30 66 84 114q53 47 114 70q30 11 61 17.5t61 6.5q75 0 138 -33
q5 -2 9.5 -5t9.5 -5zM756 705q-28 15 -61 28q-38 14 -75 20.5t-72 6.5q-88 0 -171 -35t-149 -99q-67 -66 -103 -149q-39 -87 -39 -185q0 -5 0.5 -11t0.5 -13l39 4q-1 5 -1 8.5v7.5q0 51 11.5 98t32.5 91q19 39 47.5 76.5t61.5 66.5q29 26 63.5 46.5t70.5 35.5q35 14 69.5 20
t66.5 6q79 0 154 -29l21 -9.5l21 -9.5zM755 342v6.5t-1 6.5h-4q-40 0 -63.5 19.5t-41.5 41.5q-5 5 -8.5 9t-7.5 8l-24 -49q23 -12 37 -34.5t14 -49.5q0 -24 -11 -44t-29 -34l40 -64q17 11 29.5 24t21.5 25q26 36 37 73.5t11 61.5zM827 342q0 4 -0.5 8t-0.5 9q-8 -1 -16 -1
t-16 -1q0 -4 0.5 -7.5t0.5 -7.5q0 -38 -15 -80.5t-41 -77.5q-14 -19 -29.5 -33.5t-32.5 -25.5l17 -27q16 10 30.5 23t28.5 28q36 40 54 91q20 51 20 102zM1011 258v5q-4 -20 -9.5 -39.5t-12.5 -38.5q-31 -88 -92 -160q-45 -52 -103 -89l17 -28q72 47 121 125q26 41 41 79
t23 64q10 34 12.5 55.5t2.5 26.5zM901 366l-18 -2l-18 -2q1 -5 1.5 -10t0.5 -10q0 -59 -22 -116t-62 -103q-30 -34 -69 -59l16 -25q19 11 42 29q57 48 91 120q35 78 38 178zM982 371v3q-11 -2 -21 -2.5t-20 -1.5q-3 -112 -42 -199q-36 -78 -102 -133q-24 -19 -46 -33l22 -35
q26 16 49.5 36.5t44.5 44.5q27 32 48.5 68.5t36.5 78.5q9 26 15.5 52.5t10.5 54.5h-2q-12 7 -12 19v3q3 14 17 16q1 7 1 14v14zM745 395q-11 38 -41 74q-8 9 -17.5 18.5t-21.5 17.5l-17 -34l14.5 -14.5t12.5 -14.5q17 -18 31.5 -31.5t38.5 -15.5zM818 399q-8 30 -23.5 59.5
t-36.5 55.5q-11 14 -26.5 28t-34.5 27l-14 -28q28 -19 52 -46q36 -44 52 -99q7 1 15 1.5t16 1.5zM900 406q-5 50 -30.5 98t-69.5 88q-16 14 -33 26t-35 23l-18 -36q21 -13 39 -29.5t35 -36.5q18 -23 33 -48t26 -52q4 -9 7 -18.5t5 -18.5q10 1 20 1.5t21 2.5zM1061 348
q-1 8 -1 17t-1 17l-18 -2t-19 -2v-7v-13t-1 -12q8 0 18.5 0.5t21.5 1.5zM979 414q-7 59 -38 117q-19 34 -45 65t-60 58q-17 14 -35.5 25.5t-38.5 22.5l-13 -26q43 -23 78 -55q49 -45 78 -99.5t35 -112.5q10 2 19.5 2.5t19.5 2.5zM1284 338q0 -6 -6 -6l-45 -2q-3 0 -5 3
l-33 -2l1 -8q-1 -1 -2 -1l-18 -1v-6l-39.5 -2t-33.5 -2q-17 -1 -32 -2l1 -8q0 -3 -2 -3l-15 -9q-4 -2 -6 2v2q0 1 2 3l6 3l4 2t3 2v5q-8 0 -15 -0.5t-14 -0.5q7 -10 11.5 -22t4.5 -27q0 -8 -3.5 -32t-13 -58t-26 -74.5t-42.5 -81.5q-28 -43 -61.5 -77.5t-72.5 -60.5l20 -32
q1 -3 -1 -5q-3 -1 -5 1l-20 32q-2 -2 -4 -2.5t-4 -2.5q-107 -65 -250 -65q-145 0 -255 56q-96 48 -161 136q-55 72 -82 162q-8 26 -14 52.5t-8 51.5l-44 -3q-4 0 -4 3q0 4 3 4l45 3q-1 7 -1.5 13.5t-0.5 13.5q0 103 43 201q20 45 48 85.5t63 75.5q71 69 160 107
q92 39 188 39q56 0 114 -15t112 -44l28 56q2 4 4 2q4 -2 2 -5l-28 -56q21 -11 41.5 -24.5t39.5 -28.5q75 -61 115 -135q34 -62 43 -132q10 1 19 2l18 2v1q-1 0 -4 1q-2 1 -5.5 2t-9.5 3q-2 0 -2 3v2q2 4 5 2l21 -7q2 0 2 -3l1 -3q39 5 64.5 7.5t26.5 2.5v-6l24 3q2 0 2 -1
l1 -10l42 3q2 3 5 3l43 4q7 0 7 -6q0 -5 -6 -7l-43 -3q-4 0 -5 2l-42 -4l1 -6l-2 -2l-23 -2v-7q-3 -1 -28.5 -3.5t-64.5 -7.5l3 -35q15 1 32 2q14 1 33 2t40 3v-7l19 1q1 0 1 -2l1 -8l33 1q2 3 5 3l45 2q6 0 6 -7z" />
    <glyph glyph-name="Eth" unicode="&#xd0;" horiz-adv-x="857" 
d="M687 286q0 26 -3.5 51.5t-15.5 48.5q-21 39 -62 61t-90 33.5t-98.5 14t-87.5 2.5h-260v-186h144q14 0 24.5 -10.5t10.5 -24.5t-10.5 -25t-24.5 -11h-144v-170h260q39 0 89 3t98 14.5t88.5 35t61.5 63.5q12 23 16 48.5t4 51.5zM757 286q0 -94 -38 -150.5t-99 -86.5
t-137 -39.5t-153 -9.5h-295q-14 0 -24.5 10.5t-10.5 24.5v205h-165q-14 0 -24.5 11t-10.5 25t10.5 24.5t24.5 10.5h165v221q0 14 10.5 25t24.5 11h295q75 0 151 -9t137.5 -39t100 -85.5t38.5 -148.5z" />
    </font>
</defs>
</svg>
