<?xml version="1.0" standalone="no"?>
<!DOCTYPE svg PUBLIC "-//W3C//DTD SVG 1.1//EN" "http://www.w3.org/Graphics/SVG/1.1/DTD/svg11.dtd" >
<svg>
<metadata>
Created by FontForge 20090622 at Wed Nov  7 04:48:18 2018
 By ffonts
</metadata>
<defs>
<font id="Bondi" horiz-adv-x="539" >
  <font-face 
    font-family="Bondi Regular"
    font-weight="400"
    font-stretch="normal"
    units-per-em="1000"
    panose-1="0 0 0 0 0 0 0 0 0 0"
    ascent="800"
    descent="-200"
    x-height="691"
    cap-height="690"
    bbox="-408.455 -213 737 911"
    underline-thickness="50"
    underline-position="-25"
    unicode-range="U+000D-U+2260"
  />
<missing-glyph horiz-adv-x="290" 
 />
    <glyph glyph-name=".notdef" horiz-adv-x="290" 
 />
    <glyph glyph-name="uni0000" horiz-adv-x="0" 
 />
    <glyph glyph-name="uni0000" horiz-adv-x="0" 
 />
    <glyph glyph-name="uni000D" unicode="&#xd;" horiz-adv-x="210" 
 />
    <glyph glyph-name="uni0020" unicode=" " horiz-adv-x="340" 
 />
    <glyph glyph-name="uni0041" unicode="A" horiz-adv-x="555" 
d="M529 21q1 -2 0.5 -9t-11.5 -12q-2 -1 -6 -1q-8 0 -11.5 5.5t-4.5 7.5q0 2 -5.5 19t-11.5 38l-16 53q-5 16 -18 25.5t-30 9.5h-139q-17 0 -30 -9.5t-18 -25.5l-27 -92q-4 -13 -14.5 -20.5t-23.5 -7.5h-99q-20 0 -31.5 15.5t-5.5 34.5l184 613q4 12 14 20t23 8h50
q30 0 38 -28zM415 192q10 0 16 8t3 18l-69 231q-5 14 -20 14q-14 0 -19 -14l-69 -231q-3 -10 3 -18t16 -8h139z" />
    <glyph glyph-name="uni00C1" unicode="&#xc1;" horiz-adv-x="555" 
d="M529 21q1 -2 0.5 -9t-11.5 -12q-2 -1 -6 -1q-7 0 -11.5 6t-4.5 7t-5.5 18.5l-11.5 37.5q-7 24 -17 54q-4 16 -17 25.5t-30 9.5h-140q-16 0 -29 -9.5t-18 -25.5l-28 -93q-3 -12 -13.5 -19.5t-23.5 -7.5h-99q-19 0 -31 15.5t-7 34.5l184 613q4 12 14.5 20t23.5 8h50
q13 0 23.5 -8t13.5 -20zM414 192q11 0 17 8t3 17l-70 231q-4 15 -19 15q-14 0 -19 -15l-69 -231q-3 -9 3 -17t16 -8h138zM395 893q6 -7 6 -17t-7 -18l-95 -98q-3 -5 -11 -5q-9 0 -13 9.5t2 16.5l81 104q11 12 25 12q7 0 12 -4z" />
    <glyph glyph-name="uni0042" unicode="B" horiz-adv-x="640" 
d="M580 278q0 -58 -22 -108.5t-59.5 -88t-88 -59t-106.5 -21.5h-197q-19 0 -32 13.5t-13 32.5v600q0 18 13 32t32 14h197q21 0 40 -8.5t32.5 -22.5t22 -33t8.5 -40q0 -22 -8 -41q-4 -9 5 -12q1 -1 3 -2t4 -1q38 -17 69.5 -43t53.5 -59.5t34 -72.5t12 -80zM546 278
q0 72 -39 131t-104 89q-12 3 -19 4.5t-17 1.5l-63 1q-8 0 -13 4.5t-5 12.5q0 7 5 12t13 6h39q3 -1 6 0q7 2 11 9q13 17 13 40q0 28 -20.5 48.5t-48.5 20.5h-34q-12 0 -23.5 -7.5t-11.5 -26.5v-547q0 -16 7.5 -28.5t30.5 -12.5h31q49 0 93.5 19t77 51.5t52 77t19.5 94.5z" />
    <glyph glyph-name="uni0043" unicode="C" horiz-adv-x="637" 
d="M582 63q0 -10 -10 -15l-20 -11t-22 -10q-63 -28 -137 -28t-138 28t-112 76t-75.5 112t-27.5 137q0 74 28 138t76 112t112.5 75.5t136.5 27.5q74 0 137 -28q5 -2 13.5 -5t16.5 -8t14 -10.5t6 -12.5t-5 -12t-13 -5q-4 0 -11 4q-39 20 -76 31t-82 11q-33 0 -67.5 -6.5
t-62.5 -22t-46 -42t-18 -66.5v-362q0 -40 18 -66.5t46 -42t62.5 -22t67.5 -6.5q39 0 82.5 11t76.5 32q8 4 12 4q8 0 13 -5t5 -13z" />
    <glyph glyph-name="uni0044" unicode="D" horiz-adv-x="633" 
d="M581 347q0 -69 -25.5 -130.5t-70 -108.5t-104 -75.5t-128.5 -31.5h-118q-23 0 -39 16t-16 39v581q0 23 16 39t39 16h118q68 -3 128 -31.5t104.5 -75t70 -108t25.5 -130.5zM547 347q0 54 -18.5 104.5t-51.5 91t-78 69t-98 39.5q-2 0 -4 0.5t-4 0.5q-17 0 -28.5 -12.5
t-11.5 -29.5v-527q0 -22 14 -31.5t34 -9.5q53 11 98 40t78 69.5t51.5 91t18.5 104.5z" />
    <glyph glyph-name="uni0045" unicode="E" horiz-adv-x="522" 
d="M115 0q-23 0 -38.5 16t-15.5 39v582q0 23 15.5 39t38.5 16h361q7 0 12 -5.5t5 -12.5t-5 -12t-12 -5h-208q-15 0 -24.5 -10t-9.5 -24v-239q0 -14 9.5 -24t24.5 -10h121q7 -1 12 -5.5t5 -11.5t-5 -12t-12 -5h-121q-15 0 -24.5 -10.5t-9.5 -23.5v-213q0 -14 9.5 -24
t24.5 -10h208q7 0 12 -5t5 -12q0 -8 -5 -13t-12 -5h-361z" />
    <glyph glyph-name="uni00C9" unicode="&#xc9;" horiz-adv-x="522" 
d="M409 885q6 -7 6 -17t-7 -18l-95 -98q-3 -5 -11 -5q-10 0 -14 9.5t3 16.5l81 104q11 12 25 12q7 0 12 -4zM115 0q-23 0 -38.5 16t-15.5 39v582q0 23 15.5 39t38.5 16h361q7 0 12 -5.5t5 -12.5t-5 -12t-12 -5h-208q-15 0 -24.5 -10t-9.5 -24v-239q0 -14 9.5 -24t24.5 -10
h121q7 -1 12 -5.5t5 -11.5t-5 -12t-12 -5h-121q-15 0 -24.5 -10.5t-9.5 -23.5v-213q0 -14 9.5 -24t24.5 -10h208q7 0 12 -5t5 -12q0 -8 -5 -13t-12 -5h-361z" />
    <glyph glyph-name="uni0046" unicode="F" horiz-adv-x="494" 
d="M218 57q0 -24 -16.5 -40t-39.5 -16h-62q-23 0 -39 16t-16 39v582q0 22 16 38.5t39 16.5h337q7 0 12.5 -5.5t5.5 -12.5t-5.5 -12t-12.5 -5h-174q-19 0 -32 -13.5t-13 -31.5v-217q0 -19 13 -32t32 -13h111q7 0 11.5 -5.5t4.5 -11.5q0 -16 -16 -17h-111q-19 0 -32 -13.5
t-13 -31.5v-215z" />
    <glyph glyph-name="uni0047" unicode="G" horiz-adv-x="633" 
d="M503 313q21 0 35.5 -15t14.5 -35v-205q0 -20 -20 -32.5t-46.5 -19.5t-53 -9t-39.5 -2h-18q-71 3 -132 33t-106.5 78t-71.5 110.5t-26 132.5q0 74 28 138.5t76.5 112.5t112.5 75.5t137 27.5t138 -28q7 -2 11.5 -9t0.5 -15q-6 -10 -17 -10q-6 0 -9 2q-61 25 -124 25
q-66 0 -124 -25.5t-101.5 -69t-68.5 -101.5t-25 -123q0 -55 18 -105t49.5 -90.5t76 -70t96.5 -43.5q4 -1 12 -1q20 0 34.5 14t14.5 35v161q0 12 -8 20t-20 8h-86q-8 0 -13.5 5.5t-4.5 13.5q0 8 5.5 12.5t13.5 4.5h240z" />
    <glyph glyph-name="uni0048" unicode="H" horiz-adv-x="663" 
d="M574 696q7 0 12 -5.5t5 -12.5v-656q0 -8 -5 -13t-12 -5q-8 0 -12.5 5t-4.5 13v252q0 24 -17.5 41.5t-41.5 17.5h-193q-25 0 -42 -17.5t-17 -41.5v-224q0 -19 -13.5 -32.5t-32.5 -13.5h-81q-20 0 -33 13.5t-13 32.5v600q0 18 13 32t33 14h81q19 0 32.5 -14t13.5 -32v-224
q0 -25 17 -42t42 -17h193q24 0 41.5 17t17.5 42v252q0 7 4.5 12.5t12.5 5.5z" />
    <glyph glyph-name="uni0049" unicode="I" horiz-adv-x="297" 
d="M117 -1q-23 0 -39 16t-16 39v581q0 23 16 39t39 16h63q23 0 39 -16t16 -39v-581q0 -23 -16 -39t-39 -16h-63z" />
    <glyph glyph-name="uni00CD" unicode="&#xcd;" horiz-adv-x="275" 
d="M261 890q6 -7 6 -17t-7 -18l-95 -98q-3 -5 -11 -5q-10 0 -14 9.5t3 16.5l81 104q10 12 25 12q7 0 12 -4zM106 -1q-23 0 -38.5 16t-15.5 39v582q0 22 15.5 38.5t38.5 16.5h64q22 0 38 -16.5t16 -38.5v-582q0 -23 -16 -39t-38 -16h-64z" />
    <glyph glyph-name="uni004A" unicode="J" horiz-adv-x="574" 
d="M72 655q-7 0 -12 5t-5 13q0 7 5 12t12 5h408q17 0 28 -11t11 -28v-376q0 -58 -22 -108t-60 -87.5t-88 -59t-107 -21.5q-44 0 -86.5 14.5t-78.5 40.5l-14 11q-4 4 -6 8q-2 3 -2 7t4 9q6 7 13 7q4 0 8 -2l4 -2l13 -10q30 -23 68.5 -36t76.5 -13q16 1 34 3t33.5 9t25.5 19.5
t10 33.5v520q0 16 -11 27t-27 11h-235v-1z" />
    <glyph glyph-name="uni004B" unicode="K" horiz-adv-x="622" 
d="M566 688q8 -7 5 -15t-5 -11q-1 0 -13 -12.5l-31 -33l-43.5 -46l-50.5 -52.5l-134 -143q-12 -12 -12 -28t12 -29l273 -289q1 -1 4 -8t-4 -15q-5 -5 -12 -5q-5 0 -9 2.5l-4 2.5l-13 13.5l-31 32.5l-43 45.5l-50 52.5l-133 140q-5 6 -12 6t-12 -4.5t-5 -12.5v-229
q0 -20 -14.5 -34.5t-34.5 -14.5h-75q-21 0 -35 14.5t-14 34.5v593q0 21 14 35t35 14h75q20 0 34.5 -14t14.5 -35v-229q0 -7 5 -12t12 -5t12 6l268 281q1 2 5.5 5t10.5 3t10 -4z" />
    <glyph glyph-name="uni004C" unicode="L" horiz-adv-x="522" 
d="M103 0q-22 0 -37.5 15.5t-15.5 37.5v585q0 22 15.5 37.5t37.5 15.5h67q22 0 37.5 -15.5t15.5 -37.5v-546q0 -24 16.5 -41t40.5 -17h184q8 1 13 -4.5t5 -12.5t-5 -12t-12 -5h-362z" />
    <glyph glyph-name="uni004D" unicode="M" horiz-adv-x="728" 
d="M658 669v-656q0 -7 -5 -12t-13 -5q-7 0 -12 5t-5 12v469q0 6 -4 9.5t-9 3.5q-10 0 -13 -9l-141 -471q-5 -19 -23 -19q-19 0 -22 19l-142 471q-3 9 -13 9q-5 0 -9 -3.5t-4 -9.5v-422q0 -26 -18 -44t-44 -18h-49q-26 0 -44 18t-18 44v568q0 26 18 43.5t44 17.5h63
q22 0 39 -13t24 -33l162 -543q3 -9 13 -9t13 9l173 576q5 13 19 13q8 0 14 -6t6 -14z" />
    <glyph glyph-name="uni004E" unicode="N" horiz-adv-x="631" 
d="M571 673v-651q0 -9 -6.5 -15.5t-15.5 -6.5q-14 0 -21 14l-264 555q-3 7 -10 7q-11 0 -11 -12v-510q0 -23 -15.5 -38.5t-38.5 -15.5h-65q-23 0 -38.5 15.5t-15.5 38.5v583q0 23 15.5 38.5t38.5 15.5h85q17 0 30.5 -8.5t20.5 -23.5l255 -537q4 -7 10 -7q11 0 11 12l1 546
q0 7 4.5 12t12.5 5q7 0 12 -5t5 -12z" />
    <glyph glyph-name="uni004F" unicode="O" horiz-adv-x="662" 
d="M615 349q0 -70 -15.5 -134.5t-50 -113.5t-88 -78t-130.5 -29t-131 30t-88 79.5t-49.5 113.5t-15.5 132q0 70 16 134.5t50 113.5t88 78t130 29q78 0 132 -29.5t88 -79t49 -113.5t15 -133zM580 349q0 62 -13 120t-42.5 102.5t-77 71t-116.5 26.5q-17 0 -36 -2t-34.5 -8.5
t-25.5 -19.5t-10 -36v-508q0 -22 10 -35.5t26 -20t34.5 -8.5t35.5 -2q68 0 115.5 27t77.5 71.5t43 102t13 119.5z" />
    <glyph glyph-name="uni00D3" unicode="&#xd3;" horiz-adv-x="662" 
d="M461 906q6 -7 6 -16.5t-7 -17.5l-95 -98q-4 -5 -11 -5q-10 0 -14 8.5t2 16.5l82 105q5 5 11 8.5t13 3.5q6 0 13 -5zM615 349q0 -70 -15.5 -134.5t-50 -113.5t-88 -78t-130.5 -29t-131 30t-88 79.5t-49.5 113.5t-15.5 132q0 70 16 134.5t50 113.5t88 78t130 29
q78 0 132 -29.5t88 -79t49 -113.5t15 -133zM580 349q0 62 -13 120t-42.5 102.5t-77 71t-116.5 26.5q-17 0 -36 -2t-34.5 -8.5t-25.5 -19.5t-10 -36v-508q0 -22 10 -35.5t26 -20t34.5 -8.5t35.5 -2q68 0 115.5 27t77.5 71.5t43 102t13 119.5z" />
    <glyph glyph-name="uni0050" unicode="P" horiz-adv-x="600" 
d="M560 432q0 -51 -18.5 -96.5t-51.5 -80.5t-76.5 -56.5t-94.5 -24.5h-54q-14 0 -23 -9t-9 -23v-84q0 -24 -17 -41t-42 -17h-56q-24 0 -41 17t-17 41v573q0 24 17 41t41 17h201q50 -2 94 -23.5t76.5 -57t51.5 -81t19 -95.5zM528 432q0 45 -16 84.5t-44.5 69.5t-66.5 48.5
t-82 22.5h-54q-14 0 -23 -9.5t-9 -22.5v-386q0 -13 9 -22.5t23 -9.5h54q44 4 82.5 22.5t66.5 49t44 69.5t16 84z" />
    <glyph glyph-name="uni0051" unicode="Q" horiz-adv-x="734" 
d="M624 351q0 -71 -17 -139.5t-62 -124.5l45 -61q2 -3 4.5 -10.5t-5.5 -14.5q-5 -4 -11 -4q-5 0 -9.5 3t-6.5 5t-8.5 11l-13.5 19l-20 26q-35 -33 -83 -48t-95 -15q-77 0 -130.5 30t-87 79t-49 113t-15.5 131q0 69 16 133t50 113t87.5 78t128.5 29q77 0 130.5 -30t87.5 -79
t49 -112.5t15 -131.5zM589 351q0 62 -13 119.5t-42 101.5t-76 70t-116 26q-15 0 -29 -1.5t-28 -3.5q-22 -5 -35.5 -23t-13.5 -41v-496q0 -23 13.5 -41t35.5 -23q14 -2 28 -3.5t29 -1.5q69 0 116 26t76 70t42 101.5t13 119.5z" />
    <glyph glyph-name="uni0052" unicode="R" horiz-adv-x="623" 
d="M460 229q-7 -5 -14 -16t6 -31l22 -35l32.5 -50.5l29.5 -46t14 -21.5q2 -2 4.5 -9.5t-7.5 -14.5q-4 -3 -9 -3q-6 0 -10.5 3.5t-6.5 5.5q0 1 -5 8t-12.5 19l-16.5 26.5l-19 29.5l-52 79q-10 16 -29 16q-5 0 -11 -2q-27 -7 -54 -9h-42q-18 0 -31 -13t-13 -32v-72
q0 -24 -17 -41t-40 -17h-59q-23 0 -40 17t-17 41v575q0 23 17 40t40 17h202q51 -4 95.5 -25.5t76.5 -56.5t50.5 -80t18.5 -96q0 -53 -19.5 -99t-56.5 -83q-6 -7 -13 -13t-14 -11zM531 435q0 45 -16 84.5t-44.5 69.5t-66.5 49t-82 23l-42 -1q-18 0 -31 -13t-13 -31v-361
q0 -18 13 -31t31 -14h42q44 4 82.5 23t66.5 49t44 69.5t16 83.5z" />
    <glyph glyph-name="uni0053" unicode="S" horiz-adv-x="471" 
d="M410 304q8 -20 12 -41t4 -43t-4 -43t-12 -41q-28 -64 -82 -101t-124 -37q-92 0 -157 65q-4 5 -5 10q-2 4 -2 8.5t5 9.5q4 5 10 5t12 -4q3 -2 5 -4q26 -26 60.5 -40.5t71.5 -14.5q18 0 31 4.5t13 27.5v312q0 25 -22 28q-5 1 -11 1h-11q-31 0 -58.5 12t-48 32.5t-32.5 48
t-12 58.5q0 45 25.5 84.5t68.5 55.5q25 11 57 11q30 0 57.5 -11t48.5 -33q4 -4 6 -9q2 -4 1.5 -8.5t-6.5 -9.5q-4 -4 -11 -4q-5 0 -10 3q-3 1 -5 3q-32 34 -81 34q-24 0 -45 -9t-37 -25t-25 -37t-9 -45t9 -45t25 -36.5t37 -24.5t45 -9q70 0 124 -37t82 -101z" />
    <glyph glyph-name="uni0054" unicode="T" 
d="M477 691q8 0 12.5 -5t4.5 -12q0 -8 -4.5 -13t-12.5 -5l-80 1q-17 0 -29 -12t-12 -29v-562q0 -23 -15.5 -38.5t-37.5 -15.5h-66q-23 0 -38.5 15.5t-15.5 38.5v562q0 17 -12 29t-29 12l-80 -1q-7 0 -12 5t-5 13q0 7 5 12t12 5h415z" />
    <glyph glyph-name="uni0055" unicode="U" 
d="M425 694q22 0 38 -15.5t16 -38.5v-436q0 -44 -16.5 -82t-45 -66.5t-67 -44.5t-81.5 -16q-44 0 -82 16.5t-66.5 45t-44.5 66.5t-16 81v473q0 7 5 12t12 5q8 0 13 -5t5 -12v-473q0 -36 13.5 -68t37.5 -55.5t55.5 -37t67.5 -13.5q9 0 22 7t13 33v570q0 23 15.5 38.5
t38.5 15.5h67z" />
    <glyph glyph-name="uni00DA" unicode="&#xda;" 
d="M425 694q22 0 38 -15.5t16 -38.5v-436q0 -44 -16.5 -82t-45 -66.5t-67 -44.5t-81.5 -16q-44 0 -82 16.5t-66.5 45t-44.5 66.5t-16 81v473q0 7 5 12t12 5q8 0 13 -5t5 -12v-473q0 -36 13.5 -68t37.5 -55.5t55.5 -37t67.5 -13.5q9 0 22 7t13 33v570q0 23 15.5 38.5
t38.5 15.5h67zM362 889q7 -7 7 -16.5t-8 -17.5l-94 -98q-4 -5 -11 -5q-10 0 -14 8.5t2 16.5l82 105q4 5 10.5 8.5t13.5 3.5t12 -5z" />
    <glyph glyph-name="uni00DC" unicode="&#xdc;" 
d="M425 694q22 0 38 -15.5t16 -38.5v-436q0 -44 -16.5 -82t-45 -66.5t-67 -44.5t-81.5 -16q-44 0 -82 16.5t-66.5 45t-44.5 66.5t-16 81v473q0 7 5 12t12 5q8 0 13 -5t5 -12v-473q0 -36 13.5 -68t37.5 -55.5t55.5 -37t67.5 -13.5q9 0 22 7t13 33v570q0 23 15.5 38.5
t38.5 15.5h67zM177 766q-22 0 -37 16.5t-15 37.5t16 36.5t36 15.5q22 0 37.5 -15t15.5 -37t-15.5 -38t-37.5 -16zM364 766q-21 0 -36.5 16.5t-15.5 37.5t16 36.5t36 15.5q22 0 37.5 -15t15.5 -37t-15.5 -38t-37.5 -16z" />
    <glyph glyph-name="uni0056" unicode="V" horiz-adv-x="597" 
d="M537 696q8 0 12.5 -5t2.5 -13l-192 -640q-6 -20 -22 -31.5t-36 -11.5h-19q-20 0 -36 11.5t-21 31.5l-179 596q-6 20 6 36t33 16h96q13 0 23.5 -8t14.5 -21l125 -416q2 -8 8 -11.5t12 -3.5t12 3.5t8 11.5l65 218l28 92l18.5 62.5l14.5 48t6 20.5q2 5 7.5 9.5t12.5 4.5z
" />
    <glyph glyph-name="uni0057" unicode="W" horiz-adv-x="778" 
d="M678 675v-656q0 -8 -6 -14t-14 -6q-14 0 -19 14l-173 575q-3 9 -13 9t-13 -9l-162 -542q-7 -21 -24 -34t-39 -13h-63q-26 0 -44 18t-18 44v568q0 26 18 43.5t44 17.5h49q26 0 44 -17.5t18 -43.5v-422q0 -7 4 -10.5t9 -3.5q10 0 13 10l142 471q2 5 5 9q2 4 6.5 6.5
t10.5 2.5q7 0 11.5 -3t6.5 -6q3 -5 5 -10l141 -470q3 -10 13 -10q5 0 9 3.5t4 10.5v468q0 8 5 12.5t12 4.5q8 0 13 -4.5t5 -12.5z" />
    <glyph glyph-name="uni0058" unicode="X" horiz-adv-x="624" 
d="M391 380l154 -324q9 -20 -2.5 -38.5t-33.5 -18.5h-87q-19 0 -35.5 10.5t-24.5 27.5l-75 158q-6 12 -19 12q-12 0 -18 -11l-104 -189q-2 -3 -7 -7t-12 -4q-4 0 -6 2q-9 4 -9 11.5t2 11.5q1 1 6 10.5l13.5 24.5l19 34l21.5 39l57 104q10 17 10.5 37.5t-8.5 38.5l-154 324
q-10 20 2 38.5t34 18.5h86q20 0 36 -10.5t24 -27.5l75 -158q6 -12 19 -12t19 11l52 94l22.5 40l15.5 27.5t11.5 21.5t5.5 10q5 10 17 10q2 0 8 -2q7 -4 8 -11t-2 -12q-1 -1 -6.5 -11.5l-14 -25.5l-19 -34.5l-21.5 -38.5l-58 -105q-10 -17 -10.5 -37.5t8.5 -38.5z" />
    <glyph glyph-name="uni0059" unicode="Y" horiz-adv-x="590" 
d="M559 669l-164 -354q-12 -25 -12 -55v-206q0 -23 -16 -39t-39 -16h-64q-23 0 -38.5 16t-15.5 39v206q0 27 -13 56l-163 352q-2 5 -2 9q0 5 1 8.5t6 6.5q6 3 10 3q6 0 11 -4t7 -9q1 -1 10 -21.5l24 -53l34 -73l38 -82.5l104 -225q6 -12 19 -12q15 0 19 12l210 455
q1 2 4.5 7t11.5 5q5 0 8 -1q9 -4 11 -15q0 -4 -1 -9z" />
    <glyph glyph-name="uni005A" unicode="Z" horiz-adv-x="629" 
d="M522 35q8 0 12.5 -5t4.5 -13q0 -7 -4.5 -12t-12.5 -5h-344q-26 0 -41 21t-7 46l186 542q6 17 -5 32.5t-29 15.5h-175q-7 0 -12 4.5t-5 12.5t5 12.5t12 4.5h344q26 0 41 -21t7 -46l-186 -542q-6 -17 5 -32.5t29 -15.5z" />
    <glyph glyph-name="uni0061" unicode="a" horiz-adv-x="555" 
d="M529 21q1 -2 0.5 -9t-11.5 -12q-2 -1 -6 -1q-8 0 -11.5 5.5t-4.5 7.5q0 2 -5.5 19t-11.5 38l-16 53q-5 16 -18 25.5t-30 9.5h-139q-17 0 -30 -9.5t-18 -25.5l-27 -92q-4 -13 -14.5 -20.5t-23.5 -7.5h-99q-20 0 -31.5 15.5t-5.5 34.5l184 613q4 12 14 20t23 8h50
q30 0 38 -28zM415 192q10 0 16 8t3 18l-69 231q-5 14 -20 14q-14 0 -19 -14l-69 -231q-3 -10 3 -18t16 -8h139z" />
    <glyph glyph-name="uni00E1" unicode="&#xe1;" horiz-adv-x="555" 
d="M529 21q1 -2 0.5 -9t-11.5 -12q-2 -1 -6 -1q-7 0 -11.5 6t-4.5 7t-5.5 18.5l-11.5 37.5q-7 24 -17 54q-4 16 -17 25.5t-30 9.5h-140q-16 0 -29 -9.5t-18 -25.5l-28 -93q-3 -12 -13.5 -19.5t-23.5 -7.5h-99q-19 0 -31 15.5t-7 34.5l184 613q4 12 14.5 20t23.5 8h50
q13 0 23.5 -8t13.5 -20zM414 192q11 0 17 8t3 17l-70 231q-4 15 -19 15q-14 0 -19 -15l-69 -231q-3 -9 3 -17t16 -8h138zM395 893q6 -7 6 -17t-7 -18l-95 -98q-3 -5 -11 -5q-9 0 -13 9.5t2 16.5l81 104q11 12 25 12q7 0 12 -4z" />
    <glyph glyph-name="uni0062" unicode="b" horiz-adv-x="639" 
d="M580 278q0 -58 -22 -108.5t-59.5 -88t-88 -59t-106.5 -21.5h-197q-19 0 -32 13.5t-13 32.5v600q0 18 13 32t32 14h197q21 0 40 -8.5t32.5 -22.5t22 -33t8.5 -40q0 -22 -8 -41q-4 -9 5 -12q1 -1 3 -2t4 -1q38 -17 69.5 -43t53.5 -59.5t34 -72.5t12 -80zM546 278
q0 72 -39 131t-104 89q-12 3 -19 4.5t-17 1.5l-63 1q-8 0 -13 4.5t-5 12.5q0 7 5 12t13 6h39q3 -1 6 0q7 2 11 9q13 17 13 40q0 28 -20.5 48.5t-48.5 20.5h-34q-12 0 -23.5 -7.5t-11.5 -26.5v-547q0 -16 7.5 -28.5t30.5 -12.5h31q49 0 93.5 19t77 51.5t52 77t19.5 94.5z" />
    <glyph glyph-name="uni0063" unicode="c" horiz-adv-x="637" 
d="M582 63q0 -6 -6.5 -12t-14.5 -10.5t-16.5 -8l-13.5 -5.5q-65 -28 -138 -28t-137.5 28t-112.5 76t-75.5 112.5t-27.5 136.5q0 73 28 137.5t76 112.5t112 75.5t137 27.5q53 0 92.5 -12.5t85.5 -35.5q9 -5 9 -15q0 -8 -5.5 -13t-12.5 -5q-4 0 -11 4q-39 19 -76.5 30.5
t-81.5 11.5q-33 0 -67.5 -6.5t-62.5 -22.5t-46 -42t-18 -66v-362q0 -39 18 -65.5t46 -42.5t62.5 -22.5t67.5 -6.5q86 0 160 43q3 1 5.5 2.5t5.5 1.5q7 0 12.5 -5t5.5 -13z" />
    <glyph glyph-name="uni0064" unicode="d" horiz-adv-x="633" 
d="M581 347q0 -69 -25.5 -130.5t-70 -108.5t-104 -75.5t-128.5 -31.5h-118q-23 0 -39 16t-16 39v581q0 23 16 39t39 16h118q68 -3 128 -31.5t104.5 -75t70 -108t25.5 -130.5zM547 347q0 54 -18.5 104.5t-51.5 91t-78 69t-98 39.5q-2 0 -4 0.5t-4 0.5q-17 0 -28.5 -12.5
t-11.5 -29.5v-527q0 -22 14 -31.5t34 -9.5q53 11 98 40t78 69.5t51.5 91t18.5 104.5z" />
    <glyph glyph-name="uni0065" unicode="e" horiz-adv-x="522" 
d="M115 0q-23 0 -38.5 16t-15.5 39v582q0 23 15.5 39t38.5 16h361q7 0 12 -5.5t5 -12.5t-5 -12t-12 -5h-208q-15 0 -24.5 -10t-9.5 -24v-239q0 -14 9.5 -24t24.5 -10h121q7 -1 12 -5.5t5 -11.5t-5 -12t-12 -5h-121q-15 0 -24.5 -10.5t-9.5 -23.5v-213q0 -14 9.5 -24
t24.5 -10h208q7 0 12 -5t5 -12q0 -8 -5 -13t-12 -5h-361z" />
    <glyph glyph-name="uni00E9" unicode="&#xe9;" horiz-adv-x="522" 
d="M409 885q6 -7 6 -17t-7 -18l-95 -98q-3 -5 -11 -5q-10 0 -14 9.5t3 16.5l81 104q11 12 25 12q7 0 12 -4zM115 0q-23 0 -38.5 16t-15.5 39v582q0 23 15.5 39t38.5 16h361q7 0 12 -5.5t5 -12.5t-5 -12t-12 -5h-208q-15 0 -24.5 -10t-9.5 -24v-239q0 -14 9.5 -24t24.5 -10
h121q7 -1 12 -5.5t5 -11.5t-5 -12t-12 -5h-121q-15 0 -24.5 -10.5t-9.5 -23.5v-213q0 -14 9.5 -24t24.5 -10h208q7 0 12 -5t5 -12q0 -8 -5 -13t-12 -5h-361z" />
    <glyph glyph-name="uni0066" unicode="f" horiz-adv-x="494" 
d="M218 57q0 -24 -16.5 -40t-39.5 -16h-62q-23 0 -39 16t-16 39v582q0 22 16 38.5t39 16.5h337q7 0 12.5 -5.5t5.5 -12.5t-5.5 -12t-12.5 -5h-174q-19 0 -32 -13.5t-13 -31.5v-217q0 -19 13 -32t32 -13h111q7 0 11.5 -5.5t4.5 -11.5q0 -16 -16 -17h-111q-19 0 -32 -13.5
t-13 -31.5v-215z" />
    <glyph glyph-name="uni0067" unicode="g" horiz-adv-x="633" 
d="M503 313q21 0 35.5 -15t14.5 -35v-205q0 -20 -20 -32.5t-46.5 -19.5t-53 -9t-39.5 -2h-18q-71 3 -132 33t-106.5 78t-71.5 110.5t-26 132.5q0 74 28 138.5t76.5 112.5t112.5 75.5t137 27.5t138 -28q7 -2 11.5 -9t0.5 -15q-6 -10 -17 -10q-6 0 -9 2q-61 25 -124 25
q-66 0 -124 -25.5t-101.5 -69t-68.5 -101.5t-25 -123q0 -55 18 -105t49.5 -90.5t76 -70t96.5 -43.5q4 -1 12 -1q20 0 34.5 14t14.5 35v161q0 12 -8 20t-20 8h-86q-8 0 -13.5 5.5t-4.5 13.5q0 8 5.5 12.5t13.5 4.5h240z" />
    <glyph glyph-name="uni0068" unicode="h" horiz-adv-x="663" 
d="M574 696q7 0 12 -5.5t5 -12.5v-656q0 -8 -5 -13t-12 -5q-8 0 -12.5 5t-4.5 13v252q0 24 -17.5 41.5t-41.5 17.5h-193q-25 0 -42 -17.5t-17 -41.5v-224q0 -19 -13.5 -32.5t-32.5 -13.5h-81q-20 0 -33 13.5t-13 32.5v600q0 18 13 32t33 14h81q19 0 32.5 -14t13.5 -32v-224
q0 -25 17 -42t42 -17h193q24 0 41.5 17t17.5 42v252q0 7 4.5 12.5t12.5 5.5z" />
    <glyph glyph-name="uni0069" unicode="i" horiz-adv-x="297" 
d="M117 -1q-23 0 -39 16t-16 39v581q0 23 16 39t39 16h63q23 0 39 -16t16 -39v-581q0 -23 -16 -39t-39 -16h-63z" />
    <glyph glyph-name="uni00ED" unicode="&#xed;" horiz-adv-x="275" 
d="M261 890q6 -7 6 -17t-7 -18l-95 -98q-3 -5 -11 -5q-10 0 -14 9.5t3 16.5l81 104q10 12 25 12q7 0 12 -4zM106 -1q-23 0 -38.5 16t-15.5 39v582q0 22 15.5 38.5t38.5 16.5h64q22 0 38 -16.5t16 -38.5v-582q0 -23 -16 -39t-38 -16h-64z" />
    <glyph glyph-name="uni006A" unicode="j" horiz-adv-x="574" 
d="M72 655q-7 0 -12 5t-5 13q0 7 5 12t12 5h408q17 0 28 -11t11 -28v-376q0 -58 -22 -108t-60 -87.5t-88 -59t-107 -21.5q-44 0 -86.5 14.5t-78.5 40.5l-14 11q-4 4 -6 8q-2 3 -2 7t4 9q6 7 13 7q4 0 8 -2l4 -2l13 -10q30 -23 68.5 -36t76.5 -13q16 1 34 3t33.5 9t25.5 19.5
t10 33.5v520q0 16 -11 27t-27 11h-235v-1z" />
    <glyph glyph-name="uni006B" unicode="k" horiz-adv-x="622" 
d="M566 688q8 -7 5 -15t-5 -11q-1 0 -13 -12.5l-31 -33l-43.5 -46l-50.5 -52.5l-134 -143q-12 -12 -12 -28t12 -29l273 -289q1 -1 4 -8t-4 -15q-5 -5 -12 -5q-5 0 -9 2.5l-4 2.5l-13 13.5l-31 32.5l-43 45.5l-50 52.5l-133 140q-5 6 -12 6t-12 -4.5t-5 -12.5v-229
q0 -20 -14.5 -34.5t-34.5 -14.5h-75q-21 0 -35 14.5t-14 34.5v593q0 21 14 35t35 14h75q20 0 34.5 -14t14.5 -35v-229q0 -7 5 -12t12 -5t12 6l268 281q1 2 5.5 5t10.5 3t10 -4z" />
    <glyph glyph-name="uni006C" unicode="l" horiz-adv-x="522" 
d="M103 0q-22 0 -37.5 15.5t-15.5 37.5v585q0 22 15.5 37.5t37.5 15.5h67q22 0 37.5 -15.5t15.5 -37.5v-546q0 -24 16.5 -41t40.5 -17h184q8 1 13 -4.5t5 -12.5t-5 -12t-12 -5h-362z" />
    <glyph glyph-name="uni006D" unicode="m" horiz-adv-x="728" 
d="M658 669v-656q0 -7 -5 -12t-13 -5q-7 0 -12 5t-5 12v469q0 6 -4 9.5t-9 3.5q-10 0 -13 -9l-141 -471q-5 -19 -23 -19q-19 0 -22 19l-142 471q-3 9 -13 9q-5 0 -9 -3.5t-4 -9.5v-422q0 -26 -18 -44t-44 -18h-49q-26 0 -44 18t-18 44v568q0 26 18 43.5t44 17.5h63
q22 0 39 -13t24 -33l162 -543q3 -9 13 -9t13 9l173 576q5 13 19 13q8 0 14 -6t6 -14z" />
    <glyph glyph-name="uni006E" unicode="n" horiz-adv-x="631" 
d="M571 673v-651q0 -9 -6.5 -15.5t-15.5 -6.5q-14 0 -21 14l-264 555q-3 7 -10 7q-11 0 -11 -12v-510q0 -23 -15.5 -38.5t-38.5 -15.5h-65q-23 0 -38.5 15.5t-15.5 38.5v583q0 23 15.5 38.5t38.5 15.5h85q17 0 30.5 -8.5t20.5 -23.5l255 -537q4 -7 10 -7q11 0 11 12l1 546
q0 7 4.5 12t12.5 5q7 0 12 -5t5 -12z" />
    <glyph glyph-name="uni00F1" unicode="&#xf1;" horiz-adv-x="641" 
d="M467 836q16 0 16 -16q0 -35 -21 -55.5t-57 -20.5q-29 0 -45 13t-27 25q-10 12 -18 18t-22 6q-47 0 -47 -45q0 -6 -4.5 -10.5t-10.5 -4.5q-7 0 -11.5 4.5t-4.5 10.5q0 37 21 56.5t57 19.5q25 0 39 -11t24 -23q11 -11 20.5 -19t28.5 -8q46 0 46 44q0 16 16 16zM571 673
v-651q0 -9 -6.5 -15.5t-15.5 -6.5q-14 0 -21 14l-264 555q-3 7 -10 7q-11 0 -11 -12v-510q0 -23 -15.5 -38.5t-38.5 -15.5h-65q-23 0 -38.5 15.5t-15.5 38.5v583q0 23 15.5 38.5t38.5 15.5h85q17 0 30.5 -8.5t20.5 -23.5l255 -537q4 -7 10 -7q11 0 11 12l1 546q0 7 4.5 12
t12.5 5q7 0 12 -5t5 -12z" />
    <glyph glyph-name="uni006F" unicode="o" horiz-adv-x="662" 
d="M615 349q0 -70 -15.5 -134.5t-50 -113.5t-88 -78t-130.5 -29t-131 30t-88 79.5t-49.5 113.5t-15.5 132q0 70 16 134.5t50 113.5t88 78t130 29q78 0 132 -29.5t88 -79t49 -113.5t15 -133zM580 349q0 62 -13 120t-42.5 102.5t-77 71t-116.5 26.5q-17 0 -36 -2t-34.5 -8.5
t-25.5 -19.5t-10 -36v-508q0 -22 10 -35.5t26 -20t34.5 -8.5t35.5 -2q68 0 115.5 27t77.5 71.5t43 102t13 119.5z" />
    <glyph glyph-name="uni00F3" unicode="&#xf3;" horiz-adv-x="662" 
d="M461 906q6 -7 6 -16.5t-7 -17.5l-95 -98q-4 -5 -11 -5q-10 0 -14 8.5t2 16.5l82 105q5 5 11 8.5t13 3.5q6 0 13 -5zM615 349q0 -70 -15.5 -134.5t-50 -113.5t-88 -78t-130.5 -29t-131 30t-88 79.5t-49.5 113.5t-15.5 132q0 70 16 134.5t50 113.5t88 78t130 29
q78 0 132 -29.5t88 -79t49 -113.5t15 -133zM580 349q0 62 -13 120t-42.5 102.5t-77 71t-116.5 26.5q-17 0 -36 -2t-34.5 -8.5t-25.5 -19.5t-10 -36v-508q0 -22 10 -35.5t26 -20t34.5 -8.5t35.5 -2q68 0 115.5 27t77.5 71.5t43 102t13 119.5z" />
    <glyph glyph-name="uni00F6" unicode="&#xf6;" horiz-adv-x="662" 
d="M229 766q-22 0 -37 16.5t-15 37.5t15.5 36.5t36.5 15.5t37 -15t16 -37t-15.5 -38t-37.5 -16zM416 766q-22 0 -37 16.5t-15 37.5t15.5 36.5t36.5 15.5t37 -15t16 -37t-15.5 -38t-37.5 -16zM615 349q0 -70 -15.5 -134.5t-50 -113.5t-88 -78t-130.5 -29t-131 30t-88 79.5
t-49.5 113.5t-15.5 132q0 70 16 134.5t50 113.5t88 78t130 29q78 0 132 -29.5t88 -79t49 -113.5t15 -133zM580 349q0 62 -13 120t-42.5 102.5t-77 71t-116.5 26.5q-17 0 -36 -2t-34.5 -8.5t-25.5 -19.5t-10 -36v-508q0 -22 10 -35.5t26 -20t34.5 -8.5t35.5 -2q68 0 115.5 27
t77.5 71.5t43 102t13 119.5z" />
    <glyph glyph-name="uni0070" unicode="p" horiz-adv-x="600" 
d="M560 432q0 -51 -18.5 -96.5t-51.5 -80.5t-76.5 -56.5t-94.5 -24.5h-54q-14 0 -23 -9t-9 -23v-84q0 -24 -17 -41t-42 -17h-56q-24 0 -41 17t-17 41v573q0 24 17 41t41 17h201q50 -2 94 -23.5t76.5 -57t51.5 -81t19 -95.5zM528 432q0 45 -16 84.5t-44.5 69.5t-66.5 48.5
t-82 22.5h-54q-14 0 -23 -9.5t-9 -22.5v-386q0 -13 9 -22.5t23 -9.5h54q44 4 82.5 22.5t66.5 49t44 69.5t16 84z" />
    <glyph glyph-name="uni0071" unicode="q" horiz-adv-x="734" 
d="M624 351q0 -71 -17 -139.5t-62 -124.5l45 -61q2 -3 4.5 -10.5t-5.5 -14.5q-5 -4 -11 -4q-5 0 -9.5 3t-6.5 5t-8.5 11l-13.5 19l-20 26q-35 -33 -83 -48t-95 -15q-77 0 -130.5 30t-87 79t-49 113t-15.5 131q0 69 16 133t50 113t87.5 78t128.5 29q77 0 130.5 -30t87.5 -79
t49 -112.5t15 -131.5zM589 351q0 62 -13 119.5t-42 101.5t-76 70t-116 26q-15 0 -29 -1.5t-28 -3.5q-22 -5 -35.5 -23t-13.5 -41v-496q0 -23 13.5 -41t35.5 -23q14 -2 28 -3.5t29 -1.5q69 0 116 26t76 70t42 101.5t13 119.5z" />
    <glyph glyph-name="uni0072" unicode="r" horiz-adv-x="623" 
d="M460 229q-7 -5 -14 -16t6 -31l22 -35l32.5 -50.5l29.5 -46t14 -21.5q2 -2 4.5 -9.5t-7.5 -14.5q-4 -3 -9 -3q-6 0 -10.5 3.5t-6.5 5.5q0 1 -5 8t-12.5 19l-16.5 26.5l-19 29.5l-52 79q-10 16 -29 16q-5 0 -11 -2q-27 -7 -54 -9h-42q-18 0 -31 -13t-13 -32v-72
q0 -24 -17 -41t-40 -17h-59q-23 0 -40 17t-17 41v575q0 23 17 40t40 17h202q51 -4 95.5 -25.5t76.5 -56.5t50.5 -80t18.5 -96q0 -53 -19.5 -99t-56.5 -83q-6 -7 -13 -13t-14 -11zM531 435q0 45 -16 84.5t-44.5 69.5t-66.5 49t-82 23l-42 -1q-18 0 -31 -13t-13 -31v-361
q0 -18 13 -31t31 -14h42q44 4 82.5 23t66.5 49t44 69.5t16 83.5z" />
    <glyph glyph-name="uni0073" unicode="s" horiz-adv-x="471" 
d="M410 304q8 -20 12 -41t4 -43t-4 -43t-12 -41q-28 -64 -82 -101t-124 -37q-92 0 -157 65q-4 5 -5 10q-2 4 -2 8.5t5 9.5q4 5 10 5t12 -4q3 -2 5 -4q26 -26 60.5 -40.5t71.5 -14.5q18 0 31 4.5t13 27.5v312q0 25 -22 28q-5 1 -11 1h-11q-31 0 -58.5 12t-48 32.5t-32.5 48
t-12 58.5q0 45 25.5 84.5t68.5 55.5q25 11 57 11q30 0 57.5 -11t48.5 -33q4 -4 6 -9q2 -4 1.5 -8.5t-6.5 -9.5q-4 -4 -11 -4q-5 0 -10 3q-3 1 -5 3q-32 34 -81 34q-24 0 -45 -9t-37 -25t-25 -37t-9 -45t9 -45t25 -36.5t37 -24.5t45 -9q70 0 124 -37t82 -101z" />
    <glyph glyph-name="uni0074" unicode="t" 
d="M477 691q8 0 12.5 -5t4.5 -12q0 -8 -4.5 -13t-12.5 -5l-80 1q-17 0 -29 -12t-12 -29v-562q0 -23 -15.5 -38.5t-37.5 -15.5h-66q-23 0 -38.5 15.5t-15.5 38.5v562q0 17 -12 29t-29 12l-80 -1q-7 0 -12 5t-5 13q0 7 5 12t12 5h415z" />
    <glyph glyph-name="uni0075" unicode="u" 
d="M425 694q22 0 38 -15.5t16 -38.5v-436q0 -44 -16.5 -82t-45 -66.5t-67 -44.5t-81.5 -16q-44 0 -82 16.5t-66.5 45t-44.5 66.5t-16 81v473q0 7 5 12t12 5q8 0 13 -5t5 -12v-473q0 -36 13.5 -68t37.5 -55.5t55.5 -37t67.5 -13.5q9 0 22 7t13 33v570q0 23 15.5 38.5
t38.5 15.5h67z" />
    <glyph glyph-name="uni00FA" unicode="&#xfa;" 
d="M425 694q22 0 38 -15.5t16 -38.5v-436q0 -44 -16.5 -82t-45 -66.5t-67 -44.5t-81.5 -16q-44 0 -82 16.5t-66.5 45t-44.5 66.5t-16 81v473q0 7 5 12t12 5q8 0 13 -5t5 -12v-473q0 -36 13.5 -68t37.5 -55.5t55.5 -37t67.5 -13.5q9 0 22 7t13 33v570q0 23 15.5 38.5
t38.5 15.5h67zM362 889q7 -7 7 -16.5t-8 -17.5l-94 -98q-4 -5 -11 -5q-10 0 -14 8.5t2 16.5l82 105q4 5 10.5 8.5t13.5 3.5t12 -5z" />
    <glyph glyph-name="uni00FC" unicode="&#xfc;" 
d="M425 694q22 0 38 -15.5t16 -38.5v-436q0 -44 -16.5 -82t-45 -66.5t-67 -44.5t-81.5 -16q-44 0 -82 16.5t-66.5 45t-44.5 66.5t-16 81v473q0 7 5 12t12 5q8 0 13 -5t5 -12v-473q0 -36 13.5 -68t37.5 -55.5t55.5 -37t67.5 -13.5q9 0 22 7t13 33v570q0 23 15.5 38.5
t38.5 15.5h67zM177 766q-22 0 -37 16.5t-15 37.5t16 36.5t36 15.5q22 0 37.5 -15t15.5 -37t-15.5 -38t-37.5 -16zM364 766q-21 0 -36.5 16.5t-15.5 37.5t16 36.5t36 15.5q22 0 37.5 -15t15.5 -37t-15.5 -38t-37.5 -16z" />
    <glyph glyph-name="uni0076" unicode="v" horiz-adv-x="597" 
d="M537 696q8 0 12.5 -5t2.5 -13l-192 -640q-6 -20 -22 -31.5t-36 -11.5h-19q-20 0 -36 11.5t-21 31.5l-179 596q-6 20 6 36t33 16h96q13 0 23.5 -8t14.5 -21l125 -416q2 -8 8 -11.5t12 -3.5t12 3.5t8 11.5l65 218l28 92l18.5 62.5l14.5 48t6 20.5q2 5 7.5 9.5t12.5 4.5z
" />
    <glyph glyph-name="uni0077" unicode="w" horiz-adv-x="778" 
d="M678 675v-656q0 -8 -6 -14t-14 -6q-14 0 -19 14l-173 575q-3 9 -13 9t-13 -9l-162 -542q-7 -21 -24 -34t-39 -13h-63q-26 0 -44 18t-18 44v568q0 26 18 43.5t44 17.5h49q26 0 44 -17.5t18 -43.5v-422q0 -7 4 -10.5t9 -3.5q10 0 13 10l142 471q2 5 5 9q2 4 6.5 6.5
t10.5 2.5q7 0 11.5 -3t6.5 -6q3 -5 5 -10l141 -470q3 -10 13 -10q5 0 9 3.5t4 10.5v468q0 8 5 12.5t12 4.5q8 0 13 -4.5t5 -12.5z" />
    <glyph glyph-name="uni0078" unicode="x" horiz-adv-x="624" 
d="M391 380l154 -324q9 -20 -2.5 -38.5t-33.5 -18.5h-87q-19 0 -35.5 10.5t-24.5 27.5l-75 158q-6 12 -19 12q-12 0 -18 -11l-104 -189q-2 -3 -7 -7t-12 -4q-4 0 -6 2q-9 4 -9 11.5t2 11.5q1 1 6 10.5l13.5 24.5l19 34l21.5 39l57 104q10 17 10.5 37.5t-8.5 38.5l-154 324
q-10 20 2 38.5t34 18.5h86q20 0 36 -10.5t24 -27.5l75 -158q6 -12 19 -12t19 11l52 94l22.5 40l15.5 27.5t11.5 21.5t5.5 10q5 10 17 10q2 0 8 -2q7 -4 8 -11t-2 -12q-1 -1 -6.5 -11.5l-14 -25.5l-19 -34.5l-21.5 -38.5l-58 -105q-10 -17 -10.5 -37.5t8.5 -38.5z" />
    <glyph glyph-name="uni0079" unicode="y" horiz-adv-x="590" 
d="M559 669l-164 -354q-12 -25 -12 -55v-206q0 -23 -16 -39t-39 -16h-64q-23 0 -38.5 16t-15.5 39v206q0 27 -13 56l-163 352q-2 5 -2 9q0 5 1 8.5t6 6.5q6 3 10 3q6 0 11 -4t7 -9q1 -1 10 -21.5l24 -53l34 -73l38 -82.5l104 -225q6 -12 19 -12q15 0 19 12l210 455
q1 2 4.5 7t11.5 5q5 0 8 -1q9 -4 11 -15q0 -4 -1 -9z" />
    <glyph glyph-name="uni007A" unicode="z" horiz-adv-x="629" 
d="M522 35q8 0 12.5 -5t4.5 -13q0 -7 -4.5 -12t-12.5 -5h-344q-26 0 -41 21t-7 46l186 542q6 17 -5 32.5t-29 15.5h-175q-7 0 -12 4.5t-5 12.5t5 12.5t12 4.5h344q26 0 41 -21t7 -46l-186 -542q-6 -17 5 -32.5t29 -15.5z" />
    <glyph glyph-name="uniFB44.001" horiz-adv-x="606" 
 />
    <glyph glyph-name="uni0030" unicode="0" horiz-adv-x="640" 
d="M520 592q30 -53 40 -116.5t10 -123.5q0 -63 -11.5 -126.5t-40 -114.5t-76.5 -83t-122 -32q-75 0 -123.5 33t-76.5 84.5t-39 114.5t-11 124q0 63 11.5 126.5t40 115t76.5 83.5t122 32q135 0 200 -117zM392 628q0 15 -7 23.5t-17.5 13t-23.5 5.5t-24 1q-64 0 -104.5 -30.5
t-63.5 -78t-31.5 -103.5t-8.5 -107q0 -52 9 -108t32 -103t63.5 -77.5t103.5 -30.5q23 0 39 4q14 2 23.5 13.5t9.5 26.5v551z" />
    <glyph glyph-name="uni0031" unicode="1" horiz-adv-x="504" 
d="M375 695q26 0 44 -17.5t18 -44.5v-572q0 -26 -18 -44t-44 -18h-56q-25 0 -43.5 18t-18.5 44v552q-36 -36 -83.5 -57.5t-98.5 -26.5q0 -1 -3 -1q-5 0 -11 3.5t-8 12.5q-1 11 5.5 16t10.5 5q117 17 182 113q11 17 31 17h93z" />
    <glyph glyph-name="uni0032" unicode="2" horiz-adv-x="622" 
d="M528 37q9 0 15 -7t4 -16q-2 -7 -7.5 -11t-11.5 -4h-435q-10 0 -16.5 7.5t-4.5 16.5q11 61 48 108.5t86 82.5q18 14 36.5 26.5l37.5 25.5l22 14.5t24 16.5q19 13 19 36v303q0 13 -7 21.5t-28 8.5q-67 0 -111 -33t-63 -95q-3 -9 -5 -23.5t-4 -27.5q-2 -15 -3 -32
q0 -19 -22 -19q-9 1 -13 10q-2 4 -2 9q3 54 15 98.5t37.5 77t65.5 50.5t99 18q45 0 84 -12t67.5 -35.5t45 -58.5t16.5 -82q0 -46 -17 -84t-45 -70t-62.5 -58.5t-69.5 -49.5l-48.5 -33t-45.5 -33q-14 -10 -31 -23.5t-32 -29t-26.5 -32.5t-16.5 -35q-3 -10 2.5 -18t16.5 -8
h386z" />
    <glyph glyph-name="uni0033" unicode="3" horiz-adv-x="636" 
d="M556 204q0 -52 -19.5 -90.5t-52 -63.5t-75 -37.5t-89.5 -12.5q-37 0 -72.5 7.5t-65.5 24.5t-53.5 43t-35.5 63q-8 22 -11.5 47.5t-1.5 54.5q1 1 2 6.5t6 10.5q4 4 14 4q8 0 12 -3.5t6 -7.5t3 -10q-3 -46 11 -85q14 -37 39 -63q27 -31 67.5 -43t79.5 -12q8 0 19 1t20 3
q18 3 18 26v254q0 14 -9 24.5t-23 11.5q-7 0 -17 0.5t-19 0.5q-11 1 -22 1q-19 0 -19 19q0 8 5.5 13t13.5 5q15 0 29 1q13 0 25 0.5t21 2.5q59 7 97.5 42t38.5 96q0 36 -16.5 61.5t-42 42.5t-57 25t-62.5 8q-46 0 -79 -14.5t-55 -40.5t-33.5 -61.5t-12.5 -76.5
q-1 -6 -5.5 -14.5t-17.5 -7.5q-9 0 -14 6q-4 4 -5 10q-1 3 -1 6q0 51 16 93.5t45 73t70.5 47.5t91.5 17q42 0 81.5 -10t70 -31.5t49.5 -54.5t19 -79t-20 -83t-60 -59q-12 -6 -12 -14q0 -9 20 -20q44 -24 66 -66.5t22 -91.5z" />
    <glyph glyph-name="uni0034" unicode="4" horiz-adv-x="688" 
d="M640 214q8 0 13 -5.5t5 -13.5q0 -7 -5 -13t-13 -6h-76q-10 0 -17.5 -7t-7.5 -18v-115q0 -15 -10.5 -25.5t-26.5 -10.5h-108q-16 0 -26 10t-10 26v115q0 11 -7.5 18t-18.5 7h-301q-9 0 -15 6t-6 15q0 7 4 12q1 1 25 34.5l59 83.5l76.5 109l78 110l62 87t28.5 40
q16 23 44 23h115q16 0 26.5 -10.5t10.5 -25.5v-421q0 -10 7.5 -17.5t17.5 -7.5h76zM83 223q5 -9 15 -9h206q23 0 38.5 15.5t15.5 37.5l-2 347q0 5 -5 7l-267 -380q-6 -7 -1 -18z" />
    <glyph glyph-name="uni0035" unicode="5" horiz-adv-x="603" 
d="M543 236q0 -53 -17.5 -97t-48.5 -76t-74 -50t-95 -18q-34 0 -68 8t-63.5 24.5t-53.5 41t-38 56.5q-8 21 -12.5 44.5t-2.5 49.5q0 3 1 5q2 6 6 10q6 6 15 6q10 0 14 -6q5 -5 6 -10.5t1 -6.5q-2 -41 14 -75q24 -54 74 -82t107 -28q18 0 34 4q5 1 13.5 6.5t8.5 28.5v332
q0 16 -11 22t-17 7q-8 2 -14 2h-14q-59 0 -99.5 -23.5t-74.5 -71.5q-6 -8 -11 -14t-13 -6q-4 0 -6 1q-9 3 -11.5 9.5t-1.5 11.5l68 334q2 10 9.5 16t17.5 6h326q8 0 13 -5t5 -13t-5 -13.5t-13 -5.5h-297q-8 0 -14 -5t-8 -13l-51 -236q15 10 32.5 23.5t36.5 21.5q45 21 97 21
q51 0 94 -17.5t74.5 -48.5t49 -74.5t17.5 -95.5z" />
    <glyph glyph-name="uni0036" unicode="6" horiz-adv-x="635" 
d="M555 229q0 -50 -17.5 -92.5t-48.5 -73.5t-73 -48t-91 -17q-73 0 -120.5 27.5t-75 72.5t-38.5 103t-11 118q0 65 10 134t37.5 125.5t77 93t128.5 36.5q42 0 78.5 -11.5t64 -34t45 -55.5t22.5 -76v-5q-1 -6 -3 -10q-4 -5 -14 -7h-3q-8 0 -12 4q-5 4 -6 8.5t-2 5.5
q-5 33 -20 59.5t-37.5 46t-51.5 30t-61 10.5q-63 0 -103.5 -30t-64.5 -76.5t-33 -102t-9 -106.5q0 -6 6 -6q3 2 12 12.5t11 12.5q68 87 173 87q50 0 92.5 -17.5t73 -49t47.5 -74.5t17 -94zM355 36q2 0 13 6t11 27v325q0 3 -1.5 9t-7 12t-16 10t-29.5 4q-43 0 -78.5 -16
t-60.5 -43t-39 -63.5t-14 -77.5t14.5 -77t40.5 -62.5t61 -41.5t76 -15q15 0 30 3z" />
    <glyph glyph-name="uni0037" unicode="7" horiz-adv-x="579" 
d="M500 695q12 0 20 -7.5t8 -19.5q0 -11 -9 -24q-38 -41 -74 -85t-66 -92q-17 -27 -17 -61v-360q0 -19 -13.5 -33t-33.5 -14h-82q-23 0 -35 15q-15 17 -12 37q11 93 34 171t58 149t82 137t107 133q4 6 1 11q-2 6 -9 6h-380q-7 0 -13 6t-6 13q0 8 6 13t13 5h421z" />
    <glyph glyph-name="uni0038" unicode="8" horiz-adv-x="629" 
d="M420 384q67 -17 100.5 -62.5t33.5 -114.5q0 -54 -19.5 -93.5t-52 -65.5t-76.5 -38.5t-92 -12.5q-51 0 -94.5 13t-76 39.5t-50.5 65.5t-18 92q0 76 41 123q15 23 41 35t48 18q-49 26 -76.5 60t-27.5 93q0 48 17.5 81t47.5 54t68.5 30t79.5 9q43 0 82 -9.5t68.5 -30.5
t46.5 -54t17 -80q0 -56 -27.5 -94t-80.5 -54v-4zM314 365q-25 0 -52 -4t-51.5 -14t-45 -26.5t-32.5 -41.5q-16 -28 -16 -72t16 -76.5t43 -54t62.5 -32t75.5 -10.5q41 0 77 11t62.5 33t42 54t15.5 75q0 44 -16.5 74t-44 49t-63 27t-73.5 8zM314 402q32 0 63 7.5t55 23.5
t39 41.5t15 61.5q0 39 -15 64q-12 25 -32 39t-43.5 21.5t-49.5 9.5t-50 2q-1 0 -8 -3.5t-7 -17.5v-227q0 -14 7 -17.5t12 -3.5q4 -1 7.5 -1h6.5z" />
    <glyph glyph-name="uni0039" unicode="9" horiz-adv-x="646" 
d="M563 390q0 -69 -9.5 -131.5t-36.5 -126.5q-33 -66 -83.5 -99t-124.5 -33q-88 0 -144 46t-67 134v6.5t4 10.5q3 7 12 8q9 0 16.5 -4.5t8.5 -14.5q12 -67 56 -108t114 -41q64 0 105 32.5t64.5 81.5t33 107t9.5 109q-8 -8 -14.5 -18.5l-11.5 -18.5q-32 -44 -76 -65t-97 -21
t-96 18t-73.5 49.5t-47 74.5t-16.5 94q0 52 17.5 95t48.5 73.5t74 47t93 16.5q13 0 26.5 -1t27.5 -4q28 -4 56 -17q42 -22 67.5 -55.5t39.5 -73.5t19 -84t5 -87zM513 480q0 41 -14.5 76.5t-40.5 62t-60.5 41.5t-75.5 15q-20 0 -36.5 -6.5t-16.5 -32.5v-312q0 -6 4 -21.5
t21 -19.5q7 0 14 -1t14 -1q42 0 77.5 16t60.5 43t39 63.5t14 76.5z" />
    <glyph glyph-name="uni2044" unicode="&#x2044;" horiz-adv-x="160" 
d="M-145 19q-11 0 -17 9q-5 9 -1 18l450 659q5 12 18 12q11 0 17 -9q5 -9 1 -18l-450 -659q-5 -12 -18 -12z" />
    <glyph glyph-name="uni002A" unicode="*" horiz-adv-x="445" 
d="M336 617q2 1 5 1q12 0 15 -10v-1q2 -6 -0.5 -12t-9.5 -8l-77 -26q-7 -3 -9.5 -10.5t1.5 -13.5l48 -65q9 -12 -2 -21q-4 -4 -10 -4q-8 0 -13 6l-48 67q-6 6 -13 6t-13 -6l-51 -68q-4 -6 -12 -6q-6 0 -10 4l-2 1q-4 4 -5 10t3 11l51 65q5 6 3 13.5t-10 10.5l-78 26
q-6 2 -9 8t-1 12q3 11 15 11q3 0 5 -1l77 -26q2 0 3 -0.5t2 -0.5q16 0 16 16v82q0 16 16 16q6 0 10.5 -4.5t4.5 -11.5v-82q0 -10 7 -12.5t14 -2.5z" />
    <glyph glyph-name="uni005C" unicode="\" horiz-adv-x="538" 
d="M423 -30q-13 0 -18 12l-280 659q-5 10 2 18q5 9 16 9q13 0 18 -12l280 -659q5 -10 -2 -18q-4 -9 -16 -9z" />
    <glyph glyph-name="uni00B7" unicode="&#xb7;" horiz-adv-x="330" 
d="M165 275q-21 0 -36.5 16t-15.5 37q0 20 15.5 36.5t36.5 16.5t37 -16t16 -37q0 -22 -16 -37.5t-37 -15.5z" />
    <glyph glyph-name="uni2022" unicode="&#x2022;" horiz-adv-x="385" 
d="M188 278q-21 0 -36.5 16t-15.5 37t15.5 37t36.5 16t37 -15.5t16 -37.5q0 -21 -16 -37t-37 -16z" />
    <glyph glyph-name="uni003A" unicode=":" horiz-adv-x="295" 
d="M147 436q-21 0 -36.5 16.5t-15.5 36.5q0 21 15.5 37t36.5 16q22 0 37.5 -15.5t15.5 -37.5q0 -21 -16 -37t-37 -16zM147 96q-21 0 -36.5 16t-15.5 37q0 20 15.5 36.5t36.5 16.5q22 0 37.5 -16t15.5 -37t-16 -37t-37 -16z" />
    <glyph glyph-name="uni002C" unicode="," horiz-adv-x="227" 
d="M142 69q6 -8 6 -17.5t-7 -17.5l-94 -98q-5 -5 -12 -5q-10 0 -14 9t3 17l81 104q10 12 25 12q7 0 12 -4z" />
    <glyph glyph-name="uni2026" unicode="&#x2026;" horiz-adv-x="752" 
d="M376 32q-21 0 -36.5 16t-15.5 37t15.5 37t36.5 16t37 -15.5t16 -37.5q0 -21 -16 -37t-37 -16zM616 32q-20 0 -36 16t-16 37t15.5 37t36.5 16q22 0 37.5 -15.5t15.5 -37.5q0 -21 -15.5 -37t-37.5 -16zM135 32q-21 0 -36.5 16t-15.5 37t15.5 37t36.5 16q22 0 37.5 -15.5
t15.5 -37.5q0 -21 -15.5 -37t-37.5 -16z" />
    <glyph glyph-name="uni0021" unicode="!" horiz-adv-x="295" 
d="M150 164q-13 0 -13 14l-11 256v245q0 14 14 14h21q14 0 14 -14v-245l-11 -256q0 -14 -14 -14zM148 -1q-23 0 -39.5 16t-16.5 39q0 22 16.5 38.5t39.5 16.5t39 -16.5t16 -38.5q0 -23 -16 -39t-39 -16z" />
    <glyph glyph-name="uni00A1" unicode="&#xa1;" horiz-adv-x="288" 
d="M142 342q6 0 10 -3.5t4 -9.5l11 -258v-212q0 -6 -4 -10t-10 -4h-22q-13 0 -13 14v212l10 258q2 13 14 13zM145 509q24 0 39.5 -16t15.5 -40q0 -22 -15.5 -38.5t-39.5 -16.5q-23 0 -39 16.5t-16 38.5q0 24 16 40t39 16z" />
    <glyph glyph-name="uni0023" unicode="#" horiz-adv-x="654" 
d="M437 231q-11 0 -13 -12l-26 -188q-1 -6 -6 -10.5t-11 -4.5q-7 0 -13 6t-4 14l24 180q1 6 -3 10q-3 5 -9 5h-126q-11 0 -13 -12l-26 -188q-1 -6 -6 -10.5t-12 -4.5q-5 0 -13 6q-4 5 -4 14l25 180q1 6 -3 10q-3 5 -10 5h-76q-7 0 -12 4.5t-5 12.5t5 13t12 5h85q11 0 13 11
l18 130q1 4 -3 10q-3 5 -10 5h-77q-7 0 -12 4.5t-5 12.5t5 13t12 5h86q11 0 13 11l25 178q1 6 6 10.5t11 4.5q7 0 13 -6t4 -14l-23 -170q-2 -5 3 -10q3 -4 9 -4h126q11 0 13 11l25 178q1 6 6 10.5t12 4.5q5 0 13 -6q4 -5 4 -14l-24 -170q-2 -5 3 -10q3 -4 10 -4h69
q8 0 12.5 -5t4.5 -13q0 -17 -17 -17h-78q-11 0 -13 -12l-18 -130q-1 -4 3 -10q3 -4 10 -4h70q8 0 12.5 -5t4.5 -13q0 -17 -17 -17h-79zM415 407q1 6 -3 10q-3 5 -9 5h-127q-10 0 -12 -12l-18 -130q-2 -5 3 -10q3 -4 9 -4h127q10 0 12 11z" />
    <glyph glyph-name="uni002E" unicode="." horiz-adv-x="216" 
d="M145 16q-18 -16 -38 -16q-21 0 -36.5 16t-15.5 37q0 20 15.5 36.5t36.5 16.5t37.5 -16t16.5 -37q0 -19 -16 -37z" />
    <glyph glyph-name="uni003F" unicode="?" horiz-adv-x="582" 
d="M483 521q0 -57 -24 -93t-62 -71l-33 -30q-9 -9 -16 -18t-13 -20q-7 -11 -13 -23.5t-9 -27.5q-4 -12 -6 -25t-2 -27q-1 -9 -7 -14.5t-14 -5.5q-9 0 -15 6.5t-5 15.5q3 51 24 99q12 22 27 42l16 17.5l17 17.5q17 15 33.5 32.5t30 36.5t21.5 41t9 47q0 34 -12.5 59t-33.5 41
t-48.5 24t-57.5 8q-42 0 -72 -13t-51 -35.5t-32.5 -53.5t-14.5 -68q0 -8 -6 -13t-14 -5q-10 0 -15.5 6.5t-5.5 15.5q7 98 62 152.5t152 54.5q41 0 76 -11.5t60 -33.5t39 -54t15 -74zM285 0q-24 0 -40.5 16.5t-16.5 40.5q0 23 16.5 40t40.5 17t40.5 -17t16.5 -40
q0 -24 -16.5 -40.5t-40.5 -16.5z" />
    <glyph glyph-name="uni00BF" unicode="&#xbf;" horiz-adv-x="573" 
d="M101 -10q0 28 6 50t17 40t26.5 35l33.5 35q31 26 51.5 51t30.5 64q4 11 5.5 23.5t2.5 27.5q1 8 6.5 13t13.5 5t14 -6t6 -15q-2 -25 -7 -49.5t-17 -46.5q-10 -21 -25.5 -40t-32.5 -34l-33 -33q-24 -26 -41 -54.5t-17 -65.5q0 -33 12 -57.5t32 -40t46.5 -23t56.5 -7.5
q77 0 119 46t46 119q1 8 6.5 13t13.5 5t14 -6.5t6 -14.5q-8 -96 -60.5 -149t-147.5 -53q-40 0 -73.5 11t-58 32.5t-38.5 53t-14 71.5zM293 496q23 0 39.5 -16t16.5 -39t-16.5 -39.5t-39.5 -16.5t-39 16.5t-16 39.5t16 39t39 16z" />
    <glyph glyph-name="uni0022" unicode="&#x22;" horiz-adv-x="459" 
d="M194 648q6 -7 6 -17t-7 -18l-95 -98q-4 -5 -11 -5q-10 0 -14 9.5t3 16.5l81 104q10 12 25 12q6 0 12 -4zM288 648q6 -7 6 -17t-7 -18l-95 -98q-3 -5 -11 -5q-10 0 -14 9.5t3 16.5l81 104q10 12 25 12q7 0 12 -4z" />
    <glyph glyph-name="uni0027" unicode="'" horiz-adv-x="245" 
d="M180 683q6 -7 6 -17t-7 -18l-95 -98q-3 -5 -11 -5q-9 0 -13 9.5t2 16.5l81 104q11 12 25 12q7 0 12 -4z" />
    <glyph glyph-name="uni003B" unicode=";" horiz-adv-x="303" 
d="M142 435q-21 0 -36.5 16t-15.5 37q0 20 15.5 36.5t36.5 16.5t37 -16t16 -37q0 -22 -16 -37.5t-37 -15.5zM181 185q6 -8 6 -18t-7 -17l-95 -98q-3 -5 -11 -5q-10 0 -14 9t3 17l81 104q10 12 25 12q7 0 12 -4z" />
    <glyph glyph-name="uni002F" unicode="/" 
d="M419 680q6 -7 2 -18l-280 -659q-5 -12 -19 -12q-10 0 -16 9q-6 7 -2 18l280 659q5 12 19 12q10 0 16 -9z" />
    <glyph glyph-name="uni005F" unicode="_" horiz-adv-x="734" 
d="M163 -25q-11 0 -18 7t-7 18t7 18t18 7h418q11 0 18 -7t7 -18t-7 -18t-18 -7h-418z" />
    <glyph glyph-name="uni007B" unicode="{" horiz-adv-x="431" 
d="M144 334q-3 2 -11 6q-16 5 -16 21v3q0 16 16 21q8 4 11 6q13 11 20.5 28t11.5 36t5 39t1 36v147q0 23 3 43t12 35t25.5 24t42.5 9h31q8 0 13 -5t5 -13q0 -7 -5 -12t-12 -5h-30q-27 0 -36 -20q-10 -22 -10 -73v-145q0 -29 -5 -63t-23 -58q-10 -15 -22 -24l-1 -1
q-5 -3 -4.5 -8.5t5.5 -8.5q12 -7 22 -23q9 -11 14.5 -26t8.5 -31.5t4 -33t1 -29.5v-145q0 -51 10 -73q9 -20 36 -20h30q7 0 12 -5t5 -13t-5 -12.5t-13 -4.5h-31q-26 0 -42.5 9t-25.5 24t-12 35t-3 43v148q0 15 -1 35t-5 39.5t-11.5 36.5t-20.5 28z" />
    <glyph glyph-name="uni007D" unicode="}" horiz-adv-x="431" 
d="M287 392q3 -2 11 -6q16 -5 16 -21v-3q0 -16 -16 -21q-8 -4 -11 -6q-13 -11 -20.5 -28t-11.5 -36t-5 -39t-1 -36v-147q0 -23 -3 -43t-12 -35t-25.5 -24t-42.5 -9h-31q-8 0 -13 5t-5 13q0 7 5 12t12 5h30q27 0 36 20q10 22 10 73v145q0 29 5 63t23 58q10 15 22 24l1 1
q5 3 4.5 8.5t-5.5 8.5q-12 7 -22 23q-9 11 -14.5 26t-8.5 31.5t-4 33t-1 29.5v145q0 51 -10 73q-9 20 -36 20h-30q-7 0 -12 5t-5 13t5 12.5t13 4.5h31q26 0 42.5 -9t25.5 -24t12 -35t3 -43v-148q0 -15 1 -35t5 -39.5t11.5 -36.5t20.5 -28z" />
    <glyph glyph-name="uni005B" unicode="[" horiz-adv-x="388" 
d="M168 -63q-8 0 -13 4.5t-5 12.5v818q0 7 5 12t13 5h96q7 0 12.5 -5t5.5 -12q0 -8 -5.5 -13t-12.5 -5h-57q-7 0 -12 -5t-5 -12v-748q0 -8 5 -12.5t12 -4.5h57q7 0 12.5 -5.5t5.5 -12.5q0 -8 -5.5 -12.5t-12.5 -4.5h-96z" />
    <glyph glyph-name="uni005D" unicode="]" horiz-adv-x="388" 
d="M133 754q-8 0 -13 5t-5 13q0 7 5 12t13 5h96q8 0 13 -5t5 -12v-818q0 -8 -5 -12.5t-13 -4.5h-96q-8 0 -13 4.5t-5 12.5q0 7 5 12.5t13 5.5h57q7 0 12 4.5t5 12.5v748q0 7 -5 12t-12 5h-57z" />
    <glyph glyph-name="uni0028" unicode="(" horiz-adv-x="388" 
d="M279 -64q-9 0 -14 8q-55 94 -85.5 198t-30.5 214q0 112 31 220t87 205q5 8 14 8h1q9 0 14 -7q4 -10 0 -16q-107 -192 -107 -410q0 -104 26 -205t78 -191q4 -8 0 -16t-14 -8z" />
    <glyph glyph-name="uni0029" unicode=")" horiz-adv-x="388" 
d="M104 -64q-9 0 -14 8t0 16q107 191 107 410q0 105 -26 204.5t-78 191.5q-3 8 0 15q5 8 14 8t14 -7q55 -94 85.5 -198.5t30.5 -213.5q0 -112 -31 -221t-87 -205q-5 -8 -14 -8h-1z" />
    <glyph glyph-name="uni2014" unicode="&#x2014;" horiz-adv-x="756" 
d="M149 301q0 8 6 14t14 6h428q8 0 14 -6t6 -14q0 -9 -6 -14.5t-14 -5.5h-428q-8 0 -14 5.5t-6 14.5z" />
    <glyph glyph-name="uni2013" unicode="&#x2013;" horiz-adv-x="566" 
d="M52 309q0 8 6 14t14 6h428q8 0 14 -6t6 -14t-6 -14t-14 -6h-428q-8 0 -14 6t-6 14z" />
    <glyph glyph-name="uni002D" unicode="-" horiz-adv-x="476" 
d="M69 299q0 8 6 14t14 6h298q8 0 14 -6t6 -14t-6 -14t-14 -6h-298q-8 0 -14 6t-6 14z" />
    <glyph glyph-name="uni00AD" unicode="&#xad;" horiz-adv-x="250" 
 />
    <glyph glyph-name="uni201E" unicode="&#x201e;" horiz-adv-x="506" 
d="M199 121q6 -8 6 -18t-7 -17l-95 -98q-3 -5 -11 -5q-10 0 -14 9t3 17l81 104q10 12 25 12q7 0 12 -4zM327 121q6 -8 6 -18t-7 -17l-95 -98q-3 -5 -11 -5q-10 0 -14 9t3 17l81 104q10 12 25 12q7 0 12 -4z" />
    <glyph glyph-name="uni201C" unicode="&#x201c;" horiz-adv-x="437" 
d="M271 710l82 -105q7 -8 2.5 -16.5t-14.5 -8.5q-6 0 -11 5l-94 98q-8 8 -7.5 17.5t6.5 16.5q4 5 12 5q15 0 24 -12zM143 710l81 -105q7 -8 3 -16.5t-14 -8.5q-7 0 -12 5l-94 98q-7 8 -7 17.5t6 16.5q5 5 12 5q15 0 25 -12z" />
    <glyph glyph-name="uni201D" unicode="&#x201d;" horiz-adv-x="402" 
d="M202 718q6 -7 6 -17t-7 -17l-94 -99q-5 -5 -12 -5q-10 0 -14 9t3 17l81 105q11 11 25 11q7 0 12 -4zM296 718q6 -7 6.5 -17t-7.5 -17l-94 -99q-5 -5 -11 -5q-10 0 -14.5 9t2.5 17l82 105q9 11 24 11q8 0 12 -4z" />
    <glyph glyph-name="uni2018" unicode="&#x2018;" horiz-adv-x="273" 
d="M203 653q7 -7 7 -17t-8 -17l-94 -98q-5 -5 -11 -5q-10 0 -14 8.5t2 16.5l82 105q9 12 24 12q8 0 12 -5z" />
    <glyph glyph-name="uni2019" unicode="&#x2019;" horiz-adv-x="268" 
d="M188 647q6 -7 6 -16.5t-7 -17.5l-94 -98q-5 -5 -12 -5q-10 0 -14 8.5t3 16.5l81 105q10 12 25 12q7 0 12 -5z" />
    <glyph glyph-name="uni201A" unicode="&#x201a;" horiz-adv-x="280" 
d="M180 132q6 -7 6 -16.5t-7 -17.5l-94 -98q-5 -5 -12 -5q-10 0 -14 9t3 16l81 105q10 12 25 12q7 0 12 -5z" />
    <glyph glyph-name="uni05F3" unicode="&#x5f3;" horiz-adv-x="268" 
d="M200 538q6 -7 6 -16.5t-7 -17.5l-94 -98q-5 -5 -12 -5q-10 0 -14 8.5t3 16.5l81 105q10 12 25 12q7 0 12 -5z" />
    <glyph glyph-name="uni05F4" unicode="&#x5f4;" horiz-adv-x="494" 
d="M234 539q6 -8 6 -18t-7 -17l-95 -98q-3 -5 -11 -5q-9 0 -13 9t2 17l81 104q11 12 25 12q7 0 12 -4zM348 539q6 -8 6 -18t-7 -17l-95 -98q-3 -5 -11 -5q-9 0 -13 9t2 17l81 104q11 12 25 12q7 0 12 -4z" />
    <glyph glyph-name="uni05BE" unicode="&#x5be;" horiz-adv-x="402" 
d="M113 473q-8 0 -13.5 5.5t-5.5 14.5q0 8 5.5 14t13.5 6h164q8 0 13.5 -6t5.5 -14q0 -9 -5.5 -14.5t-13.5 -5.5h-164z" />
    <glyph glyph-name="uni00A0" unicode="&#xa0;" horiz-adv-x="340" 
 />
    <glyph glyph-name="uni00A2" unicode="&#xa2;" horiz-adv-x="600" 
d="M504 169q-15 -67 -59 -110t-113 -51q-11 -2 -11 -13v-70q0 -7 -5 -12t-12 -5t-12 5t-5 12v70q0 5 -3.5 8.5t-7.5 3.5q-52 5 -89 28.5t-60 58.5t-34 79t-11 90t12.5 88t37 75.5t60.5 55t84 26.5q11 2 11 13v54q0 7 5 12t12 5t12 -5t5 -12v-54q0 -5 3.5 -8.5t8.5 -3.5
q66 -7 109.5 -42t57.5 -100q0 -8 -4 -14t-13 -6h-5q-15 0 -17 14q-8 51 -43 78t-83 34q-6 0 -10 -3.5t-4 -9.5v-404q0 -8 4.5 -10t10.5 -2q51 10 85 46t44 86q2 14 17 14h5q8 0 13 -7t4 -14zM287 460q0 4 -4 10q-5 3 -9 3q-38 -7 -66.5 -27t-47.5 -49t-28.5 -63.5
t-9.5 -70.5q0 -38 8 -75.5t26 -67.5t46.5 -50.5t70.5 -26.5q4 -1 10 3q4 4 4 9v405z" />
    <glyph glyph-name="uni0024" unicode="$" horiz-adv-x="673" 
d="M569 191q0 -45 -17 -84.5t-45.5 -69.5t-67.5 -48t-84 -20v-63q0 -6 -5.5 -11.5t-12.5 -5.5q-8 0 -13 5.5t-5 11.5v65q-36 4 -70 21t-59 42q-4 5 -5 10q-2 4 -1.5 9t4.5 9q5 5 11 5q5 0 11 -4q2 -1 5 -4q23 -23 48 -34.5t56 -18.5v374q-8 2 -14.5 4l-13.5 4q-43 18 -69 56
t-26 84q0 30 12 57q6 16 17.5 31.5t26.5 28.5t32 21.5t35 9.5v62q0 7 5 12t13 5q7 0 12.5 -5t5.5 -12v-59q28 -1 53.5 -12.5t45.5 -31.5q4 -4 6 -9q1 -4 0.5 -8.5t-5.5 -9.5t-11 -5q-5 0 -11 4q-2 1 -4 3q-32 32 -74 33v-230q19 0 38.5 -4.5t37.5 -11.5q63 -27 100.5 -81
t37.5 -125zM319 415v229q-6 0 -20.5 -5.5t-29.5 -18.5t-26.5 -33.5t-11.5 -49.5q0 -34 10.5 -57.5t25 -38t29.5 -20.5t23 -6zM370 6q5 1 31 8.5t55.5 28t53 56t23.5 91.5q0 57 -23.5 93t-52.5 56.5t-55.5 28.5t-31.5 8q-4 0 -7.5 0.5t-7.5 0.5v-373q4 1 7.5 1.5t7.5 0.5z
" />
    <glyph glyph-name="uni20AC" unicode="&#x20ac;" horiz-adv-x="789" 
d="M617 567q-5 -8 -13 -8t-13 8q-17 27 -35.5 42.5t-39.5 23t-46 9t-54 1.5q-14 -1 -34 -6q-28 -9 -47 -20.5t-33 -26.5t-24.5 -34.5t-20.5 -44.5q-8 -21 -13 -46q-2 -7 -3 -13.5l-2 -12.5q-1 -7 3.5 -12t11.5 -5h268q8 0 12.5 -6.5t1.5 -14.5l-1 -1q-4 -9 -13 -9h-273
q-10 0 -13 -7.5t-3 -15.5v-23v-22q1 -21 16 -21h225q8 0 12.5 -6.5t1.5 -14.5l-1 -1q-3 -8 -13 -8h-219q-7 0 -11.5 -5t-2.5 -12q3 -34 16 -70t34.5 -66t51.5 -50.5t68 -23.5q10 -1 18.5 -1.5t16.5 -0.5q21 0 45 3q24 5 43.5 12t39.5 21l7.5 5.5l7.5 5.5q4 4 10 4t10.5 -4
t4.5 -11q0 -11 -14.5 -21t-34 -19t-39 -14.5t-29.5 -7.5q-15 -2 -28.5 -3.5t-26.5 -1.5q-56 0 -98.5 20t-71.5 53.5t-46 78.5t-23 95q-2 13 -15 13h-24q-8 0 -12.5 7t-0.5 14q3 9 14 9h18q7 0 11.5 4.5t3.5 11.5q-2 30 0 57q1 7 -3.5 11.5t-11.5 4.5h-19q-8 0 -12.5 7
t-0.5 14v1q3 9 14 9h23q13 0 15 13q3 39 15.5 75t32.5 69q8 12 17 22.5t21 19.5q19 18 43 29q19 11 42 16q16 5 33.5 6.5t34.5 1.5q50 0 83 -11t69 -44q14 -15 24 -37q3 -6 0 -14z" />
    <glyph glyph-name="uni00A3" unicode="&#xa3;" horiz-adv-x="725" 
d="M176 346h15q9 0 13.5 7t0.5 15q-19 35 -31.5 67.5t-12.5 73.5t17 77q29 53 82 77t111 24q107 0 162.5 -53t55.5 -161q0 -6 -4 -10.5t-11 -4.5h-5q-6 0 -10.5 4t-4.5 10q-5 89 -47.5 134.5t-134.5 45.5q-34 0 -65.5 -8t-56.5 -25t-39.5 -43.5t-14.5 -64.5q0 -24 5.5 -46.5
t15.5 -43.5l9.5 -19.5t10.5 -19.5l8 -14t7 -14q5 -8 14 -8h124q6 0 10.5 -4.5t4.5 -11.5q0 -6 -4.5 -10.5t-10.5 -4.5h-92q-8 0 -12.5 -6.5t-1.5 -13.5q1 -5 2.5 -9.5t2.5 -9.5q6 -26 6 -61q0 -28 -7 -52q-15 -42 -34 -69t-50 -56l1 -2q23 15 42 23q20 10 46 10q28 0 52 -6
q11 -4 22 -7.5t22 -7.5q10 -4 20.5 -7.5t21.5 -6.5q19 -6 42 -6q37 0 61.5 14.5t51.5 37.5q6 4 10 4q6 0 12 -7l4 -6q7 -10 -2 -19q-27 -26 -60 -42.5t-71 -16.5q-31 0 -53 7q-12 3 -24 6.5t-23 7.5q-12 4 -23 7l-21 6q-21 7 -45 7q-31 0 -53 -9.5t-47 -24.5q-4 -2 -7 -2
q-9 0 -13 6l-7 10q-7 11 2 20l33.5 35t28.5 40q33 49 33 108q0 7 -2 23t-6 32.5t-11 29.5t-16 13h-49q-6 0 -10.5 4.5t-4.5 10.5q0 7 4.5 11.5t10.5 4.5z" />
    <glyph glyph-name="uni2215" unicode="&#x2215;" 
d="M419 680q6 -7 2 -18l-280 -659q-5 -12 -19 -12q-10 0 -16 9q-6 7 -2 18l280 659q5 12 19 12q10 0 16 -9z" />
    <glyph glyph-name="uni002B" unicode="+" horiz-adv-x="605" 
d="M303 543q8 0 14 -6t6 -14v-176q0 -8 5.5 -14t14.5 -6h176q8 0 14 -6t6 -14t-6 -14t-14 -6h-176q-9 0 -14.5 -6t-5.5 -14v-176q0 -8 -6 -14t-14 -6q-9 0 -14.5 6t-5.5 14v176q0 8 -6 14t-14 6h-176q-9 0 -14.5 6t-5.5 14t5.5 14t14.5 6h176q8 0 14 6t6 14v176q0 8 5.5 14
t14.5 6z" />
    <glyph glyph-name="uni2212" unicode="&#x2212;" horiz-adv-x="645" 
d="M86 303q0 8 6 14t14 6h429q8 0 14 -6t6 -14q0 -9 -6 -14.5t-14 -5.5h-429q-8 0 -14 5.5t-6 14.5z" />
    <glyph glyph-name="uni00D7" unicode="&#xd7;" horiz-adv-x="606" 
d="M469 498q6 -6 6 -14.5t-6 -13.5l-125 -125q-6 -6 -6 -14t6 -14l125 -125q14 -14 0 -28q-6 -6 -14 -6t-14 6l-125 125q-6 6 -14 6t-14 -6l-125 -125q-6 -6 -14 -6t-14 6t-6 14.5t6 13.5l125 125q6 6 6 14t-6 14l-125 125q-6 5 -6 13.5t6 14.5t14 6t14 -6l125 -125
q6 -6 14 -6t14 6l125 125q6 6 14 6t14 -6z" />
    <glyph glyph-name="uni00F7" unicode="&#xf7;" horiz-adv-x="552" 
d="M276 455q-20 0 -34.5 14.5t-14.5 34.5q0 21 14 36t35 15t36 -15q15 -13 15 -36q0 -20 -15 -35q-15 -14 -36 -14zM492 339q9 0 14 -6t5 -14t-5 -14t-14 -6h-433q-8 0 -13.5 6t-5.5 14t5.5 14t13.5 6h433zM276 83q-20 0 -34.5 14.5t-14.5 35.5t14.5 35.5t34.5 14.5
q21 0 36 -14q15 -15 15 -36t-15 -35q-15 -15 -36 -15z" />
    <glyph glyph-name="uni003D" unicode="=" horiz-adv-x="566" 
d="M499 419q8 0 14 -6t6 -14t-6 -14t-14 -6h-432q-8 0 -14 6t-6 14t6 14t14 6h432zM499 239q8 0 14 -6t6 -14t-6 -14t-14 -6h-432q-8 0 -14 6t-6 14t6 14t14 6h432z" />
    <glyph glyph-name="uni2260" unicode="&#x2260;" horiz-adv-x="549" 
d="M413 548q8 -5 10 -12.5t-3 -14.5l-38 -63q-6 -10 -0.5 -19.5t16.5 -9.5h93q8 0 13.5 -5.5t5.5 -13.5v-2q0 -8 -5.5 -13.5t-13.5 -5.5h-140q-11 0 -17 -9l-62 -102q-6 -10 0 -19.5t17 -9.5h202q8 0 13.5 -5.5t5.5 -13.5v-2q0 -8 -5.5 -13.5t-13.5 -5.5h-250q-11 0 -16 -9
l-63 -103q-6 -9 -17 -9q-3 0 -9 2v1q-8 4 -10 11.5t3 14.5l38 63q5 10 -0.5 19.5t-16.5 9.5h-92q-8 0 -13.5 5.5t-5.5 13.5v2q0 8 5.5 13.5t13.5 5.5h140q10 0 16 9l63 102q5 10 -0.5 19.5t-16.5 9.5h-202q-8 0 -13.5 5.5t-5.5 13.5v2q0 8 5.5 13.5t13.5 5.5h250q12 0 16 9
l63 103q6 9 17 9q3 0 9 -2z" />
    <glyph glyph-name="uni003E" unicode="&#x3e;" horiz-adv-x="519" 
d="M461 385q11 -4 11 -17v-27q0 -11 -11 -18l-385 -199q-6 -2 -9 -2q-8 0 -14 5.5t-6 13.5q0 12 11 18l343 178q11 6 11 17.5t-11 17.5l-343 179q-11 7 -11 18q0 9 6 14t14 5q3 0 9 -2z" />
    <glyph glyph-name="uni003C" unicode="&#x3c;" horiz-adv-x="519" 
d="M58 289q-11 5 -11 17v27q0 12 11 18l385 199q6 2 9 2q8 0 14 -5.5t6 -13.5q0 -12 -11 -18l-343 -178q-11 -5 -11 -17t11 -18l343 -179q11 -6 11 -18q0 -8 -6 -13.5t-14 -5.5q-3 0 -9 2z" />
    <glyph glyph-name="uni00AC" unicode="&#xac;" horiz-adv-x="570" 
d="M489 341q8 0 14 -5.5t6 -14.5v-206q0 -8 -6 -14t-14 -6t-14 6t-6 14v171q0 7 -4.5 11.5t-10.5 4.5h-397q-8 0 -14 5.5t-6 13.5q0 9 6 14.5t14 5.5h432z" />
    <glyph glyph-name="uni221E" unicode="&#x221e;" horiz-adv-x="747" 
d="M199 148q-25 0 -47 8t-39 27q-18 16 -25.5 40t-7.5 48t8 48q9 21 24 39t37 27q20 10 47 10q39 0 75.5 -21.5t64.5 -47.5l19.5 -17t17.5 -16q18 15 36 33q29 25 64 47t75 22q37 0 67.5 -19.5t42.5 -54.5q9 -22 9 -49q0 -55 -31.5 -90t-87.5 -35q-29 0 -52 10
q-24 9 -45.5 24t-40.5 33l-18.5 16.5l-18.5 16.5l-18.5 -16.5l-18.5 -16.5q-29 -27 -62.5 -46.5t-74.5 -19.5zM199 183q22 0 43 8.5t39 21.5q10 6 19 13.5l18 15.5l15.5 14l15.5 14l-33 27q-35 32 -79 54q-21 9 -43 9q-38 0 -58.5 -26.5t-20.5 -62.5q0 -40 22 -63
q21 -25 62 -25zM548 182q41 0 62.5 24.5t21.5 64.5q0 38 -21 63.5t-61 25.5q-20 0 -41 -9q-22 -11 -42 -24t-38 -30l-32 -27l16 -14l16 -14q16 -16 37 -29q20 -15 40 -22q20 -9 42 -9z" />
    <glyph glyph-name="uni0025" unicode="%" horiz-adv-x="779" 
d="M628 718q6 -4 8 -11t-2 -13l-427 -681q-6 -8 -15 -8q-5 0 -10 3q-6 4 -8 11t2 13l427 681q7 8 15 8q6 0 10 -3zM568 25q-36 0 -61 14t-40.5 37t-22.5 52.5t-7 61.5t7 61.5t22.5 52.5t40.5 37t61 14q37 0 62 -13.5t40.5 -36.5t22.5 -53t7 -62t-6.5 -62t-22 -53t-41 -36.5
t-62.5 -13.5zM568 321q-28 0 -47 -11.5t-30 -30t-15.5 -42t-4.5 -47.5q0 -62 24 -95q23 -36 73 -36q51 0 74 36q24 33 24 95q0 25 -4.5 48.5t-15.5 42t-30 29.5t-48 11zM234 355q-36 0 -61 14t-40.5 37t-22.5 52.5t-7 61.5t7 62t22.5 53t40.5 37t61 14q37 0 62 -14t40.5 -37
t22.5 -53t7 -62t-7 -62t-22.5 -52.5t-40.5 -36.5t-62 -14zM234 651q-29 0 -47.5 -11t-29.5 -29.5t-15.5 -42t-4.5 -48.5q0 -24 4.5 -47.5t15.5 -42t30 -30t47 -11.5q29 0 48 11.5t29.5 30t15 42t4.5 47.5q0 25 -4 48.5t-15 42t-30 29.5t-48 11z" />
    <glyph glyph-name="uni0040" unicode="@" horiz-adv-x="846" 
d="M513 262q-3 -7 -5 -14.5t-5 -15.5q-5 -16 -5 -25q0 -12 10 -21q11 -8 24 -8q35 0 65.5 24t52.5 59.5t34.5 76t12.5 72.5q0 56 -23.5 102.5t-61.5 80t-88 52t-102 18.5q-65 0 -121 -26t-97.5 -70t-65 -101.5t-23.5 -120.5t24.5 -119t67 -98.5t98.5 -67.5t119 -25
q76 0 139 35.5t108 95.5q6 10 17 8q12 0 17 -10.5t-2 -20.5q-22 -33 -53.5 -59.5t-68.5 -45t-77.5 -28.5t-79.5 -10q-75 0 -139 28t-110.5 75.5t-73 111.5t-26.5 137q0 71 27.5 134t74.5 110t109.5 74.5t133.5 27.5q64 0 121.5 -21t101 -59t69 -91.5t25.5 -119.5
q0 -36 -10.5 -72t-28.5 -68.5t-44 -59.5t-57 -46q-39 -23 -75 -23q-22 0 -37 11.5t-23 30.5q-2 8 -10 8q-6 0 -8 -4q-21 -23 -49.5 -34.5t-59.5 -11.5q-27 0 -50 11q-36 19 -53.5 55t-17.5 75q0 46 15 95t44 90t70 67.5t92 26.5q29 0 54.5 -13.5t39.5 -40.5q4 -6 10 -6
q8 0 10 8l6 18q5 15 21 15q10 0 16 -7.5t3 -17.5zM429 523q-39 0 -71.5 -24t-55.5 -60t-36 -78t-13 -77q0 -52 27 -81q25 -30 67 -30q25 0 54 21q23 15 43 41t35 57t24 64t9 60q0 6 -1 14t-1 17q-3 19 -11.5 36.5t-24.5 27.5q-17 12 -45 12z" />
    <glyph glyph-name="uni0026" unicode="&#x26;" horiz-adv-x="747" 
d="M554 155q-4 -12 4 -20l74 -93q8 -10 2.5 -21.5t-18.5 -11.5q-9 0 -16 7l-55 68q-7 8 -16 8t-17 -8q-32 -42 -76.5 -64t-96.5 -22q-42 0 -78.5 10.5t-63 32t-42 53.5t-15.5 75q0 36 13 65t34.5 52.5t49 42.5t55.5 35q7 6 9 15t-4 16q-28 33 -51.5 70.5t-23.5 82.5
q0 28 13 49.5t33.5 36.5t46 22.5t50.5 7.5q28 0 50.5 -7t46.5 -22q43 -33 43 -87q0 -37 -13 -62q-13 -28 -32.5 -47.5t-43.5 -38.5l-15.5 -9.5t-13.5 -10.5q-8 -5 -9 -14t5 -16l115 -143q7 -7 16 -7q6 0 12 4t8 11q3 13 5 25.5l4 24.5q0 9 5.5 14t13.5 5q9 0 14.5 -6.5
t4.5 -15.5q-4 -27 -10 -54.5t-17 -52.5zM293 464q6 -9 13 -18t15 -18q3 -3 6.5 -7.5t7.5 -8.5q5 -8 16 -8q6 0 12 3l11 8.5t12 7.5q31 23 55 54t24 71q0 19 -9.5 34.5t-24 25.5t-32.5 15.5t-35 5.5q-39 0 -70 -22q-14 -12 -23 -25.5t-9 -33.5q0 -25 9 -44t22 -40zM339 33
q46 0 87 24.5t66 62.5q10 17 1 28l-149 185q-7 8 -16 8q-5 0 -11 -3l-18.5 -11.5l-17.5 -11.5q-20 -13 -38.5 -28t-32.5 -32.5t-22 -38.5t-8 -47q0 -33 12 -56.5t37 -44.5q24 -17 52 -26t58 -9z" />
    <glyph glyph-name="uni00B0" unicode="&#xb0;" horiz-adv-x="413" 
d="M207 398q-30 0 -55.5 11t-45 30t-30.5 45t-11 55t11 55t30.5 45t45 30t55.5 11q28 0 54 -11t45 -30t30.5 -45t11.5 -55t-11.5 -55t-30.5 -45t-45 -30t-54 -11zM207 644q-23 0 -42 -8t-33.5 -22.5t-22.5 -33.5t-8 -41t8 -41t22.5 -33t33.5 -22.5t42 -8.5q21 0 40.5 8.5
t33.5 22.5t22.5 33t8.5 41t-8.5 41t-22.5 33.5t-33.5 22.5t-40.5 8z" />
    <glyph glyph-name="uni007C" unicode="|" horiz-adv-x="268" 
d="M138 810q8 0 14 -6t6 -14v-892q0 -8 -6 -14t-14 -6t-14 6t-6 14v892q0 8 6 14t14 6z" />
    <glyph glyph-name="uni0300" unicode="&#x300;" horiz-adv-x="0" 
d="M-267 744q3 5 12 5q15 0 24 -12l82 -105q6 -8 1.5 -16.5t-13.5 -8.5q-6 0 -11 5l-94 98q-8 7 -8 17t7 17z" />
    <glyph glyph-name="uni0301" unicode="&#x301;" horiz-adv-x="0" 
d="M-145 744q7 -7 7 -17t-8 -17l-94 -98q-5 -5 -11 -5q-10 0 -14 8.5t2 16.5l82 105q9 12 24 12q8 0 12 -5z" />
    <glyph glyph-name="uni030B" unicode="&#x30b;" horiz-adv-x="0" 
d="M-286 740q6 -7 6 -17t-7 -18l-95 -98q-3 -5 -11 -5q-10 0 -14 9.5t3 16.5l81 104q10 12 25 12q7 0 12 -4zM-172 740q6 -7 6 -17t-7 -18l-95 -98q-3 -5 -11 -5q-10 0 -14 9.5t3 16.5l81 104q10 12 25 12q7 0 12 -4z" />
    <glyph glyph-name="uni0303" unicode="&#x303;" horiz-adv-x="0" 
d="M-115 711q16 0 16 -16q0 -36 -21.5 -56t-56.5 -20q-30 0 -45.5 12.5t-26.5 25.5q-11 11 -19 17.5t-21 6.5q-47 0 -47 -45q0 -6 -4.5 -10.5t-10.5 -4.5q-7 0 -11.5 4.5t-4.5 10.5q0 36 20.5 56t57.5 20q25 0 39 -11.5t24 -22.5q10 -12 20 -19.5t29 -7.5q46 0 46 44
q0 16 16 16z" />
    <glyph glyph-name="uni0326" unicode="&#x326;" horiz-adv-x="0" 
d="M-108 -76q6 -7 6 -16.5t-7 -17.5l-95 -98q-3 -5 -11 -5q-10 0 -14 8.5t3 16.5l81 105q10 12 25 12q7 0 12 -5z" />
    <glyph glyph-name="uni02BC" unicode="&#x2bc;" horiz-adv-x="185" 
d="M143 772q7 -7 7 -17t-8 -17l-94 -98q-5 -5 -11 -5q-10 0 -14 8.5t2 16.5l82 105q9 12 24 12q8 0 12 -5z" />
    <glyph glyph-name="uni00B4" unicode="&#xb4;" horiz-adv-x="404" 
d="M259 736q6 -7 6 -17t-7 -17l-94 -98q-5 -5 -11 -5q-10 0 -14 8.5t2 16.5l82 105q8 12 24 12q8 0 12 -5z" />
    <glyph glyph-name="uni00A8" unicode="&#xa8;" horiz-adv-x="465" 
d="M323 634q-21 0 -36.5 16.5t-15.5 36.5q0 21 15.5 37t36.5 16q22 0 37.5 -15.5t15.5 -37.5q0 -21 -16 -37t-37 -16zM138 634q-21 0 -36.5 16.5t-15.5 36.5q0 21 15.5 37t36.5 16t37 -15.5t16 -37.5q0 -21 -16 -37t-37 -16z" />
    <glyph glyph-name="uni02D9" unicode="&#x2d9;" horiz-adv-x="262" 
d="M131 628q-21 0 -36.5 16t-15.5 37q0 20 15.5 36.5t36.5 16.5q22 0 37.5 -16t15.5 -37q0 -22 -16 -37.5t-37 -15.5z" />
    <glyph glyph-name="uni0060" unicode="`" horiz-adv-x="404" 
d="M148 744q4 5 12 5q15 0 24 -12l82 -105q6 -8 2 -16.5t-14 -8.5q-6 0 -11 5l-94 98q-8 7 -8 17t7 17z" />
    <glyph glyph-name="uni02DD" unicode="&#x2dd;" horiz-adv-x="553" 
d="M242 738q6 -8 6 -18t-7 -17l-95 -98q-3 -5 -11 -5q-9 0 -13 9t2 17l81 104q11 12 25 12q7 0 12 -4zM356 738q6 -8 6 -18t-7 -17l-95 -98q-3 -5 -11 -5q-9 0 -13 9t2 17l81 104q11 12 25 12q7 0 12 -4z" />
    <glyph glyph-name="uni02DC" unicode="&#x2dc;" horiz-adv-x="464" 
d="M357 711q16 0 16 -16q0 -36 -21 -56t-57 -20q-29 0 -45 12.5t-27 25.5q-11 11 -18.5 17.5t-21.5 6.5q-47 0 -47 -45q0 -6 -4.5 -10.5t-10.5 -4.5q-7 0 -11.5 4.5t-4.5 10.5q0 36 21 56t57 20q25 0 39 -11.5t24 -22.5q11 -12 20.5 -19.5t28.5 -7.5q46 0 46 44q0 16 16 16z
" />
    <glyph glyph-name="uni00D1" unicode="&#xd1;" horiz-adv-x="641" 
d="M468 836q6 0 10.5 -4.5t4.5 -11.5q0 -32 -18 -52q-20 -24 -60 -24q-29 0 -45 13t-27 25q-10 12 -18.5 18t-20.5 6q-47 0 -47 -45q0 -6 -5 -10.5t-11 -4.5q-7 0 -11.5 4.5t-4.5 10.5q0 37 21 56.5t58 19.5q24 0 38 -11t25 -23q9 -11 19 -19t29 -8q47 0 47 44q0 16 16 16z
M571 673v-651q0 -9 -6.5 -15.5t-15.5 -6.5q-14 0 -21 14l-264 555q-3 7 -10 7q-11 0 -11 -12v-510q0 -23 -15.5 -38.5t-38.5 -15.5h-65q-23 0 -38.5 15.5t-15.5 38.5v583q0 23 15.5 38.5t38.5 15.5h85q17 0 30.5 -8.5t20.5 -23.5l255 -537q4 -7 10 -7q11 0 11 12l1 546
q0 7 4.5 12t12.5 5q7 0 12 -5t5 -12z" />
    </font>
</defs>
</svg>
